<?xml version="1.0" encoding="UTF-8"?>
<svg xmlns="http://www.w3.org/2000/svg" version="1.1" width="300" height="300" viewBox="0 0 300 300"><rect x="0" y="0" width="300" height="300" fill="#ffffff"/><g transform="scale(4.615)"><g transform="translate(0,0)"><path fill-rule="evenodd" d="M8 0L8 1L9 1L9 2L10 2L10 0ZM11 0L11 3L9 3L9 4L10 4L10 5L11 5L11 6L10 6L10 8L9 8L9 6L8 6L8 8L9 8L9 11L8 11L8 10L6 10L6 11L8 11L8 12L9 12L9 13L8 13L8 14L6 14L6 15L7 15L7 16L5 16L5 14L3 14L3 13L1 13L1 14L0 14L0 15L1 15L1 16L0 16L0 17L1 17L1 18L0 18L0 22L1 22L1 23L0 23L0 24L5 24L5 21L4 21L4 23L2 23L2 20L4 20L4 19L5 19L5 20L6 20L6 21L7 21L7 20L8 20L8 22L9 22L9 21L12 21L12 22L11 22L11 24L8 24L8 23L7 23L7 22L6 22L6 23L7 23L7 24L6 24L6 25L4 25L4 26L5 26L5 27L3 27L3 28L5 28L5 30L4 30L4 29L2 29L2 32L0 32L0 33L1 33L1 34L2 34L2 32L4 32L4 36L6 36L6 37L3 37L3 38L2 38L2 36L0 36L0 38L2 38L2 39L1 39L1 40L0 40L0 44L1 44L1 45L0 45L0 46L3 46L3 47L2 47L2 48L0 48L0 49L2 49L2 51L1 51L1 50L0 50L0 51L1 51L1 52L4 52L4 51L7 51L7 52L5 52L5 53L3 53L3 54L2 54L2 55L3 55L3 56L1 56L1 55L0 55L0 56L1 56L1 57L3 57L3 56L4 56L4 57L5 57L5 56L4 56L4 54L5 54L5 55L7 55L7 56L6 56L6 57L8 57L8 58L9 58L9 60L8 60L8 62L10 62L10 61L11 61L11 60L12 60L12 62L11 62L11 64L12 64L12 65L13 65L13 64L14 64L14 65L15 65L15 63L14 63L14 62L15 62L15 60L16 60L16 61L17 61L17 62L16 62L16 65L19 65L19 62L21 62L21 63L20 63L20 64L21 64L21 65L22 65L22 64L21 64L21 63L22 63L22 62L23 62L23 63L24 63L24 64L25 64L25 65L29 65L29 64L30 64L30 65L32 65L32 64L33 64L33 65L34 65L34 62L35 62L35 58L36 58L36 59L37 59L37 58L39 58L39 59L40 59L40 58L39 58L39 57L38 57L38 56L39 56L39 55L38 55L38 54L37 54L37 52L35 52L35 53L34 53L34 52L33 52L33 51L32 51L32 50L34 50L34 51L35 51L35 49L36 49L36 51L42 51L42 52L41 52L41 53L40 53L40 52L39 52L39 54L40 54L40 57L41 57L41 55L42 55L42 54L43 54L43 56L44 56L44 55L45 55L45 54L43 54L43 53L45 53L45 52L43 52L43 51L44 51L44 49L45 49L45 50L46 50L46 49L45 49L45 47L46 47L46 48L47 48L47 49L49 49L49 50L50 50L50 51L49 51L49 52L48 52L48 53L46 53L46 54L48 54L48 55L47 55L47 57L46 57L46 56L45 56L45 58L47 58L47 59L46 59L46 60L45 60L45 59L44 59L44 57L42 57L42 58L41 58L41 59L42 59L42 60L38 60L38 62L36 62L36 63L35 63L35 65L37 65L37 64L38 64L38 63L39 63L39 61L41 61L41 62L43 62L43 63L44 63L44 62L43 62L43 61L45 61L45 62L46 62L46 60L47 60L47 62L48 62L48 63L49 63L49 60L47 60L47 59L49 59L49 58L51 58L51 60L52 60L52 61L50 61L50 65L52 65L52 64L51 64L51 62L55 62L55 63L53 63L53 64L54 64L54 65L55 65L55 63L56 63L56 61L61 61L61 60L62 60L62 58L64 58L64 55L65 55L65 54L64 54L64 55L63 55L63 54L62 54L62 53L61 53L61 52L63 52L63 51L64 51L64 53L65 53L65 47L63 47L63 49L60 49L60 47L61 47L61 48L62 48L62 47L61 47L61 46L62 46L62 45L63 45L63 44L64 44L64 46L65 46L65 44L64 44L64 43L65 43L65 42L64 42L64 41L65 41L65 36L63 36L63 37L64 37L64 39L61 39L61 40L64 40L64 41L60 41L60 43L59 43L59 42L58 42L58 40L56 40L56 38L58 38L58 39L59 39L59 40L60 40L60 38L61 38L61 37L57 37L57 36L58 36L58 35L59 35L59 36L62 36L62 33L63 33L63 34L64 34L64 33L63 33L63 30L64 30L64 31L65 31L65 30L64 30L64 27L65 27L65 23L63 23L63 24L64 24L64 25L62 25L62 21L65 21L65 20L64 20L64 19L65 19L65 18L64 18L64 17L65 17L65 16L64 16L64 15L65 15L65 11L64 11L64 14L63 14L63 13L62 13L62 14L63 14L63 15L61 15L61 12L62 12L62 11L61 11L61 12L60 12L60 14L59 14L59 15L61 15L61 16L60 16L60 17L58 17L58 16L57 16L57 15L58 15L58 13L56 13L56 12L55 12L55 11L54 11L54 13L53 13L53 12L52 12L52 10L53 10L53 6L54 6L54 8L56 8L56 9L54 9L54 10L56 10L56 11L57 11L57 12L58 12L58 11L60 11L60 10L62 10L62 9L59 9L59 8L58 8L58 10L57 10L57 6L56 6L56 7L55 7L55 5L51 5L51 4L50 4L50 5L49 5L49 3L50 3L50 2L49 2L49 1L51 1L51 3L52 3L52 4L53 4L53 3L52 3L52 1L53 1L53 0L52 0L52 1L51 1L51 0L49 0L49 1L48 1L48 0L42 0L42 1L44 1L44 2L41 2L41 3L38 3L38 2L37 2L37 3L36 3L36 1L41 1L41 0L36 0L36 1L35 1L35 0L34 0L34 1L33 1L33 0L32 0L32 1L31 1L31 0L30 0L30 1L29 1L29 0L28 0L28 2L27 2L27 0L26 0L26 1L25 1L25 0L24 0L24 1L23 1L23 2L22 2L22 4L23 4L23 6L22 6L22 5L21 5L21 4L19 4L19 2L20 2L20 3L21 3L21 1L22 1L22 0L20 0L20 1L18 1L18 0L17 0L17 1L18 1L18 2L17 2L17 3L18 3L18 7L17 7L17 4L16 4L16 3L15 3L15 1L16 1L16 0ZM55 0L55 1L56 1L56 3L55 3L55 2L54 2L54 4L56 4L56 5L57 5L57 4L56 4L56 3L57 3L57 1L56 1L56 0ZM13 1L13 2L12 2L12 4L11 4L11 5L14 5L14 4L15 4L15 7L14 7L14 6L13 6L13 7L12 7L12 6L11 6L11 7L12 7L12 8L10 8L10 10L11 10L11 12L12 12L12 11L13 11L13 12L14 12L14 11L16 11L16 12L15 12L15 14L14 14L14 13L12 13L12 14L11 14L11 13L9 13L9 14L10 14L10 15L8 15L8 16L7 16L7 17L6 17L6 18L7 18L7 19L6 19L6 20L7 20L7 19L9 19L9 18L13 18L13 19L11 19L11 20L13 20L13 19L16 19L16 20L18 20L18 21L16 21L16 22L17 22L17 23L16 23L16 25L15 25L15 26L14 26L14 25L12 25L12 24L11 24L11 25L10 25L10 26L9 26L9 25L8 25L8 24L7 24L7 25L6 25L6 26L7 26L7 27L6 27L6 28L7 28L7 29L6 29L6 30L7 30L7 29L8 29L8 28L7 28L7 27L8 27L8 26L9 26L9 28L10 28L10 26L11 26L11 25L12 25L12 29L11 29L11 30L10 30L10 32L9 32L9 34L11 34L11 35L9 35L9 37L8 37L8 35L6 35L6 36L7 36L7 37L6 37L6 38L7 38L7 39L6 39L6 40L5 40L5 41L3 41L3 40L2 40L2 41L1 41L1 44L2 44L2 45L4 45L4 44L3 44L3 43L6 43L6 44L8 44L8 45L9 45L9 48L8 48L8 46L7 46L7 45L5 45L5 47L6 47L6 48L8 48L8 49L6 49L6 50L7 50L7 51L8 51L8 52L7 52L7 53L5 53L5 54L7 54L7 53L8 53L8 54L11 54L11 56L10 56L10 55L9 55L9 56L10 56L10 57L11 57L11 58L12 58L12 57L11 57L11 56L13 56L13 57L14 57L14 58L13 58L13 59L12 59L12 60L13 60L13 59L14 59L14 60L15 60L15 59L14 59L14 58L16 58L16 60L17 60L17 61L18 61L18 62L17 62L17 64L18 64L18 62L19 62L19 61L20 61L20 60L21 60L21 62L22 62L22 60L21 60L21 59L22 59L22 58L23 58L23 57L21 57L21 58L19 58L19 57L18 57L18 56L19 56L19 55L20 55L20 54L22 54L22 55L21 55L21 56L22 56L22 55L23 55L23 54L24 54L24 53L25 53L25 57L26 57L26 58L27 58L27 56L28 56L28 57L29 57L29 59L30 59L30 54L29 54L29 56L28 56L28 54L27 54L27 51L28 51L28 52L29 52L29 51L31 51L31 52L30 52L30 53L32 53L32 54L31 54L31 56L33 56L33 54L34 54L34 53L33 53L33 52L32 52L32 51L31 51L31 50L29 50L29 49L33 49L33 48L39 48L39 46L40 46L40 48L41 48L41 47L44 47L44 45L45 45L45 46L46 46L46 45L48 45L48 44L49 44L49 43L48 43L48 40L49 40L49 42L50 42L50 43L51 43L51 46L50 46L50 47L47 47L47 48L51 48L51 46L52 46L52 48L53 48L53 49L55 49L55 50L53 50L53 51L51 51L51 53L49 53L49 55L48 55L48 56L49 56L49 55L52 55L52 54L51 54L51 53L53 53L53 54L54 54L54 53L55 53L55 54L56 54L56 53L57 53L57 55L55 55L55 56L54 56L54 55L53 55L53 58L52 58L52 59L54 59L54 60L53 60L53 61L54 61L54 60L55 60L55 61L56 61L56 60L55 60L55 59L56 59L56 58L54 58L54 57L55 57L55 56L58 56L58 54L60 54L60 55L59 55L59 56L60 56L60 55L61 55L61 58L62 58L62 54L60 54L60 52L59 52L59 51L60 51L60 50L59 50L59 49L58 49L58 48L59 48L59 47L60 47L60 46L59 46L59 44L58 44L58 43L57 43L57 44L56 44L56 43L55 43L55 42L53 42L53 41L56 41L56 42L57 42L57 41L56 41L56 40L54 40L54 39L55 39L55 38L56 38L56 37L55 37L55 34L56 34L56 33L55 33L55 34L54 34L54 37L53 37L53 38L52 38L52 36L53 36L53 35L52 35L52 36L51 36L51 34L53 34L53 33L51 33L51 32L52 32L52 29L53 29L53 30L54 30L54 31L53 31L53 32L56 32L56 31L55 31L55 30L54 30L54 29L55 29L55 28L56 28L56 30L57 30L57 28L56 28L56 27L55 27L55 26L56 26L56 25L57 25L57 27L58 27L58 28L59 28L59 30L60 30L60 28L61 28L61 27L60 27L60 28L59 28L59 26L60 26L60 24L61 24L61 23L59 23L59 24L58 24L58 22L57 22L57 23L56 23L56 24L54 24L54 25L53 25L53 26L54 26L54 29L53 29L53 27L50 27L50 28L49 28L49 27L48 27L48 26L49 26L49 25L48 25L48 24L50 24L50 25L51 25L51 23L52 23L52 24L53 24L53 23L55 23L55 22L54 22L54 21L56 21L56 20L57 20L57 21L58 21L58 20L59 20L59 18L58 18L58 20L57 20L57 16L56 16L56 15L57 15L57 14L56 14L56 13L55 13L55 14L53 14L53 13L52 13L52 14L51 14L51 15L52 15L52 17L50 17L50 15L48 15L48 14L49 14L49 13L48 13L48 14L47 14L47 12L50 12L50 13L51 13L51 10L50 10L50 9L49 9L49 11L48 11L48 9L47 9L47 8L49 8L49 7L50 7L50 6L49 6L49 7L48 7L48 4L46 4L46 6L45 6L45 5L44 5L44 4L43 4L43 5L44 5L44 6L43 6L43 7L42 7L42 3L41 3L41 8L43 8L43 9L47 9L47 12L46 12L46 11L45 11L45 13L44 13L44 14L46 14L46 17L45 17L45 18L42 18L42 15L43 15L43 14L41 14L41 13L42 13L42 12L43 12L43 11L44 11L44 10L42 10L42 12L41 12L41 9L40 9L40 5L39 5L39 7L38 7L38 5L37 5L37 7L36 7L36 6L35 6L35 8L38 8L38 9L39 9L39 10L36 10L36 12L35 12L35 10L33 10L33 11L34 11L34 12L35 12L35 13L33 13L33 14L34 14L34 15L32 15L32 14L31 14L31 12L32 12L32 10L30 10L30 8L23 8L23 7L24 7L24 6L23 6L23 7L22 7L22 6L21 6L21 5L20 5L20 6L19 6L19 7L20 7L20 6L21 6L21 7L22 7L22 8L21 8L21 10L22 10L22 11L21 11L21 12L23 12L23 11L24 11L24 10L23 10L23 9L25 9L25 10L27 10L27 11L25 11L25 13L24 13L24 14L23 14L23 15L22 15L22 16L21 16L21 15L20 15L20 16L19 16L19 17L18 17L18 15L19 15L19 14L21 14L21 13L17 13L17 11L20 11L20 10L19 10L19 9L17 9L17 7L16 7L16 4L15 4L15 3L14 3L14 4L13 4L13 2L14 2L14 1ZM30 1L30 3L29 3L29 2L28 2L28 4L27 4L27 5L26 5L26 6L25 6L25 7L26 7L26 6L27 6L27 7L28 7L28 6L29 6L29 7L30 7L30 6L29 6L29 4L30 4L30 3L31 3L31 4L32 4L32 3L33 3L33 2L31 2L31 1ZM34 1L34 2L35 2L35 1ZM45 1L45 2L46 2L46 1ZM47 1L47 2L48 2L48 3L49 3L49 2L48 2L48 1ZM25 2L25 3L23 3L23 4L26 4L26 3L27 3L27 2ZM35 3L35 5L36 5L36 3ZM37 3L37 4L38 4L38 3ZM31 5L31 8L34 8L34 5ZM32 6L32 7L33 7L33 6ZM44 6L44 7L43 7L43 8L44 8L44 7L45 7L45 8L47 8L47 6L46 6L46 7L45 7L45 6ZM51 6L51 7L52 7L52 6ZM15 7L15 8L14 8L14 9L13 9L13 10L16 10L16 11L17 11L17 10L16 10L16 7ZM0 8L0 10L2 10L2 11L0 11L0 12L5 12L5 13L7 13L7 12L5 12L5 10L4 10L4 9L5 9L5 8L3 8L3 10L2 10L2 8ZM6 8L6 9L7 9L7 8ZM22 8L22 9L23 9L23 8ZM64 8L64 9L65 9L65 8ZM27 9L27 10L28 10L28 12L26 12L26 14L25 14L25 17L24 17L24 18L23 18L23 19L22 19L22 20L26 20L26 22L25 22L25 21L22 21L22 22L25 22L25 24L26 24L26 25L24 25L24 24L23 24L23 23L21 23L21 20L20 20L20 19L21 19L21 18L22 18L22 17L21 17L21 18L20 18L20 17L19 17L19 18L20 18L20 19L19 19L19 21L18 21L18 25L17 25L17 26L18 26L18 27L19 27L19 26L18 26L18 25L20 25L20 26L21 26L21 27L22 27L22 26L26 26L26 27L25 27L25 28L24 28L24 27L23 27L23 28L24 28L24 29L23 29L23 30L22 30L22 31L23 31L23 30L24 30L24 32L25 32L25 33L23 33L23 32L21 32L21 30L20 30L20 31L19 31L19 30L18 30L18 29L22 29L22 28L17 28L17 27L16 27L16 26L15 26L15 27L16 27L16 28L17 28L17 29L16 29L16 31L17 31L17 33L16 33L16 32L15 32L15 29L14 29L14 28L13 28L13 29L12 29L12 30L11 30L11 32L10 32L10 33L13 33L13 34L12 34L12 35L11 35L11 37L10 37L10 38L8 38L8 39L7 39L7 40L6 40L6 41L5 41L5 42L6 42L6 43L7 43L7 42L8 42L8 43L9 43L9 45L10 45L10 46L11 46L11 47L10 47L10 48L9 48L9 50L8 50L8 51L9 51L9 50L10 50L10 48L11 48L11 50L12 50L12 52L10 52L10 53L12 53L12 52L13 52L13 55L14 55L14 54L15 54L15 55L19 55L19 54L20 54L20 53L17 53L17 51L18 51L18 50L17 50L17 51L16 51L16 50L15 50L15 51L14 51L14 47L15 47L15 48L16 48L16 47L19 47L19 48L17 48L17 49L19 49L19 48L20 48L20 50L19 50L19 51L20 51L20 52L21 52L21 50L25 50L25 49L24 49L24 48L21 48L21 47L22 47L22 46L21 46L21 47L19 47L19 46L20 46L20 44L19 44L19 43L18 43L18 45L19 45L19 46L16 46L16 45L17 45L17 44L15 44L15 43L16 43L16 42L18 42L18 41L19 41L19 42L20 42L20 43L22 43L22 45L23 45L23 47L24 47L24 45L25 45L25 44L24 44L24 43L23 43L23 42L22 42L22 40L21 40L21 42L20 42L20 41L19 41L19 40L20 40L20 39L23 39L23 38L24 38L24 39L25 39L25 41L24 41L24 40L23 40L23 41L24 41L24 42L25 42L25 41L26 41L26 42L32 42L32 44L33 44L33 43L35 43L35 40L34 40L34 39L35 39L35 38L33 38L33 37L37 37L37 38L36 38L36 39L37 39L37 38L38 38L38 40L36 40L36 42L37 42L37 43L38 43L38 44L35 44L35 45L34 45L34 46L35 46L35 47L37 47L37 46L39 46L39 45L38 45L38 44L40 44L40 45L41 45L41 46L43 46L43 45L44 45L44 43L45 43L45 42L47 42L47 41L45 41L45 40L48 40L48 39L49 39L49 40L50 40L50 41L52 41L52 39L51 39L51 37L50 37L50 36L48 36L48 37L47 37L47 35L50 35L50 34L51 34L51 33L50 33L50 32L51 32L51 31L50 31L50 30L48 30L48 29L49 29L49 28L48 28L48 27L46 27L46 25L47 25L47 26L48 26L48 25L47 25L47 24L46 24L46 23L47 23L47 21L48 21L48 23L50 23L50 22L51 22L51 21L50 21L50 20L51 20L51 19L52 19L52 22L53 22L53 19L54 19L54 20L56 20L56 18L55 18L55 17L54 17L54 16L55 16L55 15L56 15L56 14L55 14L55 15L54 15L54 16L53 16L53 17L54 17L54 18L51 18L51 19L49 19L49 16L47 16L47 17L46 17L46 18L45 18L45 20L46 20L46 23L44 23L44 22L43 22L43 20L44 20L44 19L43 19L43 20L41 20L41 19L42 19L42 18L41 18L41 17L40 17L40 13L41 13L41 12L40 12L40 10L39 10L39 12L38 12L38 11L37 11L37 12L36 12L36 13L38 13L38 14L36 14L36 15L34 15L34 16L32 16L32 18L31 18L31 16L30 16L30 15L29 15L29 16L28 16L28 14L30 14L30 12L31 12L31 11L30 11L30 10L29 10L29 9ZM3 10L3 11L4 11L4 10ZM9 11L9 12L10 12L10 11ZM29 11L29 12L30 12L30 11ZM39 12L39 13L40 13L40 12ZM1 14L1 15L2 15L2 16L1 16L1 17L3 17L3 18L2 18L2 19L3 19L3 18L4 18L4 17L5 17L5 16L4 16L4 15L3 15L3 14ZM12 14L12 15L11 15L11 16L12 16L12 15L13 15L13 18L14 18L14 15L13 15L13 14ZM17 14L17 15L16 15L16 16L15 16L15 18L16 18L16 19L17 19L17 18L18 18L18 17L17 17L17 15L18 15L18 14ZM23 15L23 16L24 16L24 15ZM26 15L26 16L27 16L27 18L25 18L25 19L26 19L26 20L28 20L28 21L29 21L29 22L26 22L26 23L29 23L29 24L27 24L27 25L26 25L26 26L27 26L27 27L26 27L26 28L27 28L27 30L26 30L26 29L25 29L25 30L26 30L26 31L25 31L25 32L26 32L26 33L25 33L25 34L23 34L23 33L21 33L21 32L20 32L20 33L21 33L21 34L20 34L20 35L19 35L19 38L20 38L20 37L21 37L21 34L22 34L22 35L23 35L23 36L24 36L24 37L25 37L25 39L26 39L26 37L25 37L25 35L26 35L26 36L28 36L28 38L27 38L27 39L28 39L28 40L27 40L27 41L28 41L28 40L30 40L30 39L28 39L28 38L30 38L30 36L32 36L32 37L33 37L33 36L38 36L38 37L39 37L39 38L40 38L40 37L39 37L39 36L41 36L41 39L39 39L39 40L38 40L38 42L39 42L39 41L40 41L40 42L41 42L41 43L42 43L42 44L41 44L41 45L43 45L43 43L44 43L44 42L45 42L45 41L44 41L44 42L41 42L41 40L42 40L42 41L43 41L43 40L45 40L45 39L48 39L48 38L47 38L47 37L45 37L45 38L44 38L44 35L43 35L43 34L44 34L44 33L45 33L45 32L46 32L46 33L47 33L47 34L48 34L48 32L49 32L49 31L48 31L48 32L47 32L47 30L46 30L46 29L44 29L44 30L42 30L42 28L41 28L41 27L43 27L43 28L44 28L44 23L42 23L42 22L41 22L41 23L40 23L40 21L39 21L39 20L40 20L40 19L39 19L39 18L40 18L40 17L38 17L38 15L36 15L36 16L34 16L34 17L33 17L33 19L32 19L32 20L30 20L30 19L31 19L31 18L30 18L30 19L29 19L29 18L28 18L28 16L27 16L27 15ZM44 15L44 16L45 16L45 15ZM8 16L8 17L7 17L7 18L8 18L8 17L10 17L10 16ZM36 16L36 17L34 17L34 18L35 18L35 19L33 19L33 20L34 20L34 21L33 21L33 22L31 22L31 21L30 21L30 22L29 22L29 23L30 23L30 24L31 24L31 23L33 23L33 24L34 24L34 23L35 23L35 24L36 24L36 25L35 25L35 26L36 26L36 27L35 27L35 28L34 28L34 25L33 25L33 26L32 26L32 25L31 25L31 26L28 26L28 25L27 25L27 26L28 26L28 27L27 27L27 28L31 28L31 26L32 26L32 27L33 27L33 28L32 28L32 29L33 29L33 30L31 30L31 29L28 29L28 31L29 31L29 32L30 32L30 34L29 34L29 33L28 33L28 32L27 32L27 33L28 33L28 36L30 36L30 35L38 35L38 34L39 34L39 35L40 35L40 34L41 34L41 35L42 35L42 38L43 38L43 35L42 35L42 34L43 34L43 32L44 32L44 31L43 31L43 32L42 32L42 30L41 30L41 29L40 29L40 31L37 31L37 30L38 30L38 27L39 27L39 28L40 28L40 27L41 27L41 26L40 26L40 25L42 25L42 26L43 26L43 24L40 24L40 23L37 23L37 24L36 24L36 22L35 22L35 20L36 20L36 21L37 21L37 20L36 20L36 19L37 19L37 18L36 18L36 17L37 17L37 16ZM61 16L61 18L62 18L62 19L61 19L61 20L62 20L62 19L64 19L64 18L63 18L63 16ZM16 17L16 18L17 18L17 17ZM27 18L27 19L28 19L28 18ZM46 18L46 20L47 20L47 18ZM54 18L54 19L55 19L55 18ZM38 19L38 20L39 20L39 19ZM48 19L48 20L49 20L49 19ZM14 20L14 21L13 21L13 23L14 23L14 24L15 24L15 23L14 23L14 22L15 22L15 20ZM38 21L38 22L39 22L39 21ZM49 21L49 22L50 22L50 21ZM59 21L59 22L61 22L61 21ZM30 22L30 23L31 23L31 22ZM33 22L33 23L34 23L34 22ZM20 23L20 25L21 25L21 26L22 26L22 25L21 25L21 23ZM37 24L37 27L36 27L36 28L35 28L35 30L36 30L36 28L37 28L37 27L38 27L38 25L40 25L40 24ZM45 24L45 25L46 25L46 24ZM57 24L57 25L58 25L58 24ZM0 25L0 28L2 28L2 27L1 27L1 26L3 26L3 25ZM7 25L7 26L8 26L8 25ZM54 25L54 26L55 26L55 25ZM61 25L61 26L62 26L62 27L64 27L64 26L62 26L62 25ZM45 27L45 28L46 28L46 27ZM50 28L50 29L52 29L52 28ZM0 29L0 31L1 31L1 29ZM13 29L13 30L12 30L12 31L13 31L13 32L14 32L14 29ZM61 29L61 32L62 32L62 30L63 30L63 29ZM5 31L5 34L8 34L8 31ZM31 31L31 34L34 34L34 31ZM35 31L35 34L36 34L36 32L37 32L37 31ZM57 31L57 34L60 34L60 31ZM6 32L6 33L7 33L7 32ZM32 32L32 33L33 33L33 32ZM38 32L38 33L37 33L37 34L38 34L38 33L39 33L39 32ZM41 32L41 34L42 34L42 32ZM58 32L58 33L59 33L59 32ZM14 33L14 34L16 34L16 35L17 35L17 36L15 36L15 37L14 37L14 36L13 36L13 35L12 35L12 37L11 37L11 39L9 39L9 41L8 41L8 40L7 40L7 41L6 41L6 42L7 42L7 41L8 41L8 42L9 42L9 43L10 43L10 44L11 44L11 43L12 43L12 44L13 44L13 45L14 45L14 46L12 46L12 45L11 45L11 46L12 46L12 47L14 47L14 46L15 46L15 44L13 44L13 43L14 43L14 42L15 42L15 40L16 40L16 38L17 38L17 40L19 40L19 39L18 39L18 38L17 38L17 36L18 36L18 35L17 35L17 34L16 34L16 33ZM18 33L18 34L19 34L19 33ZM49 33L49 34L50 34L50 33ZM26 34L26 35L27 35L27 34ZM45 34L45 35L46 35L46 34ZM56 35L56 36L57 36L57 35ZM13 37L13 38L14 38L14 37ZM15 37L15 38L16 38L16 37ZM22 37L22 38L23 38L23 37ZM54 37L54 38L55 38L55 37ZM3 38L3 39L4 39L4 38ZM31 38L31 39L32 39L32 42L33 42L33 41L34 41L34 40L33 40L33 38ZM49 38L49 39L50 39L50 40L51 40L51 39L50 39L50 38ZM12 39L12 40L11 40L11 42L12 42L12 43L13 43L13 42L14 42L14 41L13 41L13 39ZM14 39L14 40L15 40L15 39ZM42 39L42 40L43 40L43 39ZM2 41L2 43L3 43L3 41ZM9 41L9 42L10 42L10 41ZM12 41L12 42L13 42L13 41ZM51 42L51 43L53 43L53 44L52 44L52 45L53 45L53 48L55 48L55 49L56 49L56 50L58 50L58 51L59 51L59 50L58 50L58 49L57 49L57 48L58 48L58 46L55 46L55 45L56 45L56 44L55 44L55 43L53 43L53 42ZM61 42L61 44L60 44L60 45L62 45L62 43L64 43L64 42ZM26 43L26 44L27 44L27 46L26 46L26 49L27 49L27 50L26 50L26 51L27 51L27 50L28 50L28 51L29 51L29 50L28 50L28 49L27 49L27 48L28 48L28 47L29 47L29 46L28 46L28 45L29 45L29 44L27 44L27 43ZM30 43L30 44L31 44L31 43ZM46 43L46 44L45 44L45 45L46 45L46 44L48 44L48 43ZM23 44L23 45L24 45L24 44ZM53 44L53 45L54 45L54 44ZM57 44L57 45L58 45L58 44ZM30 45L30 46L31 46L31 47L30 47L30 48L31 48L31 47L33 47L33 45L32 45L32 46L31 46L31 45ZM35 45L35 46L36 46L36 45ZM6 46L6 47L7 47L7 46ZM54 46L54 47L55 47L55 46ZM3 47L3 50L4 50L4 49L5 49L5 48L4 48L4 47ZM56 47L56 48L57 48L57 47ZM12 48L12 50L13 50L13 48ZM42 48L42 49L41 49L41 50L42 50L42 51L43 51L43 50L42 50L42 49L44 49L44 48ZM39 49L39 50L40 50L40 49ZM51 49L51 50L52 50L52 49ZM63 49L63 50L64 50L64 49ZM47 50L47 51L48 51L48 50ZM13 51L13 52L14 52L14 53L15 53L15 52L16 52L16 51L15 51L15 52L14 52L14 51ZM24 51L24 52L22 52L22 54L23 54L23 53L24 53L24 52L25 52L25 53L26 53L26 52L25 52L25 51ZM54 51L54 52L53 52L53 53L54 53L54 52L57 52L57 51ZM42 52L42 53L43 53L43 52ZM58 52L58 53L59 53L59 52ZM26 54L26 56L27 56L27 54ZM35 54L35 56L37 56L37 54ZM14 56L14 57L16 57L16 58L17 58L17 60L18 60L18 61L19 61L19 60L18 60L18 59L19 59L19 58L17 58L17 57L16 57L16 56ZM31 57L31 60L34 60L34 57ZM36 57L36 58L37 58L37 57ZM48 57L48 58L49 58L49 57ZM57 57L57 60L60 60L60 57ZM24 58L24 59L25 59L25 58ZM32 58L32 59L33 59L33 58ZM42 58L42 59L43 59L43 58ZM58 58L58 59L59 59L59 58ZM26 59L26 60L25 60L25 62L26 62L26 63L25 63L25 64L26 64L26 63L27 63L27 64L28 64L28 62L29 62L29 61L30 61L30 62L31 62L31 64L32 64L32 63L33 63L33 61L32 61L32 62L31 62L31 61L30 61L30 60L29 60L29 61L28 61L28 59ZM63 59L63 61L62 61L62 62L59 62L59 63L58 63L58 62L57 62L57 63L58 63L58 65L59 65L59 63L60 63L60 65L61 65L61 64L63 64L63 63L64 63L64 64L65 64L65 62L63 62L63 61L65 61L65 60L64 60L64 59ZM23 60L23 62L24 62L24 60ZM26 60L26 61L27 61L27 60ZM36 60L36 61L37 61L37 60ZM13 61L13 62L14 62L14 61ZM62 62L62 63L63 63L63 62ZM8 63L8 65L10 65L10 64L9 64L9 63ZM36 63L36 64L37 64L37 63ZM45 63L45 64L43 64L43 65L45 65L45 64L47 64L47 65L49 65L49 64L47 64L47 63ZM39 64L39 65L40 65L40 64ZM41 64L41 65L42 65L42 64ZM56 64L56 65L57 65L57 64ZM0 0L0 7L7 7L7 0ZM1 1L1 6L6 6L6 1ZM2 2L2 5L5 5L5 2ZM58 0L58 7L65 7L65 0ZM59 1L59 6L64 6L64 1ZM60 2L60 5L63 5L63 2ZM0 58L0 65L7 65L7 58ZM1 59L1 64L6 64L6 59ZM2 60L2 63L5 63L5 60Z" fill="#000000"/></g></g></svg>
