<?xml version="1.0" encoding="UTF-8"?>
<svg xmlns="http://www.w3.org/2000/svg" version="1.1" width="300" height="300" viewBox="0 0 300 300"><rect x="0" y="0" width="300" height="300" fill="#ffffff"/><g transform="scale(4.615)"><g transform="translate(0,0)"><path fill-rule="evenodd" d="M8 0L8 4L9 4L9 0ZM11 0L11 1L10 1L10 3L11 3L11 4L10 4L10 7L11 7L11 8L10 8L10 9L9 9L9 10L6 10L6 9L7 9L7 8L4 8L4 9L5 9L5 10L6 10L6 11L5 11L5 13L7 13L7 12L6 12L6 11L9 11L9 12L12 12L12 11L13 11L13 12L15 12L15 13L14 13L14 14L13 14L13 13L10 13L10 14L9 14L9 13L8 13L8 15L7 15L7 14L6 14L6 15L7 15L7 16L5 16L5 14L3 14L3 15L2 15L2 14L1 14L1 12L2 12L2 11L0 11L0 15L1 15L1 16L3 16L3 15L4 15L4 16L5 16L5 17L3 17L3 18L2 18L2 20L3 20L3 21L1 21L1 20L0 20L0 23L1 23L1 22L2 22L2 24L0 24L0 26L3 26L3 27L0 27L0 28L3 28L3 27L4 27L4 26L6 26L6 27L8 27L8 28L5 28L5 29L3 29L3 30L2 30L2 29L1 29L1 30L0 30L0 33L1 33L1 34L2 34L2 35L0 35L0 37L1 37L1 38L0 38L0 40L3 40L3 42L2 42L2 41L0 41L0 42L1 42L1 43L0 43L0 44L1 44L1 45L0 45L0 46L1 46L1 47L2 47L2 49L1 49L1 48L0 48L0 50L2 50L2 49L3 49L3 50L5 50L5 51L7 51L7 52L5 52L5 53L8 53L8 54L5 54L5 55L8 55L8 58L9 58L9 57L11 57L11 56L13 56L13 57L12 57L12 58L11 58L11 59L10 59L10 60L9 60L9 59L8 59L8 61L9 61L9 63L8 63L8 65L10 65L10 61L11 61L11 63L14 63L14 62L15 62L15 63L16 63L16 62L17 62L17 65L20 65L20 64L21 64L21 65L22 65L22 63L24 63L24 64L23 64L23 65L24 65L24 64L26 64L26 65L29 65L29 64L30 64L30 65L31 65L31 64L30 64L30 62L29 62L29 61L31 61L31 63L32 63L32 61L33 61L33 65L35 65L35 63L36 63L36 65L38 65L38 64L37 64L37 63L36 63L36 62L35 62L35 61L37 61L37 62L38 62L38 63L39 63L39 60L40 60L40 59L41 59L41 60L42 60L42 61L41 61L41 64L42 64L42 63L43 63L43 65L45 65L45 63L46 63L46 61L45 61L45 59L44 59L44 58L46 58L46 57L47 57L47 59L46 59L46 60L47 60L47 59L48 59L48 61L47 61L47 63L48 63L48 65L50 65L50 64L49 64L49 63L48 63L48 62L49 62L49 60L50 60L50 63L51 63L51 64L52 64L52 63L51 63L51 62L53 62L53 61L52 61L52 60L54 60L54 59L55 59L55 60L56 60L56 61L57 61L57 62L59 62L59 61L61 61L61 62L62 62L62 63L63 63L63 65L64 65L64 64L65 64L65 62L63 62L63 61L61 61L61 60L62 60L62 58L63 58L63 57L62 57L62 56L60 56L60 55L61 55L61 53L62 53L62 51L63 51L63 53L64 53L64 56L65 56L65 49L64 49L64 51L63 51L63 49L62 49L62 48L61 48L61 47L60 47L60 46L61 46L61 45L62 45L62 46L64 46L64 48L65 48L65 46L64 46L64 44L65 44L65 37L64 37L64 38L63 38L63 37L60 37L60 36L62 36L62 35L63 35L63 34L64 34L64 36L65 36L65 33L63 33L63 34L61 34L61 30L62 30L62 31L63 31L63 30L64 30L64 31L65 31L65 29L61 29L61 28L62 28L62 27L63 27L63 28L64 28L64 27L65 27L65 25L62 25L62 24L61 24L61 23L63 23L63 24L64 24L64 23L65 23L65 21L64 21L64 22L61 22L61 23L60 23L60 22L59 22L59 23L58 23L58 24L57 24L57 25L56 25L56 26L55 26L55 24L56 24L56 22L58 22L58 21L62 21L62 19L65 19L65 16L64 16L64 18L63 18L63 17L61 17L61 15L60 15L60 16L59 16L59 15L58 15L58 13L59 13L59 14L63 14L63 15L65 15L65 13L64 13L64 12L65 12L65 8L61 8L61 9L60 9L60 8L59 8L59 12L57 12L57 13L56 13L56 14L55 14L55 12L56 12L56 11L55 11L55 9L54 9L54 8L55 8L55 5L54 5L54 4L56 4L56 5L57 5L57 4L56 4L56 3L57 3L57 1L56 1L56 0L55 0L55 1L56 1L56 3L55 3L55 2L53 2L53 3L52 3L52 2L51 2L51 3L50 3L50 4L49 4L49 5L48 5L48 7L47 7L47 5L43 5L43 4L42 4L42 3L43 3L43 2L41 2L41 3L40 3L40 2L39 2L39 3L40 3L40 4L38 4L38 5L37 5L37 4L36 4L36 5L35 5L35 3L37 3L37 2L38 2L38 1L40 1L40 0L38 0L38 1L37 1L37 0L36 0L36 2L35 2L35 1L33 1L33 0L32 0L32 1L31 1L31 0L29 0L29 1L28 1L28 0L27 0L27 1L28 1L28 2L26 2L26 3L25 3L25 2L24 2L24 1L26 1L26 0L20 0L20 1L21 1L21 3L19 3L19 2L18 2L18 0L16 0L16 1L13 1L13 0ZM42 0L42 1L45 1L45 2L44 2L44 3L46 3L46 4L48 4L48 3L49 3L49 2L50 2L50 1L51 1L51 0L50 0L50 1L49 1L49 0L48 0L48 2L47 2L47 1L45 1L45 0ZM52 0L52 1L54 1L54 0ZM11 1L11 2L12 2L12 4L11 4L11 5L12 5L12 6L11 6L11 7L12 7L12 8L13 8L13 7L14 7L14 5L18 5L18 6L17 6L17 7L18 7L18 8L20 8L20 9L16 9L16 8L14 8L14 11L15 11L15 9L16 9L16 11L17 11L17 10L19 10L19 13L18 13L18 12L16 12L16 13L17 13L17 14L15 14L15 15L13 15L13 16L12 16L12 15L11 15L11 14L10 14L10 16L12 16L12 17L11 17L11 19L10 19L10 18L8 18L8 17L6 17L6 18L3 18L3 20L4 20L4 21L3 21L3 24L2 24L2 25L3 25L3 26L4 26L4 25L3 25L3 24L4 24L4 23L5 23L5 25L6 25L6 26L9 26L9 25L10 25L10 28L9 28L9 29L8 29L8 30L9 30L9 31L10 31L10 30L9 30L9 29L10 29L10 28L11 28L11 29L12 29L12 30L11 30L11 31L12 31L12 30L14 30L14 31L15 31L15 32L13 32L13 33L14 33L14 35L16 35L16 36L15 36L15 37L14 37L14 36L13 36L13 37L10 37L10 36L12 36L12 35L10 35L10 36L9 36L9 37L3 37L3 38L4 38L4 39L3 39L3 40L7 40L7 39L5 39L5 38L9 38L9 39L10 39L10 38L11 38L11 39L13 39L13 38L15 38L15 40L14 40L14 41L12 41L12 40L10 40L10 41L8 41L8 42L7 42L7 41L6 41L6 42L5 42L5 41L4 41L4 42L3 42L3 43L2 43L2 44L3 44L3 43L4 43L4 44L5 44L5 46L4 46L4 45L1 45L1 46L2 46L2 47L3 47L3 48L4 48L4 47L5 47L5 46L7 46L7 47L6 47L6 48L5 48L5 50L7 50L7 51L8 51L8 53L9 53L9 55L10 55L10 56L11 56L11 55L10 55L10 54L11 54L11 52L12 52L12 53L13 53L13 52L14 52L14 55L13 55L13 54L12 54L12 55L13 55L13 56L14 56L14 57L13 57L13 58L14 58L14 59L13 59L13 60L14 60L14 61L12 61L12 62L14 62L14 61L17 61L17 62L18 62L18 63L20 63L20 62L22 62L22 61L24 61L24 62L25 62L25 61L26 61L26 62L27 62L27 61L29 61L29 60L27 60L27 59L26 59L26 58L27 58L27 57L28 57L28 59L30 59L30 58L29 58L29 57L30 57L30 56L31 56L31 54L32 54L32 53L34 53L34 54L33 54L33 55L32 55L32 56L33 56L33 55L34 55L34 56L35 56L35 55L34 55L34 54L36 54L36 55L37 55L37 56L38 56L38 57L36 57L36 59L35 59L35 60L36 60L36 59L37 59L37 58L38 58L38 57L39 57L39 55L40 55L40 58L39 58L39 59L38 59L38 60L37 60L37 61L38 61L38 60L39 60L39 59L40 59L40 58L41 58L41 56L42 56L42 57L43 57L43 58L44 58L44 56L42 56L42 55L40 55L40 54L42 54L42 53L43 53L43 55L47 55L47 57L48 57L48 59L49 59L49 57L51 57L51 59L50 59L50 60L52 60L52 59L53 59L53 58L52 58L52 57L53 57L53 56L54 56L54 57L55 57L55 59L56 59L56 57L55 57L55 56L54 56L54 55L55 55L55 54L54 54L54 55L53 55L53 54L52 54L52 53L55 53L55 51L58 51L58 52L59 52L59 53L61 53L61 52L59 52L59 51L62 51L62 50L59 50L59 49L61 49L61 48L60 48L60 47L58 47L58 46L60 46L60 45L61 45L61 43L62 43L62 45L63 45L63 44L64 44L64 42L59 42L59 39L60 39L60 41L61 41L61 40L62 40L62 41L63 41L63 39L62 39L62 38L61 38L61 39L60 39L60 38L59 38L59 36L60 36L60 35L57 35L57 36L56 36L56 38L55 38L55 39L58 39L58 41L57 41L57 42L56 42L56 41L55 41L55 43L54 43L54 45L53 45L53 44L52 44L52 45L51 45L51 46L52 46L52 45L53 45L53 46L54 46L54 45L55 45L55 43L57 43L57 45L56 45L56 46L55 46L55 47L56 47L56 46L57 46L57 47L58 47L58 50L56 50L56 49L57 49L57 48L56 48L56 49L55 49L55 48L53 48L53 47L52 47L52 48L51 48L51 47L50 47L50 43L49 43L49 41L52 41L52 42L51 42L51 43L52 43L52 42L53 42L53 41L54 41L54 40L53 40L53 39L52 39L52 40L51 40L51 39L49 39L49 38L48 38L48 37L47 37L47 36L45 36L45 38L44 38L44 39L47 39L47 41L46 41L46 40L45 40L45 41L44 41L44 40L43 40L43 39L42 39L42 40L41 40L41 38L42 38L42 37L44 37L44 36L43 36L43 35L47 35L47 34L48 34L48 35L49 35L49 36L50 36L50 37L51 37L51 38L52 38L52 37L53 37L53 38L54 38L54 37L55 37L55 36L53 36L53 35L54 35L54 33L56 33L56 29L58 29L58 30L59 30L59 29L58 29L58 28L59 28L59 26L60 26L60 27L62 27L62 26L61 26L61 25L59 25L59 24L60 24L60 23L59 23L59 24L58 24L58 27L57 27L57 26L56 26L56 27L52 27L52 28L51 28L51 27L50 27L50 28L51 28L51 31L50 31L50 29L48 29L48 27L49 27L49 25L51 25L51 26L52 26L52 25L54 25L54 24L55 24L55 23L54 23L54 21L55 21L55 22L56 22L56 21L58 21L58 20L61 20L61 19L62 19L62 18L59 18L59 17L58 17L58 18L57 18L57 19L56 19L56 16L57 16L57 14L56 14L56 15L55 15L55 19L54 19L54 20L53 20L53 19L52 19L52 21L51 21L51 22L53 22L53 23L49 23L49 22L47 22L47 21L48 21L48 20L47 20L47 21L46 21L46 19L49 19L49 20L51 20L51 19L50 19L50 13L52 13L52 14L51 14L51 16L52 16L52 17L51 17L51 18L54 18L54 17L53 17L53 15L54 15L54 14L53 14L53 13L54 13L54 12L55 12L55 11L54 11L54 10L52 10L52 9L53 9L53 8L54 8L54 5L53 5L53 4L52 4L52 3L51 3L51 4L52 4L52 6L51 6L51 5L49 5L49 8L50 8L50 9L51 9L51 10L52 10L52 11L51 11L51 12L50 12L50 13L48 13L48 11L49 11L49 9L48 9L48 8L47 8L47 9L46 9L46 8L45 8L45 9L44 9L44 6L43 6L43 10L46 10L46 11L44 11L44 12L43 12L43 11L42 11L42 12L41 12L41 8L42 8L42 6L41 6L41 7L40 7L40 5L41 5L41 4L40 4L40 5L38 5L38 6L37 6L37 7L38 7L38 6L39 6L39 7L40 7L40 11L38 11L38 10L36 10L36 11L38 11L38 12L37 12L37 13L35 13L35 12L34 12L34 10L35 10L35 9L34 9L34 10L33 10L33 9L32 9L32 10L31 10L31 11L30 11L30 14L29 14L29 12L28 12L28 13L26 13L26 11L29 11L29 10L30 10L30 6L29 6L29 5L30 5L30 4L31 4L31 3L28 3L28 4L27 4L27 7L26 7L26 5L25 5L25 7L24 7L24 5L23 5L23 4L25 4L25 3L23 3L23 2L22 2L22 3L21 3L21 5L20 5L20 6L19 6L19 5L18 5L18 3L17 3L17 2L16 2L16 3L15 3L15 4L14 4L14 3L13 3L13 2L12 2L12 1ZM30 1L30 2L31 2L31 1ZM32 3L32 4L34 4L34 3ZM12 4L12 5L13 5L13 4ZM8 5L8 7L9 7L9 5ZM21 5L21 6L20 6L20 7L21 7L21 6L22 6L22 8L21 8L21 9L20 9L20 11L21 11L21 9L22 9L22 10L26 10L26 9L27 9L27 10L28 10L28 9L29 9L29 8L26 8L26 9L22 9L22 8L23 8L23 5ZM31 5L31 8L34 8L34 5ZM12 6L12 7L13 7L13 6ZM15 6L15 7L16 7L16 6ZM18 6L18 7L19 7L19 6ZM28 6L28 7L29 7L29 6ZM32 6L32 7L33 7L33 6ZM35 6L35 7L36 7L36 6ZM45 6L45 7L46 7L46 6ZM50 6L50 7L51 7L51 8L52 8L52 7L53 7L53 6L52 6L52 7L51 7L51 6ZM56 6L56 7L57 7L57 6ZM0 8L0 9L2 9L2 8ZM10 9L10 11L12 11L12 10L13 10L13 9ZM47 9L47 11L48 11L48 9ZM56 9L56 10L58 10L58 9ZM61 9L61 10L60 10L60 11L61 11L61 12L62 12L62 13L63 13L63 14L64 14L64 13L63 13L63 11L64 11L64 9ZM3 10L3 13L4 13L4 10ZM23 11L23 13L22 13L22 12L20 12L20 13L19 13L19 15L20 15L20 14L21 14L21 15L22 15L22 14L23 14L23 13L24 13L24 14L25 14L25 12L24 12L24 11ZM31 11L31 14L32 14L32 18L34 18L34 17L35 17L35 16L33 16L33 15L34 15L34 13L33 13L33 11ZM38 12L38 15L36 15L36 14L35 14L35 15L36 15L36 18L35 18L35 19L32 19L32 21L31 21L31 23L32 23L32 24L31 24L31 25L30 25L30 26L28 26L28 25L29 25L29 24L30 24L30 21L29 21L29 20L30 20L30 19L31 19L31 16L29 16L29 14L28 14L28 15L27 15L27 14L26 14L26 15L25 15L25 16L24 16L24 15L23 15L23 17L22 17L22 18L21 18L21 17L20 17L20 16L18 16L18 15L17 15L17 16L18 16L18 17L20 17L20 18L19 18L19 20L18 20L18 21L17 21L17 22L16 22L16 23L15 23L15 21L16 21L16 19L18 19L18 18L16 18L16 19L14 19L14 20L13 20L13 18L14 18L14 17L16 17L16 15L15 15L15 16L13 16L13 18L12 18L12 19L11 19L11 20L12 20L12 21L10 21L10 22L9 22L9 21L8 21L8 22L5 22L5 21L4 21L4 22L5 22L5 23L8 23L8 25L9 25L9 24L10 24L10 25L11 25L11 24L13 24L13 25L12 25L12 26L11 26L11 27L12 27L12 28L13 28L13 27L14 27L14 29L15 29L15 31L16 31L16 30L17 30L17 32L16 32L16 33L15 33L15 34L16 34L16 35L17 35L17 36L16 36L16 37L15 37L15 38L16 38L16 41L15 41L15 42L13 42L13 44L12 44L12 45L13 45L13 46L14 46L14 45L13 45L13 44L14 44L14 43L17 43L17 42L16 42L16 41L17 41L17 39L18 39L18 41L20 41L20 42L18 42L18 43L21 43L21 42L22 42L22 44L20 44L20 45L19 45L19 44L17 44L17 45L19 45L19 46L16 46L16 47L15 47L15 48L18 48L18 49L20 49L20 50L19 50L19 52L18 52L18 53L17 53L17 51L18 51L18 50L17 50L17 51L14 51L14 50L16 50L16 49L14 49L14 48L13 48L13 47L12 47L12 48L13 48L13 49L11 49L11 48L9 48L9 50L8 50L8 48L6 48L6 49L7 49L7 50L8 50L8 51L9 51L9 50L11 50L11 51L12 51L12 52L13 52L13 51L14 51L14 52L15 52L15 55L14 55L14 56L15 56L15 55L16 55L16 53L17 53L17 56L16 56L16 57L15 57L15 58L16 58L16 59L14 59L14 60L17 60L17 61L22 61L22 60L24 60L24 61L25 61L25 60L26 60L26 61L27 61L27 60L26 60L26 59L25 59L25 56L26 56L26 57L27 57L27 56L26 56L26 54L28 54L28 53L29 53L29 51L30 51L30 50L27 50L27 52L26 52L26 51L25 51L25 50L26 50L26 49L29 49L29 46L28 46L28 47L27 47L27 48L26 48L26 46L25 46L25 44L26 44L26 45L28 45L28 44L30 44L30 46L33 46L33 45L36 45L36 46L34 46L34 47L33 47L33 48L34 48L34 47L36 47L36 49L37 49L37 50L38 50L38 52L37 52L37 51L36 51L36 50L34 50L34 51L31 51L31 53L30 53L30 54L31 54L31 53L32 53L32 52L34 52L34 51L35 51L35 52L36 52L36 53L37 53L37 54L38 54L38 55L39 55L39 54L40 54L40 51L41 51L41 52L42 52L42 51L43 51L43 52L44 52L44 54L45 54L45 53L49 53L49 54L48 54L48 57L49 57L49 55L51 55L51 57L52 57L52 54L51 54L51 52L52 52L52 51L51 51L51 48L50 48L50 47L48 47L48 46L49 46L49 43L48 43L48 41L49 41L49 39L48 39L48 41L47 41L47 43L46 43L46 41L45 41L45 43L44 43L44 44L43 44L43 45L40 45L40 44L38 44L38 43L39 43L39 42L40 42L40 39L39 39L39 37L40 37L40 38L41 38L41 37L40 37L40 35L39 35L39 34L42 34L42 35L41 35L41 36L42 36L42 35L43 35L43 34L45 34L45 32L47 32L47 31L48 31L48 33L49 33L49 31L48 31L48 30L47 30L47 31L45 31L45 30L46 30L46 29L47 29L47 27L48 27L48 25L49 25L49 23L48 23L48 25L47 25L47 27L46 27L46 26L45 26L45 23L44 23L44 22L45 22L45 19L43 19L43 18L44 18L44 17L45 17L45 16L47 16L47 15L48 15L48 17L47 17L47 18L49 18L49 15L48 15L48 13L47 13L47 15L46 15L46 14L45 14L45 12L44 12L44 13L42 13L42 15L41 15L41 16L42 16L42 15L44 15L44 16L43 16L43 17L41 17L41 18L40 18L40 19L39 19L39 17L40 17L40 12ZM21 13L21 14L22 14L22 13ZM32 13L32 14L33 14L33 13ZM44 14L44 15L45 15L45 14ZM8 15L8 16L9 16L9 15ZM26 15L26 16L25 16L25 19L26 19L26 20L27 20L27 22L28 22L28 23L29 23L29 21L28 21L28 20L29 20L29 19L27 19L27 18L30 18L30 17L28 17L28 16L27 16L27 15ZM26 16L26 17L27 17L27 16ZM6 18L6 19L8 19L8 18ZM20 18L20 21L22 21L22 22L19 22L19 23L20 23L20 24L19 24L19 25L18 25L18 27L19 27L19 28L22 28L22 29L17 29L17 27L15 27L15 25L16 25L16 26L17 26L17 25L16 25L16 24L15 24L15 23L14 23L14 24L15 24L15 25L13 25L13 26L14 26L14 27L15 27L15 29L17 29L17 30L18 30L18 31L20 31L20 30L22 30L22 29L24 29L24 30L25 30L25 29L26 29L26 31L25 31L25 32L24 32L24 31L22 31L22 33L23 33L23 34L20 34L20 33L21 33L21 32L19 32L19 33L18 33L18 32L17 32L17 33L16 33L16 34L17 34L17 35L18 35L18 34L19 34L19 35L20 35L20 37L19 37L19 36L18 36L18 37L16 37L16 38L18 38L18 39L19 39L19 38L20 38L20 37L21 37L21 38L23 38L23 39L22 39L22 40L20 40L20 41L26 41L26 42L25 42L25 43L26 43L26 44L27 44L27 43L30 43L30 44L31 44L31 45L33 45L33 42L35 42L35 39L36 39L36 36L34 36L34 37L33 37L33 35L31 35L31 36L32 36L32 37L31 37L31 38L30 38L30 37L28 37L28 36L26 36L26 35L24 35L24 36L23 36L23 34L24 34L24 33L26 33L26 34L29 34L29 35L30 35L30 34L29 34L29 33L30 33L30 31L29 31L29 30L28 30L28 31L27 31L27 29L29 29L29 28L28 28L28 26L27 26L27 25L26 25L26 24L24 24L24 23L23 23L23 24L22 24L22 22L23 22L23 20L22 20L22 19L21 19L21 18ZM36 18L36 19L35 19L35 20L33 20L33 21L32 21L32 23L33 23L33 24L35 24L35 22L36 22L36 23L37 23L37 24L38 24L38 25L39 25L39 23L40 23L40 26L41 26L41 27L39 27L39 28L38 28L38 29L37 29L37 30L36 30L36 31L35 31L35 34L36 34L36 35L37 35L37 36L38 36L38 37L39 37L39 35L37 35L37 34L36 34L36 31L37 31L37 32L38 32L38 33L39 33L39 32L40 32L40 33L41 33L41 31L40 31L40 30L42 30L42 29L43 29L43 30L44 30L44 28L45 28L45 29L46 29L46 28L45 28L45 26L44 26L44 28L41 28L41 27L42 27L42 26L41 26L41 24L43 24L43 25L44 25L44 23L43 23L43 22L44 22L44 20L43 20L43 19L42 19L42 18L41 18L41 19L40 19L40 21L39 21L39 23L38 23L38 22L37 22L37 21L38 21L38 20L39 20L39 19L38 19L38 18ZM36 19L36 20L35 20L35 21L37 21L37 20L38 20L38 19ZM6 20L6 21L7 21L7 20ZM24 20L24 21L25 21L25 22L26 22L26 21L25 21L25 20ZM41 21L41 22L40 22L40 23L41 23L41 22L43 22L43 21ZM8 22L8 23L9 23L9 22ZM12 22L12 23L13 23L13 22ZM17 22L17 24L18 24L18 22ZM53 23L53 24L54 24L54 23ZM6 24L6 25L7 25L7 24ZM20 25L20 26L19 26L19 27L20 27L20 26L21 26L21 25ZM22 25L22 26L23 26L23 27L22 27L22 28L23 28L23 27L24 27L24 29L25 29L25 26L26 26L26 25ZM34 25L34 27L33 27L33 26L30 26L30 30L31 30L31 27L33 27L33 29L32 29L32 30L33 30L33 29L34 29L34 30L35 30L35 28L36 28L36 27L37 27L37 26L36 26L36 25ZM63 26L63 27L64 27L64 26ZM34 27L34 28L35 28L35 27ZM56 27L56 28L53 28L53 30L52 30L52 31L53 31L53 32L54 32L54 31L55 31L55 29L56 29L56 28L57 28L57 27ZM26 28L26 29L27 29L27 28ZM39 28L39 29L38 29L38 30L37 30L37 31L39 31L39 29L40 29L40 28ZM6 29L6 30L7 30L7 29ZM1 30L1 33L2 33L2 34L3 34L3 36L4 36L4 33L3 33L3 31L2 31L2 30ZM53 30L53 31L54 31L54 30ZM5 31L5 34L8 34L8 31ZM31 31L31 34L34 34L34 31ZM42 31L42 33L43 33L43 32L44 32L44 31ZM57 31L57 34L60 34L60 31ZM6 32L6 33L7 33L7 32ZM9 32L9 34L11 34L11 33L10 33L10 32ZM23 32L23 33L24 33L24 32ZM26 32L26 33L27 33L27 32ZM28 32L28 33L29 33L29 32ZM32 32L32 33L33 33L33 32ZM51 32L51 33L50 33L50 35L53 35L53 33L52 33L52 32ZM58 32L58 33L59 33L59 32ZM17 33L17 34L18 34L18 33ZM51 33L51 34L52 34L52 33ZM5 35L5 36L8 36L8 35ZM21 35L21 37L23 37L23 38L25 38L25 40L26 40L26 41L27 41L27 42L28 42L28 41L30 41L30 43L31 43L31 44L32 44L32 42L33 42L33 41L32 41L32 42L31 42L31 41L30 41L30 40L26 40L26 39L27 39L27 37L23 37L23 36L22 36L22 35ZM51 36L51 37L52 37L52 36ZM57 36L57 37L58 37L58 36ZM18 37L18 38L19 38L19 37ZM32 37L32 38L31 38L31 40L34 40L34 39L35 39L35 38L34 38L34 39L32 39L32 38L33 38L33 37ZM28 38L28 39L29 39L29 38ZM58 38L58 39L59 39L59 38ZM37 39L37 40L38 40L38 41L39 41L39 40L38 40L38 39ZM10 41L10 42L8 42L8 43L7 43L7 42L6 42L6 43L5 43L5 44L6 44L6 45L7 45L7 46L8 46L8 47L9 47L9 46L10 46L10 45L11 45L11 43L12 43L12 42L11 42L11 41ZM41 41L41 42L43 42L43 41ZM23 42L23 44L22 44L22 45L23 45L23 47L24 47L24 48L22 48L22 49L23 49L23 51L24 51L24 52L22 52L22 51L21 51L21 52L20 52L20 53L19 53L19 54L18 54L18 56L20 56L20 55L21 55L21 54L20 54L20 53L22 53L22 56L21 56L21 59L20 59L20 57L19 57L19 58L18 58L18 57L16 57L16 58L18 58L18 59L17 59L17 60L21 60L21 59L22 59L22 57L23 57L23 56L24 56L24 55L25 55L25 54L26 54L26 53L25 53L25 51L24 51L24 49L26 49L26 48L25 48L25 46L24 46L24 45L23 45L23 44L24 44L24 42ZM36 42L36 43L38 43L38 42ZM58 42L58 44L59 44L59 42ZM6 43L6 44L7 44L7 43ZM8 43L8 44L9 44L9 45L10 45L10 44L9 44L9 43ZM34 43L34 44L35 44L35 43ZM41 43L41 44L42 44L42 43ZM47 43L47 45L46 45L46 46L45 46L45 45L43 45L43 47L42 47L42 46L41 46L41 47L40 47L40 49L39 49L39 48L38 48L38 45L37 45L37 46L36 46L36 47L37 47L37 48L38 48L38 49L39 49L39 51L40 51L40 50L41 50L41 48L43 48L43 47L47 47L47 45L48 45L48 43ZM15 44L15 45L16 45L16 44ZM39 45L39 46L40 46L40 45ZM57 45L57 46L58 46L58 45ZM3 46L3 47L4 47L4 46ZM20 46L20 47L19 47L19 48L20 48L20 49L21 49L21 46ZM30 47L30 48L31 48L31 50L33 50L33 49L32 49L32 48L31 48L31 47ZM45 48L45 50L43 50L43 51L45 51L45 50L46 50L46 51L47 51L47 52L48 52L48 51L47 51L47 50L49 50L49 51L50 51L50 52L49 52L49 53L50 53L50 52L51 52L51 51L50 51L50 50L49 50L49 49L50 49L50 48L49 48L49 49L48 49L48 48ZM13 49L13 50L12 50L12 51L13 51L13 50L14 50L14 49ZM54 49L54 51L53 51L53 52L54 52L54 51L55 51L55 49ZM58 50L58 51L59 51L59 50ZM1 51L1 52L0 52L0 54L2 54L2 55L3 55L3 56L1 56L1 55L0 55L0 56L1 56L1 57L3 57L3 56L4 56L4 57L5 57L5 56L4 56L4 54L3 54L3 53L1 53L1 52L4 52L4 51ZM27 52L27 53L28 53L28 52ZM38 52L38 53L39 53L39 52ZM56 52L56 55L58 55L58 56L59 56L59 55L58 55L58 54L57 54L57 52ZM23 53L23 54L25 54L25 53ZM29 55L29 56L28 56L28 57L29 57L29 56L30 56L30 55ZM6 56L6 57L7 57L7 56ZM31 57L31 60L34 60L34 57ZM57 57L57 60L60 60L60 57ZM64 57L64 59L63 59L63 60L64 60L64 59L65 59L65 57ZM32 58L32 59L33 59L33 58ZM58 58L58 59L59 59L59 58ZM24 59L24 60L25 60L25 59ZM42 59L42 60L43 60L43 59ZM54 61L54 63L56 63L56 64L57 64L57 65L62 65L62 64L60 64L60 63L58 63L58 64L57 64L57 63L56 63L56 62L55 62L55 61ZM28 62L28 63L26 63L26 64L29 64L29 62ZM34 62L34 63L35 63L35 62ZM44 62L44 63L45 63L45 62ZM14 64L14 65L16 65L16 64ZM39 64L39 65L40 65L40 64ZM46 64L46 65L47 65L47 64ZM54 64L54 65L55 65L55 64ZM0 0L0 7L7 7L7 0ZM1 1L1 6L6 6L6 1ZM2 2L2 5L5 5L5 2ZM58 0L58 7L65 7L65 0ZM59 1L59 6L64 6L64 1ZM60 2L60 5L63 5L63 2ZM0 58L0 65L7 65L7 58ZM1 59L1 64L6 64L6 59ZM2 60L2 63L5 63L5 60Z" fill="#000000"/></g></g></svg>
