<?xml version="1.0" encoding="UTF-8"?>
<svg xmlns="http://www.w3.org/2000/svg" version="1.1" width="300" height="300" viewBox="0 0 300 300"><rect x="0" y="0" width="300" height="300" fill="#ffffff"/><g transform="scale(4.615)"><g transform="translate(0,0)"><path fill-rule="evenodd" d="M8 0L8 1L9 1L9 2L8 2L8 5L9 5L9 6L8 6L8 7L9 7L9 8L8 8L8 9L9 9L9 10L8 10L8 12L9 12L9 13L8 13L8 15L7 15L7 14L6 14L6 13L7 13L7 12L6 12L6 11L7 11L7 10L6 10L6 9L7 9L7 8L6 8L6 9L5 9L5 10L4 10L4 11L3 11L3 9L4 9L4 8L0 8L0 9L2 9L2 11L3 11L3 12L1 12L1 13L0 13L0 15L1 15L1 13L3 13L3 14L4 14L4 15L2 15L2 16L0 16L0 17L2 17L2 16L3 16L3 18L2 18L2 19L0 19L0 20L3 20L3 21L2 21L2 22L3 22L3 23L2 23L2 24L0 24L0 26L2 26L2 27L0 27L0 29L1 29L1 31L3 31L3 30L4 30L4 37L3 37L3 36L0 36L0 37L1 37L1 39L5 39L5 40L2 40L2 41L1 41L1 40L0 40L0 41L1 41L1 42L0 42L0 43L1 43L1 44L0 44L0 46L1 46L1 47L2 47L2 48L0 48L0 49L1 49L1 50L0 50L0 53L1 53L1 54L2 54L2 55L3 55L3 56L1 56L1 55L0 55L0 56L1 56L1 57L3 57L3 56L4 56L4 57L5 57L5 56L4 56L4 54L5 54L5 55L7 55L7 54L6 54L6 53L7 53L7 52L8 52L8 51L9 51L9 53L11 53L11 55L12 55L12 52L13 52L13 53L14 53L14 54L13 54L13 56L12 56L12 57L11 57L11 58L10 58L10 59L9 59L9 61L8 61L8 65L11 65L11 64L13 64L13 65L18 65L18 64L16 64L16 63L17 63L17 62L15 62L15 60L16 60L16 59L15 59L15 58L16 58L16 57L15 57L15 56L14 56L14 55L16 55L16 54L17 54L17 52L16 52L16 53L14 53L14 52L13 52L13 51L14 51L14 50L12 50L12 51L10 51L10 49L12 49L12 48L11 48L11 47L13 47L13 48L14 48L14 49L17 49L17 48L16 48L16 47L18 47L18 46L17 46L17 44L18 44L18 42L19 42L19 46L22 46L22 47L23 47L23 48L25 48L25 50L23 50L23 49L22 49L22 48L21 48L21 47L20 47L20 48L21 48L21 49L19 49L19 48L18 48L18 50L16 50L16 51L19 51L19 50L20 50L20 51L21 51L21 53L22 53L22 54L21 54L21 55L20 55L20 54L18 54L18 55L17 55L17 56L19 56L19 58L20 58L20 57L21 57L21 60L23 60L23 61L22 61L22 63L21 63L21 64L19 64L19 65L22 65L22 64L23 64L23 65L29 65L29 64L31 64L31 65L32 65L32 64L31 64L31 61L33 61L33 62L37 62L37 63L40 63L40 64L41 64L41 65L45 65L45 64L46 64L46 65L48 65L48 63L47 63L47 64L46 64L46 61L47 61L47 60L48 60L48 61L49 61L49 62L50 62L50 63L49 63L49 64L51 64L51 63L52 63L52 64L53 64L53 65L56 65L56 64L55 64L55 63L56 63L56 62L54 62L54 64L53 64L53 63L52 63L52 62L53 62L53 61L59 61L59 63L60 63L60 64L61 64L61 65L62 65L62 63L60 63L60 62L61 62L61 61L64 61L64 58L65 58L65 57L64 57L64 58L63 58L63 60L61 60L61 59L62 59L62 58L61 58L61 56L62 56L62 57L63 57L63 56L64 56L64 55L62 55L62 54L61 54L61 56L60 56L60 55L58 55L58 56L56 56L56 55L55 55L55 54L57 54L57 53L59 53L59 54L60 54L60 53L59 53L59 52L62 52L62 51L63 51L63 52L65 52L65 49L64 49L64 48L65 48L65 47L64 47L64 45L65 45L65 44L64 44L64 43L63 43L63 42L64 42L64 41L65 41L65 40L63 40L63 41L62 41L62 42L60 42L60 41L61 41L61 40L62 40L62 39L61 39L61 38L62 38L62 37L64 37L64 38L63 38L63 39L65 39L65 37L64 37L64 36L65 36L65 35L64 35L64 34L65 34L65 33L64 33L64 34L63 34L63 30L64 30L64 29L63 29L63 28L62 28L62 26L63 26L63 27L64 27L64 28L65 28L65 25L63 25L63 24L65 24L65 23L64 23L64 22L65 22L65 20L64 20L64 19L63 19L63 18L62 18L62 17L61 17L61 18L60 18L60 19L61 19L61 23L60 23L60 22L56 22L56 21L60 21L60 20L58 20L58 19L59 19L59 17L57 17L57 18L56 18L56 17L55 17L55 18L56 18L56 19L57 19L57 20L56 20L56 21L55 21L55 20L54 20L54 19L52 19L52 20L51 20L51 18L54 18L54 17L51 17L51 16L50 16L50 17L48 17L48 16L46 16L46 15L44 15L44 14L45 14L45 13L44 13L44 12L43 12L43 10L44 10L44 11L45 11L45 10L44 10L44 9L42 9L42 8L43 8L43 6L42 6L42 5L41 5L41 4L44 4L44 5L45 5L45 6L44 6L44 7L45 7L45 9L46 9L46 8L47 8L47 9L48 9L48 10L49 10L49 9L51 9L51 8L52 8L52 9L53 9L53 8L54 8L54 11L53 11L53 13L55 13L55 14L54 14L54 15L56 15L56 14L58 14L58 13L59 13L59 15L57 15L57 16L59 16L59 15L60 15L60 13L62 13L62 14L63 14L63 12L61 12L61 11L60 11L60 10L58 10L58 8L57 8L57 6L56 6L56 8L54 8L54 7L55 7L55 5L54 5L54 7L53 7L53 5L52 5L52 3L50 3L50 1L49 1L49 0L48 0L48 2L47 2L47 1L46 1L46 0L45 0L45 1L44 1L44 0L41 0L41 2L43 2L43 3L41 3L41 4L40 4L40 8L39 8L39 10L41 10L41 11L42 11L42 12L41 12L41 13L43 13L43 14L42 14L42 15L40 15L40 16L41 16L41 17L40 17L40 18L38 18L38 17L39 17L39 16L38 16L38 17L37 17L37 18L38 18L38 19L36 19L36 17L34 17L34 19L33 19L33 20L35 20L35 19L36 19L36 20L39 20L39 19L40 19L40 21L39 21L39 23L38 23L38 24L37 24L37 22L35 22L35 21L34 21L34 22L35 22L35 23L36 23L36 24L34 24L34 23L33 23L33 21L32 21L32 22L31 22L31 20L30 20L30 19L29 19L29 17L30 17L30 15L32 15L32 17L31 17L31 18L33 18L33 16L34 16L34 15L32 15L32 14L31 14L31 13L32 13L32 12L33 12L33 13L34 13L34 10L32 10L32 9L35 9L35 11L36 11L36 12L35 12L35 14L37 14L37 15L39 15L39 14L40 14L40 13L37 13L37 10L38 10L38 7L39 7L39 4L37 4L37 3L38 3L38 1L37 1L37 0L35 0L35 1L36 1L36 2L34 2L34 3L36 3L36 4L37 4L37 6L36 6L36 5L35 5L35 4L31 4L31 1L32 1L32 2L33 2L33 1L34 1L34 0L33 0L33 1L32 1L32 0L29 0L29 1L27 1L27 0L22 0L22 1L24 1L24 2L25 2L25 1L26 1L26 2L29 2L29 3L28 3L28 4L25 4L25 5L28 5L28 4L29 4L29 5L30 5L30 9L31 9L31 10L32 10L32 11L31 11L31 13L30 13L30 11L29 11L29 10L27 10L27 9L28 9L28 8L29 8L29 6L28 6L28 7L27 7L27 6L26 6L26 8L27 8L27 9L26 9L26 10L25 10L25 8L24 8L24 9L23 9L23 8L22 8L22 7L23 7L23 6L22 6L22 3L23 3L23 2L21 2L21 1L20 1L20 0L19 0L19 1L20 1L20 4L19 4L19 3L18 3L18 1L17 1L17 3L18 3L18 4L19 4L19 5L21 5L21 6L20 6L20 8L19 8L19 10L18 10L18 11L19 11L19 10L20 10L20 12L21 12L21 14L20 14L20 13L19 13L19 12L18 12L18 13L17 13L17 10L16 10L16 7L17 7L17 6L18 6L18 7L19 7L19 6L18 6L18 5L17 5L17 4L16 4L16 3L15 3L15 2L16 2L16 0L15 0L15 1L14 1L14 0L12 0L12 1L13 1L13 4L14 4L14 5L13 5L13 6L12 6L12 5L11 5L11 4L12 4L12 2L11 2L11 4L9 4L9 3L10 3L10 1L9 1L9 0ZM39 0L39 1L40 1L40 0ZM51 0L51 1L52 1L52 0ZM53 0L53 2L54 2L54 4L56 4L56 5L57 5L57 4L56 4L56 3L57 3L57 1L56 1L56 0L55 0L55 1L56 1L56 3L55 3L55 2L54 2L54 0ZM29 1L29 2L30 2L30 1ZM43 1L43 2L44 2L44 1ZM45 1L45 3L44 3L44 4L45 4L45 5L46 5L46 6L45 6L45 7L46 7L46 6L47 6L47 7L48 7L48 6L49 6L49 8L48 8L48 9L49 9L49 8L50 8L50 3L49 3L49 4L47 4L47 3L46 3L46 1ZM39 2L39 3L40 3L40 2ZM29 3L29 4L30 4L30 3ZM23 4L23 5L24 5L24 4ZM10 5L10 6L9 6L9 7L10 7L10 10L9 10L9 11L10 11L10 13L9 13L9 14L10 14L10 15L9 15L9 17L8 17L8 16L7 16L7 15L4 15L4 17L5 17L5 18L4 18L4 19L6 19L6 20L5 20L5 22L4 22L4 24L3 24L3 25L2 25L2 26L4 26L4 24L7 24L7 25L5 25L5 27L6 27L6 28L8 28L8 26L10 26L10 25L12 25L12 26L11 26L11 27L10 27L10 28L9 28L9 29L8 29L8 30L9 30L9 32L10 32L10 33L9 33L9 36L8 36L8 35L5 35L5 36L8 36L8 38L7 38L7 37L5 37L5 38L7 38L7 39L6 39L6 40L7 40L7 41L5 41L5 42L3 42L3 41L2 41L2 43L4 43L4 44L2 44L2 45L4 45L4 46L3 46L3 50L1 50L1 52L2 52L2 54L3 54L3 52L4 52L4 53L5 53L5 50L4 50L4 49L5 49L5 48L4 48L4 46L5 46L5 47L6 47L6 48L7 48L7 47L6 47L6 46L8 46L8 49L6 49L6 50L8 50L8 49L9 49L9 47L11 47L11 46L12 46L12 45L14 45L14 46L15 46L15 47L16 47L16 44L17 44L17 43L14 43L14 42L15 42L15 41L16 41L16 40L18 40L18 41L17 41L17 42L18 42L18 41L19 41L19 42L20 42L20 45L21 45L21 44L22 44L22 43L23 43L23 45L24 45L24 46L25 46L25 47L26 47L26 50L25 50L25 51L24 51L24 52L26 52L26 55L27 55L27 56L25 56L25 55L24 55L24 54L25 54L25 53L24 53L24 54L23 54L23 56L24 56L24 57L27 57L27 59L23 59L23 60L26 60L26 63L25 63L25 61L24 61L24 63L23 63L23 64L24 64L24 63L25 63L25 64L26 64L26 63L27 63L27 62L30 62L30 61L29 61L29 60L30 60L30 56L31 56L31 55L30 55L30 56L28 56L28 55L29 55L29 54L34 54L34 55L35 55L35 54L36 54L36 55L37 55L37 56L36 56L36 58L35 58L35 59L38 59L38 61L39 61L39 62L40 62L40 63L41 63L41 64L42 64L42 62L43 62L43 63L45 63L45 62L44 62L44 61L45 61L45 60L46 60L46 59L47 59L47 56L48 56L48 59L50 59L50 60L51 60L51 61L53 61L53 60L54 60L54 56L55 56L55 55L54 55L54 54L55 54L55 53L57 53L57 50L55 50L55 49L58 49L58 50L59 50L59 51L61 51L61 50L62 50L62 48L63 48L63 47L62 47L62 46L63 46L63 45L62 45L62 44L61 44L61 43L59 43L59 41L60 41L60 40L61 40L61 39L60 39L60 40L57 40L57 41L56 41L56 40L55 40L55 41L54 41L54 38L55 38L55 37L58 37L58 36L60 36L60 37L59 37L59 38L61 38L61 36L63 36L63 34L62 34L62 35L58 35L58 36L57 36L57 35L55 35L55 36L54 36L54 35L53 35L53 34L51 34L51 33L52 33L52 32L50 32L50 30L51 30L51 31L54 31L54 32L55 32L55 31L56 31L56 30L57 30L57 29L58 29L58 27L60 27L60 28L59 28L59 29L60 29L60 30L61 30L61 31L62 31L62 29L61 29L61 27L60 27L60 26L61 26L61 25L62 25L62 24L63 24L63 22L62 22L62 23L61 23L61 25L60 25L60 23L54 23L54 20L53 20L53 21L52 21L52 25L54 25L54 26L55 26L55 24L59 24L59 25L57 25L57 26L56 26L56 27L54 27L54 28L56 28L56 29L54 29L54 30L52 30L52 29L53 29L53 28L51 28L51 29L50 29L50 28L49 28L49 26L50 26L50 24L51 24L51 20L50 20L50 19L49 19L49 20L48 20L48 17L47 17L47 19L46 19L46 18L45 18L45 17L46 17L46 16L45 16L45 17L44 17L44 19L43 19L43 16L44 16L44 15L42 15L42 17L41 17L41 18L40 18L40 19L43 19L43 22L41 22L41 21L42 21L42 20L41 20L41 21L40 21L40 22L41 22L41 23L40 23L40 24L39 24L39 25L40 25L40 26L39 26L39 28L38 28L38 29L37 29L37 27L38 27L38 26L37 26L37 25L34 25L34 24L33 24L33 23L32 23L32 24L33 24L33 25L31 25L31 23L30 23L30 25L28 25L28 24L26 24L26 23L27 23L27 22L28 22L28 23L29 23L29 22L30 22L30 20L28 20L28 19L23 19L23 20L22 20L22 18L23 18L23 15L24 15L24 16L25 16L25 17L24 17L24 18L25 18L25 17L26 17L26 16L25 16L25 15L24 15L24 12L25 12L25 10L21 10L21 9L20 9L20 10L21 10L21 12L22 12L22 13L23 13L23 15L22 15L22 16L17 16L17 15L19 15L19 14L17 14L17 13L16 13L16 12L15 12L15 13L13 13L13 14L12 14L12 12L11 12L11 11L10 11L10 10L12 10L12 11L14 11L14 10L15 10L15 8L14 8L14 10L12 10L12 9L13 9L13 7L14 7L14 6L13 6L13 7L12 7L12 6L11 6L11 5ZM15 5L15 7L16 7L16 5ZM31 5L31 8L34 8L34 5ZM47 5L47 6L48 6L48 5ZM10 6L10 7L11 7L11 6ZM21 6L21 7L22 7L22 6ZM24 6L24 7L25 7L25 6ZM32 6L32 7L33 7L33 6ZM35 6L35 7L36 7L36 6ZM37 6L37 7L38 7L38 6ZM41 6L41 7L42 7L42 6ZM51 6L51 7L52 7L52 6ZM11 8L11 9L12 9L12 8ZM17 8L17 9L18 9L18 8ZM36 8L36 9L37 9L37 8ZM60 8L60 9L61 9L61 10L63 10L63 11L64 11L64 12L65 12L65 11L64 11L64 10L65 10L65 8L64 8L64 9L63 9L63 8ZM56 9L56 10L55 10L55 11L54 11L54 12L55 12L55 13L56 13L56 12L57 12L57 13L58 13L58 12L59 12L59 11L58 11L58 12L57 12L57 9ZM0 10L0 11L1 11L1 10ZM5 10L5 11L6 11L6 10ZM46 10L46 13L47 13L47 12L48 12L48 14L49 14L49 15L52 15L52 16L53 16L53 15L52 15L52 11L51 11L51 12L50 12L50 11L47 11L47 10ZM26 11L26 13L27 13L27 12L28 12L28 13L29 13L29 14L27 14L27 16L28 16L28 17L29 17L29 16L28 16L28 15L30 15L30 13L29 13L29 12L28 12L28 11ZM39 11L39 12L40 12L40 11ZM55 11L55 12L56 12L56 11ZM4 12L4 13L5 13L5 12ZM49 12L49 14L50 14L50 12ZM10 13L10 14L11 14L11 13ZM64 13L64 17L65 17L65 13ZM14 14L14 15L15 15L15 16L16 16L16 14ZM11 15L11 16L12 16L12 15ZM35 15L35 16L36 16L36 15ZM61 15L61 16L62 16L62 15ZM5 16L5 17L7 17L7 16ZM13 16L13 17L14 17L14 18L13 18L13 19L12 19L12 18L11 18L11 19L10 19L10 18L6 18L6 19L9 19L9 20L6 20L6 21L9 21L9 22L6 22L6 23L7 23L7 24L9 24L9 25L10 25L10 24L11 24L11 23L12 23L12 24L14 24L14 23L12 23L12 22L13 22L13 21L14 21L14 22L15 22L15 21L14 21L14 20L15 20L15 18L16 18L16 23L15 23L15 25L14 25L14 26L12 26L12 27L13 27L13 28L11 28L11 29L9 29L9 30L10 30L10 32L11 32L11 33L10 33L10 35L12 35L12 34L13 34L13 35L14 35L14 36L13 36L13 37L12 37L12 36L10 36L10 38L8 38L8 39L7 39L7 40L8 40L8 41L7 41L7 42L6 42L6 43L8 43L8 41L11 41L11 42L9 42L9 43L11 43L11 45L9 45L9 46L11 46L11 45L12 45L12 44L14 44L14 45L15 45L15 44L14 44L14 43L13 43L13 42L14 42L14 41L15 41L15 40L16 40L16 39L17 39L17 38L16 38L16 37L17 37L17 36L18 36L18 37L19 37L19 40L23 40L23 43L24 43L24 44L27 44L27 42L28 42L28 43L29 43L29 44L28 44L28 47L27 47L27 45L26 45L26 47L27 47L27 49L30 49L30 47L31 47L31 48L32 48L32 50L30 50L30 51L29 51L29 52L28 52L28 50L26 50L26 52L28 52L28 53L27 53L27 54L29 54L29 53L31 53L31 51L32 51L32 50L33 50L33 52L35 52L35 53L34 53L34 54L35 54L35 53L36 53L36 52L35 52L35 50L37 50L37 48L38 48L38 47L36 47L36 46L38 46L38 44L39 44L39 46L42 46L42 48L43 48L43 49L44 49L44 50L46 50L46 49L44 49L44 48L48 48L48 49L47 49L47 50L48 50L48 49L49 49L49 48L50 48L50 45L51 45L51 46L53 46L53 49L52 49L52 48L51 48L51 49L50 49L50 50L49 50L49 54L47 54L47 53L46 53L46 52L47 52L47 51L44 51L44 52L43 52L43 50L42 50L42 49L41 49L41 50L40 50L40 47L39 47L39 49L38 49L38 52L41 52L41 53L39 53L39 54L38 54L38 53L37 53L37 54L38 54L38 56L37 56L37 58L38 58L38 56L39 56L39 58L41 58L41 60L42 60L42 61L43 61L43 60L42 60L42 59L44 59L44 60L45 60L45 59L46 59L46 58L45 58L45 57L43 57L43 55L40 55L40 56L39 56L39 54L41 54L41 53L43 53L43 54L44 54L44 53L46 53L46 55L48 55L48 56L49 56L49 58L50 58L50 57L51 57L51 56L52 56L52 57L53 57L53 56L54 56L54 55L51 55L51 54L54 54L54 53L55 53L55 52L56 52L56 51L55 51L55 50L54 50L54 49L55 49L55 48L54 48L54 47L55 47L55 46L56 46L56 47L57 47L57 46L56 46L56 43L58 43L58 45L59 45L59 48L60 48L60 46L62 46L62 45L61 45L61 44L59 44L59 43L58 43L58 41L57 41L57 42L56 42L56 43L55 43L55 45L53 45L53 44L51 44L51 43L52 43L52 42L50 42L50 41L51 41L51 39L52 39L52 40L53 40L53 39L52 39L52 38L54 38L54 37L52 37L52 38L51 38L51 36L52 36L52 35L51 35L51 36L50 36L50 34L49 34L49 33L50 33L50 32L49 32L49 30L50 30L50 29L48 29L48 27L47 27L47 28L46 28L46 27L45 27L45 26L46 26L46 25L44 25L44 24L46 24L46 23L47 23L47 25L48 25L48 26L49 26L49 24L50 24L50 22L49 22L49 21L50 21L50 20L49 20L49 21L48 21L48 20L46 20L46 19L45 19L45 21L44 21L44 22L43 22L43 23L41 23L41 24L42 24L42 25L41 25L41 26L40 26L40 28L39 28L39 29L40 29L40 30L42 30L42 29L40 29L40 28L43 28L43 29L45 29L45 28L46 28L46 31L47 31L47 32L49 32L49 33L48 33L48 34L45 34L45 33L46 33L46 32L45 32L45 33L43 33L43 32L44 32L44 31L45 31L45 30L43 30L43 32L42 32L42 31L39 31L39 30L36 30L36 29L35 29L35 28L36 28L36 27L34 27L34 29L33 29L33 26L34 26L34 25L33 25L33 26L32 26L32 29L31 29L31 27L29 27L29 26L28 26L28 25L27 25L27 26L26 26L26 27L25 27L25 26L24 26L24 27L20 27L20 28L19 28L19 29L18 29L18 28L17 28L17 26L16 26L16 28L15 28L15 25L18 25L18 26L21 26L21 25L22 25L22 26L23 26L23 25L22 25L22 24L25 24L25 25L26 25L26 24L25 24L25 23L26 23L26 22L25 22L25 20L24 20L24 21L23 21L23 22L24 22L24 23L22 23L22 20L20 20L20 19L18 19L18 18L19 18L19 17L17 17L17 18L16 18L16 17L14 17L14 16ZM50 17L50 18L51 18L51 17ZM61 18L61 19L62 19L62 18ZM11 19L11 20L12 20L12 19ZM13 19L13 20L14 20L14 19ZM9 20L9 21L10 21L10 20ZM26 20L26 21L27 21L27 20ZM0 21L0 22L1 22L1 21ZM11 21L11 22L9 22L9 24L10 24L10 23L11 23L11 22L12 22L12 21ZM17 21L17 23L16 23L16 24L17 24L17 23L18 23L18 24L19 24L19 25L20 25L20 24L21 24L21 23L19 23L19 22L18 22L18 21ZM20 21L20 22L21 22L21 21ZM46 21L46 22L47 22L47 23L49 23L49 22L48 22L48 21ZM44 22L44 23L45 23L45 22ZM42 25L42 26L41 26L41 27L42 27L42 26L43 26L43 28L45 28L45 27L44 27L44 26L43 26L43 25ZM6 26L6 27L7 27L7 26ZM51 26L51 27L52 27L52 26ZM57 26L57 27L58 27L58 26ZM3 27L3 28L1 28L1 29L2 29L2 30L3 30L3 29L4 29L4 30L7 30L7 29L4 29L4 27ZM24 27L24 28L21 28L21 29L20 29L20 31L19 31L19 32L18 32L18 29L17 29L17 28L16 28L16 29L14 29L14 28L13 28L13 29L12 29L12 30L11 30L11 32L12 32L12 33L11 33L11 34L12 34L12 33L13 33L13 32L14 32L14 31L13 31L13 30L15 30L15 33L14 33L14 34L15 34L15 36L14 36L14 37L13 37L13 38L12 38L12 39L10 39L10 40L12 40L12 42L11 42L11 43L12 43L12 42L13 42L13 40L15 40L15 39L13 39L13 38L15 38L15 37L16 37L16 34L18 34L18 36L19 36L19 32L20 32L20 31L21 31L21 33L20 33L20 34L21 34L21 35L23 35L23 34L22 34L22 31L23 31L23 30L25 30L25 31L24 31L24 32L25 32L25 33L27 33L27 32L28 32L28 34L27 34L27 35L26 35L26 34L24 34L24 36L22 36L22 38L21 38L21 39L22 39L22 38L23 38L23 40L25 40L25 39L26 39L26 40L28 40L28 39L26 39L26 38L25 38L25 37L27 37L27 36L28 36L28 34L30 34L30 30L31 30L31 29L29 29L29 27L27 27L27 28L28 28L28 29L27 29L27 30L25 30L25 27ZM16 29L16 30L17 30L17 29ZM28 29L28 30L29 30L29 29ZM32 29L32 30L33 30L33 29ZM47 29L47 31L48 31L48 29ZM21 30L21 31L22 31L22 30ZM35 30L35 32L36 32L36 33L37 33L37 34L38 34L38 36L37 36L37 38L35 38L35 37L36 37L36 36L35 36L35 35L36 35L36 34L35 34L35 35L33 35L33 36L34 36L34 37L33 37L33 38L32 38L32 35L31 35L31 37L30 37L30 39L29 39L29 40L30 40L30 41L29 41L29 42L30 42L30 44L29 44L29 47L28 47L28 48L29 48L29 47L30 47L30 46L33 46L33 44L31 44L31 42L32 42L32 43L33 43L33 41L36 41L36 43L39 43L39 39L40 39L40 37L42 37L42 38L41 38L41 40L40 40L40 43L41 43L41 45L42 45L42 43L43 43L43 44L44 44L44 46L43 46L43 47L44 47L44 46L45 46L45 47L46 47L46 46L47 46L47 45L49 45L49 44L50 44L50 42L49 42L49 41L50 41L50 40L49 40L49 39L50 39L50 36L49 36L49 37L47 37L47 36L46 36L46 37L45 37L45 36L44 36L44 37L45 37L45 38L43 38L43 35L42 35L42 32L41 32L41 33L40 33L40 32L39 32L39 31L38 31L38 32L39 32L39 33L37 33L37 31L36 31L36 30ZM5 31L5 34L8 34L8 31ZM31 31L31 34L34 34L34 31ZM57 31L57 34L60 34L60 31ZM64 31L64 32L65 32L65 31ZM0 32L0 35L1 35L1 34L2 34L2 35L3 35L3 33L2 33L2 32ZM6 32L6 33L7 33L7 32ZM32 32L32 33L33 33L33 32ZM58 32L58 33L59 33L59 32ZM61 32L61 33L62 33L62 32ZM15 33L15 34L16 34L16 33ZM39 33L39 34L40 34L40 33ZM55 33L55 34L56 34L56 33ZM44 34L44 35L45 35L45 34ZM48 34L48 35L49 35L49 34ZM29 35L29 36L30 36L30 35ZM38 36L38 39L39 39L39 37L40 37L40 36ZM2 37L2 38L3 38L3 37ZM28 37L28 38L29 38L29 37ZM34 38L34 40L35 40L35 38ZM42 38L42 40L41 40L41 41L45 41L45 42L46 42L46 44L47 44L47 43L48 43L48 44L49 44L49 42L48 42L48 41L46 41L46 40L45 40L45 39L46 39L46 38L45 38L45 39L44 39L44 40L43 40L43 38ZM56 38L56 39L57 39L57 38ZM8 39L8 40L9 40L9 39ZM12 39L12 40L13 40L13 39ZM30 39L30 40L31 40L31 41L32 41L32 40L33 40L33 39ZM47 39L47 40L48 40L48 39ZM37 40L37 41L38 41L38 40ZM21 41L21 43L22 43L22 41ZM24 41L24 43L25 43L25 41ZM34 42L34 47L32 47L32 48L34 48L34 49L35 49L35 46L36 46L36 45L37 45L37 44L36 44L36 45L35 45L35 42ZM41 42L41 43L42 43L42 42ZM43 42L43 43L44 43L44 42ZM53 42L53 43L54 43L54 42ZM4 44L4 45L5 45L5 46L6 46L6 45L8 45L8 44ZM30 44L30 45L31 45L31 44ZM45 45L45 46L46 46L46 45ZM48 46L48 47L49 47L49 46ZM21 49L21 50L22 50L22 51L23 51L23 50L22 50L22 49ZM51 49L51 51L50 51L50 52L51 52L51 51L53 51L53 52L52 52L52 53L53 53L53 52L54 52L54 50L52 50L52 49ZM41 50L41 52L42 52L42 50ZM6 51L6 52L7 52L7 51ZM18 52L18 53L19 53L19 52ZM50 53L50 54L51 54L51 53ZM9 54L9 55L8 55L8 56L6 56L6 57L8 57L8 58L9 58L9 55L10 55L10 54ZM19 55L19 56L20 56L20 55ZM21 55L21 57L22 57L22 55ZM32 55L32 56L33 56L33 55ZM49 55L49 56L50 56L50 55ZM41 56L41 58L42 58L42 56ZM13 57L13 59L11 59L11 60L15 60L15 59L14 59L14 57ZM31 57L31 60L34 60L34 57ZM57 57L57 60L60 60L60 57ZM17 58L17 59L18 59L18 60L17 60L17 61L18 61L18 62L19 62L19 61L20 61L20 62L21 62L21 61L20 61L20 59L18 59L18 58ZM28 58L28 60L29 60L29 58ZM32 58L32 59L33 59L33 58ZM44 58L44 59L45 59L45 58ZM55 58L55 60L56 60L56 58ZM58 58L58 59L59 59L59 58ZM51 59L51 60L53 60L53 59ZM39 60L39 61L40 61L40 60ZM10 61L10 63L9 63L9 64L10 64L10 63L11 63L11 61ZM12 61L12 63L13 63L13 64L15 64L15 62L14 62L14 61ZM13 62L13 63L14 63L14 62ZM64 62L64 63L63 63L63 65L64 65L64 63L65 63L65 62ZM28 63L28 64L29 64L29 63ZM34 63L34 64L35 64L35 65L36 65L36 64L35 64L35 63ZM57 63L57 65L59 65L59 64L58 64L58 63ZM38 64L38 65L39 65L39 64ZM0 0L0 7L7 7L7 0ZM1 1L1 6L6 6L6 1ZM2 2L2 5L5 5L5 2ZM58 0L58 7L65 7L65 0ZM59 1L59 6L64 6L64 1ZM60 2L60 5L63 5L63 2ZM0 58L0 65L7 65L7 58ZM1 59L1 64L6 64L6 59ZM2 60L2 63L5 63L5 60Z" fill="#000000"/></g></g></svg>
