<?xml version="1.0" encoding="UTF-8"?>
<svg xmlns="http://www.w3.org/2000/svg" version="1.1" width="300" height="300" viewBox="0 0 300 300"><rect x="0" y="0" width="300" height="300" fill="#ffffff"/><g transform="scale(4.615)"><g transform="translate(0,0)"><path fill-rule="evenodd" d="M10 0L10 1L8 1L8 2L10 2L10 1L12 1L12 0ZM14 0L14 1L13 1L13 2L11 2L11 3L10 3L10 4L11 4L11 5L8 5L8 7L9 7L9 6L10 6L10 7L11 7L11 6L12 6L12 7L13 7L13 6L12 6L12 5L14 5L14 7L15 7L15 8L13 8L13 9L14 9L14 11L13 11L13 10L11 10L11 11L10 11L10 8L6 8L6 9L8 9L8 10L9 10L9 13L8 13L8 14L9 14L9 13L11 13L11 14L10 14L10 15L11 15L11 14L12 14L12 13L11 13L11 11L12 11L12 12L14 12L14 11L15 11L15 12L16 12L16 11L15 11L15 8L16 8L16 10L17 10L17 9L19 9L19 10L18 10L18 11L19 11L19 12L18 12L18 13L20 13L20 12L21 12L21 16L20 16L20 17L19 17L19 16L18 16L18 15L20 15L20 14L18 14L18 15L17 15L17 14L16 14L16 13L13 13L13 15L14 15L14 14L16 14L16 15L15 15L15 16L13 16L13 17L12 17L12 16L10 16L10 18L9 18L9 17L7 17L7 16L6 16L6 15L7 15L7 14L6 14L6 13L7 13L7 12L6 12L6 11L7 11L7 10L6 10L6 11L4 11L4 10L5 10L5 8L0 8L0 9L2 9L2 10L0 10L0 11L2 11L2 13L4 13L4 12L5 12L5 14L4 14L4 15L3 15L3 14L1 14L1 15L2 15L2 16L1 16L1 17L0 17L0 19L1 19L1 20L2 20L2 21L1 21L1 22L2 22L2 23L1 23L1 24L0 24L0 26L1 26L1 27L2 27L2 29L1 29L1 28L0 28L0 30L2 30L2 31L0 31L0 39L1 39L1 38L3 38L3 40L2 40L2 41L3 41L3 42L2 42L2 44L1 44L1 42L0 42L0 44L1 44L1 49L0 49L0 50L1 50L1 51L2 51L2 55L3 55L3 56L1 56L1 55L0 55L0 56L1 56L1 57L3 57L3 56L4 56L4 57L5 57L5 56L4 56L4 54L5 54L5 55L7 55L7 56L6 56L6 57L7 57L7 56L8 56L8 59L9 59L9 60L8 60L8 65L9 65L9 64L10 64L10 63L11 63L11 64L12 64L12 65L14 65L14 64L15 64L15 65L17 65L17 63L18 63L18 65L19 65L19 64L21 64L21 63L22 63L22 64L24 64L24 63L22 63L22 62L24 62L24 61L26 61L26 62L25 62L25 65L26 65L26 64L27 64L27 65L29 65L29 64L30 64L30 65L33 65L33 64L34 64L34 63L33 63L33 64L30 64L30 63L32 63L32 62L34 62L34 61L37 61L37 60L39 60L39 62L38 62L38 63L39 63L39 62L40 62L40 64L38 64L38 65L40 65L40 64L41 64L41 65L44 65L44 64L45 64L45 65L46 65L46 64L45 64L45 63L47 63L47 64L48 64L48 65L49 65L49 64L48 64L48 63L49 63L49 62L50 62L50 63L51 63L51 65L52 65L52 64L53 64L53 62L55 62L55 63L56 63L56 64L57 64L57 65L63 65L63 64L64 64L64 60L65 60L65 59L64 59L64 60L62 60L62 59L61 59L61 58L62 58L62 57L63 57L63 56L62 56L62 53L63 53L63 54L65 54L65 53L64 53L64 52L62 52L62 51L63 51L63 50L62 50L62 51L61 51L61 49L64 49L64 50L65 50L65 49L64 49L64 48L62 48L62 46L64 46L64 45L63 45L63 44L62 44L62 43L63 43L63 42L61 42L61 41L60 41L60 38L61 38L61 40L62 40L62 41L63 41L63 40L62 40L62 38L65 38L65 37L63 37L63 36L62 36L62 35L63 35L63 34L65 34L65 32L62 32L62 31L61 31L61 30L62 30L62 29L64 29L64 30L65 30L65 29L64 29L64 28L65 28L65 27L64 27L64 28L62 28L62 27L63 27L63 24L64 24L64 26L65 26L65 23L63 23L63 21L64 21L64 22L65 22L65 21L64 21L64 20L62 20L62 19L63 19L63 18L65 18L65 15L64 15L64 14L65 14L65 13L62 13L62 11L61 11L61 12L60 12L60 11L59 11L59 10L58 10L58 8L56 8L56 9L54 9L54 10L53 10L53 9L52 9L52 8L53 8L53 6L52 6L52 5L54 5L54 8L55 8L55 5L54 5L54 4L56 4L56 5L57 5L57 4L56 4L56 3L57 3L57 1L56 1L56 0L55 0L55 1L56 1L56 3L55 3L55 2L54 2L54 4L52 4L52 3L53 3L53 2L52 2L52 0L51 0L51 1L48 1L48 2L51 2L51 3L50 3L50 4L51 4L51 5L48 5L48 4L49 4L49 3L48 3L48 4L47 4L47 5L46 5L46 4L45 4L45 5L44 5L44 3L46 3L46 2L47 2L47 1L46 1L46 2L45 2L45 1L43 1L43 0L42 0L42 1L43 1L43 2L44 2L44 3L41 3L41 2L40 2L40 0L39 0L39 1L38 1L38 2L39 2L39 3L41 3L41 5L42 5L42 7L41 7L41 6L40 6L40 7L39 7L39 5L40 5L40 4L39 4L39 5L38 5L38 4L37 4L37 3L36 3L36 1L35 1L35 0L34 0L34 1L33 1L33 3L31 3L31 2L30 2L30 1L32 1L32 0L29 0L29 1L28 1L28 0L26 0L26 1L25 1L25 0L24 0L24 2L23 2L23 0L21 0L21 1L22 1L22 2L21 2L21 3L20 3L20 4L21 4L21 5L22 5L22 7L23 7L23 5L22 5L22 4L24 4L24 5L25 5L25 6L24 6L24 8L25 8L25 9L21 9L21 6L20 6L20 7L19 7L19 4L18 4L18 3L17 3L17 2L18 2L18 0L16 0L16 1L15 1L15 0ZM19 0L19 2L20 2L20 0ZM53 0L53 1L54 1L54 0ZM14 1L14 2L13 2L13 3L12 3L12 4L13 4L13 3L16 3L16 2L17 2L17 1L16 1L16 2L15 2L15 1ZM27 1L27 2L28 2L28 1ZM34 1L34 3L33 3L33 4L35 4L35 9L33 9L33 12L32 12L32 14L31 14L31 18L30 18L30 17L28 17L28 16L30 16L30 15L29 15L29 14L30 14L30 13L31 13L31 12L29 12L29 11L30 11L30 10L29 10L29 9L28 9L28 8L29 8L29 7L30 7L30 6L29 6L29 5L30 5L30 4L31 4L31 3L30 3L30 2L29 2L29 3L27 3L27 4L25 4L25 3L26 3L26 2L25 2L25 3L24 3L24 4L25 4L25 5L26 5L26 6L25 6L25 8L26 8L26 9L25 9L25 10L26 10L26 9L27 9L27 11L28 11L28 12L26 12L26 13L25 13L25 16L24 16L24 15L23 15L23 14L24 14L24 13L23 13L23 12L24 12L24 11L23 11L23 12L22 12L22 13L23 13L23 14L22 14L22 15L23 15L23 16L22 16L22 17L20 17L20 18L19 18L19 17L18 17L18 16L17 16L17 15L16 15L16 17L14 17L14 18L12 18L12 17L11 17L11 19L15 19L15 18L16 18L16 19L18 19L18 18L19 18L19 19L21 19L21 20L22 20L22 21L20 21L20 20L19 20L19 21L20 21L20 23L19 23L19 25L18 25L18 27L16 27L16 29L15 29L15 26L17 26L17 25L16 25L16 24L17 24L17 21L18 21L18 20L15 20L15 21L16 21L16 22L14 22L14 20L13 20L13 21L12 21L12 20L11 20L11 21L10 21L10 22L11 22L11 23L10 23L10 24L11 24L11 23L12 23L12 22L14 22L14 23L13 23L13 24L12 24L12 25L9 25L9 23L5 23L5 21L6 21L6 22L7 22L7 21L8 21L8 22L9 22L9 21L8 21L8 20L7 20L7 19L2 19L2 18L1 18L1 19L2 19L2 20L3 20L3 21L2 21L2 22L3 22L3 21L4 21L4 23L2 23L2 24L1 24L1 25L3 25L3 24L4 24L4 27L3 27L3 26L2 26L2 27L3 27L3 28L5 28L5 27L6 27L6 28L7 28L7 29L4 29L4 30L10 30L10 29L12 29L12 28L10 28L10 27L11 27L11 26L12 26L12 27L13 27L13 30L14 30L14 31L15 31L15 32L16 32L16 31L15 31L15 30L16 30L16 29L17 29L17 33L16 33L16 35L14 35L14 34L13 34L13 33L12 33L12 34L11 34L11 35L10 35L10 33L11 33L11 32L13 32L13 31L11 31L11 32L9 32L9 35L10 35L10 36L11 36L11 37L12 37L12 38L9 38L9 36L8 36L8 35L6 35L6 36L7 36L7 37L6 37L6 38L4 38L4 36L5 36L5 35L4 35L4 34L3 34L3 32L4 32L4 31L3 31L3 32L2 32L2 33L1 33L1 35L2 35L2 34L3 34L3 38L4 38L4 40L3 40L3 41L4 41L4 42L8 42L8 40L7 40L7 39L8 39L8 38L9 38L9 39L10 39L10 40L12 40L12 42L11 42L11 41L9 41L9 42L11 42L11 44L9 44L9 43L5 43L5 44L7 44L7 45L6 45L6 46L7 46L7 47L6 47L6 48L4 48L4 47L5 47L5 45L4 45L4 46L3 46L3 44L2 44L2 46L3 46L3 47L2 47L2 48L4 48L4 49L6 49L6 50L5 50L5 51L4 51L4 52L5 52L5 54L9 54L9 55L10 55L10 56L9 56L9 57L10 57L10 58L9 58L9 59L10 59L10 58L11 58L11 61L10 61L10 62L11 62L11 63L12 63L12 64L14 64L14 62L16 62L16 61L17 61L17 62L19 62L19 63L20 63L20 62L19 62L19 61L24 61L24 59L25 59L25 60L26 60L26 61L27 61L27 62L28 62L28 61L29 61L29 63L30 63L30 62L32 62L32 61L29 61L29 60L30 60L30 59L28 59L28 61L27 61L27 58L30 58L30 56L29 56L29 57L27 57L27 56L28 56L28 55L29 55L29 54L30 54L30 53L31 53L31 54L32 54L32 55L33 55L33 53L32 53L32 52L31 52L31 51L35 51L35 50L34 50L34 48L33 48L33 49L32 49L32 48L31 48L31 47L32 47L32 46L31 46L31 45L34 45L34 46L33 46L33 47L36 47L36 45L34 45L34 44L38 44L38 46L37 46L37 50L36 50L36 52L34 52L34 55L35 55L35 56L37 56L37 55L38 55L38 56L39 56L39 57L38 57L38 58L36 58L36 60L37 60L37 59L38 59L38 58L40 58L40 59L41 59L41 58L40 58L40 57L43 57L43 56L44 56L44 59L45 59L45 58L47 58L47 57L46 57L46 54L47 54L47 55L48 55L48 56L52 56L52 57L50 57L50 58L52 58L52 59L50 59L50 60L49 60L49 59L48 59L48 60L47 60L47 59L46 59L46 61L45 61L45 60L43 60L43 61L44 61L44 62L42 62L42 61L41 61L41 60L40 60L40 62L41 62L41 63L43 63L43 64L44 64L44 63L45 63L45 62L47 62L47 63L48 63L48 62L47 62L47 61L48 61L48 60L49 60L49 61L50 61L50 62L51 62L51 63L52 63L52 61L53 61L53 58L54 58L54 59L56 59L56 58L54 58L54 57L56 57L56 56L54 56L54 54L53 54L53 56L52 56L52 54L51 54L51 53L55 53L55 55L59 55L59 56L60 56L60 55L61 55L61 54L56 54L56 52L57 52L57 53L58 53L58 52L57 52L57 51L59 51L59 52L60 52L60 51L59 51L59 48L60 48L60 49L61 49L61 47L59 47L59 46L60 46L60 45L61 45L61 46L62 46L62 45L61 45L61 44L59 44L59 45L58 45L58 43L59 43L59 42L58 42L58 43L57 43L57 44L55 44L55 43L56 43L56 42L57 42L57 40L54 40L54 39L59 39L59 38L58 38L58 35L56 35L56 36L55 36L55 34L56 34L56 30L60 30L60 29L56 29L56 28L58 28L58 27L56 27L56 26L57 26L57 25L58 25L58 26L59 26L59 27L60 27L60 28L61 28L61 27L60 27L60 26L61 26L61 25L62 25L62 24L63 24L63 23L62 23L62 24L61 24L61 23L60 23L60 22L61 22L61 21L62 21L62 20L61 20L61 21L58 21L58 20L59 20L59 19L60 19L60 17L59 17L59 16L61 16L61 15L62 15L62 16L64 16L64 15L62 15L62 14L61 14L61 15L59 15L59 16L58 16L58 17L56 17L56 16L57 16L57 14L59 14L59 13L58 13L58 10L57 10L57 9L56 9L56 11L55 11L55 10L54 10L54 12L52 12L52 11L53 11L53 10L52 10L52 9L50 9L50 8L51 8L51 7L52 7L52 6L51 6L51 7L50 7L50 6L49 6L49 7L48 7L48 5L47 5L47 8L46 8L46 5L45 5L45 8L44 8L44 5L43 5L43 7L42 7L42 8L39 8L39 7L38 7L38 5L37 5L37 7L36 7L36 3L35 3L35 1ZM8 3L8 4L9 4L9 3ZM21 3L21 4L22 4L22 3ZM16 4L16 6L15 6L15 7L16 7L16 8L17 8L17 7L18 7L18 6L17 6L17 5L18 5L18 4ZM27 5L27 6L26 6L26 7L27 7L27 6L28 6L28 7L29 7L29 6L28 6L28 5ZM31 5L31 8L34 8L34 5ZM16 6L16 7L17 7L17 6ZM32 6L32 7L33 7L33 6ZM56 6L56 7L57 7L57 6ZM37 7L37 8L36 8L36 10L35 10L35 11L34 11L34 12L33 12L33 13L37 13L37 14L36 14L36 17L35 17L35 18L34 18L34 15L35 15L35 14L32 14L32 16L33 16L33 18L31 18L31 19L30 19L30 20L31 20L31 21L30 21L30 23L29 23L29 22L26 22L26 21L24 21L24 23L23 23L23 24L25 24L25 25L22 25L22 24L20 24L20 25L19 25L19 27L18 27L18 29L19 29L19 30L18 30L18 33L17 33L17 35L16 35L16 36L15 36L15 37L13 37L13 38L12 38L12 40L13 40L13 41L14 41L14 39L15 39L15 41L17 41L17 39L15 39L15 37L18 37L18 39L19 39L19 40L18 40L18 41L19 41L19 42L18 42L18 43L19 43L19 44L17 44L17 46L18 46L18 47L20 47L20 46L18 46L18 45L20 45L20 44L21 44L21 43L20 43L20 41L22 41L22 43L23 43L23 45L21 45L21 48L20 48L20 49L19 49L19 48L18 48L18 49L17 49L17 48L16 48L16 47L15 47L15 46L16 46L16 45L15 45L15 44L16 44L16 43L17 43L17 42L12 42L12 47L10 47L10 45L7 45L7 46L9 46L9 47L7 47L7 48L6 48L6 49L9 49L9 50L8 50L8 51L7 51L7 50L6 50L6 51L7 51L7 52L6 52L6 53L7 53L7 52L9 52L9 54L10 54L10 53L11 53L11 56L10 56L10 57L11 57L11 58L12 58L12 61L13 61L13 59L14 59L14 57L13 57L13 58L12 58L12 57L11 57L11 56L12 56L12 53L13 53L13 52L12 52L12 50L13 50L13 43L15 43L15 44L14 44L14 47L15 47L15 48L14 48L14 50L15 50L15 52L16 52L16 53L17 53L17 54L18 54L18 55L19 55L19 56L18 56L18 57L19 57L19 58L18 58L18 60L17 60L17 59L16 59L16 57L17 57L17 56L16 56L16 55L15 55L15 54L13 54L13 55L15 55L15 59L16 59L16 60L14 60L14 61L16 61L16 60L17 60L17 61L19 61L19 58L20 58L20 59L22 59L22 58L25 58L25 59L26 59L26 58L27 58L27 57L26 57L26 53L23 53L23 54L20 54L20 53L22 53L22 52L21 52L21 51L22 51L22 50L21 50L21 51L20 51L20 49L21 49L21 48L23 48L23 50L24 50L24 51L23 51L23 52L26 52L26 51L25 51L25 49L26 49L26 50L27 50L27 53L29 53L29 52L30 52L30 51L31 51L31 50L30 50L30 51L29 51L29 50L28 50L28 49L29 49L29 48L28 48L28 47L26 47L26 48L25 48L25 46L28 46L28 45L26 45L26 42L27 42L27 41L26 41L26 39L27 39L27 38L25 38L25 37L30 37L30 38L29 38L29 39L30 39L30 41L31 41L31 44L32 44L32 41L33 41L33 42L34 42L34 43L33 43L33 44L34 44L34 43L35 43L35 42L36 42L36 43L37 43L37 42L38 42L38 43L40 43L40 44L42 44L42 45L39 45L39 46L38 46L38 47L40 47L40 48L39 48L39 50L38 50L38 53L39 53L39 54L38 54L38 55L39 55L39 56L41 56L41 55L40 55L40 54L41 54L41 53L40 53L40 52L41 52L41 51L42 51L42 52L43 52L43 53L42 53L42 54L43 54L43 55L42 55L42 56L43 56L43 55L44 55L44 56L45 56L45 55L44 55L44 52L45 52L45 49L47 49L47 48L46 48L46 47L47 47L47 46L48 46L48 47L49 47L49 48L48 48L48 51L47 51L47 50L46 50L46 51L47 51L47 52L46 52L46 53L45 53L45 54L46 54L46 53L47 53L47 54L48 54L48 55L51 55L51 54L49 54L49 53L50 53L50 51L52 51L52 52L53 52L53 51L54 51L54 52L56 52L56 51L54 51L54 50L56 50L56 49L54 49L54 50L53 50L53 49L52 49L52 48L53 48L53 47L52 47L52 46L55 46L55 44L53 44L53 45L51 45L51 44L52 44L52 42L53 42L53 43L54 43L54 42L56 42L56 41L54 41L54 40L53 40L53 39L52 39L52 40L50 40L50 41L49 41L49 40L48 40L48 39L51 39L51 38L52 38L52 37L51 37L51 36L53 36L53 35L51 35L51 34L50 34L50 35L51 35L51 36L50 36L50 37L51 37L51 38L49 38L49 36L48 36L48 35L49 35L49 34L48 34L48 35L47 35L47 34L45 34L45 35L44 35L44 34L43 34L43 33L44 33L44 32L45 32L45 31L47 31L47 30L46 30L46 29L47 29L47 28L48 28L48 29L49 29L49 30L48 30L48 31L51 31L51 30L52 30L52 28L54 28L54 29L53 29L53 30L56 30L56 29L55 29L55 27L54 27L54 26L56 26L56 25L57 25L57 24L58 24L58 23L59 23L59 24L60 24L60 25L61 25L61 24L60 24L60 23L59 23L59 22L58 22L58 21L57 21L57 20L58 20L58 19L59 19L59 18L56 18L56 20L55 20L55 19L54 19L54 20L55 20L55 21L54 21L54 22L53 22L53 23L52 23L52 24L51 24L51 22L49 22L49 20L48 20L48 18L49 18L49 19L51 19L51 21L52 21L52 20L53 20L53 19L52 19L52 16L53 16L53 18L55 18L55 17L54 17L54 16L56 16L56 13L57 13L57 11L56 11L56 13L53 13L53 14L52 14L52 16L51 16L51 18L49 18L49 16L48 16L48 18L46 18L46 19L47 19L47 20L45 20L45 19L44 19L44 20L43 20L43 19L42 19L42 18L44 18L44 16L46 16L46 17L47 17L47 16L46 16L46 15L47 15L47 14L48 14L48 15L49 15L49 14L48 14L48 13L49 13L49 12L51 12L51 13L52 13L52 12L51 12L51 11L52 11L52 10L50 10L50 11L49 11L49 12L48 12L48 9L49 9L49 8L47 8L47 10L44 10L44 8L42 8L42 10L44 10L44 11L45 11L45 13L44 13L44 12L43 12L43 11L40 11L40 10L38 10L38 9L37 9L37 8L38 8L38 7ZM19 8L19 9L20 9L20 10L19 10L19 11L21 11L21 9L20 9L20 8ZM59 8L59 9L60 9L60 8ZM61 8L61 10L62 10L62 8ZM63 8L63 10L65 10L65 9L64 9L64 8ZM31 9L31 10L32 10L32 9ZM2 10L2 11L3 11L3 10ZM28 10L28 11L29 11L29 10ZM36 10L36 11L35 11L35 12L37 12L37 11L38 11L38 10ZM39 11L39 13L38 13L38 14L41 14L41 16L40 16L40 15L39 15L39 16L40 16L40 19L38 19L38 21L37 21L37 23L35 23L35 21L36 21L36 20L37 20L37 18L39 18L39 17L38 17L38 16L37 16L37 18L36 18L36 20L35 20L35 19L34 19L34 18L33 18L33 19L34 19L34 20L32 20L32 19L31 19L31 20L32 20L32 21L31 21L31 22L32 22L32 24L29 24L29 25L28 25L28 23L27 23L27 24L26 24L26 25L25 25L25 26L22 26L22 27L24 27L24 28L20 28L20 27L21 27L21 25L20 25L20 27L19 27L19 29L24 29L24 30L23 30L23 31L24 31L24 32L22 32L22 33L25 33L25 32L26 32L26 33L27 33L27 34L29 34L29 36L30 36L30 34L29 34L29 32L30 32L30 31L29 31L29 32L28 32L28 31L27 31L27 30L28 30L28 29L30 29L30 30L32 30L32 29L33 29L33 30L35 30L35 31L36 31L36 32L37 32L37 34L36 34L36 36L34 36L34 39L32 39L32 38L33 38L33 37L32 37L32 36L33 36L33 35L31 35L31 40L33 40L33 41L34 41L34 39L35 39L35 40L37 40L37 41L38 41L38 42L40 42L40 43L43 43L43 45L44 45L44 46L40 46L40 47L41 47L41 48L40 48L40 51L41 51L41 50L42 50L42 51L43 51L43 52L44 52L44 51L43 51L43 50L42 50L42 49L43 49L43 48L42 48L42 47L44 47L44 46L45 46L45 47L46 47L46 46L47 46L47 45L48 45L48 44L51 44L51 43L50 43L50 42L52 42L52 41L53 41L53 42L54 42L54 41L53 41L53 40L52 40L52 41L50 41L50 42L49 42L49 41L48 41L48 42L47 42L47 41L45 41L45 40L44 40L44 39L43 39L43 38L44 38L44 37L45 37L45 36L44 36L44 35L43 35L43 34L42 34L42 33L43 33L43 32L44 32L44 31L43 31L43 30L42 30L42 31L41 31L41 29L43 29L43 28L44 28L44 30L45 30L45 27L46 27L46 26L48 26L48 25L47 25L47 24L49 24L49 27L48 27L48 28L49 28L49 29L50 29L50 30L51 30L51 29L50 29L50 28L51 28L51 27L50 27L50 26L52 26L52 27L53 27L53 26L54 26L54 25L56 25L56 24L57 24L57 21L56 21L56 24L54 24L54 23L55 23L55 22L54 22L54 23L53 23L53 24L52 24L52 25L51 25L51 24L49 24L49 23L46 23L46 22L47 22L47 21L46 21L46 22L45 22L45 20L44 20L44 21L43 21L43 22L44 22L44 23L43 23L43 24L42 24L42 23L41 23L41 22L40 22L40 23L41 23L41 24L39 24L39 23L38 23L38 22L39 22L39 21L41 21L41 20L42 20L42 19L41 19L41 18L42 18L42 17L43 17L43 16L44 16L44 15L43 15L43 14L44 14L44 13L43 13L43 14L41 14L41 12L40 12L40 11ZM46 11L46 12L47 12L47 13L46 13L46 14L45 14L45 15L46 15L46 14L47 14L47 13L48 13L48 12L47 12L47 11ZM63 11L63 12L64 12L64 11ZM26 13L26 14L28 14L28 13ZM50 14L50 15L51 15L51 14ZM53 14L53 16L54 16L54 15L55 15L55 14ZM4 15L4 16L3 16L3 18L4 18L4 16L5 16L5 15ZM8 15L8 16L9 16L9 15ZM26 15L26 16L25 16L25 17L24 17L24 16L23 16L23 17L22 17L22 18L21 18L21 19L22 19L22 18L23 18L23 19L24 19L24 20L26 20L26 19L24 19L24 18L27 18L27 17L26 17L26 16L28 16L28 15ZM42 15L42 16L43 16L43 15ZM5 17L5 18L7 18L7 17ZM16 17L16 18L17 18L17 17ZM61 17L61 19L62 19L62 18L63 18L63 17ZM28 18L28 19L27 19L27 20L28 20L28 21L29 21L29 18ZM40 19L40 20L41 20L41 19ZM6 20L6 21L7 21L7 20ZM32 21L32 22L34 22L34 21ZM4 23L4 24L5 24L5 23ZM14 23L14 24L13 24L13 25L14 25L14 26L13 26L13 27L14 27L14 26L15 26L15 25L14 25L14 24L16 24L16 23ZM34 23L34 25L35 25L35 26L33 26L33 27L32 27L32 28L31 28L31 26L32 26L32 25L29 25L29 28L31 28L31 29L32 29L32 28L34 28L34 29L35 29L35 30L36 30L36 31L37 31L37 30L38 30L38 31L39 31L39 30L40 30L40 29L39 29L39 30L38 30L38 29L37 29L37 28L38 28L38 27L37 27L37 28L36 28L36 27L35 27L35 26L38 26L38 25L37 25L37 24L38 24L38 23L37 23L37 24L35 24L35 23ZM44 23L44 24L43 24L43 25L42 25L42 26L41 26L41 27L40 27L40 28L42 28L42 26L44 26L44 24L45 24L45 23ZM6 24L6 25L5 25L5 26L6 26L6 27L7 27L7 28L8 28L8 29L9 29L9 28L8 28L8 26L9 26L9 25L8 25L8 24ZM53 24L53 25L52 25L52 26L53 26L53 25L54 25L54 24ZM6 25L6 26L8 26L8 25ZM26 25L26 26L25 26L25 28L24 28L24 29L26 29L26 30L27 30L27 29L28 29L28 28L27 28L27 29L26 29L26 27L27 27L27 25ZM39 25L39 26L40 26L40 25ZM34 27L34 28L35 28L35 27ZM19 30L19 31L20 31L20 30ZM5 31L5 34L8 34L8 31ZM31 31L31 34L34 34L34 31ZM40 31L40 32L39 32L39 34L37 34L37 35L39 35L39 36L38 36L38 37L39 37L39 38L37 38L37 39L39 39L39 40L41 40L41 38L40 38L40 36L41 36L41 37L42 37L42 38L43 38L43 37L44 37L44 36L41 36L41 35L40 35L40 32L41 32L41 31ZM52 31L52 32L51 32L51 33L52 33L52 32L53 32L53 33L54 33L54 34L55 34L55 31ZM57 31L57 34L60 34L60 31ZM6 32L6 33L7 33L7 32ZM19 32L19 33L18 33L18 35L17 35L17 36L18 36L18 37L20 37L20 40L19 40L19 41L20 41L20 40L21 40L21 37L22 37L22 39L23 39L23 37L25 37L25 36L26 36L26 35L25 35L25 36L23 36L23 37L22 37L22 36L21 36L21 37L20 37L20 36L19 36L19 35L22 35L22 34L21 34L21 33L20 33L20 32ZM32 32L32 33L33 33L33 32ZM48 32L48 33L49 33L49 32ZM58 32L58 33L59 33L59 32ZM61 32L61 33L62 33L62 32ZM19 33L19 34L20 34L20 33ZM12 34L12 35L11 35L11 36L12 36L12 35L13 35L13 36L14 36L14 35L13 35L13 34ZM46 35L46 38L45 38L45 39L46 39L46 40L47 40L47 39L46 39L46 38L48 38L48 37L47 37L47 35ZM1 36L1 37L2 37L2 36ZM36 36L36 37L37 37L37 36ZM60 36L60 37L61 37L61 36ZM7 37L7 38L6 38L6 39L5 39L5 40L4 40L4 41L7 41L7 40L6 40L6 39L7 39L7 38L8 38L8 37ZM54 37L54 38L56 38L56 37ZM13 38L13 39L14 39L14 38ZM24 38L24 40L22 40L22 41L25 41L25 42L24 42L24 44L25 44L25 42L26 42L26 41L25 41L25 38ZM39 38L39 39L40 39L40 38ZM0 40L0 41L1 41L1 40ZM28 40L28 41L29 41L29 40ZM43 40L43 41L42 41L42 42L43 42L43 43L44 43L44 44L45 44L45 45L47 45L47 44L48 44L48 43L49 43L49 42L48 42L48 43L47 43L47 44L46 44L46 43L45 43L45 42L44 42L44 40ZM58 40L58 41L59 41L59 40ZM64 41L64 42L65 42L65 41ZM28 42L28 43L27 43L27 44L28 44L28 43L29 43L29 44L30 44L30 42ZM23 45L23 46L22 46L22 47L23 47L23 48L24 48L24 49L25 49L25 48L24 48L24 47L23 47L23 46L24 46L24 45ZM50 45L50 46L51 46L51 45ZM57 45L57 46L56 46L56 47L54 47L54 48L59 48L59 47L58 47L58 45ZM29 46L29 47L30 47L30 46ZM51 47L51 48L52 48L52 47ZM26 48L26 49L28 49L28 48ZM30 48L30 49L31 49L31 48ZM44 48L44 49L45 49L45 48ZM49 48L49 50L51 50L51 49L50 49L50 48ZM1 49L1 50L2 50L2 51L3 51L3 50L2 50L2 49ZM10 49L10 50L11 50L11 49ZM16 49L16 50L17 50L17 51L16 51L16 52L17 52L17 53L18 53L18 52L17 52L17 51L18 51L18 50L19 50L19 49L18 49L18 50L17 50L17 49ZM52 50L52 51L53 51L53 50ZM19 51L19 52L20 52L20 51ZM28 51L28 52L29 52L29 51ZM48 51L48 52L49 52L49 51ZM0 52L0 53L1 53L1 52ZM36 52L36 53L37 53L37 52ZM61 52L61 53L62 53L62 52ZM19 54L19 55L20 55L20 54ZM23 54L23 56L22 56L22 57L23 57L23 56L25 56L25 55L24 55L24 54ZM36 54L36 55L37 55L37 54ZM19 56L19 57L20 57L20 58L21 58L21 57L20 57L20 56ZM53 56L53 57L52 57L52 58L53 58L53 57L54 57L54 56ZM64 56L64 58L65 58L65 56ZM31 57L31 60L34 60L34 57ZM57 57L57 60L60 60L60 57ZM32 58L32 59L33 59L33 58ZM42 58L42 59L43 59L43 58ZM58 58L58 59L59 59L59 58ZM61 60L61 61L59 61L59 62L61 62L61 63L62 63L62 64L63 64L63 61L62 61L62 60ZM61 61L61 62L62 62L62 61ZM36 62L36 63L35 63L35 65L37 65L37 64L36 64L36 63L37 63L37 62ZM56 62L56 63L57 63L57 62ZM15 63L15 64L16 64L16 63ZM27 63L27 64L28 64L28 63ZM58 63L58 64L60 64L60 63ZM0 0L0 7L7 7L7 0ZM1 1L1 6L6 6L6 1ZM2 2L2 5L5 5L5 2ZM58 0L58 7L65 7L65 0ZM59 1L59 6L64 6L64 1ZM60 2L60 5L63 5L63 2ZM0 58L0 65L7 65L7 58ZM1 59L1 64L6 64L6 59ZM2 60L2 63L5 63L5 60Z" fill="#000000"/></g></g></svg>
