<?xml version="1.0" encoding="UTF-8"?>
<svg xmlns="http://www.w3.org/2000/svg" version="1.1" width="300" height="300" viewBox="0 0 300 300"><rect x="0" y="0" width="300" height="300" fill="#ffffff"/><g transform="scale(4.615)"><g transform="translate(0,0)"><path fill-rule="evenodd" d="M11 0L11 2L10 2L10 1L9 1L9 2L10 2L10 3L8 3L8 5L9 5L9 4L10 4L10 8L9 8L9 10L2 10L2 8L0 8L0 10L2 10L2 11L0 11L0 12L4 12L4 14L3 14L3 15L4 15L4 16L5 16L5 15L7 15L7 16L6 16L6 17L7 17L7 18L3 18L3 16L2 16L2 14L0 14L0 15L1 15L1 16L0 16L0 17L1 17L1 18L0 18L0 22L1 22L1 23L0 23L0 25L1 25L1 26L0 26L0 28L2 28L2 31L1 31L1 29L0 29L0 31L1 31L1 32L0 32L0 33L1 33L1 34L2 34L2 35L3 35L3 34L2 34L2 33L1 33L1 32L2 32L2 31L3 31L3 32L4 32L4 36L6 36L6 37L2 37L2 36L0 36L0 38L1 38L1 39L2 39L2 40L3 40L3 41L1 41L1 40L0 40L0 44L2 44L2 43L1 43L1 42L5 42L5 41L8 41L8 42L6 42L6 43L4 43L4 44L5 44L5 45L0 45L0 46L2 46L2 48L0 48L0 49L1 49L1 50L0 50L0 51L1 51L1 52L2 52L2 53L3 53L3 54L2 54L2 55L3 55L3 56L1 56L1 55L0 55L0 56L1 56L1 57L3 57L3 56L4 56L4 57L5 57L5 56L4 56L4 53L3 53L3 52L6 52L6 53L5 53L5 55L10 55L10 56L9 56L9 57L8 57L8 60L9 60L9 63L8 63L8 65L9 65L9 63L10 63L10 61L11 61L11 60L10 60L10 59L11 59L11 57L12 57L12 59L13 59L13 60L12 60L12 62L11 62L11 64L12 64L12 65L13 65L13 64L14 64L14 65L15 65L15 62L14 62L14 61L15 61L15 60L16 60L16 61L17 61L17 62L18 62L18 65L19 65L19 63L20 63L20 65L22 65L22 64L21 64L21 63L24 63L24 64L23 64L23 65L24 65L24 64L25 64L25 65L26 65L26 64L27 64L27 65L34 65L34 63L35 63L35 64L36 64L36 65L37 65L37 64L38 64L38 65L40 65L40 64L38 64L38 63L39 63L39 62L38 62L38 61L41 61L41 62L40 62L40 63L41 63L41 62L46 62L46 63L45 63L45 64L47 64L47 62L48 62L48 63L50 63L50 64L51 64L51 65L52 65L52 64L51 64L51 62L52 62L52 63L53 63L53 65L55 65L55 63L53 63L53 62L55 62L55 60L56 60L56 62L57 62L57 63L58 63L58 65L61 65L61 64L62 64L62 65L63 65L63 63L64 63L64 64L65 64L65 63L64 63L64 62L63 62L63 63L61 63L61 62L62 62L62 61L61 61L61 60L62 60L62 59L63 59L63 61L65 61L65 59L63 59L63 58L64 58L64 57L65 57L65 56L64 56L64 55L65 55L65 51L64 51L64 50L65 50L65 48L64 48L64 47L63 47L63 46L62 46L62 45L63 45L63 44L64 44L64 43L65 43L65 39L62 39L62 38L63 38L63 37L64 37L64 38L65 38L65 35L64 35L64 36L63 36L63 37L57 37L57 36L59 36L59 35L60 35L60 36L62 36L62 35L63 35L63 34L64 34L64 33L65 33L65 32L64 32L64 33L63 33L63 32L62 32L62 31L63 31L63 30L64 30L64 31L65 31L65 29L64 29L64 27L61 27L61 26L62 26L62 23L63 23L63 24L64 24L64 25L63 25L63 26L65 26L65 24L64 24L64 23L63 23L63 22L62 22L62 21L64 21L64 19L65 19L65 16L64 16L64 14L65 14L65 12L64 12L64 14L63 14L63 15L62 15L62 13L61 13L61 12L62 12L62 11L63 11L63 10L62 10L62 8L60 8L60 9L58 9L58 10L57 10L57 8L55 8L55 5L54 5L54 4L56 4L56 5L57 5L57 4L56 4L56 3L57 3L57 1L56 1L56 0L55 0L55 1L56 1L56 3L55 3L55 2L54 2L54 4L53 4L53 2L52 2L52 1L53 1L53 0L52 0L52 1L51 1L51 0L49 0L49 1L48 1L48 0L42 0L42 1L43 1L43 2L44 2L44 3L42 3L42 4L41 4L41 2L40 2L40 3L38 3L38 4L37 4L37 3L36 3L36 1L37 1L37 2L39 2L39 1L41 1L41 0L36 0L36 1L35 1L35 0L34 0L34 1L33 1L33 0L32 0L32 1L33 1L33 3L32 3L32 2L31 2L31 3L30 3L30 1L31 1L31 0L30 0L30 1L29 1L29 0L28 0L28 2L27 2L27 3L26 3L26 2L25 2L25 0L24 0L24 1L23 1L23 3L22 3L22 4L23 4L23 3L26 3L26 4L24 4L24 7L23 7L23 5L21 5L21 6L20 6L20 4L19 4L19 3L21 3L21 2L19 2L19 1L18 1L18 0L16 0L16 1L15 1L15 0L14 0L14 1L12 1L12 0ZM20 0L20 1L22 1L22 0ZM26 0L26 1L27 1L27 0ZM14 1L14 2L13 2L13 3L12 3L12 5L11 5L11 7L12 7L12 8L11 8L11 9L10 9L10 10L12 10L12 11L13 11L13 12L14 12L14 10L13 10L13 7L14 7L14 6L13 6L13 7L12 7L12 5L15 5L15 7L16 7L16 8L17 8L17 7L18 7L18 6L17 6L17 5L16 5L16 4L18 4L18 3L17 3L17 2L18 2L18 1L17 1L17 2L15 2L15 1ZM34 1L34 3L35 3L35 4L36 4L36 3L35 3L35 1ZM44 1L44 2L46 2L46 3L47 3L47 2L48 2L48 3L49 3L49 5L52 5L52 6L51 6L51 7L50 7L50 6L49 6L49 7L48 7L48 6L47 6L47 8L49 8L49 11L48 11L48 12L50 12L50 13L48 13L48 14L47 14L47 11L45 11L45 10L41 10L41 8L44 8L44 9L46 9L46 8L44 8L44 6L45 6L45 7L46 7L46 6L45 6L45 4L43 4L43 5L44 5L44 6L43 6L43 7L42 7L42 6L41 6L41 5L39 5L39 4L38 4L38 5L37 5L37 7L36 7L36 5L35 5L35 8L37 8L37 9L39 9L39 10L40 10L40 11L41 11L41 13L40 13L40 12L39 12L39 11L38 11L38 10L30 10L30 8L29 8L29 11L28 11L28 10L27 10L27 9L28 9L28 8L27 8L27 7L28 7L28 5L29 5L29 7L30 7L30 3L28 3L28 4L26 4L26 6L25 6L25 8L23 8L23 7L22 7L22 6L21 6L21 7L20 7L20 6L19 6L19 9L16 9L16 10L15 10L15 11L16 11L16 10L18 10L18 11L17 11L17 12L15 12L15 13L14 13L14 14L13 14L13 13L12 13L12 14L11 14L11 13L9 13L9 12L11 12L11 11L9 11L9 12L8 12L8 11L4 11L4 12L7 12L7 13L6 13L6 14L7 14L7 15L8 15L8 16L7 16L7 17L8 17L8 18L7 18L7 19L6 19L6 20L5 20L5 19L4 19L4 20L3 20L3 18L2 18L2 19L1 19L1 21L2 21L2 22L3 22L3 23L4 23L4 25L6 25L6 26L8 26L8 24L10 24L10 23L11 23L11 25L10 25L10 26L9 26L9 28L7 28L7 27L3 27L3 29L4 29L4 28L5 28L5 30L7 30L7 29L9 29L9 28L10 28L10 27L11 27L11 25L12 25L12 28L11 28L11 29L10 29L10 30L9 30L9 31L10 31L10 30L11 30L11 29L13 29L13 30L12 30L12 31L14 31L14 33L11 33L11 32L9 32L9 33L11 33L11 34L14 34L14 35L15 35L15 34L16 34L16 36L15 36L15 37L16 37L16 38L14 38L14 36L12 36L12 37L11 37L11 36L10 36L10 35L9 35L9 38L10 38L10 39L9 39L9 41L11 41L11 42L9 42L9 43L6 43L6 44L7 44L7 45L5 45L5 46L7 46L7 47L3 47L3 49L2 49L2 50L4 50L4 48L5 48L5 49L6 49L6 50L7 50L7 49L6 49L6 48L8 48L8 49L9 49L9 51L8 51L8 52L7 52L7 51L6 51L6 52L7 52L7 53L6 53L6 54L7 54L7 53L8 53L8 54L10 54L10 52L11 52L11 53L12 53L12 54L11 54L11 56L13 56L13 52L14 52L14 51L15 51L15 52L16 52L16 51L15 51L15 50L18 50L18 51L17 51L17 52L18 52L18 53L16 53L16 54L18 54L18 53L20 53L20 54L19 54L19 55L15 55L15 54L14 54L14 55L15 55L15 56L17 56L17 58L16 58L16 57L14 57L14 58L13 58L13 59L14 59L14 60L15 60L15 58L16 58L16 59L17 59L17 61L18 61L18 62L20 62L20 63L21 63L21 62L22 62L22 60L23 60L23 62L24 62L24 59L25 59L25 58L23 58L23 56L22 56L22 55L23 55L23 53L25 53L25 55L26 55L26 60L25 60L25 61L26 61L26 60L27 60L27 62L25 62L25 64L26 64L26 63L27 63L27 64L28 64L28 63L29 63L29 61L30 61L30 62L32 62L32 63L31 63L31 64L32 64L32 63L33 63L33 62L32 62L32 61L30 61L30 59L27 59L27 56L28 56L28 54L29 54L29 58L30 58L30 53L32 53L32 54L31 54L31 55L33 55L33 54L35 54L35 56L37 56L37 57L36 57L36 58L37 58L37 59L36 59L36 60L35 60L35 63L36 63L36 64L37 64L37 63L38 63L38 62L37 62L37 61L38 61L38 60L40 60L40 59L43 59L43 58L42 58L42 57L43 57L43 56L44 56L44 58L45 58L45 60L46 60L46 62L47 62L47 59L48 59L48 60L49 60L49 61L50 61L50 62L51 62L51 61L52 61L52 60L53 60L53 61L54 61L54 60L55 60L55 59L56 59L56 58L54 58L54 57L56 57L56 56L54 56L54 55L53 55L53 56L52 56L52 57L53 57L53 58L52 58L52 60L51 60L51 59L50 59L50 58L49 58L49 57L50 57L50 56L51 56L51 55L52 55L52 54L53 54L53 53L55 53L55 54L56 54L56 52L54 52L54 51L55 51L55 50L52 50L52 49L47 49L47 47L48 47L48 48L51 48L51 47L48 47L48 46L47 46L47 47L45 47L45 49L46 49L46 50L44 50L44 48L42 48L42 47L44 47L44 45L45 45L45 46L46 46L46 45L45 45L45 44L46 44L46 43L48 43L48 44L47 44L47 45L48 45L48 44L49 44L49 45L50 45L50 44L51 44L51 46L52 46L52 47L53 47L53 49L55 49L55 48L54 48L54 47L55 47L55 46L56 46L56 48L57 48L57 49L56 49L56 51L57 51L57 56L58 56L58 52L59 52L59 51L60 51L60 50L59 50L59 49L58 49L58 48L57 48L57 46L58 46L58 47L59 47L59 48L60 48L60 49L61 49L61 51L62 51L62 50L64 50L64 49L63 49L63 47L62 47L62 46L61 46L61 47L59 47L59 45L57 45L57 44L58 44L58 43L56 43L56 44L55 44L55 46L53 46L53 45L54 45L54 44L53 44L53 43L55 43L55 42L54 42L54 41L56 41L56 42L57 42L57 40L58 40L58 41L59 41L59 38L57 38L57 37L56 37L56 38L54 38L54 37L55 37L55 34L56 34L56 32L55 32L55 30L54 30L54 31L53 31L53 32L52 32L52 30L53 30L53 29L55 29L55 28L56 28L56 26L57 26L57 27L58 27L58 28L59 28L59 27L58 27L58 26L60 26L60 24L61 24L61 23L60 23L60 22L61 22L61 21L62 21L62 20L63 20L63 19L64 19L64 18L63 18L63 17L62 17L62 16L61 16L61 15L57 15L57 13L58 13L58 14L60 14L60 12L61 12L61 11L62 11L62 10L59 10L59 11L60 11L60 12L57 12L57 10L54 10L54 9L55 9L55 8L54 8L54 5L53 5L53 4L52 4L52 3L51 3L51 2L48 2L48 1L47 1L47 2L46 2L46 1ZM14 2L14 3L13 3L13 4L14 4L14 3L15 3L15 4L16 4L16 3L15 3L15 2ZM31 3L31 4L32 4L32 3ZM46 4L46 5L47 5L47 4ZM31 5L31 8L34 8L34 5ZM38 5L38 7L37 7L37 8L39 8L39 5ZM8 6L8 7L9 7L9 6ZM16 6L16 7L17 7L17 6ZM26 6L26 7L27 7L27 6ZM32 6L32 7L33 7L33 6ZM40 6L40 8L41 8L41 6ZM52 6L52 7L51 7L51 8L50 8L50 11L51 11L51 14L50 14L50 16L51 16L51 17L52 17L52 18L51 18L51 19L52 19L52 20L53 20L53 19L54 19L54 20L55 20L55 21L54 21L54 22L53 22L53 21L52 21L52 22L53 22L53 23L51 23L51 21L50 21L50 22L49 22L49 20L48 20L48 19L49 19L49 16L48 16L48 18L47 18L47 21L46 21L46 23L45 23L45 22L43 22L43 21L44 21L44 20L46 20L46 18L45 18L45 17L46 17L46 15L47 15L47 14L45 14L45 12L44 12L44 11L43 11L43 12L42 12L42 13L41 13L41 14L40 14L40 13L39 13L39 12L38 12L38 11L37 11L37 12L36 12L36 13L37 13L37 14L36 14L36 15L35 15L35 14L31 14L31 15L34 15L34 16L33 16L33 17L32 17L32 18L31 18L31 16L30 16L30 15L29 15L29 14L30 14L30 12L31 12L31 13L35 13L35 11L32 11L32 12L31 12L31 11L29 11L29 12L26 12L26 13L25 13L25 11L26 11L26 10L25 10L25 9L26 9L26 8L25 8L25 9L23 9L23 11L22 11L22 10L21 10L21 8L22 8L22 7L21 7L21 8L20 8L20 9L19 9L19 10L21 10L21 11L18 11L18 12L17 12L17 13L19 13L19 14L20 14L20 15L18 15L18 14L16 14L16 16L15 16L15 14L14 14L14 15L13 15L13 14L12 14L12 15L11 15L11 17L10 17L10 16L9 16L9 19L8 19L8 20L6 20L6 21L7 21L7 22L5 22L5 20L4 20L4 23L5 23L5 24L6 24L6 25L7 25L7 24L8 24L8 20L9 20L9 21L10 21L10 20L11 20L11 21L12 21L12 25L13 25L13 27L14 27L14 25L16 25L16 24L18 24L18 25L17 25L17 26L15 26L15 27L16 27L16 28L17 28L17 26L18 26L18 27L20 27L20 22L21 22L21 18L23 18L23 19L22 19L22 22L23 22L23 24L22 24L22 23L21 23L21 25L22 25L22 26L21 26L21 27L23 27L23 29L22 29L22 28L21 28L21 29L22 29L22 31L23 31L23 29L24 29L24 32L27 32L27 33L28 33L28 35L29 35L29 32L30 32L30 35L34 35L34 36L33 36L33 37L38 37L38 36L36 36L36 35L40 35L40 36L39 36L39 37L40 37L40 38L36 38L36 39L38 39L38 40L34 40L34 38L33 38L33 40L32 40L32 38L31 38L31 37L32 37L32 36L30 36L30 38L29 38L29 39L30 39L30 42L32 42L32 43L30 43L30 44L31 44L31 45L30 45L30 46L28 46L28 44L27 44L27 47L26 47L26 49L24 49L24 47L22 47L22 46L20 46L20 45L19 45L19 44L21 44L21 43L22 43L22 44L24 44L24 45L23 45L23 46L24 46L24 45L26 45L26 43L25 43L25 44L24 44L24 43L23 43L23 42L25 42L25 41L26 41L26 42L28 42L28 41L29 41L29 40L28 40L28 39L27 39L27 38L28 38L28 36L26 36L26 35L25 35L25 37L24 37L24 34L25 34L25 33L23 33L23 36L22 36L22 34L21 34L21 33L22 33L22 32L21 32L21 33L19 33L19 30L16 30L16 31L17 31L17 32L15 32L15 33L16 33L16 34L18 34L18 35L17 35L17 38L18 38L18 39L19 39L19 40L18 40L18 41L19 41L19 42L20 42L20 43L18 43L18 45L19 45L19 46L18 46L18 47L17 47L17 46L16 46L16 44L15 44L15 47L14 47L14 48L13 48L13 47L12 47L12 49L13 49L13 50L15 50L15 48L17 48L17 49L19 49L19 50L20 50L20 53L21 53L21 50L22 50L22 51L23 51L23 50L25 50L25 51L24 51L24 52L25 52L25 53L27 53L27 54L26 54L26 55L27 55L27 54L28 54L28 53L29 53L29 52L31 52L31 51L29 51L29 52L28 52L28 51L27 51L27 50L28 50L28 49L27 49L27 48L31 48L31 47L32 47L32 46L33 46L33 45L32 45L32 43L35 43L35 42L37 42L37 44L34 44L34 46L35 46L35 45L36 45L36 47L34 47L34 48L33 48L33 50L35 50L35 49L36 49L36 51L37 51L37 49L40 49L40 50L38 50L38 51L40 51L40 50L41 50L41 51L42 51L42 52L43 52L43 53L42 53L42 54L40 54L40 52L38 52L38 53L39 53L39 54L40 54L40 56L41 56L41 55L42 55L42 54L43 54L43 55L44 55L44 56L45 56L45 58L48 58L48 59L49 59L49 58L48 58L48 57L49 57L49 56L48 56L48 55L49 55L49 53L50 53L50 52L51 52L51 51L52 51L52 50L49 50L49 52L47 52L47 53L48 53L48 55L47 55L47 56L45 56L45 54L43 54L43 53L44 53L44 52L43 52L43 51L42 51L42 50L43 50L43 49L42 49L42 48L41 48L41 47L42 47L42 46L43 46L43 45L41 45L41 47L40 47L40 46L39 46L39 45L37 45L37 44L38 44L38 43L39 43L39 44L42 44L42 43L41 43L41 41L39 41L39 39L40 39L40 38L41 38L41 37L42 37L42 38L43 38L43 39L42 39L42 40L43 40L43 41L42 41L42 42L44 42L44 44L45 44L45 42L46 42L46 41L45 41L45 42L44 42L44 40L43 40L43 39L44 39L44 37L45 37L45 36L46 36L46 37L47 37L47 38L46 38L46 39L45 39L45 40L47 40L47 42L48 42L48 43L50 43L50 42L49 42L49 40L50 40L50 39L51 39L51 41L52 41L52 42L51 42L51 43L53 43L53 41L54 41L54 40L56 40L56 39L54 39L54 40L53 40L53 41L52 41L52 39L53 39L53 37L54 37L54 36L53 36L53 34L55 34L55 32L53 32L53 34L51 34L51 33L52 33L52 32L51 32L51 33L50 33L50 34L49 34L49 32L48 32L48 31L50 31L50 30L47 30L47 32L45 32L45 31L44 31L44 32L42 32L42 30L44 30L44 28L45 28L45 29L47 29L47 28L48 28L48 29L49 29L49 28L50 28L50 27L52 27L52 26L53 26L53 28L54 28L54 26L56 26L56 25L54 25L54 24L56 24L56 22L58 22L58 23L59 23L59 24L60 24L60 23L59 23L59 21L61 21L61 20L62 20L62 18L61 18L61 16L59 16L59 17L60 17L60 18L59 18L59 21L57 21L57 20L58 20L58 16L57 16L57 15L56 15L56 17L57 17L57 19L56 19L56 18L55 18L55 17L52 17L52 15L53 15L53 14L56 14L56 12L55 12L55 11L54 11L54 10L53 10L53 9L52 9L52 8L53 8L53 6ZM56 6L56 7L57 7L57 6ZM5 8L5 9L8 9L8 8ZM47 9L47 10L48 10L48 9ZM52 10L52 11L53 11L53 10ZM21 11L21 12L22 12L22 11ZM23 11L23 12L24 12L24 11ZM43 12L43 14L41 14L41 15L40 15L40 17L39 17L39 16L38 16L38 14L39 14L39 13L38 13L38 14L37 14L37 15L36 15L36 16L37 16L37 17L35 17L35 16L34 16L34 17L33 17L33 19L35 19L35 18L37 18L37 19L36 19L36 20L32 20L32 19L31 19L31 18L30 18L30 16L29 16L29 15L28 15L28 16L27 16L27 15L26 15L26 14L27 14L27 13L26 13L26 14L25 14L25 13L24 13L24 14L22 14L22 16L21 16L21 15L20 15L20 16L19 16L19 17L16 17L16 19L15 19L15 18L13 18L13 19L12 19L12 20L13 20L13 23L14 23L14 24L15 24L15 20L16 20L16 22L18 22L18 21L20 21L20 18L21 18L21 17L23 17L23 15L24 15L24 17L25 17L25 15L26 15L26 17L27 17L27 18L25 18L25 20L23 20L23 21L25 21L25 22L24 22L24 25L25 25L25 26L23 26L23 27L24 27L24 28L25 28L25 26L26 26L26 24L25 24L25 22L26 22L26 21L25 21L25 20L26 20L26 19L27 19L27 20L29 20L29 22L27 22L27 23L28 23L28 24L27 24L27 25L28 25L28 26L27 26L27 27L26 27L26 29L25 29L25 30L26 30L26 31L27 31L27 32L29 32L29 31L28 31L28 30L30 30L30 29L31 29L31 30L33 30L33 27L31 27L31 28L30 28L30 29L29 29L29 28L27 28L27 27L29 27L29 26L32 26L32 25L34 25L34 26L35 26L35 27L34 27L34 28L35 28L35 27L36 27L36 28L37 28L37 27L36 27L36 26L35 26L35 25L36 25L36 24L37 24L37 25L38 25L38 26L39 26L39 25L40 25L40 28L39 28L39 27L38 27L38 28L39 28L39 29L38 29L38 30L37 30L37 31L35 31L35 35L36 35L36 32L37 32L37 34L38 34L38 33L39 33L39 31L40 31L40 30L41 30L41 27L43 27L43 26L42 26L42 25L40 25L40 24L37 24L37 23L38 23L38 21L39 21L39 23L40 23L40 21L41 21L41 20L40 20L40 19L39 19L39 18L41 18L41 16L42 16L42 15L43 15L43 14L44 14L44 17L45 17L45 14L44 14L44 12ZM53 12L53 13L52 13L52 14L51 14L51 15L52 15L52 14L53 14L53 13L54 13L54 12ZM7 13L7 14L8 14L8 15L9 15L9 14L8 14L8 13ZM4 14L4 15L5 15L5 14ZM48 14L48 15L49 15L49 14ZM12 15L12 16L13 16L13 17L14 17L14 16L13 16L13 15ZM17 15L17 16L18 16L18 15ZM54 15L54 16L55 16L55 15ZM1 16L1 17L2 17L2 16ZM20 16L20 17L19 17L19 18L20 18L20 17L21 17L21 16ZM28 16L28 17L29 17L29 16ZM11 17L11 18L12 18L12 17ZM27 18L27 19L28 19L28 18ZM29 18L29 19L30 19L30 20L31 20L31 21L30 21L30 22L31 22L31 23L29 23L29 24L31 24L31 23L32 23L32 22L31 22L31 21L32 21L32 20L31 20L31 19L30 19L30 18ZM42 18L42 19L43 19L43 20L42 20L42 21L43 21L43 20L44 20L44 19L45 19L45 18ZM54 18L54 19L55 19L55 20L56 20L56 19L55 19L55 18ZM16 19L16 20L17 20L17 21L18 21L18 20L17 20L17 19ZM37 19L37 20L36 20L36 21L38 21L38 19ZM39 20L39 21L40 21L40 20ZM33 21L33 22L34 22L34 23L33 23L33 24L35 24L35 21ZM47 21L47 22L48 22L48 21ZM54 22L54 23L53 23L53 24L54 24L54 23L55 23L55 22ZM6 23L6 24L7 24L7 23ZM42 23L42 24L43 24L43 25L44 25L44 26L45 26L45 25L46 25L46 26L47 26L47 27L48 27L48 28L49 28L49 27L50 27L50 26L51 26L51 23L48 23L48 24L47 24L47 25L46 25L46 24L45 24L45 25L44 25L44 23ZM1 24L1 25L2 25L2 26L3 26L3 25L2 25L2 24ZM48 24L48 25L47 25L47 26L48 26L48 27L49 27L49 26L48 26L48 25L50 25L50 24ZM57 24L57 25L58 25L58 24ZM18 25L18 26L19 26L19 25ZM53 25L53 26L54 26L54 25ZM45 27L45 28L46 28L46 27ZM60 27L60 28L61 28L61 27ZM6 28L6 29L7 29L7 28ZM13 28L13 29L14 29L14 30L15 30L15 28ZM18 28L18 29L20 29L20 28ZM51 28L51 29L52 29L52 28ZM62 28L62 29L61 29L61 31L62 31L62 30L63 30L63 28ZM26 29L26 30L27 30L27 29ZM34 29L34 30L35 30L35 29ZM56 29L56 30L57 30L57 29ZM58 29L58 30L59 30L59 29ZM20 30L20 31L21 31L21 30ZM5 31L5 34L8 34L8 31ZM31 31L31 34L34 34L34 31ZM57 31L57 34L60 34L60 31ZM6 32L6 33L7 33L7 32ZM32 32L32 33L33 33L33 32ZM40 32L40 33L41 33L41 34L40 34L40 35L41 35L41 36L42 36L42 37L44 37L44 35L46 35L46 36L47 36L47 37L48 37L48 36L50 36L50 37L49 37L49 38L51 38L51 39L52 39L52 36L51 36L51 35L48 35L48 32L47 32L47 35L46 35L46 34L44 34L44 33L45 33L45 32L44 32L44 33L43 33L43 34L42 34L42 32ZM58 32L58 33L59 33L59 32ZM61 32L61 33L62 33L62 34L63 34L63 33L62 33L62 32ZM18 33L18 34L19 34L19 33ZM43 34L43 35L44 35L44 34ZM6 35L6 36L7 36L7 37L6 37L6 38L7 38L7 37L8 37L8 35ZM19 35L19 37L20 37L20 38L19 38L19 39L20 39L20 40L19 40L19 41L20 41L20 42L21 42L21 41L20 41L20 40L22 40L22 41L25 41L25 39L24 39L24 38L23 38L23 37L22 37L22 39L20 39L20 38L21 38L21 35ZM47 35L47 36L48 36L48 35ZM56 35L56 36L57 36L57 35ZM1 37L1 38L2 38L2 37ZM10 37L10 38L11 38L11 37ZM26 37L26 38L27 38L27 37ZM3 38L3 39L5 39L5 38ZM13 38L13 39L12 39L12 41L13 41L13 42L12 42L12 43L11 43L11 45L10 45L10 43L9 43L9 45L7 45L7 46L9 46L9 45L10 45L10 47L8 47L8 48L10 48L10 47L11 47L11 45L12 45L12 46L14 46L14 44L12 44L12 43L13 43L13 42L14 42L14 43L16 43L16 41L17 41L17 39L16 39L16 40L15 40L15 39L14 39L14 38ZM47 38L47 39L48 39L48 40L49 40L49 39L48 39L48 38ZM60 38L60 41L62 41L62 40L61 40L61 38ZM6 39L6 40L7 40L7 39ZM13 39L13 41L14 41L14 42L15 42L15 41L14 41L14 39ZM26 40L26 41L28 41L28 40ZM33 40L33 41L32 41L32 42L33 42L33 41L34 41L34 42L35 42L35 41L34 41L34 40ZM63 40L63 41L64 41L64 40ZM38 41L38 42L39 42L39 41ZM59 42L59 43L60 43L60 42ZM61 42L61 43L62 43L62 44L63 44L63 43L64 43L64 42ZM60 44L60 45L61 45L61 44ZM31 45L31 46L30 46L30 47L31 47L31 46L32 46L32 45ZM64 45L64 46L65 46L65 45ZM19 46L19 47L18 47L18 48L19 48L19 49L20 49L20 50L21 50L21 49L20 49L20 48L19 48L19 47L20 47L20 46ZM37 46L37 47L36 47L36 48L39 48L39 47L38 47L38 46ZM21 47L21 48L22 48L22 47ZM61 47L61 48L62 48L62 47ZM29 49L29 50L31 50L31 49ZM41 49L41 50L42 50L42 49ZM57 49L57 50L58 50L58 49ZM10 50L10 51L12 51L12 50ZM46 50L46 51L48 51L48 50ZM25 51L25 52L27 52L27 51ZM32 51L32 53L34 53L34 52L33 52L33 51ZM63 51L63 53L62 53L62 52L61 52L61 53L62 53L62 54L60 54L60 55L59 55L59 56L60 56L60 55L62 55L62 56L63 56L63 55L64 55L64 51ZM8 52L8 53L9 53L9 52ZM22 52L22 53L23 53L23 52ZM36 52L36 54L37 54L37 55L38 55L38 54L37 54L37 52ZM51 53L51 54L52 54L52 53ZM20 54L20 55L22 55L22 54ZM62 54L62 55L63 55L63 54ZM6 56L6 57L7 57L7 56ZM18 56L18 57L19 57L19 58L18 58L18 59L19 59L19 58L20 58L20 59L21 59L21 60L20 60L20 61L21 61L21 60L22 60L22 59L23 59L23 58L22 58L22 59L21 59L21 57L22 57L22 56L20 56L20 57L19 57L19 56ZM31 57L31 60L34 60L34 57ZM37 57L37 58L38 58L38 59L40 59L40 58L39 58L39 57ZM57 57L57 60L60 60L60 57ZM61 57L61 58L62 58L62 57ZM32 58L32 59L33 59L33 58ZM53 58L53 59L54 59L54 58ZM58 58L58 59L59 59L59 58ZM18 60L18 61L19 61L19 60ZM28 60L28 61L29 61L29 60ZM36 60L36 61L37 61L37 60ZM57 61L57 62L61 62L61 61ZM36 62L36 63L37 63L37 62ZM16 63L16 65L17 65L17 63ZM59 63L59 64L60 64L60 63ZM43 64L43 65L44 65L44 64ZM48 64L48 65L49 65L49 64ZM0 0L0 7L7 7L7 0ZM1 1L1 6L6 6L6 1ZM2 2L2 5L5 5L5 2ZM58 0L58 7L65 7L65 0ZM59 1L59 6L64 6L64 1ZM60 2L60 5L63 5L63 2ZM0 58L0 65L7 65L7 58ZM1 59L1 64L6 64L6 59ZM2 60L2 63L5 63L5 60Z" fill="#000000"/></g></g></svg>
