<?xml version="1.0" encoding="UTF-8"?>
<svg xmlns="http://www.w3.org/2000/svg" version="1.1" width="300" height="300" viewBox="0 0 300 300"><rect x="0" y="0" width="300" height="300" fill="#ffffff"/><g transform="scale(4.615)"><g transform="translate(0,0)"><path fill-rule="evenodd" d="M9 0L9 1L8 1L8 2L9 2L9 1L10 1L10 3L8 3L8 4L10 4L10 7L9 7L9 5L8 5L8 7L9 7L9 8L6 8L6 9L5 9L5 8L0 8L0 11L1 11L1 12L0 12L0 13L1 13L1 15L0 15L0 16L1 16L1 15L2 15L2 16L4 16L4 17L5 17L5 16L6 16L6 17L7 17L7 16L8 16L8 15L7 15L7 14L5 14L5 13L4 13L4 12L5 12L5 11L7 11L7 10L8 10L8 9L9 9L9 11L8 11L8 12L9 12L9 13L10 13L10 14L9 14L9 16L10 16L10 14L11 14L11 15L12 15L12 14L14 14L14 15L13 15L13 16L15 16L15 15L17 15L17 17L16 17L16 18L17 18L17 17L19 17L19 18L18 18L18 19L17 19L17 20L18 20L18 21L17 21L17 24L16 24L16 23L15 23L15 22L16 22L16 21L15 21L15 20L16 20L16 19L14 19L14 21L15 21L15 22L13 22L13 20L12 20L12 19L13 19L13 18L12 18L12 19L10 19L10 17L9 17L9 20L8 20L8 18L6 18L6 19L5 19L5 18L3 18L3 17L1 17L1 18L2 18L2 19L1 19L1 20L0 20L0 23L2 23L2 24L0 24L0 26L2 26L2 27L1 27L1 28L0 28L0 33L2 33L2 32L1 32L1 31L3 31L3 28L5 28L5 29L7 29L7 30L4 30L4 33L3 33L3 35L2 35L2 34L1 34L1 35L0 35L0 36L1 36L1 37L2 37L2 36L3 36L3 35L5 35L5 37L4 37L4 38L2 38L2 40L1 40L1 39L0 39L0 41L2 41L2 42L0 42L0 44L1 44L1 46L0 46L0 48L1 48L1 49L0 49L0 53L1 53L1 54L2 54L2 55L3 55L3 56L1 56L1 55L0 55L0 56L1 56L1 57L3 57L3 56L4 56L4 57L5 57L5 56L4 56L4 54L3 54L3 53L5 53L5 55L8 55L8 59L12 59L12 58L11 58L11 57L12 57L12 55L13 55L13 54L14 54L14 55L15 55L15 57L18 57L18 58L17 58L17 59L18 59L18 61L19 61L19 62L18 62L18 63L17 63L17 61L16 61L16 59L15 59L15 58L14 58L14 57L13 57L13 60L12 60L12 62L11 62L11 60L10 60L10 62L9 62L9 60L8 60L8 65L11 65L11 64L14 64L14 63L16 63L16 65L19 65L19 64L20 64L20 65L22 65L22 63L21 63L21 61L22 61L22 62L24 62L24 61L25 61L25 62L26 62L26 63L25 63L25 64L27 64L27 63L28 63L28 65L34 65L34 63L33 63L33 64L31 64L31 63L32 63L32 62L33 62L33 61L34 61L34 62L35 62L35 61L37 61L37 62L36 62L36 63L37 63L37 62L38 62L38 63L39 63L39 65L40 65L40 64L42 64L42 65L44 65L44 64L45 64L45 65L47 65L47 64L48 64L48 65L49 65L49 64L48 64L48 63L49 63L49 60L48 60L48 59L51 59L51 58L52 58L52 59L53 59L53 61L52 61L52 63L51 63L51 62L50 62L50 63L51 63L51 64L53 64L53 65L55 65L55 64L53 64L53 62L57 62L57 63L56 63L56 64L57 64L57 63L58 63L58 62L57 62L57 61L63 61L63 64L62 64L62 62L59 62L59 63L60 63L60 64L58 64L58 65L61 65L61 64L62 64L62 65L63 65L63 64L64 64L64 60L65 60L65 59L63 59L63 58L65 58L65 57L64 57L64 56L65 56L65 55L63 55L63 56L62 56L62 57L61 57L61 55L60 55L60 56L59 56L59 55L56 55L56 54L57 54L57 52L58 52L58 54L63 54L63 52L64 52L64 50L65 50L65 49L64 49L64 48L62 48L62 45L63 45L63 46L64 46L64 45L63 45L63 44L62 44L62 41L64 41L64 42L65 42L65 41L64 41L64 39L63 39L63 38L65 38L65 37L64 37L64 36L65 36L65 35L64 35L64 34L65 34L65 32L64 32L64 33L63 33L63 32L62 32L62 30L60 30L60 29L61 29L61 28L62 28L62 29L64 29L64 30L65 30L65 29L64 29L64 28L65 28L65 27L63 27L63 28L62 28L62 26L63 26L63 25L64 25L64 26L65 26L65 25L64 25L64 24L62 24L62 25L61 25L61 24L59 24L59 25L60 25L60 26L58 26L58 28L56 28L56 29L59 29L59 30L55 30L55 29L53 29L53 31L51 31L51 30L52 30L52 28L53 28L53 27L52 27L52 26L55 26L55 27L54 27L54 28L55 28L55 27L56 27L56 26L55 26L55 24L56 24L56 25L58 25L58 24L56 24L56 21L58 21L58 20L55 20L55 19L54 19L54 18L56 18L56 19L57 19L57 18L56 18L56 16L55 16L55 15L54 15L54 16L55 16L55 17L52 17L52 16L53 16L53 14L52 14L52 16L50 16L50 17L51 17L51 18L49 18L49 19L51 19L51 20L53 20L53 19L54 19L54 20L55 20L55 21L54 21L54 22L48 22L48 21L49 21L49 20L48 20L48 18L46 18L46 15L47 15L47 16L48 16L48 17L49 17L49 16L48 16L48 15L51 15L51 14L50 14L50 13L52 13L52 12L53 12L53 11L54 11L54 10L55 10L55 9L54 9L54 7L55 7L55 5L54 5L54 4L56 4L56 5L57 5L57 4L56 4L56 3L57 3L57 1L56 1L56 0L55 0L55 1L56 1L56 3L55 3L55 2L54 2L54 4L53 4L53 5L54 5L54 7L53 7L53 6L52 6L52 7L51 7L51 5L49 5L49 3L47 3L47 4L48 4L48 5L46 5L46 4L45 4L45 5L46 5L46 8L45 8L45 6L44 6L44 8L43 8L43 4L44 4L44 3L46 3L46 2L47 2L47 1L46 1L46 0L45 0L45 1L46 1L46 2L44 2L44 1L43 1L43 0L41 0L41 1L43 1L43 2L42 2L42 3L41 3L41 2L39 2L39 1L36 1L36 2L39 2L39 4L40 4L40 3L41 3L41 5L42 5L42 7L41 7L41 6L40 6L40 7L39 7L39 5L38 5L38 4L37 4L37 3L36 3L36 5L35 5L35 4L33 4L33 3L34 3L34 2L35 2L35 1L34 1L34 2L33 2L33 3L31 3L31 4L30 4L30 1L32 1L32 0L29 0L29 1L28 1L28 0L26 0L26 1L25 1L25 0L21 0L21 1L20 1L20 0L18 0L18 1L17 1L17 2L15 2L15 1L16 1L16 0L14 0L14 2L13 2L13 0L12 0L12 1L11 1L11 0ZM48 0L48 2L49 2L49 0ZM51 0L51 1L50 1L50 2L51 2L51 3L50 3L50 4L51 4L51 3L53 3L53 1L54 1L54 0ZM18 1L18 2L17 2L17 3L16 3L16 4L14 4L14 5L12 5L12 6L11 6L11 7L12 7L12 8L10 8L10 9L11 9L11 10L10 10L10 11L9 11L9 12L10 12L10 13L11 13L11 10L12 10L12 13L13 13L13 12L14 12L14 14L15 14L15 13L16 13L16 12L20 12L20 13L18 13L18 14L17 14L17 15L19 15L19 16L20 16L20 18L19 18L19 21L20 21L20 23L21 23L21 24L22 24L22 25L25 25L25 26L23 26L23 27L24 27L24 28L22 28L22 26L21 26L21 25L20 25L20 27L19 27L19 29L17 29L17 27L16 27L16 29L14 29L14 28L15 28L15 25L16 25L16 26L17 26L17 25L16 25L16 24L15 24L15 23L14 23L14 24L15 24L15 25L14 25L14 26L13 26L13 27L12 27L12 26L11 26L11 23L12 23L12 24L13 24L13 23L12 23L12 21L11 21L11 20L10 20L10 24L9 24L9 21L6 21L6 20L7 20L7 19L6 19L6 20L4 20L4 19L2 19L2 20L1 20L1 21L4 21L4 23L5 23L5 24L2 24L2 26L4 26L4 27L6 27L6 28L7 28L7 27L9 27L9 26L10 26L10 28L11 28L11 29L10 29L10 30L9 30L9 37L6 37L6 38L5 38L5 39L6 39L6 40L7 40L7 39L6 39L6 38L8 38L8 39L9 39L9 37L10 37L10 36L11 36L11 35L12 35L12 36L13 36L13 35L14 35L14 37L11 37L11 38L15 38L15 35L14 35L14 34L12 34L12 31L13 31L13 32L14 32L14 33L16 33L16 36L18 36L18 37L16 37L16 39L14 39L14 41L13 41L13 40L11 40L11 39L10 39L10 40L11 40L11 43L12 43L12 44L10 44L10 45L11 45L11 46L14 46L14 47L13 47L13 50L12 50L12 48L11 48L11 47L10 47L10 46L9 46L9 41L8 41L8 43L5 43L5 44L4 44L4 43L3 43L3 42L7 42L7 41L3 41L3 42L2 42L2 43L1 43L1 44L2 44L2 45L3 45L3 46L4 46L4 45L5 45L5 44L7 44L7 45L6 45L6 46L5 46L5 47L3 47L3 48L2 48L2 49L1 49L1 53L2 53L2 52L5 52L5 51L6 51L6 52L7 52L7 53L6 53L6 54L8 54L8 55L11 55L11 54L13 54L13 53L14 53L14 54L15 54L15 52L13 52L13 51L16 51L16 52L17 52L17 53L16 53L16 54L17 54L17 55L16 55L16 56L18 56L18 54L17 54L17 53L18 53L18 52L17 52L17 51L18 51L18 50L19 50L19 57L20 57L20 58L18 58L18 59L19 59L19 61L21 61L21 59L20 59L20 58L21 58L21 56L20 56L20 54L23 54L23 53L26 53L26 57L27 57L27 58L26 58L26 59L25 59L25 58L22 58L22 59L23 59L23 60L22 60L22 61L24 61L24 59L25 59L25 60L26 60L26 62L28 62L28 61L29 61L29 63L31 63L31 62L32 62L32 61L30 61L30 57L27 57L27 54L30 54L30 53L31 53L31 55L33 55L33 56L34 56L34 55L35 55L35 52L33 52L33 51L35 51L35 50L36 50L36 52L37 52L37 53L36 53L36 56L37 56L37 57L38 57L38 58L37 58L37 59L36 59L36 58L35 58L35 59L36 59L36 60L37 60L37 61L38 61L38 62L39 62L39 63L40 63L40 62L41 62L41 63L42 63L42 64L43 64L43 63L45 63L45 62L41 62L41 60L43 60L43 61L46 61L46 62L47 62L47 63L46 63L46 64L47 64L47 63L48 63L48 62L47 62L47 61L48 61L48 60L47 60L47 59L46 59L46 58L48 58L48 56L49 56L49 58L51 58L51 57L53 57L53 56L51 56L51 55L52 55L52 54L51 54L51 53L55 53L55 54L56 54L56 52L54 52L54 51L60 51L60 50L59 50L59 48L57 48L57 50L56 50L56 48L54 48L54 47L55 47L55 46L52 46L52 47L53 47L53 48L51 48L51 47L50 47L50 46L51 46L51 45L54 45L54 43L56 43L56 44L55 44L55 45L56 45L56 46L58 46L58 47L60 47L60 48L61 48L61 51L62 51L62 52L59 52L59 53L62 53L62 52L63 52L63 51L62 51L62 50L63 50L63 49L62 49L62 48L61 48L61 46L59 46L59 45L57 45L57 44L58 44L58 43L59 43L59 40L60 40L60 41L62 41L62 40L63 40L63 39L62 39L62 38L63 38L63 37L61 37L61 35L60 35L60 37L61 37L61 38L60 38L60 39L59 39L59 36L58 36L58 35L57 35L57 37L58 37L58 38L56 38L56 36L55 36L55 34L56 34L56 32L55 32L55 34L54 34L54 35L53 35L53 33L54 33L54 31L55 31L55 30L54 30L54 31L53 31L53 32L52 32L52 33L51 33L51 31L50 31L50 30L51 30L51 27L50 27L50 28L49 28L49 27L48 27L48 28L47 28L47 27L42 27L42 28L40 28L40 27L39 27L39 28L37 28L37 27L38 27L38 26L41 26L41 25L43 25L43 24L44 24L44 25L45 25L45 26L48 26L48 24L49 24L49 26L51 26L51 24L52 24L52 25L54 25L54 23L55 23L55 22L54 22L54 23L53 23L53 24L52 24L52 23L50 23L50 24L49 24L49 23L48 23L48 22L47 22L47 21L46 21L46 22L44 22L44 21L45 21L45 20L47 20L47 19L45 19L45 18L44 18L44 17L45 17L45 16L44 16L44 17L43 17L43 14L41 14L41 12L40 12L40 10L41 10L41 8L40 8L40 10L39 10L39 9L38 9L38 8L39 8L39 7L38 7L38 5L36 5L36 6L35 6L35 8L37 8L37 9L36 9L36 10L39 10L39 11L35 11L35 9L33 9L33 12L30 12L30 8L29 8L29 9L28 9L28 8L27 8L27 7L28 7L28 6L29 6L29 7L30 7L30 6L29 6L29 5L30 5L30 4L25 4L25 3L26 3L26 2L25 2L25 1L24 1L24 3L23 3L23 4L22 4L22 3L21 3L21 2L22 2L22 1L21 1L21 2L19 2L19 1ZM27 1L27 2L28 2L28 3L29 3L29 2L28 2L28 1ZM14 2L14 3L15 3L15 2ZM43 2L43 3L44 3L44 2ZM17 3L17 4L18 4L18 5L15 5L15 6L14 6L14 7L15 7L15 6L16 6L16 8L17 8L17 9L16 9L16 10L17 10L17 11L18 11L18 10L17 10L17 9L19 9L19 10L20 10L20 11L21 11L21 12L22 12L22 11L24 11L24 12L23 12L23 13L21 13L21 14L23 14L23 15L24 15L24 16L25 16L25 13L26 13L26 14L28 14L28 13L26 13L26 11L27 11L27 12L28 12L28 11L29 11L29 10L28 10L28 11L27 11L27 9L26 9L26 8L25 8L25 6L26 6L26 7L27 7L27 6L26 6L26 5L25 5L25 4L23 4L23 5L22 5L22 4L21 4L21 3L20 3L20 4L18 4L18 3ZM20 4L20 6L19 6L19 5L18 5L18 6L17 6L17 8L18 8L18 6L19 6L19 9L20 9L20 10L21 10L21 9L25 9L25 10L26 10L26 9L25 9L25 8L23 8L23 7L24 7L24 5L23 5L23 7L22 7L22 5L21 5L21 4ZM31 5L31 8L34 8L34 5ZM12 6L12 7L13 7L13 6ZM20 6L20 7L21 7L21 6ZM32 6L32 7L33 7L33 6ZM36 6L36 7L37 7L37 6ZM47 6L47 8L46 8L46 10L47 10L47 11L46 11L46 12L45 12L45 11L43 11L43 10L42 10L42 11L43 11L43 12L44 12L44 14L45 14L45 15L46 15L46 14L47 14L47 15L48 15L48 14L49 14L49 13L50 13L50 12L49 12L49 11L48 11L48 10L51 10L51 9L50 9L50 8L51 8L51 7L50 7L50 6L49 6L49 7L48 7L48 6ZM56 6L56 7L57 7L57 6ZM12 8L12 10L13 10L13 9L15 9L15 8ZM20 8L20 9L21 9L21 8ZM44 8L44 10L45 10L45 8ZM48 8L48 9L49 9L49 8ZM52 8L52 9L53 9L53 8ZM56 8L56 9L58 9L58 8ZM59 8L59 10L58 10L58 13L59 13L59 14L56 14L56 15L57 15L57 16L58 16L58 17L59 17L59 18L58 18L58 19L59 19L59 21L61 21L61 22L60 22L60 23L63 23L63 20L64 20L64 22L65 22L65 20L64 20L64 18L65 18L65 15L64 15L64 14L65 14L65 13L63 13L63 12L64 12L64 11L63 11L63 12L62 12L62 10L65 10L65 9L64 9L64 8L63 8L63 9L62 9L62 8L61 8L61 9L60 9L60 8ZM6 9L6 10L7 10L7 9ZM31 9L31 10L32 10L32 9ZM61 9L61 10L59 10L59 11L60 11L60 12L61 12L61 13L60 13L60 14L59 14L59 15L58 15L58 16L59 16L59 15L60 15L60 16L61 16L61 15L62 15L62 16L64 16L64 15L62 15L62 14L63 14L63 13L62 13L62 12L61 12L61 10L62 10L62 9ZM1 10L1 11L2 11L2 12L1 12L1 13L2 13L2 14L4 14L4 16L5 16L5 14L4 14L4 13L2 13L2 12L4 12L4 11L5 11L5 10L3 10L3 11L2 11L2 10ZM14 10L14 12L15 12L15 10ZM34 11L34 12L35 12L35 13L37 13L37 12L35 12L35 11ZM47 11L47 12L48 12L48 13L47 13L47 14L48 14L48 13L49 13L49 12L48 12L48 11ZM51 11L51 12L52 12L52 11ZM55 11L55 13L54 13L54 14L55 14L55 13L57 13L57 11ZM6 12L6 13L7 13L7 12ZM38 12L38 13L39 13L39 12ZM23 13L23 14L24 14L24 13ZM30 13L30 14L29 14L29 15L30 15L30 16L28 16L28 15L26 15L26 16L28 16L28 17L30 17L30 18L34 18L34 20L35 20L35 22L36 22L36 23L37 23L37 21L38 21L38 19L39 19L39 20L42 20L42 21L41 21L41 23L39 23L39 22L40 22L40 21L39 21L39 22L38 22L38 25L39 25L39 24L41 24L41 23L42 23L42 24L43 24L43 21L44 21L44 20L45 20L45 19L43 19L43 20L42 20L42 18L43 18L43 17L42 17L42 15L41 15L41 14L38 14L38 15L40 15L40 16L39 16L39 18L37 18L37 16L36 16L36 19L37 19L37 20L35 20L35 18L34 18L34 17L35 17L35 16L34 16L34 15L35 15L35 14L33 14L33 15L32 15L32 16L31 16L31 13ZM19 14L19 15L20 15L20 14ZM36 14L36 15L37 15L37 14ZM60 14L60 15L61 15L61 14ZM6 15L6 16L7 16L7 15ZM21 15L21 16L22 16L22 15ZM11 16L11 17L12 17L12 16ZM32 16L32 17L33 17L33 16ZM40 16L40 17L41 17L41 16ZM22 17L22 18L20 18L20 19L22 19L22 18L27 18L27 17ZM61 17L61 19L62 19L62 20L61 20L61 21L62 21L62 20L63 20L63 19L62 19L62 18L63 18L63 17ZM40 18L40 19L41 19L41 18ZM52 18L52 19L53 19L53 18ZM24 19L24 20L23 20L23 24L25 24L25 25L26 25L26 26L25 26L25 28L24 28L24 29L19 29L19 30L20 30L20 31L18 31L18 30L17 30L17 29L16 29L16 30L13 30L13 31L14 31L14 32L15 32L15 31L16 31L16 33L19 33L19 32L20 32L20 33L21 33L21 34L20 34L20 37L18 37L18 39L16 39L16 40L15 40L15 41L14 41L14 42L13 42L13 41L12 41L12 42L13 42L13 43L14 43L14 44L12 44L12 45L14 45L14 44L15 44L15 43L16 43L16 44L17 44L17 45L20 45L20 44L19 44L19 43L21 43L21 47L22 47L22 48L23 48L23 49L22 49L22 50L20 50L20 51L22 51L22 50L27 50L27 51L28 51L28 50L27 50L27 49L29 49L29 48L28 48L28 47L27 47L27 46L28 46L28 45L26 45L26 44L28 44L28 43L30 43L30 44L29 44L29 45L30 45L30 46L29 46L29 47L30 47L30 49L35 49L35 48L36 48L36 49L37 49L37 48L36 48L36 47L40 47L40 48L39 48L39 50L37 50L37 51L38 51L38 53L39 53L39 52L41 52L41 51L40 51L40 50L45 50L45 51L42 51L42 52L46 52L46 51L47 51L47 50L46 50L46 48L48 48L48 51L49 51L49 52L48 52L48 54L46 54L46 53L44 53L44 54L46 54L46 55L47 55L47 56L48 56L48 54L49 54L49 56L50 56L50 55L51 55L51 54L49 54L49 53L50 53L50 51L51 51L51 52L53 52L53 51L52 51L52 50L55 50L55 49L52 49L52 50L49 50L49 48L48 48L48 47L49 47L49 45L50 45L50 43L51 43L51 44L52 44L52 43L51 43L51 42L49 42L49 40L50 40L50 39L51 39L51 41L52 41L52 40L53 40L53 39L51 39L51 38L52 38L52 37L51 37L51 36L53 36L53 35L51 35L51 34L49 34L49 33L50 33L50 31L49 31L49 30L50 30L50 29L49 29L49 28L48 28L48 29L49 29L49 30L48 30L48 31L49 31L49 32L48 32L48 35L47 35L47 34L46 34L46 33L47 33L47 32L46 32L46 31L47 31L47 30L46 30L46 31L45 31L45 30L44 30L44 28L43 28L43 29L41 29L41 30L43 30L43 31L39 31L39 30L40 30L40 29L39 29L39 30L38 30L38 31L39 31L39 34L37 34L37 32L36 32L36 31L37 31L37 28L36 28L36 27L37 27L37 24L35 24L35 23L34 23L34 25L36 25L36 27L35 27L35 26L33 26L33 27L31 27L31 26L32 26L32 25L31 25L31 26L30 26L30 25L29 25L29 24L28 24L28 23L27 23L27 22L26 22L26 21L24 21L24 20L26 20L26 19ZM28 19L28 21L29 21L29 23L30 23L30 24L32 24L32 22L33 22L33 21L32 21L32 20L33 20L33 19L32 19L32 20L31 20L31 19L30 19L30 20L31 20L31 21L32 21L32 22L30 22L30 21L29 21L29 19ZM20 20L20 21L22 21L22 20ZM2 22L2 23L3 23L3 22ZM6 22L6 23L8 23L8 22ZM18 22L18 24L19 24L19 22ZM46 22L46 23L44 23L44 24L45 24L45 25L47 25L47 24L46 24L46 23L47 23L47 22ZM57 22L57 23L59 23L59 22ZM6 24L6 25L4 25L4 26L6 26L6 27L7 27L7 26L8 26L8 25L9 25L9 24ZM26 24L26 25L27 25L27 26L26 26L26 29L24 29L24 30L21 30L21 33L23 33L23 31L24 31L24 33L25 33L25 32L26 32L26 34L27 34L27 36L30 36L30 34L29 34L29 33L27 33L27 32L28 32L28 31L27 31L27 32L26 32L26 29L27 29L27 30L28 30L28 29L30 29L30 30L35 30L35 31L36 31L36 30L35 30L35 27L34 27L34 28L30 28L30 26L29 26L29 25L28 25L28 24ZM6 25L6 26L7 26L7 25ZM18 25L18 26L19 26L19 25ZM2 27L2 28L1 28L1 29L2 29L2 28L3 28L3 27ZM60 27L60 28L61 28L61 27ZM8 28L8 29L9 29L9 28ZM27 28L27 29L28 29L28 28ZM45 28L45 29L46 29L46 28ZM11 29L11 30L10 30L10 33L11 33L11 30L12 30L12 29ZM5 31L5 34L8 34L8 31ZM17 31L17 32L18 32L18 31ZM29 31L29 32L30 32L30 31ZM31 31L31 34L34 34L34 31ZM43 31L43 32L44 32L44 35L43 35L43 34L41 34L41 35L43 35L43 38L42 38L42 36L40 36L40 35L36 35L36 32L35 32L35 36L37 36L37 38L39 38L39 39L37 39L37 41L38 41L38 43L35 43L35 42L36 42L36 41L34 41L34 39L35 39L35 40L36 40L36 39L35 39L35 38L36 38L36 37L35 37L35 38L34 38L34 39L33 39L33 41L32 41L32 44L31 44L31 45L34 45L34 46L33 46L33 47L36 47L36 45L34 45L34 43L35 43L35 44L37 44L37 45L38 45L38 46L39 46L39 45L42 45L42 44L40 44L40 43L43 43L43 45L45 45L45 46L44 46L44 47L45 47L45 48L44 48L44 49L45 49L45 48L46 48L46 46L47 46L47 47L48 47L48 46L47 46L47 45L48 45L48 44L49 44L49 43L48 43L48 44L47 44L47 43L46 43L46 42L48 42L48 40L49 40L49 39L48 39L48 38L51 38L51 37L50 37L50 36L51 36L51 35L48 35L48 36L49 36L49 37L47 37L47 35L46 35L46 38L45 38L45 39L46 39L46 40L44 40L44 37L45 37L45 36L44 36L44 35L45 35L45 32L44 32L44 31ZM57 31L57 34L60 34L60 31ZM6 32L6 33L7 33L7 32ZM32 32L32 33L33 33L33 32ZM40 32L40 33L42 33L42 32ZM58 32L58 33L59 33L59 32ZM17 34L17 35L18 35L18 34ZM21 34L21 35L22 35L22 34ZM23 34L23 37L22 37L22 36L21 36L21 37L20 37L20 38L19 38L19 39L18 39L18 40L17 40L17 41L15 41L15 42L14 42L14 43L15 43L15 42L16 42L16 43L18 43L18 42L19 42L19 41L20 41L20 42L21 42L21 43L22 43L22 45L23 45L23 46L22 46L22 47L23 47L23 48L24 48L24 49L25 49L25 48L24 48L24 47L23 47L23 46L24 46L24 45L23 45L23 42L22 42L22 41L25 41L25 42L24 42L24 44L26 44L26 43L25 43L25 42L26 42L26 41L27 41L27 43L28 43L28 42L30 42L30 41L28 41L28 40L30 40L30 39L29 39L29 38L30 38L30 37L25 37L25 36L26 36L26 35L25 35L25 36L24 36L24 34ZM6 35L6 36L7 36L7 35ZM31 35L31 37L32 37L32 38L31 38L31 39L32 39L32 38L33 38L33 37L32 37L32 36L33 36L33 35ZM62 35L62 36L63 36L63 35ZM38 36L38 37L39 37L39 38L40 38L40 39L39 39L39 40L38 40L38 41L39 41L39 40L41 40L41 42L43 42L43 43L44 43L44 44L45 44L45 43L44 43L44 42L43 42L43 41L44 41L44 40L43 40L43 41L42 41L42 39L41 39L41 37L39 37L39 36ZM21 37L21 38L20 38L20 39L21 39L21 40L20 40L20 41L22 41L22 40L24 40L24 39L25 39L25 41L26 41L26 39L27 39L27 40L28 40L28 38L25 38L25 37L23 37L23 39L22 39L22 37ZM54 37L54 38L55 38L55 37ZM46 38L46 39L47 39L47 40L46 40L46 41L47 41L47 40L48 40L48 39L47 39L47 38ZM55 39L55 40L54 40L54 41L53 41L53 42L56 42L56 43L57 43L57 42L56 42L56 41L55 41L55 40L57 40L57 41L58 41L58 40L59 40L59 39ZM60 39L60 40L61 40L61 39ZM18 40L18 41L19 41L19 40ZM39 42L39 43L40 43L40 42ZM38 44L38 45L39 45L39 44ZM60 44L60 45L62 45L62 44ZM7 45L7 46L6 46L6 47L7 47L7 46L8 46L8 45ZM15 45L15 46L16 46L16 45ZM17 46L17 47L18 47L18 48L16 48L16 47L14 47L14 48L15 48L15 49L14 49L14 50L16 50L16 51L17 51L17 50L16 50L16 49L21 49L21 48L19 48L19 47L20 47L20 46L19 46L19 47L18 47L18 46ZM25 46L25 47L26 47L26 46ZM30 46L30 47L32 47L32 46ZM40 46L40 47L41 47L41 48L40 48L40 49L41 49L41 48L42 48L42 47L43 47L43 46ZM6 48L6 49L3 49L3 50L4 50L4 51L5 51L5 50L6 50L6 51L7 51L7 50L8 50L8 49L9 49L9 50L10 50L10 49L11 49L11 48ZM26 48L26 49L27 49L27 48ZM6 49L6 50L7 50L7 49ZM30 50L30 51L29 51L29 52L28 52L28 53L29 53L29 52L30 52L30 51L31 51L31 50ZM10 51L10 52L11 52L11 53L9 53L9 54L11 54L11 53L13 53L13 52L12 52L12 51ZM24 51L24 52L26 52L26 51ZM20 52L20 53L22 53L22 52ZM32 52L32 53L33 53L33 52ZM42 53L42 54L43 54L43 53ZM64 53L64 54L65 54L65 53ZM24 54L24 56L25 56L25 54ZM33 54L33 55L34 55L34 54ZM38 54L38 55L39 55L39 56L41 56L41 58L40 58L40 59L39 59L39 58L38 58L38 59L37 59L37 60L38 60L38 59L39 59L39 62L40 62L40 60L41 60L41 58L45 58L45 57L44 57L44 56L45 56L45 55L39 55L39 54ZM53 54L53 55L54 55L54 57L56 57L56 56L55 56L55 55L54 55L54 54ZM28 55L28 56L29 56L29 55ZM6 56L6 57L7 57L7 56ZM9 56L9 58L10 58L10 56ZM22 56L22 57L23 57L23 56ZM31 57L31 60L34 60L34 57ZM57 57L57 60L60 60L60 57ZM27 58L27 61L28 61L28 59L29 59L29 58ZM32 58L32 59L33 59L33 58ZM53 58L53 59L56 59L56 58ZM58 58L58 59L59 59L59 58ZM61 58L61 59L62 59L62 60L63 60L63 59L62 59L62 58ZM14 59L14 60L13 60L13 62L12 62L12 63L13 63L13 62L14 62L14 60L15 60L15 59ZM43 59L43 60L46 60L46 61L47 61L47 60L46 60L46 59ZM50 60L50 61L51 61L51 60ZM15 61L15 62L16 62L16 61ZM19 62L19 63L20 63L20 62ZM10 63L10 64L11 64L11 63ZM23 63L23 64L24 64L24 63ZM36 64L36 65L37 65L37 64ZM0 0L0 7L7 7L7 0ZM1 1L1 6L6 6L6 1ZM2 2L2 5L5 5L5 2ZM58 0L58 7L65 7L65 0ZM59 1L59 6L64 6L64 1ZM60 2L60 5L63 5L63 2ZM0 58L0 65L7 65L7 58ZM1 59L1 64L6 64L6 59ZM2 60L2 63L5 63L5 60Z" fill="#000000"/></g></g></svg>
