<?xml version="1.0" encoding="UTF-8"?>
<svg xmlns="http://www.w3.org/2000/svg" version="1.1" width="300" height="300" viewBox="0 0 300 300"><rect x="0" y="0" width="300" height="300" fill="#ffffff"/><g transform="scale(4.615)"><g transform="translate(0,0)"><path fill-rule="evenodd" d="M9 0L9 1L8 1L8 2L10 2L10 1L11 1L11 3L10 3L10 4L11 4L11 5L15 5L15 6L14 6L14 8L15 8L15 9L14 9L14 10L15 10L15 9L16 9L16 8L15 8L15 6L16 6L16 7L17 7L17 9L19 9L19 10L18 10L18 11L19 11L19 12L18 12L18 13L20 13L20 12L21 12L21 14L23 14L23 15L24 15L24 16L28 16L28 15L27 15L27 14L28 14L28 13L26 13L26 12L28 12L28 11L29 11L29 13L30 13L30 14L29 14L29 15L30 15L30 16L29 16L29 17L30 17L30 18L31 18L31 19L30 19L30 20L31 20L31 21L30 21L30 23L29 23L29 22L26 22L26 21L24 21L24 23L23 23L23 24L25 24L25 25L22 25L22 24L20 24L20 25L19 25L19 23L20 23L20 21L22 21L22 20L21 20L21 19L22 19L22 18L23 18L23 20L26 20L26 19L25 19L25 17L22 17L22 15L21 15L21 16L20 16L20 17L19 17L19 15L20 15L20 14L18 14L18 15L17 15L17 14L16 14L16 13L15 13L15 14L13 14L13 15L15 15L15 17L14 17L14 16L12 16L12 17L11 17L11 16L10 16L10 17L7 17L7 16L6 16L6 15L7 15L7 14L6 14L6 15L5 15L5 16L4 16L4 13L5 13L5 12L4 12L4 13L3 13L3 15L2 15L2 16L1 16L1 15L0 15L0 17L1 17L1 19L2 19L2 20L1 20L1 21L0 21L0 22L1 22L1 23L0 23L0 26L1 26L1 27L2 27L2 23L4 23L4 22L6 22L6 23L5 23L5 24L3 24L3 25L4 25L4 26L3 26L3 27L5 27L5 28L3 28L3 29L5 29L5 30L4 30L4 33L3 33L3 32L2 32L2 31L0 31L0 33L1 33L1 32L2 32L2 34L0 34L0 36L2 36L2 37L0 37L0 40L2 40L2 38L3 38L3 40L4 40L4 38L6 38L6 39L5 39L5 41L4 41L4 42L3 42L3 43L2 43L2 44L1 44L1 42L2 42L2 41L0 41L0 44L1 44L1 46L3 46L3 47L1 47L1 48L0 48L0 49L2 49L2 50L3 50L3 49L7 49L7 50L5 50L5 52L4 52L4 51L2 51L2 52L1 52L1 50L0 50L0 53L2 53L2 55L3 55L3 56L1 56L1 55L0 55L0 56L1 56L1 57L3 57L3 56L4 56L4 57L5 57L5 56L4 56L4 54L5 54L5 55L7 55L7 56L6 56L6 57L8 57L8 59L9 59L9 60L8 60L8 65L12 65L12 63L11 63L11 62L10 62L10 61L11 61L11 60L12 60L12 61L13 61L13 64L14 64L14 65L15 65L15 64L14 64L14 63L16 63L16 65L17 65L17 61L19 61L19 62L18 62L18 63L19 63L19 64L18 64L18 65L20 65L20 64L24 64L24 63L22 63L22 62L24 62L24 61L26 61L26 62L27 62L27 63L26 63L26 64L25 64L25 65L26 65L26 64L27 64L27 63L28 63L28 65L33 65L33 64L34 64L34 63L33 63L33 64L31 64L31 63L32 63L32 62L34 62L34 61L37 61L37 60L39 60L39 62L38 62L38 63L39 63L39 62L40 62L40 64L39 64L39 65L40 65L40 64L41 64L41 62L40 62L40 60L41 60L41 61L42 61L42 62L44 62L44 61L43 61L43 60L45 60L45 61L46 61L46 59L47 59L47 60L48 60L48 61L47 61L47 62L45 62L45 63L42 63L42 64L43 64L43 65L44 65L44 64L45 64L45 65L47 65L47 64L48 64L48 65L49 65L49 64L50 64L50 65L52 65L52 64L53 64L53 62L55 62L55 61L56 61L56 62L57 62L57 64L55 64L55 63L54 63L54 64L55 64L55 65L63 65L63 64L64 64L64 60L65 60L65 59L64 59L64 60L62 60L62 59L61 59L61 58L62 58L62 57L63 57L63 56L62 56L62 53L63 53L63 54L65 54L65 53L64 53L64 52L65 52L65 51L63 51L63 50L62 50L62 51L61 51L61 49L60 49L60 48L62 48L62 49L64 49L64 50L65 50L65 49L64 49L64 48L62 48L62 47L61 47L61 46L62 46L62 45L63 45L63 46L64 46L64 45L63 45L63 44L62 44L62 43L63 43L63 42L61 42L61 41L60 41L60 38L61 38L61 40L62 40L62 41L63 41L63 40L62 40L62 38L65 38L65 37L64 37L64 36L62 36L62 35L63 35L63 33L64 33L64 34L65 34L65 31L64 31L64 32L62 32L62 31L63 31L63 29L64 29L64 30L65 30L65 29L64 29L64 28L65 28L65 27L64 27L64 28L62 28L62 27L63 27L63 24L64 24L64 26L65 26L65 23L63 23L63 20L62 20L62 19L63 19L63 18L65 18L65 15L64 15L64 14L65 14L65 13L63 13L63 15L64 15L64 16L62 16L62 14L61 14L61 13L62 13L62 11L61 11L61 10L62 10L62 8L61 8L61 10L60 10L60 11L59 11L59 10L58 10L58 8L56 8L56 9L54 9L54 10L53 10L53 9L52 9L52 8L53 8L53 6L52 6L52 5L54 5L54 8L55 8L55 5L54 5L54 4L56 4L56 5L57 5L57 4L56 4L56 3L57 3L57 1L56 1L56 0L55 0L55 1L56 1L56 3L55 3L55 2L54 2L54 4L52 4L52 3L53 3L53 2L52 2L52 0L51 0L51 1L49 1L49 0L48 0L48 1L46 1L46 0L45 0L45 2L44 2L44 3L43 3L43 4L41 4L41 5L42 5L42 7L41 7L41 6L40 6L40 7L39 7L39 5L40 5L40 4L39 4L39 5L38 5L38 4L37 4L37 3L36 3L36 1L37 1L37 2L39 2L39 3L41 3L41 2L40 2L40 0L39 0L39 1L37 1L37 0L35 0L35 1L34 1L34 2L33 2L33 3L31 3L31 2L30 2L30 1L32 1L32 0L29 0L29 1L28 1L28 2L27 2L27 0L22 0L22 2L19 2L19 3L20 3L20 4L21 4L21 5L22 5L22 7L23 7L23 5L22 5L22 4L24 4L24 5L25 5L25 6L24 6L24 8L25 8L25 9L21 9L21 6L20 6L20 7L19 7L19 4L18 4L18 3L17 3L17 2L18 2L18 1L17 1L17 2L16 2L16 1L15 1L15 2L16 2L16 3L13 3L13 4L12 4L12 1L13 1L13 2L14 2L14 1L13 1L13 0ZM19 0L19 1L20 1L20 0ZM41 0L41 1L44 1L44 0ZM53 0L53 1L54 1L54 0ZM24 1L24 2L23 2L23 3L24 3L24 4L25 4L25 5L26 5L26 6L25 6L25 8L26 8L26 9L25 9L25 10L26 10L26 9L27 9L27 11L28 11L28 10L32 10L32 9L28 9L28 8L29 8L29 7L30 7L30 6L29 6L29 5L30 5L30 4L31 4L31 3L30 3L30 2L29 2L29 3L27 3L27 4L25 4L25 3L26 3L26 2L25 2L25 1ZM48 1L48 2L46 2L46 3L44 3L44 5L43 5L43 7L42 7L42 8L39 8L39 7L38 7L38 5L37 5L37 7L36 7L36 3L35 3L35 2L34 2L34 3L33 3L33 4L35 4L35 9L33 9L33 12L32 12L32 11L31 11L31 12L30 12L30 13L31 13L31 18L33 18L33 20L32 20L32 19L31 19L31 20L32 20L32 21L31 21L31 22L32 22L32 24L29 24L29 25L28 25L28 23L27 23L27 24L26 24L26 25L25 25L25 26L22 26L22 27L24 27L24 28L20 28L20 27L21 27L21 25L20 25L20 27L19 27L19 25L18 25L18 27L17 27L17 25L16 25L16 27L15 27L15 28L16 28L16 29L15 29L15 30L14 30L14 28L13 28L13 30L14 30L14 31L15 31L15 32L16 32L16 31L15 31L15 30L16 30L16 29L17 29L17 31L18 31L18 32L17 32L17 33L16 33L16 34L18 34L18 35L16 35L16 36L18 36L18 37L15 37L15 35L14 35L14 32L13 32L13 31L11 31L11 33L10 33L10 34L9 34L9 35L6 35L6 36L7 36L7 37L6 37L6 38L7 38L7 39L6 39L6 40L7 40L7 41L6 41L6 42L5 42L5 43L4 43L4 44L3 44L3 46L5 46L5 47L6 47L6 48L7 48L7 49L9 49L9 50L10 50L10 49L11 49L11 50L12 50L12 52L11 52L11 53L10 53L10 55L9 55L9 59L12 59L12 56L11 56L11 57L10 57L10 55L13 55L13 56L14 56L14 57L15 57L15 55L16 55L16 56L17 56L17 57L16 57L16 59L15 59L15 60L16 60L16 61L14 61L14 59L13 59L13 61L14 61L14 62L16 62L16 61L17 61L17 60L18 60L18 58L19 58L19 61L24 61L24 59L25 59L25 60L26 60L26 61L27 61L27 62L28 62L28 61L29 61L29 62L30 62L30 63L31 63L31 62L32 62L32 61L29 61L29 60L30 60L30 59L28 59L28 61L27 61L27 58L30 58L30 56L29 56L29 57L27 57L27 56L28 56L28 55L29 55L29 54L30 54L30 53L31 53L31 54L32 54L32 55L33 55L33 56L34 56L34 55L35 55L35 56L37 56L37 55L38 55L38 56L39 56L39 57L38 57L38 58L36 58L36 60L37 60L37 59L38 59L38 58L40 58L40 59L41 59L41 58L40 58L40 57L43 57L43 56L44 56L44 59L45 59L45 58L47 58L47 57L46 57L46 54L47 54L47 55L48 55L48 56L52 56L52 57L50 57L50 58L52 58L52 59L50 59L50 60L49 60L49 59L48 59L48 60L49 60L49 61L50 61L50 62L49 62L49 63L48 63L48 62L47 62L47 63L46 63L46 64L47 64L47 63L48 63L48 64L49 64L49 63L50 63L50 62L51 62L51 64L52 64L52 61L53 61L53 58L54 58L54 59L56 59L56 58L54 58L54 57L56 57L56 56L54 56L54 54L53 54L53 56L52 56L52 54L51 54L51 53L55 53L55 55L59 55L59 56L60 56L60 55L61 55L61 54L56 54L56 52L57 52L57 53L58 53L58 52L57 52L57 51L59 51L59 52L60 52L60 51L59 51L59 48L55 48L55 49L56 49L56 50L54 50L54 49L53 49L53 48L52 48L52 49L53 49L53 52L52 52L52 51L50 51L50 50L51 50L51 47L48 47L48 46L47 46L47 45L48 45L48 44L51 44L51 45L50 45L50 46L51 46L51 45L53 45L53 44L55 44L55 45L56 45L56 46L52 46L52 47L56 47L56 46L57 46L57 44L58 44L58 45L59 45L59 44L58 44L58 43L59 43L59 42L58 42L58 43L57 43L57 44L55 44L55 43L56 43L56 42L57 42L57 40L54 40L54 39L59 39L59 38L58 38L58 35L56 35L56 36L55 36L55 34L56 34L56 30L60 30L60 29L56 29L56 28L58 28L58 26L59 26L59 27L60 27L60 28L61 28L61 26L59 26L59 25L60 25L60 24L61 24L61 25L62 25L62 24L63 24L63 23L62 23L62 24L61 24L61 23L60 23L60 22L61 22L61 21L62 21L62 20L61 20L61 21L58 21L58 20L59 20L59 19L60 19L60 17L59 17L59 16L61 16L61 19L62 19L62 18L63 18L63 17L62 17L62 16L61 16L61 15L59 15L59 16L58 16L58 17L56 17L56 16L57 16L57 14L59 14L59 13L58 13L58 10L57 10L57 9L56 9L56 10L54 10L54 12L52 12L52 11L53 11L53 10L52 10L52 9L50 9L50 8L51 8L51 7L52 7L52 6L51 6L51 7L50 7L50 6L49 6L49 7L48 7L48 5L51 5L51 4L50 4L50 3L51 3L51 2L49 2L49 1ZM24 2L24 3L25 3L25 2ZM8 3L8 4L9 4L9 3ZM21 3L21 4L22 4L22 3ZM48 3L48 4L47 4L47 5L46 5L46 4L45 4L45 5L44 5L44 8L42 8L42 10L44 10L44 11L45 11L45 13L44 13L44 12L43 12L43 11L40 11L40 10L38 10L38 9L37 9L37 8L38 8L38 7L37 7L37 8L36 8L36 10L35 10L35 11L34 11L34 12L33 12L33 13L32 13L32 12L31 12L31 13L32 13L32 14L33 14L33 15L32 15L32 16L33 16L33 18L34 18L34 20L36 20L36 21L35 21L35 22L36 22L36 23L37 23L37 24L35 24L35 23L34 23L34 21L32 21L32 22L33 22L33 23L34 23L34 25L35 25L35 26L33 26L33 27L32 27L32 28L34 28L34 29L35 29L35 30L30 30L30 29L28 29L28 28L27 28L27 29L26 29L26 27L27 27L27 25L26 25L26 26L25 26L25 28L24 28L24 29L19 29L19 27L18 27L18 29L19 29L19 30L18 30L18 31L19 31L19 32L18 32L18 33L19 33L19 35L20 35L20 37L18 37L18 39L19 39L19 40L18 40L18 41L19 41L19 42L18 42L18 43L19 43L19 44L17 44L17 46L18 46L18 49L17 49L17 48L16 48L16 47L15 47L15 46L16 46L16 45L15 45L15 46L14 46L14 47L13 47L13 45L14 45L14 44L16 44L16 43L17 43L17 42L15 42L15 41L17 41L17 39L15 39L15 37L13 37L13 36L14 36L14 35L13 35L13 32L12 32L12 33L11 33L11 34L10 34L10 35L9 35L9 38L8 38L8 37L7 37L7 38L8 38L8 39L7 39L7 40L8 40L8 42L6 42L6 43L9 43L9 45L8 45L8 46L6 46L6 47L8 47L8 48L9 48L9 49L10 49L10 48L12 48L12 49L13 49L13 50L14 50L14 49L15 49L15 51L16 51L16 49L17 49L17 50L18 50L18 51L17 51L17 52L16 52L16 53L17 53L17 54L18 54L18 55L19 55L19 56L18 56L18 57L19 57L19 58L20 58L20 59L22 59L22 58L25 58L25 59L26 59L26 58L27 58L27 57L26 57L26 53L23 53L23 54L20 54L20 53L22 53L22 52L19 52L19 51L22 51L22 50L23 50L23 52L24 52L24 50L28 50L28 51L27 51L27 53L29 53L29 52L30 52L30 51L31 51L31 50L30 50L30 51L29 51L29 50L28 50L28 49L29 49L29 48L28 48L28 47L27 47L27 49L26 49L26 48L25 48L25 46L28 46L28 45L26 45L26 42L27 42L27 41L26 41L26 39L27 39L27 38L25 38L25 37L30 37L30 38L29 38L29 39L30 39L30 41L31 41L31 44L32 44L32 41L33 41L33 42L34 42L34 43L33 43L33 44L34 44L34 45L31 45L31 46L32 46L32 47L30 47L30 46L29 46L29 47L30 47L30 49L31 49L31 48L32 48L32 49L33 49L33 48L34 48L34 50L35 50L35 47L33 47L33 46L34 46L34 45L36 45L36 47L37 47L37 48L36 48L36 51L33 51L33 52L32 52L32 53L33 53L33 55L34 55L34 52L36 52L36 53L37 53L37 52L36 52L36 51L38 51L38 53L39 53L39 54L38 54L38 55L39 55L39 56L41 56L41 55L40 55L40 54L41 54L41 53L40 53L40 52L41 52L41 51L40 51L40 50L37 50L37 48L38 48L38 49L40 49L40 48L41 48L41 47L40 47L40 46L43 46L43 47L44 47L44 48L43 48L43 49L42 49L42 50L43 50L43 51L42 51L42 52L43 52L43 53L42 53L42 54L43 54L43 55L42 55L42 56L43 56L43 55L44 55L44 56L45 56L45 55L44 55L44 52L45 52L45 54L46 54L46 51L47 51L47 54L48 54L48 55L51 55L51 54L49 54L49 53L50 53L50 51L49 51L49 48L48 48L48 47L47 47L47 46L46 46L46 47L47 47L47 48L48 48L48 51L47 51L47 50L45 50L45 51L44 51L44 50L43 50L43 49L44 49L44 48L45 48L45 47L44 47L44 46L45 46L45 45L47 45L47 44L48 44L48 43L49 43L49 42L50 42L50 43L51 43L51 44L52 44L52 42L53 42L53 43L54 43L54 42L56 42L56 41L54 41L54 40L53 40L53 39L52 39L52 40L50 40L50 41L49 41L49 40L48 40L48 39L51 39L51 38L52 38L52 37L51 37L51 36L53 36L53 35L52 35L52 34L55 34L55 33L54 33L54 32L55 32L55 31L54 31L54 32L53 32L53 31L52 31L52 32L51 32L51 34L49 34L49 32L48 32L48 35L47 35L47 34L46 34L46 35L45 35L45 33L44 33L44 32L46 32L46 33L47 33L47 32L46 32L46 31L47 31L47 30L46 30L46 29L47 29L47 28L48 28L48 29L49 29L49 30L48 30L48 31L51 31L51 30L52 30L52 28L54 28L54 29L53 29L53 30L56 30L56 29L55 29L55 27L54 27L54 26L56 26L56 25L57 25L57 26L58 26L58 25L59 25L59 22L58 22L58 21L57 21L57 20L58 20L58 19L59 19L59 18L56 18L56 20L55 20L55 19L54 19L54 20L55 20L55 21L54 21L54 22L53 22L53 23L52 23L52 24L51 24L51 22L49 22L49 20L48 20L48 19L51 19L51 21L52 21L52 20L53 20L53 19L51 19L51 18L48 18L48 19L47 19L47 18L46 18L46 19L47 19L47 20L45 20L45 19L44 19L44 18L43 18L43 17L44 17L44 16L45 16L45 17L47 17L47 16L46 16L46 15L47 15L47 14L48 14L48 15L49 15L49 14L48 14L48 13L49 13L49 12L51 12L51 13L52 13L52 12L51 12L51 11L52 11L52 10L50 10L50 11L49 11L49 12L48 12L48 9L49 9L49 8L47 8L47 5L48 5L48 4L49 4L49 3ZM17 4L17 5L16 5L16 6L17 6L17 7L18 7L18 6L17 6L17 5L18 5L18 4ZM8 5L8 7L9 7L9 8L6 8L6 9L9 9L9 11L7 11L7 10L6 10L6 11L7 11L7 12L6 12L6 13L7 13L7 12L8 12L8 16L9 16L9 14L12 14L12 13L9 13L9 11L10 11L10 10L12 10L12 11L13 11L13 13L14 13L14 12L17 12L17 11L13 11L13 8L11 8L11 6L10 6L10 7L9 7L9 5ZM27 5L27 6L26 6L26 7L27 7L27 6L28 6L28 7L29 7L29 6L28 6L28 5ZM31 5L31 8L34 8L34 5ZM45 5L45 8L44 8L44 10L47 10L47 8L46 8L46 5ZM12 6L12 7L13 7L13 6ZM32 6L32 7L33 7L33 6ZM56 6L56 7L57 7L57 6ZM0 8L0 11L2 11L2 10L3 10L3 11L4 11L4 10L5 10L5 8ZM9 8L9 9L10 9L10 8ZM19 8L19 9L20 9L20 10L19 10L19 11L21 11L21 9L20 9L20 8ZM59 8L59 9L60 9L60 8ZM63 8L63 10L65 10L65 9L64 9L64 8ZM36 10L36 11L35 11L35 12L37 12L37 11L38 11L38 10ZM56 10L56 11L57 11L57 10ZM23 11L23 12L22 12L22 13L23 13L23 14L24 14L24 13L23 13L23 12L24 12L24 11ZM39 11L39 13L38 13L38 14L41 14L41 15L42 15L42 16L40 16L40 15L37 15L37 18L36 18L36 20L37 20L37 18L39 18L39 16L40 16L40 19L38 19L38 21L37 21L37 23L38 23L38 24L37 24L37 25L38 25L38 26L35 26L35 27L34 27L34 28L35 28L35 27L36 27L36 28L37 28L37 29L38 29L38 30L37 30L37 31L36 31L36 30L35 30L35 31L36 31L36 32L37 32L37 33L35 33L35 35L36 35L36 36L34 36L34 39L32 39L32 38L33 38L33 37L32 37L32 36L31 36L31 40L33 40L33 41L34 41L34 39L35 39L35 40L37 40L37 41L38 41L38 42L37 42L37 43L36 43L36 42L35 42L35 43L34 43L34 44L38 44L38 46L37 46L37 47L38 47L38 46L39 46L39 45L42 45L42 44L40 44L40 43L43 43L43 45L45 45L45 44L44 44L44 43L43 43L43 42L42 42L42 41L43 41L43 40L44 40L44 42L45 42L45 43L46 43L46 44L47 44L47 43L48 43L48 42L49 42L49 41L48 41L48 42L47 42L47 41L45 41L45 40L44 40L44 39L43 39L43 38L44 38L44 37L46 37L46 38L45 38L45 39L46 39L46 40L47 40L47 39L46 39L46 38L48 38L48 37L47 37L47 35L46 35L46 36L44 36L44 35L43 35L43 34L42 34L42 33L43 33L43 32L42 32L42 31L43 31L43 30L42 30L42 31L41 31L41 29L44 29L44 30L45 30L45 28L43 28L43 27L46 27L46 26L48 26L48 25L47 25L47 24L49 24L49 27L48 27L48 28L49 28L49 29L50 29L50 30L51 30L51 29L50 29L50 28L51 28L51 27L50 27L50 26L52 26L52 27L53 27L53 26L54 26L54 25L55 25L55 24L54 24L54 23L55 23L55 22L54 22L54 23L53 23L53 24L52 24L52 25L51 25L51 24L49 24L49 23L46 23L46 22L47 22L47 21L46 21L46 22L45 22L45 20L44 20L44 19L43 19L43 18L42 18L42 16L44 16L44 15L46 15L46 14L47 14L47 13L48 13L48 12L47 12L47 11L46 11L46 12L47 12L47 13L46 13L46 14L41 14L41 12L40 12L40 11ZM60 11L60 12L61 12L61 11ZM63 11L63 12L64 12L64 11ZM56 12L56 13L53 13L53 14L52 14L52 16L51 16L51 17L52 17L52 16L53 16L53 18L55 18L55 16L56 16L56 13L57 13L57 12ZM25 13L25 15L26 15L26 13ZM33 13L33 14L35 14L35 15L34 15L34 18L35 18L35 15L36 15L36 14L37 14L37 13ZM15 14L15 15L16 15L16 16L17 16L17 15L16 15L16 14ZM50 14L50 15L51 15L51 14ZM53 14L53 16L55 16L55 14ZM2 16L2 19L3 19L3 21L2 21L2 22L3 22L3 21L4 21L4 20L5 20L5 19L3 19L3 16ZM48 16L48 17L49 17L49 16ZM5 17L5 18L7 18L7 17ZM10 17L10 18L11 18L11 17ZM12 17L12 18L13 18L13 19L11 19L11 20L13 20L13 21L12 21L12 22L11 22L11 21L10 21L10 22L11 22L11 23L9 23L9 24L7 24L7 23L8 23L8 22L9 22L9 20L8 20L8 21L6 21L6 22L7 22L7 23L6 23L6 24L7 24L7 25L5 25L5 26L7 26L7 25L8 25L8 26L9 26L9 27L8 27L8 28L7 28L7 27L6 27L6 28L7 28L7 29L6 29L6 30L8 30L8 28L9 28L9 27L10 27L10 26L12 26L12 27L11 27L11 29L10 29L10 30L9 30L9 32L10 32L10 30L11 30L11 29L12 29L12 27L13 27L13 26L12 26L12 25L14 25L14 24L15 24L15 23L16 23L16 24L17 24L17 21L18 21L18 20L17 20L17 19L18 19L18 18L19 18L19 19L21 19L21 17L20 17L20 18L19 18L19 17L18 17L18 18L17 18L17 17L16 17L16 19L15 19L15 18L13 18L13 17ZM26 17L26 18L27 18L27 20L28 20L28 21L29 21L29 18L27 18L27 17ZM6 19L6 20L7 20L7 19ZM13 19L13 20L14 20L14 22L16 22L16 21L15 21L15 19ZM40 19L40 20L41 20L41 21L39 21L39 22L38 22L38 23L39 23L39 24L41 24L41 23L42 23L42 24L43 24L43 25L42 25L42 26L41 26L41 27L40 27L40 28L42 28L42 26L44 26L44 24L45 24L45 23L44 23L44 22L43 22L43 21L44 21L44 20L43 20L43 21L42 21L42 20L41 20L41 19ZM19 20L19 21L20 21L20 20ZM56 21L56 24L57 24L57 21ZM64 21L64 22L65 22L65 21ZM40 22L40 23L41 23L41 22ZM11 23L11 25L12 25L12 23ZM13 23L13 24L14 24L14 23ZM43 23L43 24L44 24L44 23ZM53 24L53 25L52 25L52 26L53 26L53 25L54 25L54 24ZM29 25L29 26L30 26L30 27L29 27L29 28L31 28L31 26L32 26L32 25ZM39 25L39 26L40 26L40 25ZM16 27L16 28L17 28L17 27ZM37 27L37 28L38 28L38 27ZM0 28L0 30L2 30L2 29L1 29L1 28ZM24 29L24 30L22 30L22 31L24 31L24 33L25 33L25 32L26 32L26 33L28 33L28 34L29 34L29 35L28 35L28 36L30 36L30 34L29 34L29 33L28 33L28 31L27 31L27 30L28 30L28 29L27 29L27 30L26 30L26 29ZM39 29L39 30L38 30L38 31L39 31L39 30L40 30L40 29ZM19 30L19 31L20 31L20 30ZM61 30L61 31L62 31L62 30ZM5 31L5 34L8 34L8 31ZM26 31L26 32L27 32L27 31ZM29 31L29 32L30 32L30 31ZM31 31L31 34L34 34L34 31ZM40 31L40 32L39 32L39 34L38 34L38 35L39 35L39 36L38 36L38 37L39 37L39 38L37 38L37 39L39 39L39 40L41 40L41 38L40 38L40 36L41 36L41 35L42 35L42 38L43 38L43 37L44 37L44 36L43 36L43 35L42 35L42 34L41 34L41 35L40 35L40 32L41 32L41 31ZM57 31L57 34L60 34L60 31ZM6 32L6 33L7 33L7 32ZM19 32L19 33L20 33L20 35L22 35L22 33L23 33L23 32L22 32L22 33L20 33L20 32ZM32 32L32 33L33 33L33 32ZM52 32L52 33L53 33L53 32ZM58 32L58 33L59 33L59 32ZM23 34L23 35L24 35L24 34ZM36 34L36 35L37 35L37 34ZM2 35L2 36L3 36L3 38L4 38L4 36L5 36L5 35ZM10 35L10 36L11 36L11 37L12 37L12 36L13 36L13 35ZM25 35L25 36L23 36L23 37L22 37L22 36L21 36L21 37L20 37L20 40L19 40L19 41L20 41L20 43L21 43L21 44L20 44L20 45L18 45L18 46L20 46L20 47L19 47L19 49L18 49L18 50L19 50L19 49L20 49L20 50L21 50L21 45L23 45L23 46L24 46L24 45L23 45L23 43L22 43L22 41L25 41L25 42L24 42L24 44L25 44L25 42L26 42L26 41L25 41L25 38L24 38L24 40L22 40L22 41L20 41L20 40L21 40L21 37L22 37L22 39L23 39L23 37L25 37L25 36L26 36L26 35ZM48 35L48 36L49 36L49 38L51 38L51 37L50 37L50 36L51 36L51 35ZM36 36L36 37L37 37L37 36ZM60 36L60 37L61 37L61 36ZM54 37L54 38L56 38L56 37ZM9 38L9 40L10 40L10 39L11 39L11 41L9 41L9 42L10 42L10 43L11 43L11 42L13 42L13 41L15 41L15 40L14 40L14 38ZM39 38L39 39L40 39L40 38ZM12 39L12 41L13 41L13 39ZM28 40L28 41L29 41L29 40ZM52 40L52 41L50 41L50 42L52 42L52 41L53 41L53 42L54 42L54 41L53 41L53 40ZM58 40L58 41L59 41L59 40ZM64 41L64 42L65 42L65 41ZM14 42L14 43L12 43L12 44L11 44L11 46L10 46L10 45L9 45L9 46L8 46L8 47L9 47L9 48L10 48L10 47L12 47L12 44L14 44L14 43L15 43L15 42ZM28 42L28 43L27 43L27 44L28 44L28 43L30 43L30 42ZM38 42L38 43L40 43L40 42ZM5 44L5 45L7 45L7 44ZM60 44L60 45L61 45L61 44ZM9 46L9 47L10 47L10 46ZM58 46L58 47L60 47L60 46ZM14 47L14 48L13 48L13 49L14 49L14 48L15 48L15 47ZM23 47L23 48L22 48L22 49L25 49L25 48L24 48L24 47ZM39 47L39 48L40 48L40 47ZM7 50L7 51L6 51L6 52L5 52L5 54L9 54L9 52L7 52L7 51L8 51L8 50ZM25 51L25 52L26 52L26 51ZM28 51L28 52L29 52L29 51ZM43 51L43 52L44 52L44 51ZM48 51L48 52L49 52L49 51ZM54 51L54 52L56 52L56 51ZM62 51L62 52L61 52L61 53L62 53L62 52L63 52L63 51ZM6 52L6 53L7 53L7 52ZM17 52L17 53L18 53L18 52ZM12 53L12 54L13 54L13 55L15 55L15 54L13 54L13 53ZM19 54L19 55L20 55L20 54ZM23 54L23 56L22 56L22 57L23 57L23 56L25 56L25 55L24 55L24 54ZM36 54L36 55L37 55L37 54ZM19 56L19 57L20 57L20 58L21 58L21 57L20 57L20 56ZM53 56L53 57L52 57L52 58L53 58L53 57L54 57L54 56ZM64 56L64 58L65 58L65 56ZM31 57L31 60L34 60L34 57ZM57 57L57 60L60 60L60 57ZM32 58L32 59L33 59L33 58ZM42 58L42 59L43 59L43 58ZM58 58L58 59L59 59L59 58ZM16 59L16 60L17 60L17 59ZM61 60L61 61L59 61L59 62L62 62L62 64L63 64L63 62L62 62L62 60ZM9 62L9 63L10 63L10 64L11 64L11 63L10 63L10 62ZM19 62L19 63L20 63L20 62ZM36 62L36 63L35 63L35 64L36 64L36 65L37 65L37 64L36 64L36 63L37 63L37 62ZM58 63L58 64L60 64L60 63ZM0 0L0 7L7 7L7 0ZM1 1L1 6L6 6L6 1ZM2 2L2 5L5 5L5 2ZM58 0L58 7L65 7L65 0ZM59 1L59 6L64 6L64 1ZM60 2L60 5L63 5L63 2ZM0 58L0 65L7 65L7 58ZM1 59L1 64L6 64L6 59ZM2 60L2 63L5 63L5 60Z" fill="#000000"/></g></g></svg>
