<?xml version="1.0" encoding="UTF-8"?>
<svg xmlns="http://www.w3.org/2000/svg" version="1.1" width="300" height="300" viewBox="0 0 300 300"><rect x="0" y="0" width="300" height="300" fill="#ffffff"/><g transform="scale(4.615)"><g transform="translate(0,0)"><path fill-rule="evenodd" d="M8 0L8 1L9 1L9 2L10 2L10 3L9 3L9 6L8 6L8 8L10 8L10 9L9 9L9 10L10 10L10 11L11 11L11 13L10 13L10 12L8 12L8 13L7 13L7 12L4 12L4 10L6 10L6 11L7 11L7 10L8 10L8 9L7 9L7 8L6 8L6 9L5 9L5 8L3 8L3 11L2 11L2 12L3 12L3 16L1 16L1 17L0 17L0 21L1 21L1 22L2 22L2 24L3 24L3 25L2 25L2 27L3 27L3 26L6 26L6 27L7 27L7 28L3 28L3 29L5 29L5 30L4 30L4 34L1 34L1 33L2 33L2 32L3 32L3 30L2 30L2 29L1 29L1 31L0 31L0 35L1 35L1 36L0 36L0 40L1 40L1 36L2 36L2 35L3 35L3 36L4 36L4 38L5 38L5 39L2 39L2 40L3 40L3 41L5 41L5 43L4 43L4 45L3 45L3 44L2 44L2 43L1 43L1 42L2 42L2 41L1 41L1 42L0 42L0 43L1 43L1 44L0 44L0 46L3 46L3 47L1 47L1 48L0 48L0 52L1 52L1 53L2 53L2 55L3 55L3 56L1 56L1 55L0 55L0 56L1 56L1 57L3 57L3 56L4 56L4 57L5 57L5 56L4 56L4 54L5 54L5 55L7 55L7 56L6 56L6 57L8 57L8 58L9 58L9 59L10 59L10 57L11 57L11 56L13 56L13 57L15 57L15 58L12 58L12 59L11 59L11 60L10 60L10 62L9 62L9 60L8 60L8 62L9 62L9 63L8 63L8 65L10 65L10 64L11 64L11 63L10 63L10 62L11 62L11 61L12 61L12 64L15 64L15 65L17 65L17 64L16 64L16 62L17 62L17 63L18 63L18 65L20 65L20 63L21 63L21 64L22 64L22 63L23 63L23 64L24 64L24 63L23 63L23 62L24 62L24 61L25 61L25 59L28 59L28 60L26 60L26 62L25 62L25 65L29 65L29 64L28 64L28 62L29 62L29 61L31 61L31 62L30 62L30 63L31 63L31 62L32 62L32 61L33 61L33 62L34 62L34 63L32 63L32 64L30 64L30 65L32 65L32 64L35 64L35 65L37 65L37 64L36 64L36 63L38 63L38 65L39 65L39 61L41 61L41 62L45 62L45 64L44 64L44 65L46 65L46 62L45 62L45 59L46 59L46 60L47 60L47 62L48 62L48 63L47 63L47 65L49 65L49 64L48 64L48 63L50 63L50 65L51 65L51 62L55 62L55 63L54 63L54 64L53 64L53 65L54 65L54 64L58 64L58 65L59 65L59 63L60 63L60 65L61 65L61 64L63 64L63 63L64 63L64 64L65 64L65 62L63 62L63 61L65 61L65 60L63 60L63 61L62 61L62 62L63 62L63 63L61 63L61 62L58 62L58 61L61 61L61 60L62 60L62 59L61 59L61 58L62 58L62 57L65 57L65 54L64 54L64 52L63 52L63 51L65 51L65 47L63 47L63 43L65 43L65 42L62 42L62 40L63 40L63 41L64 41L64 40L65 40L65 35L64 35L64 34L63 34L63 35L64 35L64 40L63 40L63 37L60 37L60 36L59 36L59 37L57 37L57 38L58 38L58 39L57 39L57 40L56 40L56 39L55 39L55 40L56 40L56 41L54 41L54 40L53 40L53 42L52 42L52 39L53 39L53 38L52 38L52 39L51 39L51 37L50 37L50 36L48 36L48 37L49 37L49 38L48 38L48 39L49 39L49 38L50 38L50 40L47 40L47 39L45 39L45 38L44 38L44 37L45 37L45 35L46 35L46 36L47 36L47 35L50 35L50 34L51 34L51 35L52 35L52 33L53 33L53 34L55 34L55 33L56 33L56 35L55 35L55 37L54 37L54 35L53 35L53 36L52 36L52 37L54 37L54 38L55 38L55 37L56 37L56 36L58 36L58 35L61 35L61 36L62 36L62 33L63 33L63 32L65 32L65 30L64 30L64 28L63 28L63 27L61 27L61 28L60 28L60 26L59 26L59 28L58 28L58 27L57 27L57 26L58 26L58 25L59 25L59 24L58 24L58 25L54 25L54 24L56 24L56 23L61 23L61 24L60 24L60 25L61 25L61 24L62 24L62 23L63 23L63 25L64 25L64 27L65 27L65 23L63 23L63 22L64 22L64 21L65 21L65 18L63 18L63 19L62 19L62 18L61 18L61 16L60 16L60 15L62 15L62 16L63 16L63 17L65 17L65 16L64 16L64 15L65 15L65 12L64 12L64 11L63 11L63 10L64 10L64 9L65 9L65 8L64 8L64 9L63 9L63 10L61 10L61 9L60 9L60 11L61 11L61 12L60 12L60 13L59 13L59 14L60 14L60 15L58 15L58 13L54 13L54 10L55 10L55 9L56 9L56 10L57 10L57 12L58 12L58 11L59 11L59 8L58 8L58 9L57 9L57 6L56 6L56 7L55 7L55 5L51 5L51 4L53 4L53 3L52 3L52 2L51 2L51 4L50 4L50 5L49 5L49 3L50 3L50 2L49 2L49 3L47 3L47 2L48 2L48 0L45 0L45 1L44 1L44 0L42 0L42 1L41 1L41 3L40 3L40 2L39 2L39 3L38 3L38 2L37 2L37 1L40 1L40 0L32 0L32 1L31 1L31 0L30 0L30 1L29 1L29 0L28 0L28 1L27 1L27 2L24 2L24 3L25 3L25 4L24 4L24 5L23 5L23 6L22 6L22 2L23 2L23 1L22 1L22 0L20 0L20 1L19 1L19 0L18 0L18 1L17 1L17 0L15 0L15 1L17 1L17 2L14 2L14 0L13 0L13 1L12 1L12 4L11 4L11 0ZM24 0L24 1L25 1L25 0ZM49 0L49 1L52 1L52 0ZM55 0L55 1L56 1L56 3L55 3L55 2L54 2L54 4L56 4L56 5L57 5L57 4L56 4L56 3L57 3L57 1L56 1L56 0ZM18 1L18 2L17 2L17 3L18 3L18 4L21 4L21 1L20 1L20 3L19 3L19 1ZM28 1L28 2L27 2L27 3L26 3L26 4L25 4L25 5L26 5L26 6L25 6L25 7L26 7L26 6L27 6L27 8L23 8L23 7L24 7L24 6L23 6L23 7L22 7L22 6L21 6L21 5L20 5L20 6L19 6L19 7L18 7L18 5L17 5L17 7L18 7L18 8L19 8L19 7L20 7L20 6L21 6L21 7L22 7L22 8L21 8L21 10L23 10L23 11L24 11L24 10L23 10L23 9L25 9L25 10L26 10L26 12L25 12L25 13L26 13L26 16L24 16L24 15L23 15L23 14L24 14L24 12L23 12L23 14L22 14L22 11L20 11L20 12L19 12L19 9L17 9L17 8L15 8L15 7L16 7L16 6L15 6L15 5L16 5L16 3L13 3L13 4L12 4L12 5L13 5L13 4L14 4L14 6L13 6L13 8L12 8L12 9L10 9L10 10L11 10L11 11L12 11L12 12L13 12L13 13L14 13L14 14L13 14L13 16L12 16L12 13L11 13L11 16L10 16L10 14L9 14L9 13L8 13L8 14L7 14L7 13L4 13L4 16L3 16L3 17L4 17L4 16L5 16L5 17L6 17L6 18L7 18L7 19L5 19L5 18L4 18L4 19L3 19L3 18L2 18L2 19L3 19L3 20L1 20L1 21L3 21L3 22L5 22L5 23L4 23L4 25L6 25L6 26L8 26L8 28L7 28L7 29L6 29L6 30L7 30L7 29L8 29L8 28L9 28L9 27L10 27L10 30L9 30L9 31L10 31L10 30L11 30L11 31L15 31L15 30L12 30L12 28L13 28L13 29L14 29L14 28L13 28L13 27L15 27L15 28L16 28L16 31L17 31L17 29L18 29L18 31L19 31L19 33L17 33L17 32L16 32L16 33L15 33L15 36L14 36L14 37L15 37L15 38L17 38L17 39L16 39L16 40L17 40L17 41L18 41L18 42L19 42L19 41L20 41L20 42L21 42L21 44L20 44L20 43L19 43L19 45L17 45L17 46L16 46L16 44L17 44L17 42L16 42L16 41L15 41L15 42L14 42L14 44L15 44L15 45L14 45L14 46L13 46L13 47L12 47L12 44L11 44L11 45L9 45L9 44L10 44L10 43L11 43L11 40L13 40L13 41L14 41L14 40L15 40L15 39L14 39L14 40L13 40L13 39L11 39L11 40L10 40L10 38L9 38L9 39L8 39L8 38L7 38L7 37L6 37L6 36L9 36L9 35L10 35L10 36L11 36L11 35L10 35L10 34L12 34L12 37L11 37L11 38L13 38L13 34L14 34L14 32L11 32L11 33L10 33L10 32L9 32L9 35L5 35L5 37L6 37L6 38L7 38L7 39L6 39L6 40L5 40L5 41L6 41L6 42L7 42L7 43L5 43L5 44L7 44L7 43L8 43L8 40L10 40L10 41L9 41L9 42L10 42L10 43L9 43L9 44L8 44L8 46L7 46L7 45L5 45L5 46L4 46L4 47L3 47L3 48L1 48L1 49L3 49L3 50L2 50L2 52L3 52L3 54L4 54L4 53L5 53L5 54L7 54L7 55L8 55L8 56L9 56L9 55L11 55L11 54L12 54L12 55L14 55L14 54L16 54L16 55L15 55L15 56L16 56L16 57L17 57L17 59L19 59L19 60L23 60L23 57L21 57L21 56L22 56L22 55L24 55L24 56L25 56L25 57L26 57L26 58L27 58L27 56L28 56L28 57L29 57L29 58L30 58L30 57L29 57L29 55L30 55L30 54L28 54L28 55L27 55L27 56L26 56L26 54L27 54L27 53L28 53L28 52L29 52L29 51L30 51L30 53L31 53L31 54L33 54L33 52L34 52L34 53L35 53L35 55L36 55L36 56L38 56L38 57L39 57L39 58L37 58L37 57L36 57L36 58L35 58L35 63L36 63L36 62L38 62L38 61L36 61L36 60L37 60L37 59L38 59L38 60L41 60L41 61L42 61L42 60L43 60L43 58L42 58L42 60L41 60L41 59L40 59L40 57L39 57L39 56L40 56L40 54L39 54L39 53L41 53L41 52L42 52L42 53L43 53L43 54L42 54L42 55L41 55L41 56L43 56L43 57L47 57L47 58L49 58L49 59L47 59L47 60L50 60L50 61L52 61L52 60L51 60L51 58L52 58L52 59L53 59L53 61L54 61L54 59L56 59L56 58L54 58L54 57L55 57L55 56L58 56L58 53L59 53L59 55L60 55L60 56L62 56L62 55L61 55L61 54L60 54L60 53L62 53L62 54L63 54L63 56L64 56L64 54L63 54L63 52L60 52L60 53L59 53L59 51L60 51L60 50L59 50L59 49L60 49L60 48L59 48L59 47L60 47L60 46L58 46L58 44L56 44L56 43L58 43L58 42L57 42L57 41L56 41L56 43L55 43L55 42L54 42L54 43L51 43L51 41L49 41L49 42L46 42L46 44L45 44L45 43L44 43L44 42L45 42L45 41L44 41L44 42L42 42L42 39L43 39L43 38L42 38L42 37L41 37L41 38L40 38L40 36L44 36L44 34L46 34L46 33L45 33L45 32L47 32L47 34L48 34L48 32L49 32L49 31L48 31L48 32L47 32L47 30L45 30L45 29L44 29L44 30L42 30L42 29L43 29L43 28L44 28L44 27L48 27L48 28L49 28L49 29L48 29L48 30L49 30L49 29L50 29L50 31L51 31L51 33L52 33L52 29L53 29L53 33L55 33L55 32L56 32L56 30L57 30L57 27L55 27L55 26L54 26L54 25L53 25L53 26L54 26L54 27L51 27L51 28L52 28L52 29L50 29L50 28L49 28L49 27L50 27L50 26L49 26L49 25L51 25L51 26L52 26L52 25L51 25L51 22L50 22L50 21L52 21L52 18L51 18L51 16L52 16L52 17L53 17L53 15L54 15L54 16L55 16L55 17L56 17L56 19L55 19L55 18L54 18L54 19L53 19L53 23L52 23L52 24L53 24L53 23L55 23L55 22L54 22L54 21L56 21L56 20L57 20L57 19L58 19L58 20L59 20L59 19L60 19L60 16L59 16L59 19L58 19L58 18L57 18L57 16L58 16L58 15L57 15L57 16L56 16L56 15L55 15L55 14L54 14L54 13L52 13L52 14L51 14L51 15L50 15L50 13L51 13L51 12L50 12L50 13L48 13L48 14L47 14L47 13L46 13L46 10L45 10L45 9L46 9L46 8L47 8L47 7L48 7L48 8L49 8L49 7L50 7L50 6L49 6L49 7L48 7L48 5L47 5L47 3L45 3L45 4L46 4L46 6L45 6L45 5L44 5L44 4L43 4L43 1L42 1L42 3L41 3L41 4L40 4L40 3L39 3L39 5L41 5L41 7L42 7L42 4L43 4L43 7L44 7L44 8L43 8L43 9L44 9L44 11L43 11L43 10L42 10L42 11L41 11L41 9L40 9L40 6L39 6L39 10L37 10L37 9L38 9L38 8L37 8L37 7L38 7L38 5L35 5L35 8L37 8L37 9L36 9L36 10L33 10L33 9L31 9L31 10L32 10L32 11L34 11L34 12L33 12L33 13L34 13L34 15L33 15L33 14L32 14L32 15L31 15L31 16L34 16L34 15L36 15L36 16L38 16L38 15L36 15L36 14L37 14L37 13L36 13L36 12L38 12L38 13L40 13L40 15L39 15L39 16L40 16L40 17L36 17L36 18L34 18L34 17L33 17L33 19L32 19L32 20L30 20L30 19L31 19L31 18L30 18L30 19L28 19L28 18L27 18L27 19L28 19L28 20L26 20L26 19L25 19L25 20L24 20L24 19L22 19L22 20L24 20L24 21L25 21L25 20L26 20L26 21L30 21L30 22L26 22L26 23L27 23L27 25L26 25L26 24L24 24L24 22L21 22L21 23L23 23L23 24L24 24L24 25L26 25L26 26L22 26L22 25L21 25L21 24L20 24L20 25L17 25L17 24L19 24L19 22L16 22L16 20L17 20L17 21L18 21L18 20L17 20L17 19L16 19L16 18L15 18L15 17L13 17L13 16L14 16L14 14L15 14L15 15L16 15L16 17L18 17L18 16L19 16L19 18L20 18L20 20L21 20L21 18L24 18L24 17L25 17L25 18L26 18L26 16L28 16L28 14L30 14L30 13L31 13L31 12L29 12L29 13L28 13L28 10L27 10L27 9L29 9L29 10L30 10L30 8L28 8L28 6L27 6L27 5L29 5L29 7L30 7L30 5L29 5L29 1ZM30 1L30 4L31 4L31 1ZM35 1L35 4L36 4L36 3L37 3L37 4L38 4L38 3L37 3L37 2L36 2L36 1ZM32 2L32 4L33 4L33 2ZM26 4L26 5L27 5L27 4ZM31 5L31 8L34 8L34 5ZM9 6L9 7L10 7L10 6ZM11 6L11 7L12 7L12 6ZM14 6L14 7L15 7L15 6ZM32 6L32 7L33 7L33 6ZM36 6L36 7L37 7L37 6ZM44 6L44 7L45 7L45 8L46 8L46 7L47 7L47 6L46 6L46 7L45 7L45 6ZM51 6L51 7L52 7L52 6ZM53 6L53 7L54 7L54 6ZM0 8L0 10L2 10L2 8ZM14 8L14 9L13 9L13 10L12 10L12 11L14 11L14 12L15 12L15 11L16 11L16 10L15 10L15 8ZM22 8L22 9L23 9L23 8ZM6 9L6 10L7 10L7 9ZM48 9L48 10L50 10L50 11L51 11L51 10L50 10L50 9ZM53 9L53 10L52 10L52 12L53 12L53 10L54 10L54 9ZM36 10L36 11L35 11L35 12L34 12L34 13L35 13L35 12L36 12L36 11L37 11L37 10ZM39 10L39 12L40 12L40 13L41 13L41 14L46 14L46 13L45 13L45 12L44 12L44 13L43 13L43 11L42 11L42 13L41 13L41 12L40 12L40 10ZM17 11L17 12L18 12L18 13L16 13L16 14L18 14L18 15L17 15L17 16L18 16L18 15L19 15L19 14L21 14L21 12L20 12L20 13L19 13L19 12L18 12L18 11ZM47 11L47 12L49 12L49 11ZM62 11L62 13L60 13L60 14L62 14L62 15L63 15L63 14L64 14L64 13L63 13L63 11ZM0 12L0 13L1 13L1 14L0 14L0 15L2 15L2 13L1 13L1 12ZM26 12L26 13L27 13L27 12ZM18 13L18 14L19 14L19 13ZM5 14L5 15L7 15L7 16L6 16L6 17L8 17L8 16L9 16L9 17L10 17L10 18L11 18L11 17L12 17L12 16L11 16L11 17L10 17L10 16L9 16L9 15L7 15L7 14ZM48 14L48 15L49 15L49 14ZM20 15L20 16L22 16L22 15ZM29 15L29 17L30 17L30 15ZM41 15L41 17L42 17L42 18L41 18L41 19L40 19L40 18L39 18L39 19L38 19L38 20L39 20L39 19L40 19L40 22L41 22L41 23L43 23L43 24L42 24L42 25L41 25L41 24L38 24L38 27L37 27L37 24L36 24L36 23L37 23L37 20L33 20L33 21L34 21L34 22L30 22L30 23L28 23L28 24L29 24L29 25L30 25L30 28L29 28L29 26L28 26L28 25L27 25L27 26L28 26L28 27L25 27L25 28L24 28L24 27L23 27L23 29L26 29L26 30L25 30L25 33L24 33L24 30L22 30L22 31L23 31L23 32L22 32L22 33L21 33L21 32L20 32L20 34L22 34L22 35L23 35L23 38L21 38L21 37L20 37L20 36L19 36L19 37L18 37L18 41L19 41L19 39L20 39L20 40L21 40L21 42L22 42L22 43L23 43L23 44L21 44L21 45L20 45L20 46L19 46L19 47L16 47L16 48L18 48L18 49L19 49L19 50L18 50L18 51L17 51L17 50L16 50L16 49L15 49L15 50L16 50L16 52L15 52L15 53L16 53L16 54L17 54L17 53L18 53L18 55L19 55L19 56L17 56L17 57L19 57L19 58L21 58L21 59L22 59L22 58L21 58L21 57L20 57L20 54L19 54L19 52L21 52L21 55L22 55L22 54L23 54L23 53L24 53L24 54L26 54L26 53L27 53L27 51L26 51L26 50L28 50L28 51L29 51L29 50L28 50L28 49L27 49L27 47L26 47L26 50L25 50L25 49L24 49L24 48L25 48L25 46L26 46L26 45L25 45L25 44L26 44L26 43L25 43L25 44L24 44L24 43L23 43L23 42L22 42L22 40L21 40L21 39L23 39L23 41L24 41L24 42L25 42L25 41L26 41L26 42L30 42L30 43L29 43L29 44L28 44L28 46L29 46L29 44L31 44L31 42L32 42L32 45L30 45L30 47L28 47L28 48L29 48L29 49L31 49L31 50L30 50L30 51L32 51L32 52L33 52L33 51L32 51L32 50L34 50L34 51L35 51L35 52L36 52L36 53L37 53L37 52L36 52L36 51L37 51L37 50L38 50L38 51L39 51L39 49L41 49L41 50L43 50L43 51L42 51L42 52L44 52L44 54L43 54L43 56L44 56L44 55L45 55L45 56L47 56L47 55L45 55L45 53L46 53L46 54L49 54L49 53L51 53L51 51L52 51L52 49L53 49L53 51L54 51L54 52L53 52L53 53L54 53L54 54L53 54L53 55L49 55L49 56L48 56L48 57L50 57L50 58L51 58L51 57L53 57L53 55L54 55L54 56L55 56L55 53L54 53L54 52L56 52L56 53L58 53L58 52L56 52L56 48L58 48L58 49L57 49L57 50L58 50L58 51L59 51L59 50L58 50L58 49L59 49L59 48L58 48L58 47L54 47L54 46L57 46L57 45L56 45L56 44L55 44L55 43L54 43L54 45L53 45L53 44L52 44L52 45L53 45L53 48L52 48L52 49L51 49L51 48L50 48L50 47L49 47L49 44L48 44L48 43L47 43L47 44L46 44L46 45L44 45L44 43L42 43L42 42L39 42L39 43L38 43L38 41L37 41L37 38L38 38L38 40L39 40L39 41L40 41L40 39L39 39L39 37L38 37L38 36L36 36L36 35L38 35L38 34L39 34L39 36L40 36L40 34L39 34L39 33L41 33L41 34L44 34L44 33L42 33L42 30L41 30L41 29L42 29L42 27L41 27L41 29L40 29L40 31L38 31L38 30L37 30L37 28L38 28L38 29L39 29L39 28L40 28L40 26L43 26L43 27L44 27L44 25L45 25L45 26L46 26L46 25L45 25L45 24L44 24L44 23L45 23L45 22L44 22L44 23L43 23L43 20L42 20L42 21L41 21L41 19L42 19L42 18L44 18L44 19L45 19L45 18L44 18L44 17L46 17L46 18L47 18L47 20L46 20L46 24L48 24L48 25L49 25L49 24L48 24L48 23L50 23L50 22L48 22L48 21L50 21L50 20L51 20L51 19L50 19L50 18L49 18L49 16L47 16L47 15L46 15L46 16L43 16L43 15ZM46 16L46 17L47 17L47 16ZM13 18L13 19L14 19L14 21L13 21L13 20L12 20L12 19L10 19L10 20L11 20L11 22L9 22L9 23L8 23L8 25L9 25L9 26L11 26L11 28L12 28L12 26L14 26L14 25L15 25L15 24L14 24L14 23L15 23L15 22L14 22L14 21L15 21L15 20L16 20L16 19L15 19L15 18ZM7 19L7 20L5 20L5 22L6 22L6 23L5 23L5 24L6 24L6 25L7 25L7 24L6 24L6 23L7 23L7 22L8 22L8 21L9 21L9 20L8 20L8 19ZM48 19L48 20L49 20L49 19ZM54 19L54 20L55 20L55 19ZM61 19L61 20L62 20L62 19ZM63 19L63 20L64 20L64 19ZM3 20L3 21L4 21L4 20ZM6 21L6 22L7 22L7 21ZM38 21L38 22L39 22L39 21ZM59 21L59 22L61 22L61 21ZM11 22L11 23L12 23L12 22ZM13 22L13 23L14 23L14 22ZM0 23L0 24L1 24L1 23ZM9 23L9 24L10 24L10 25L11 25L11 26L12 26L12 25L11 25L11 24L10 24L10 23ZM16 23L16 24L17 24L17 23ZM31 23L31 24L30 24L30 25L31 25L31 27L32 27L32 28L30 28L30 29L29 29L29 28L28 28L28 31L29 31L29 32L28 32L28 33L29 33L29 32L30 32L30 30L33 30L33 29L35 29L35 30L36 30L36 28L37 28L37 27L36 27L36 24L35 24L35 23L34 23L34 24L33 24L33 23ZM13 24L13 25L14 25L14 24ZM31 24L31 25L32 25L32 27L34 27L34 28L36 28L36 27L34 27L34 25L33 25L33 24ZM43 24L43 25L44 25L44 24ZM0 25L0 28L1 28L1 25ZM20 25L20 26L21 26L21 25ZM39 25L39 26L40 26L40 25ZM15 26L15 27L16 27L16 28L18 28L18 29L19 29L19 31L20 31L20 30L21 30L21 28L22 28L22 27L21 27L21 28L20 28L20 29L19 29L19 26ZM48 26L48 27L49 27L49 26ZM38 27L38 28L39 28L39 27ZM54 27L54 28L53 28L53 29L54 29L54 30L55 30L55 29L54 29L54 28L55 28L55 27ZM32 28L32 29L33 29L33 28ZM46 28L46 29L47 29L47 28ZM59 28L59 30L62 30L62 31L61 31L61 33L62 33L62 31L64 31L64 30L63 30L63 28L61 28L61 29L60 29L60 28ZM1 31L1 32L2 32L2 31ZM5 31L5 34L8 34L8 31ZM26 31L26 35L25 35L25 34L24 34L24 35L25 35L25 36L24 36L24 37L27 37L27 36L26 36L26 35L27 35L27 31ZM31 31L31 34L34 34L34 31ZM35 31L35 34L36 34L36 32L37 32L37 31ZM54 31L54 32L55 32L55 31ZM57 31L57 34L60 34L60 31ZM6 32L6 33L7 33L7 32ZM32 32L32 33L33 33L33 32ZM38 32L38 33L37 33L37 34L38 34L38 33L39 33L39 32ZM58 32L58 33L59 33L59 32ZM12 33L12 34L13 34L13 33ZM16 33L16 36L15 36L15 37L16 37L16 36L18 36L18 35L17 35L17 33ZM22 33L22 34L23 34L23 33ZM49 33L49 34L50 34L50 33ZM28 34L28 35L29 35L29 34ZM31 35L31 36L32 36L32 37L31 37L31 38L32 38L32 37L33 37L33 38L34 38L34 37L35 37L35 38L36 38L36 36L35 36L35 35ZM28 36L28 38L30 38L30 36ZM33 36L33 37L34 37L34 36ZM2 37L2 38L3 38L3 37ZM19 37L19 38L20 38L20 37ZM25 38L25 39L24 39L24 41L25 41L25 39L26 39L26 38ZM61 38L61 39L60 39L60 40L59 40L59 39L58 39L58 41L59 41L59 43L60 43L60 41L61 41L61 39L62 39L62 38ZM27 39L27 41L28 41L28 39ZM29 39L29 41L30 41L30 39ZM32 39L32 42L33 42L33 43L34 43L34 42L37 42L37 41L36 41L36 39L34 39L34 41L33 41L33 39ZM44 39L44 40L45 40L45 39ZM6 40L6 41L7 41L7 40ZM46 40L46 41L47 41L47 40ZM12 42L12 43L13 43L13 42ZM15 42L15 44L16 44L16 42ZM61 42L61 44L59 44L59 45L61 45L61 46L62 46L62 45L61 45L61 44L62 44L62 42ZM35 43L35 44L33 44L33 48L31 48L31 49L33 49L33 48L34 48L34 50L35 50L35 51L36 51L36 49L35 49L35 48L42 48L42 47L45 47L45 48L46 48L46 49L44 49L44 48L43 48L43 49L44 49L44 52L46 52L46 53L47 53L47 52L49 52L49 51L50 51L50 50L49 50L49 51L48 51L48 49L47 49L47 48L49 48L49 49L50 49L50 48L49 48L49 47L47 47L47 48L46 48L46 46L44 46L44 45L43 45L43 46L42 46L42 47L41 47L41 45L42 45L42 44L41 44L41 45L40 45L40 44L39 44L39 46L38 46L38 47L35 47L35 46L36 46L36 45L35 45L35 44L37 44L37 43ZM50 43L50 44L51 44L51 43ZM1 44L1 45L2 45L2 44ZM47 44L47 45L48 45L48 44ZM21 45L21 47L19 47L19 48L20 48L20 49L21 49L21 50L20 50L20 51L21 51L21 50L22 50L22 48L21 48L21 47L24 47L24 45ZM34 45L34 46L35 46L35 45ZM50 45L50 46L51 46L51 47L52 47L52 46L51 46L51 45ZM64 45L64 46L65 46L65 45ZM5 46L5 47L4 47L4 48L5 48L5 49L4 49L4 51L5 51L5 52L6 52L6 53L8 53L8 55L9 55L9 53L8 53L8 52L10 52L10 54L11 54L11 53L13 53L13 54L14 54L14 53L13 53L13 52L14 52L14 51L13 51L13 48L12 48L12 47L11 47L11 46L8 46L8 47L7 47L7 46ZM39 46L39 47L40 47L40 46ZM5 47L5 48L7 48L7 49L6 49L6 50L7 50L7 51L6 51L6 52L7 52L7 51L8 51L8 50L7 50L7 49L9 49L9 51L10 51L10 49L11 49L11 52L13 52L13 51L12 51L12 48L10 48L10 47L9 47L9 48L7 48L7 47ZM62 47L62 48L61 48L61 49L63 49L63 47ZM9 48L9 49L10 49L10 48ZM23 49L23 50L24 50L24 51L23 51L23 52L22 52L22 53L23 53L23 52L24 52L24 53L26 53L26 52L25 52L25 50L24 50L24 49ZM45 50L45 51L46 51L46 52L47 52L47 51L46 51L46 50ZM54 50L54 51L55 51L55 50ZM37 54L37 55L38 55L38 54ZM56 54L56 55L57 55L57 54ZM31 55L31 56L33 56L33 55ZM31 57L31 60L34 60L34 57ZM57 57L57 60L60 60L60 57ZM24 58L24 59L25 59L25 58ZM32 58L32 59L33 59L33 58ZM44 58L44 59L45 59L45 58ZM58 58L58 59L59 59L59 58ZM63 58L63 59L64 59L64 58ZM14 60L14 61L13 61L13 63L14 63L14 62L15 62L15 60ZM55 60L55 61L56 61L56 63L57 63L57 61L56 61L56 60ZM17 61L17 62L18 62L18 63L19 63L19 62L21 62L21 61ZM9 63L9 64L10 64L10 63ZM26 63L26 64L27 64L27 63ZM42 63L42 65L43 65L43 63ZM0 0L0 7L7 7L7 0ZM1 1L1 6L6 6L6 1ZM2 2L2 5L5 5L5 2ZM58 0L58 7L65 7L65 0ZM59 1L59 6L64 6L64 1ZM60 2L60 5L63 5L63 2ZM0 58L0 65L7 65L7 58ZM1 59L1 64L6 64L6 59ZM2 60L2 63L5 63L5 60Z" fill="#000000"/></g></g></svg>
