<?xml version="1.0" encoding="UTF-8"?>
<svg xmlns="http://www.w3.org/2000/svg" version="1.1" width="300" height="300" viewBox="0 0 300 300"><rect x="0" y="0" width="300" height="300" fill="#ffffff"/><g transform="scale(4.615)"><g transform="translate(0,0)"><path fill-rule="evenodd" d="M8 0L8 1L11 1L11 0ZM13 0L13 1L12 1L12 2L13 2L13 5L12 5L12 7L11 7L11 5L10 5L10 4L12 4L12 3L11 3L11 2L8 2L8 5L9 5L9 6L8 6L8 7L9 7L9 6L10 6L10 8L8 8L8 9L9 9L9 10L8 10L8 13L9 13L9 12L11 12L11 11L12 11L12 12L13 12L13 13L12 13L12 15L13 15L13 17L14 17L14 18L15 18L15 20L14 20L14 19L13 19L13 18L11 18L11 17L9 17L9 16L10 16L10 14L11 14L11 13L10 13L10 14L6 14L6 15L5 15L5 14L4 14L4 15L2 15L2 14L3 14L3 13L2 13L2 14L1 14L1 13L0 13L0 16L1 16L1 17L0 17L0 18L1 18L1 19L0 19L0 22L2 22L2 21L3 21L3 22L5 22L5 23L3 23L3 24L4 24L4 26L3 26L3 27L4 27L4 28L5 28L5 30L4 30L4 29L3 29L3 28L2 28L2 29L3 29L3 30L4 30L4 31L1 31L1 33L2 33L2 34L1 34L1 35L2 35L2 34L4 34L4 35L3 35L3 36L2 36L2 37L1 37L1 38L2 38L2 37L3 37L3 38L4 38L4 39L3 39L3 40L2 40L2 41L1 41L1 40L0 40L0 41L1 41L1 42L0 42L0 43L1 43L1 42L2 42L2 43L3 43L3 44L2 44L2 45L1 45L1 44L0 44L0 45L1 45L1 46L0 46L0 50L1 50L1 51L0 51L0 52L1 52L1 53L0 53L0 54L2 54L2 55L3 55L3 56L1 56L1 55L0 55L0 56L1 56L1 57L3 57L3 56L4 56L4 57L5 57L5 56L4 56L4 54L3 54L3 53L2 53L2 52L4 52L4 53L7 53L7 54L5 54L5 55L7 55L7 56L6 56L6 57L7 57L7 56L8 56L8 58L9 58L9 59L10 59L10 58L9 58L9 57L10 57L10 56L11 56L11 55L10 55L10 54L11 54L11 53L13 53L13 55L14 55L14 56L15 56L15 54L18 54L18 55L17 55L17 56L19 56L19 58L20 58L20 57L21 57L21 58L23 58L23 59L21 59L21 60L23 60L23 59L25 59L25 60L24 60L24 63L23 63L23 61L22 61L22 63L21 63L21 62L20 62L20 61L19 61L19 60L20 60L20 59L19 59L19 60L17 60L17 61L16 61L16 59L14 59L14 58L16 58L16 57L12 57L12 58L11 58L11 60L9 60L9 61L8 61L8 65L9 65L9 64L10 64L10 65L11 65L11 64L12 64L12 63L14 63L14 64L15 64L15 65L18 65L18 64L17 64L17 63L16 63L16 64L15 64L15 62L19 62L19 65L22 65L22 64L23 64L23 65L29 65L29 64L31 64L31 65L32 65L32 64L31 64L31 61L35 61L35 62L33 62L33 65L34 65L34 63L35 63L35 65L36 65L36 63L35 63L35 62L37 62L37 63L40 63L40 64L41 64L41 65L45 65L45 64L46 64L46 65L48 65L48 63L47 63L47 64L46 64L46 63L44 63L44 62L46 62L46 60L48 60L48 61L49 61L49 64L51 64L51 63L52 63L52 64L53 64L53 65L56 65L56 64L55 64L55 63L56 63L56 62L54 62L54 64L53 64L53 63L52 63L52 62L53 62L53 61L58 61L58 62L59 62L59 63L60 63L60 64L61 64L61 65L62 65L62 63L60 63L60 62L61 62L61 58L62 58L62 59L63 59L63 60L62 60L62 61L64 61L64 58L65 58L65 57L64 57L64 55L62 55L62 54L61 54L61 56L60 56L60 55L58 55L58 56L56 56L56 55L55 55L55 54L57 54L57 53L59 53L59 54L60 54L60 53L59 53L59 51L60 51L60 52L62 52L62 51L63 51L63 52L65 52L65 49L64 49L64 48L65 48L65 47L64 47L64 45L65 45L65 44L64 44L64 43L63 43L63 42L64 42L64 40L63 40L63 42L62 42L62 41L61 41L61 40L62 40L62 39L61 39L61 38L62 38L62 37L64 37L64 38L63 38L63 39L65 39L65 37L64 37L64 36L65 36L65 35L64 35L64 34L65 34L65 33L64 33L64 34L63 34L63 32L65 32L65 31L63 31L63 30L64 30L64 29L62 29L62 27L64 27L64 28L65 28L65 24L64 24L64 25L63 25L63 24L62 24L62 25L61 25L61 23L62 23L62 22L63 22L63 23L64 23L64 22L65 22L65 20L64 20L64 19L63 19L63 18L62 18L62 17L61 17L61 18L60 18L60 19L61 19L61 23L60 23L60 22L58 22L58 20L56 20L56 21L55 21L55 20L54 20L54 19L52 19L52 21L53 21L53 20L54 20L54 23L57 23L57 22L58 22L58 23L60 23L60 25L61 25L61 26L60 26L60 27L58 27L58 26L57 26L57 25L59 25L59 24L55 24L55 26L54 26L54 24L53 24L53 25L52 25L52 22L51 22L51 23L50 23L50 22L49 22L49 21L50 21L50 20L51 20L51 18L54 18L54 17L51 17L51 16L50 16L50 17L48 17L48 16L46 16L46 14L44 14L44 16L43 16L43 19L44 19L44 17L45 17L45 18L46 18L46 19L45 19L45 20L46 20L46 19L47 19L47 17L48 17L48 20L47 20L47 22L46 22L46 21L45 21L45 22L43 22L43 20L42 20L42 19L40 19L40 18L41 18L41 17L42 17L42 15L43 15L43 14L42 14L42 15L40 15L40 16L41 16L41 17L40 17L40 18L38 18L38 17L39 17L39 16L38 16L38 17L37 17L37 19L36 19L36 17L34 17L34 19L33 19L33 18L32 18L32 17L33 17L33 16L34 16L34 15L32 15L32 14L31 14L31 15L30 15L30 11L29 11L29 10L27 10L27 9L28 9L28 7L29 7L29 6L30 6L30 8L29 8L29 9L32 9L32 10L31 10L31 13L32 13L32 12L33 12L33 14L34 14L34 13L35 13L35 14L38 14L38 15L39 15L39 14L40 14L40 13L39 13L39 12L40 12L40 11L38 11L38 12L37 12L37 10L38 10L38 8L39 8L39 9L41 9L41 5L39 5L39 4L37 4L37 3L38 3L38 1L37 1L37 0L35 0L35 1L32 1L32 0L29 0L29 1L27 1L27 0L22 0L22 1L20 1L20 0L19 0L19 1L18 1L18 3L16 3L16 2L15 2L15 0ZM16 0L16 1L17 1L17 0ZM39 0L39 1L40 1L40 0ZM41 0L41 3L43 3L43 6L42 6L42 8L43 8L43 6L44 6L44 7L45 7L45 9L47 9L47 10L46 10L46 12L45 12L45 13L47 13L47 12L48 12L48 14L49 14L49 15L52 15L52 16L53 16L53 15L52 15L52 11L50 11L50 12L51 12L51 13L50 13L50 14L49 14L49 10L48 10L48 8L49 8L49 9L51 9L51 4L52 4L52 10L53 10L53 8L54 8L54 11L53 11L53 12L56 12L56 13L55 13L55 14L54 14L54 15L55 15L55 16L56 16L56 15L55 15L55 14L58 14L58 13L62 13L62 14L63 14L63 13L62 13L62 12L61 12L61 11L60 11L60 10L58 10L58 8L57 8L57 6L56 6L56 8L54 8L54 7L55 7L55 5L54 5L54 7L53 7L53 4L52 4L52 3L50 3L50 1L49 1L49 0L48 0L48 5L49 5L49 3L50 3L50 8L49 8L49 6L48 6L48 7L47 7L47 6L46 6L46 5L45 5L45 4L44 4L44 3L45 3L45 1L46 1L46 3L47 3L47 1L46 1L46 0L45 0L45 1L44 1L44 0ZM51 0L51 1L52 1L52 0ZM53 0L53 2L54 2L54 4L56 4L56 5L57 5L57 4L56 4L56 3L57 3L57 1L56 1L56 0L55 0L55 1L56 1L56 3L55 3L55 2L54 2L54 0ZM19 1L19 3L18 3L18 6L17 6L17 7L16 7L16 4L14 4L14 6L13 6L13 8L12 8L12 9L13 9L13 10L12 10L12 11L13 11L13 12L14 12L14 13L13 13L13 14L14 14L14 13L15 13L15 14L16 14L16 16L14 16L14 17L16 17L16 18L17 18L17 21L16 21L16 23L14 23L14 21L13 21L13 20L12 20L12 22L13 22L13 24L12 24L12 26L13 26L13 27L14 27L14 26L15 26L15 28L12 28L12 27L11 27L11 24L8 24L8 23L6 23L6 24L7 24L7 25L6 25L6 26L7 26L7 27L6 27L6 28L7 28L7 29L6 29L6 30L7 30L7 29L9 29L9 30L10 30L10 28L9 28L9 27L8 27L8 26L7 26L7 25L10 25L10 27L11 27L11 28L12 28L12 30L13 30L13 29L16 29L16 30L17 30L17 32L15 32L15 31L14 31L14 32L11 32L11 31L9 31L9 34L11 34L11 40L12 40L12 41L11 41L11 42L10 42L10 43L9 43L9 42L8 42L8 41L10 41L10 39L9 39L9 40L8 40L8 41L6 41L6 40L7 40L7 39L6 39L6 38L7 38L7 37L9 37L9 38L10 38L10 37L9 37L9 36L10 36L10 35L8 35L8 36L7 36L7 35L6 35L6 36L7 36L7 37L5 37L5 39L4 39L4 40L3 40L3 41L2 41L2 42L3 42L3 41L4 41L4 42L5 42L5 43L4 43L4 44L5 44L5 43L6 43L6 44L8 44L8 45L3 45L3 48L5 48L5 49L6 49L6 50L5 50L5 51L6 51L6 52L7 52L7 53L8 53L8 54L10 54L10 52L9 52L9 53L8 53L8 52L7 52L7 51L6 51L6 50L7 50L7 49L8 49L8 50L9 50L9 51L11 51L11 52L13 52L13 53L14 53L14 54L15 54L15 53L14 53L14 52L17 52L17 51L19 51L19 52L18 52L18 54L19 54L19 55L20 55L20 56L21 56L21 57L22 57L22 55L20 55L20 54L21 54L21 53L23 53L23 51L22 51L22 49L23 49L23 50L25 50L25 47L26 47L26 52L25 52L25 51L24 51L24 52L25 52L25 53L24 53L24 54L23 54L23 55L24 55L24 54L26 54L26 55L29 55L29 56L24 56L24 57L27 57L27 59L26 59L26 61L25 61L25 62L26 62L26 63L24 63L24 64L26 64L26 63L27 63L27 64L28 64L28 63L29 63L29 62L27 62L27 60L28 60L28 61L29 61L29 60L30 60L30 56L31 56L31 55L29 55L29 54L31 54L31 53L32 53L32 56L33 56L33 54L34 54L34 55L36 55L36 53L38 53L38 54L37 54L37 55L38 55L38 54L40 54L40 55L39 55L39 56L40 56L40 55L42 55L42 56L41 56L41 57L42 57L42 56L43 56L43 57L44 57L44 58L45 58L45 60L44 60L44 59L42 59L42 58L40 58L40 57L38 57L38 56L36 56L36 57L38 57L38 58L37 58L37 62L38 62L38 61L39 61L39 62L40 62L40 63L41 63L41 64L42 64L42 62L43 62L43 61L45 61L45 60L46 60L46 58L47 58L47 59L49 59L49 61L53 61L53 60L51 60L51 59L54 59L54 60L56 60L56 58L55 58L55 59L54 59L54 57L53 57L53 58L52 58L52 56L51 56L51 57L50 57L50 55L49 55L49 56L48 56L48 54L49 54L49 50L50 50L50 49L51 49L51 51L50 51L50 52L52 52L52 53L50 53L50 54L51 54L51 55L52 55L52 54L53 54L53 55L54 55L54 56L55 56L55 55L54 55L54 54L55 54L55 53L57 53L57 50L56 50L56 52L55 52L55 53L54 53L54 54L53 54L53 52L54 52L54 50L55 50L55 49L58 49L58 50L60 50L60 51L61 51L61 50L62 50L62 48L63 48L63 47L62 47L62 46L63 46L63 45L62 45L62 44L61 44L61 43L59 43L59 41L60 41L60 42L61 42L61 41L60 41L60 40L61 40L61 39L60 39L60 40L57 40L57 41L56 41L56 40L55 40L55 41L54 41L54 38L55 38L55 37L58 37L58 36L59 36L59 35L58 35L58 36L57 36L57 35L55 35L55 36L54 36L54 35L53 35L53 34L51 34L51 33L52 33L52 32L50 32L50 31L49 31L49 32L47 32L47 31L48 31L48 29L49 29L49 30L51 30L51 31L54 31L54 32L56 32L56 30L57 30L57 29L58 29L58 27L57 27L57 26L56 26L56 27L55 27L55 28L54 28L54 30L52 30L52 29L53 29L53 28L51 28L51 27L52 27L52 26L51 26L51 27L49 27L49 26L50 26L50 25L51 25L51 24L50 24L50 23L49 23L49 22L47 22L47 24L44 24L44 25L46 25L46 27L47 27L47 24L48 24L48 23L49 23L49 25L48 25L48 29L47 29L47 31L44 31L44 32L43 32L43 30L46 30L46 28L45 28L45 26L44 26L44 27L42 27L42 28L45 28L45 29L42 29L42 32L41 32L41 33L40 33L40 32L38 32L38 30L39 30L39 31L41 31L41 30L40 30L40 29L41 29L41 28L40 28L40 27L39 27L39 26L41 26L41 25L42 25L42 26L43 26L43 22L39 22L39 20L36 20L36 19L35 19L35 21L34 21L34 22L33 22L33 23L31 23L31 22L32 22L32 21L33 21L33 19L31 19L31 17L32 17L32 15L31 15L31 16L30 16L30 15L28 15L28 17L29 17L29 19L30 19L30 20L28 20L28 19L27 19L27 18L25 18L25 17L26 17L26 16L25 16L25 17L24 17L24 18L25 18L25 19L23 19L23 16L24 16L24 15L25 15L25 14L29 14L29 12L28 12L28 11L27 11L27 10L26 10L26 9L27 9L27 8L26 8L26 6L27 6L27 7L28 7L28 5L29 5L29 4L31 4L31 2L32 2L32 3L33 3L33 4L36 4L36 5L35 5L35 7L36 7L36 6L37 6L37 7L38 7L38 6L37 6L37 4L36 4L36 3L34 3L34 2L32 2L32 1L31 1L31 2L30 2L30 1L29 1L29 2L27 2L27 1L26 1L26 2L27 2L27 4L28 4L28 5L26 5L26 4L25 4L25 2L24 2L24 1L23 1L23 2L21 2L21 5L20 5L20 1ZM35 1L35 2L36 2L36 1ZM43 1L43 2L44 2L44 1ZM14 2L14 3L15 3L15 2ZM9 3L9 4L10 4L10 3ZM22 3L22 4L23 4L23 5L24 5L24 7L23 7L23 6L22 6L22 5L21 5L21 6L20 6L20 5L19 5L19 6L18 6L18 7L19 7L19 10L20 10L20 12L19 12L19 11L18 11L18 10L17 10L17 11L18 11L18 13L17 13L17 14L19 14L19 13L20 13L20 14L21 14L21 16L22 16L22 15L24 15L24 13L26 13L26 12L27 12L27 11L26 11L26 10L25 10L25 8L24 8L24 7L25 7L25 5L24 5L24 3ZM31 5L31 8L34 8L34 5ZM14 6L14 7L15 7L15 8L16 8L16 9L18 9L18 8L16 8L16 7L15 7L15 6ZM19 6L19 7L20 7L20 8L21 8L21 7L22 7L22 8L23 8L23 9L24 9L24 8L23 8L23 7L22 7L22 6L21 6L21 7L20 7L20 6ZM32 6L32 7L33 7L33 6ZM39 6L39 8L40 8L40 6ZM45 6L45 7L46 7L46 6ZM0 8L0 9L4 9L4 10L1 10L1 11L0 11L0 12L6 12L6 13L7 13L7 12L6 12L6 11L7 11L7 10L5 10L5 9L4 9L4 8ZM6 8L6 9L7 9L7 8ZM10 8L10 9L11 9L11 8ZM13 8L13 9L14 9L14 12L15 12L15 11L16 11L16 10L15 10L15 9L14 9L14 8ZM35 8L35 9L33 9L33 10L32 10L32 11L33 11L33 10L34 10L34 12L36 12L36 9L37 9L37 8ZM60 8L60 9L61 9L61 10L62 10L62 11L64 11L64 12L65 12L65 11L64 11L64 10L65 10L65 8L64 8L64 9L63 9L63 8ZM20 9L20 10L21 10L21 12L20 12L20 13L21 13L21 14L22 14L22 13L23 13L23 12L26 12L26 11L25 11L25 10L23 10L23 11L22 11L22 10L21 10L21 9ZM42 9L42 10L41 10L41 13L44 13L44 11L43 11L43 10L44 10L44 9ZM56 9L56 10L55 10L55 11L56 11L56 12L57 12L57 13L58 13L58 12L59 12L59 11L58 11L58 12L57 12L57 9ZM62 9L62 10L63 10L63 9ZM4 10L4 11L5 11L5 10ZM9 10L9 11L11 11L11 10ZM47 10L47 11L48 11L48 10ZM42 11L42 12L43 12L43 11ZM21 12L21 13L22 13L22 12ZM64 13L64 17L65 17L65 13ZM59 14L59 15L57 15L57 16L59 16L59 15L60 15L60 14ZM1 15L1 16L2 16L2 15ZM4 15L4 16L3 16L3 17L1 17L1 18L2 18L2 19L1 19L1 21L2 21L2 20L3 20L3 18L8 18L8 15L6 15L6 16L5 16L5 15ZM17 15L17 16L16 16L16 17L17 17L17 18L18 18L18 19L19 19L19 21L17 21L17 22L19 22L19 24L18 24L18 23L16 23L16 24L14 24L14 25L13 25L13 26L14 26L14 25L18 25L18 26L16 26L16 28L17 28L17 29L18 29L18 32L19 32L19 34L18 34L18 36L17 36L17 34L16 34L16 33L14 33L14 34L16 34L16 36L15 36L15 38L14 38L14 37L13 37L13 36L12 36L12 37L13 37L13 38L12 38L12 40L13 40L13 39L14 39L14 42L13 42L13 41L12 41L12 42L11 42L11 43L10 43L10 44L11 44L11 43L12 43L12 44L13 44L13 43L14 43L14 42L15 42L15 43L17 43L17 44L15 44L15 46L13 46L13 45L12 45L12 46L11 46L11 45L10 45L10 47L9 47L9 45L8 45L8 46L4 46L4 47L5 47L5 48L6 48L6 49L7 49L7 48L11 48L11 49L10 49L10 50L11 50L11 51L14 51L14 50L11 50L11 49L13 49L13 48L12 48L12 46L13 46L13 47L16 47L16 48L15 48L15 49L17 49L17 47L18 47L18 44L20 44L20 42L19 42L19 41L18 41L18 40L17 40L17 38L18 38L18 36L20 36L20 37L19 37L19 38L21 38L21 35L23 35L23 36L22 36L22 37L23 37L23 36L24 36L24 34L25 34L25 37L26 37L26 39L25 39L25 38L22 38L22 39L21 39L21 40L23 40L23 42L22 42L22 41L21 41L21 42L22 42L22 43L21 43L21 46L19 46L19 48L18 48L18 50L20 50L20 51L21 51L21 49L22 49L22 48L21 48L21 49L19 49L19 48L20 48L20 47L21 47L21 46L22 46L22 47L23 47L23 45L24 45L24 46L26 46L26 47L28 47L28 48L27 48L27 49L29 49L29 50L31 50L31 51L32 51L32 50L33 50L33 52L35 52L35 53L34 53L34 54L35 54L35 53L36 53L36 51L35 51L35 50L36 50L36 49L37 49L37 47L36 47L36 46L38 46L38 45L36 45L36 44L37 44L37 42L36 42L36 41L35 41L35 38L36 38L36 39L37 39L37 36L38 36L38 39L39 39L39 40L38 40L38 41L39 41L39 42L38 42L38 44L39 44L39 46L41 46L41 47L42 47L42 48L43 48L43 49L44 49L44 50L46 50L46 49L44 49L44 48L48 48L48 49L47 49L47 50L48 50L48 49L49 49L49 48L50 48L50 45L51 45L51 46L53 46L53 49L52 49L52 48L51 48L51 49L52 49L52 50L54 50L54 49L55 49L55 48L54 48L54 47L55 47L55 46L56 46L56 43L57 43L57 44L58 44L58 45L57 45L57 46L59 46L59 49L60 49L60 46L62 46L62 45L61 45L61 44L59 44L59 43L58 43L58 42L56 42L56 43L54 43L54 42L53 42L53 44L51 44L51 43L52 43L52 41L51 41L51 42L50 42L50 45L47 45L47 46L45 46L45 45L44 45L44 44L43 44L43 45L41 45L41 43L40 43L40 42L41 42L41 41L45 41L45 42L43 42L43 43L45 43L45 42L48 42L48 44L49 44L49 41L47 41L47 40L48 40L48 37L49 37L49 36L50 36L50 39L52 39L52 40L53 40L53 38L54 38L54 37L53 37L53 38L51 38L51 36L50 36L50 34L49 34L49 33L50 33L50 32L49 32L49 33L48 33L48 34L45 34L45 33L46 33L46 32L45 32L45 33L43 33L43 32L42 32L42 35L43 35L43 36L42 36L42 37L41 37L41 38L42 38L42 39L43 39L43 38L42 38L42 37L44 37L44 36L45 36L45 35L46 35L46 36L47 36L47 40L46 40L46 38L44 38L44 40L41 40L41 39L40 39L40 38L39 38L39 37L40 37L40 36L38 36L38 35L36 35L36 34L35 34L35 33L36 33L36 32L37 32L37 33L38 33L38 32L37 32L37 30L36 30L36 29L35 29L35 28L36 28L36 27L37 27L37 28L38 28L38 29L40 29L40 28L38 28L38 26L39 26L39 25L37 25L37 23L36 23L36 22L37 22L37 21L35 21L35 23L36 23L36 24L34 24L34 23L33 23L33 24L34 24L34 25L31 25L31 27L29 27L29 26L28 26L28 25L29 25L29 24L30 24L30 22L31 22L31 20L30 20L30 22L28 22L28 23L26 23L26 20L27 20L27 21L28 21L28 20L27 20L27 19L25 19L25 20L24 20L24 22L23 22L23 23L22 23L22 22L20 22L20 21L21 21L21 20L22 20L22 21L23 21L23 20L22 20L22 18L21 18L21 20L20 20L20 19L19 19L19 17L17 17L17 16L19 16L19 15ZM35 15L35 16L37 16L37 15ZM61 15L61 16L62 16L62 15ZM4 16L4 17L5 17L5 16ZM6 16L6 17L7 17L7 16ZM45 16L45 17L46 17L46 16ZM50 17L50 18L51 18L51 17ZM55 17L55 18L56 18L56 19L59 19L59 17L57 17L57 18L56 18L56 17ZM61 18L61 19L62 19L62 18ZM4 19L4 21L5 21L5 20L7 20L7 21L6 21L6 22L8 22L8 21L10 21L10 22L9 22L9 23L10 23L10 22L11 22L11 20L10 20L10 19L9 19L9 20L7 20L7 19ZM49 19L49 20L48 20L48 21L49 21L49 20L50 20L50 19ZM41 20L41 21L42 21L42 20ZM59 20L59 21L60 21L60 20ZM56 21L56 22L57 22L57 21ZM63 21L63 22L64 22L64 21ZM24 22L24 24L22 24L22 25L21 25L21 26L19 26L19 28L18 28L18 27L17 27L17 28L18 28L18 29L19 29L19 31L20 31L20 32L21 32L21 33L20 33L20 34L22 34L22 31L23 31L23 32L24 32L24 31L25 31L25 33L27 33L27 30L23 30L23 28L22 28L22 29L21 29L21 30L22 30L22 31L20 31L20 27L22 27L22 25L23 25L23 27L24 27L24 29L25 29L25 27L26 27L26 28L27 28L27 29L28 29L28 30L29 30L29 27L26 27L26 26L27 26L27 25L28 25L28 24L29 24L29 23L28 23L28 24L26 24L26 23L25 23L25 22ZM1 23L1 24L0 24L0 25L1 25L1 24L2 24L2 23ZM20 23L20 24L19 24L19 25L20 25L20 24L21 24L21 23ZM25 24L25 25L26 25L26 24ZM34 25L34 26L32 26L32 27L31 27L31 29L32 29L32 30L33 30L33 29L32 29L32 27L34 27L34 28L35 28L35 27L36 27L36 26L37 26L37 25ZM62 25L62 26L61 26L61 27L60 27L60 28L59 28L59 30L61 30L61 31L62 31L62 29L61 29L61 27L62 27L62 26L63 26L63 25ZM0 26L0 27L1 27L1 26ZM4 26L4 27L5 27L5 26ZM24 26L24 27L25 27L25 26ZM7 27L7 28L8 28L8 27ZM35 30L35 32L36 32L36 30ZM5 31L5 34L8 34L8 31ZM31 31L31 34L34 34L34 31ZM57 31L57 34L60 34L60 31ZM6 32L6 33L7 33L7 32ZM10 32L10 33L11 33L11 34L12 34L12 33L11 33L11 32ZM28 32L28 34L26 34L26 35L27 35L27 36L28 36L28 34L29 34L29 32ZM32 32L32 33L33 33L33 32ZM58 32L58 33L59 33L59 32ZM61 32L61 33L62 33L62 32ZM39 33L39 34L40 34L40 33ZM55 33L55 34L56 34L56 33ZM44 34L44 35L45 35L45 34ZM48 34L48 35L49 35L49 34ZM62 34L62 35L60 35L60 37L59 37L59 38L61 38L61 36L63 36L63 34ZM4 35L4 36L3 36L3 37L4 37L4 36L5 36L5 35ZM29 35L29 36L31 36L31 37L30 37L30 39L26 39L26 40L30 40L30 41L29 41L29 42L30 42L30 43L31 43L31 42L32 42L32 43L33 43L33 44L32 44L32 45L33 45L33 44L34 44L34 47L33 47L33 46L31 46L31 45L30 45L30 44L29 44L29 43L28 43L28 42L26 42L26 43L27 43L27 44L24 44L24 43L25 43L25 41L24 41L24 43L22 43L22 44L24 44L24 45L27 45L27 44L29 44L29 45L28 45L28 47L29 47L29 49L30 49L30 48L31 48L31 50L32 50L32 47L33 47L33 49L34 49L34 48L35 48L35 49L36 49L36 47L35 47L35 46L36 46L36 45L35 45L35 43L36 43L36 42L35 42L35 41L33 41L33 40L34 40L34 38L35 38L35 37L36 37L36 36L35 36L35 35L33 35L33 36L34 36L34 37L33 37L33 39L31 39L31 38L32 38L32 35ZM16 37L16 38L17 38L17 37ZM28 37L28 38L29 38L29 37ZM56 38L56 39L57 39L57 38ZM5 39L5 40L6 40L6 39ZM19 39L19 40L20 40L20 39ZM24 39L24 40L25 40L25 39ZM30 39L30 40L31 40L31 41L30 41L30 42L31 42L31 41L32 41L32 40L31 40L31 39ZM15 40L15 41L16 41L16 40ZM40 40L40 41L41 41L41 40ZM45 40L45 41L46 41L46 40ZM5 41L5 42L6 42L6 43L7 43L7 42L6 42L6 41ZM17 41L17 43L18 43L18 41ZM34 42L34 43L35 43L35 42ZM8 43L8 44L9 44L9 43ZM54 44L54 45L55 45L55 44ZM16 45L16 47L17 47L17 45ZM43 45L43 46L44 46L44 45ZM1 46L1 48L2 48L2 46ZM30 46L30 47L31 47L31 46ZM48 46L48 47L49 47L49 46ZM6 47L6 48L7 48L7 47ZM38 47L38 52L41 52L41 53L46 53L46 55L45 55L45 57L46 57L46 56L47 56L47 58L49 58L49 59L50 59L50 57L48 57L48 56L47 56L47 54L48 54L48 53L47 53L47 52L48 52L48 51L47 51L47 52L46 52L46 51L44 51L44 52L43 52L43 50L42 50L42 49L41 49L41 50L40 50L40 47ZM56 47L56 48L57 48L57 47ZM1 49L1 50L2 50L2 51L1 51L1 52L2 52L2 51L3 51L3 49ZM16 50L16 51L17 51L17 50ZM27 50L27 52L26 52L26 53L27 53L27 54L29 54L29 53L31 53L31 52L30 52L30 51L29 51L29 52L28 52L28 50ZM39 50L39 51L40 51L40 50ZM41 50L41 52L42 52L42 50ZM52 51L52 52L53 52L53 51ZM19 52L19 53L20 53L20 52ZM27 52L27 53L28 53L28 52ZM43 54L43 55L44 55L44 54ZM8 55L8 56L9 56L9 55ZM61 56L61 57L62 57L62 58L64 58L64 57L62 57L62 56ZM31 57L31 60L34 60L34 57ZM57 57L57 60L60 60L60 57ZM12 58L12 60L11 60L11 61L9 61L9 62L10 62L10 63L12 63L12 62L11 62L11 61L12 61L12 60L13 60L13 61L14 61L14 60L13 60L13 58ZM17 58L17 59L18 59L18 58ZM28 58L28 60L29 60L29 58ZM32 58L32 59L33 59L33 58ZM35 58L35 59L36 59L36 58ZM58 58L58 59L59 59L59 58ZM38 59L38 60L39 60L39 61L40 61L40 60L39 60L39 59ZM41 59L41 62L42 62L42 61L43 61L43 60L42 60L42 59ZM64 62L64 63L63 63L63 65L64 65L64 63L65 63L65 62ZM57 63L57 64L58 64L58 65L59 65L59 64L58 64L58 63ZM38 64L38 65L39 65L39 64ZM0 0L0 7L7 7L7 0ZM1 1L1 6L6 6L6 1ZM2 2L2 5L5 5L5 2ZM58 0L58 7L65 7L65 0ZM59 1L59 6L64 6L64 1ZM60 2L60 5L63 5L63 2ZM0 58L0 65L7 65L7 58ZM1 59L1 64L6 64L6 59ZM2 60L2 63L5 63L5 60Z" fill="#000000"/></g></g></svg>
