<?xml version="1.0" encoding="UTF-8"?>
<svg xmlns="http://www.w3.org/2000/svg" version="1.1" width="300" height="300" viewBox="0 0 300 300"><rect x="0" y="0" width="300" height="300" fill="#ffffff"/><g transform="scale(4.615)"><g transform="translate(0,0)"><path fill-rule="evenodd" d="M8 0L8 1L10 1L10 0ZM13 0L13 1L11 1L11 2L8 2L8 5L10 5L10 4L12 4L12 3L13 3L13 5L11 5L11 6L10 6L10 7L9 7L9 6L8 6L8 7L9 7L9 8L8 8L8 11L7 11L7 10L5 10L5 9L4 9L4 8L0 8L0 10L1 10L1 11L0 11L0 12L2 12L2 16L0 16L0 17L2 17L2 19L1 19L1 18L0 18L0 21L1 21L1 22L0 22L0 24L2 24L2 23L1 23L1 22L2 22L2 21L3 21L3 22L4 22L4 21L5 21L5 22L6 22L6 23L7 23L7 24L6 24L6 25L8 25L8 21L7 21L7 20L6 20L6 19L10 19L10 20L11 20L11 18L12 18L12 17L13 17L13 18L14 18L14 17L15 17L15 18L16 18L16 20L14 20L14 19L12 19L12 20L13 20L13 21L14 21L14 22L13 22L13 25L12 25L12 22L10 22L10 21L9 21L9 22L10 22L10 24L9 24L9 27L10 27L10 28L9 28L9 30L8 30L8 29L7 29L7 28L8 28L8 27L7 27L7 26L6 26L6 27L5 27L5 26L4 26L4 23L3 23L3 26L4 26L4 27L3 27L3 28L5 28L5 30L3 30L3 29L2 29L2 31L1 31L1 32L2 32L2 31L3 31L3 32L4 32L4 33L3 33L3 35L2 35L2 37L1 37L1 36L0 36L0 37L1 37L1 39L0 39L0 43L1 43L1 41L3 41L3 40L4 40L4 44L5 44L5 46L6 46L6 47L5 47L5 48L4 48L4 45L3 45L3 48L1 48L1 47L2 47L2 45L1 45L1 44L0 44L0 45L1 45L1 46L0 46L0 48L1 48L1 49L4 49L4 51L2 51L2 52L4 52L4 53L7 53L7 54L5 54L5 55L7 55L7 56L6 56L6 57L8 57L8 58L9 58L9 59L12 59L12 57L13 57L13 60L12 60L12 61L11 61L11 60L9 60L9 61L8 61L8 65L9 65L9 64L10 64L10 65L11 65L11 64L12 64L12 65L13 65L13 64L14 64L14 65L15 65L15 64L14 64L14 63L15 63L15 62L17 62L17 63L16 63L16 65L18 65L18 64L20 64L20 65L22 65L22 64L23 64L23 65L27 65L27 62L31 62L31 61L35 61L35 62L33 62L33 65L34 65L34 63L35 63L35 64L36 64L36 63L35 63L35 62L37 62L37 63L40 63L40 64L43 64L43 65L45 65L45 63L44 63L44 62L46 62L46 60L48 60L48 61L49 61L49 63L51 63L51 64L50 64L50 65L51 65L51 64L53 64L53 65L55 65L55 64L53 64L53 63L52 63L52 62L53 62L53 61L55 61L55 62L54 62L54 63L55 63L55 62L56 62L56 61L58 61L58 62L59 62L59 63L60 63L60 64L61 64L61 65L62 65L62 62L63 62L63 61L64 61L64 58L65 58L65 57L64 57L64 55L62 55L62 54L61 54L61 56L60 56L60 55L58 55L58 56L56 56L56 55L55 55L55 54L57 54L57 53L59 53L59 54L60 54L60 53L59 53L59 51L60 51L60 52L62 52L62 51L65 51L65 49L64 49L64 48L65 48L65 47L64 47L64 45L65 45L65 44L64 44L64 43L63 43L63 42L64 42L64 40L63 40L63 42L62 42L62 41L61 41L61 40L62 40L62 39L61 39L61 38L62 38L62 37L63 37L63 36L65 36L65 35L64 35L64 34L65 34L65 33L63 33L63 32L64 32L64 31L61 31L61 30L59 30L59 28L60 28L60 27L58 27L58 29L57 29L57 30L56 30L56 32L55 32L55 33L54 33L54 32L53 32L53 31L51 31L51 30L49 30L49 29L48 29L48 25L49 25L49 23L50 23L50 24L51 24L51 25L50 25L50 26L49 26L49 27L51 27L51 28L53 28L53 29L52 29L52 30L54 30L54 28L55 28L55 27L57 27L57 24L56 24L56 25L55 25L55 26L54 26L54 24L53 24L53 25L52 25L52 22L51 22L51 23L50 23L50 22L49 22L49 21L50 21L50 20L51 20L51 19L52 19L52 21L53 21L53 20L54 20L54 23L57 23L57 22L58 22L58 24L60 24L60 25L59 25L59 26L62 26L62 27L61 27L61 29L62 29L62 27L64 27L64 28L65 28L65 24L64 24L64 25L63 25L63 24L62 24L62 25L61 25L61 23L62 23L62 22L63 22L63 23L64 23L64 22L65 22L65 20L64 20L64 19L63 19L63 18L62 18L62 15L63 15L63 14L62 14L62 12L61 12L61 10L62 10L62 11L64 11L64 12L65 12L65 11L64 11L64 10L65 10L65 8L64 8L64 9L63 9L63 8L60 8L60 9L61 9L61 10L58 10L58 8L57 8L57 6L56 6L56 8L54 8L54 7L55 7L55 5L54 5L54 7L53 7L53 4L52 4L52 3L50 3L50 1L49 1L49 2L48 2L48 1L45 1L45 2L44 2L44 1L43 1L43 0L42 0L42 1L41 1L41 2L43 2L43 3L41 3L41 4L43 4L43 6L42 6L42 8L43 8L43 6L44 6L44 7L45 7L45 9L47 9L47 10L46 10L46 12L45 12L45 11L44 11L44 12L45 12L45 13L43 13L43 12L42 12L42 11L43 11L43 10L44 10L44 9L42 9L42 10L41 10L41 13L43 13L43 14L42 14L42 16L41 16L41 15L40 15L40 16L41 16L41 17L40 17L40 18L38 18L38 17L37 17L37 19L36 19L36 16L39 16L39 14L40 14L40 13L39 13L39 12L40 12L40 11L38 11L38 12L37 12L37 10L38 10L38 8L39 8L39 9L41 9L41 5L39 5L39 4L37 4L37 3L38 3L38 2L37 2L37 1L36 1L36 2L34 2L34 3L36 3L36 4L33 4L33 3L32 3L32 2L33 2L33 1L32 1L32 0L29 0L29 1L28 1L28 0L26 0L26 1L25 1L25 0L24 0L24 1L23 1L23 0L21 0L21 1L20 1L20 0L19 0L19 1L18 1L18 0L17 0L17 1L18 1L18 3L16 3L16 2L15 2L15 1L14 1L14 0ZM34 0L34 1L35 1L35 0ZM39 0L39 1L40 1L40 0ZM51 0L51 1L52 1L52 0ZM53 0L53 2L54 2L54 4L56 4L56 5L57 5L57 4L56 4L56 3L57 3L57 1L56 1L56 0L55 0L55 1L56 1L56 3L55 3L55 2L54 2L54 0ZM24 1L24 5L23 5L23 4L22 4L22 3L23 3L23 2L20 2L20 3L18 3L18 6L17 6L17 7L16 7L16 5L17 5L17 4L14 4L14 5L15 5L15 8L16 8L16 9L15 9L15 10L14 10L14 6L13 6L13 9L12 9L12 8L11 8L11 7L12 7L12 6L11 6L11 7L10 7L10 8L9 8L9 9L10 9L10 10L9 10L9 11L8 11L8 12L7 12L7 11L5 11L5 10L4 10L4 9L2 9L2 10L4 10L4 11L2 11L2 12L4 12L4 14L5 14L5 15L4 15L4 16L5 16L5 17L4 17L4 18L8 18L8 15L9 15L9 12L11 12L11 13L10 13L10 14L11 14L11 15L10 15L10 16L13 16L13 17L14 17L14 16L15 16L15 17L17 17L17 21L16 21L16 23L15 23L15 24L14 24L14 25L13 25L13 28L12 28L12 30L13 30L13 32L11 32L11 31L10 31L10 30L11 30L11 28L10 28L10 30L9 30L9 31L10 31L10 32L11 32L11 33L10 33L10 34L11 34L11 39L10 39L10 40L8 40L8 41L10 41L10 40L11 40L11 41L12 41L12 39L13 39L13 38L12 38L12 37L14 37L14 38L15 38L15 35L16 35L16 36L18 36L18 38L17 38L17 37L16 37L16 38L17 38L17 40L18 40L18 41L17 41L17 43L15 43L15 44L17 44L17 43L18 43L18 41L19 41L19 42L20 42L20 44L18 44L18 47L17 47L17 45L16 45L16 47L15 47L15 46L14 46L14 45L13 45L13 44L14 44L14 43L12 43L12 42L11 42L11 43L12 43L12 44L11 44L11 45L10 45L10 46L9 46L9 47L11 47L11 46L12 46L12 49L10 49L10 48L9 48L9 49L10 49L10 50L9 50L9 51L11 51L11 53L14 53L14 54L15 54L15 56L14 56L14 55L13 55L13 54L12 54L12 55L11 55L11 54L10 54L10 52L9 52L9 53L8 53L8 52L7 52L7 51L6 51L6 52L7 52L7 53L8 53L8 54L9 54L9 55L8 55L8 56L10 56L10 58L11 58L11 57L12 57L12 55L13 55L13 56L14 56L14 58L15 58L15 59L14 59L14 60L13 60L13 62L14 62L14 60L15 60L15 59L16 59L16 61L17 61L17 60L19 60L19 61L20 61L20 62L21 62L21 64L22 64L22 61L23 61L23 63L24 63L24 64L25 64L25 63L26 63L26 62L27 62L27 60L28 60L28 61L29 61L29 60L30 60L30 56L31 56L31 55L29 55L29 54L31 54L31 53L32 53L32 56L34 56L34 55L36 55L36 53L38 53L38 54L37 54L37 55L38 55L38 54L40 54L40 55L39 55L39 56L40 56L40 55L42 55L42 56L41 56L41 57L42 57L42 56L43 56L43 57L44 57L44 58L45 58L45 60L44 60L44 59L42 59L42 58L40 58L40 57L38 57L38 56L36 56L36 57L38 57L38 58L37 58L37 62L38 62L38 61L39 61L39 62L40 62L40 63L42 63L42 62L43 62L43 61L45 61L45 60L46 60L46 58L47 58L47 59L49 59L49 61L53 61L53 60L51 60L51 59L54 59L54 60L56 60L56 58L55 58L55 59L54 59L54 57L53 57L53 58L52 58L52 56L51 56L51 57L50 57L50 55L49 55L49 56L48 56L48 54L49 54L49 51L50 51L50 52L52 52L52 53L50 53L50 54L51 54L51 55L52 55L52 54L53 54L53 55L54 55L54 56L55 56L55 55L54 55L54 54L55 54L55 53L57 53L57 50L56 50L56 52L55 52L55 53L54 53L54 54L53 54L53 52L54 52L54 51L53 51L53 52L52 52L52 49L54 49L54 50L55 50L55 49L58 49L58 50L60 50L60 51L61 51L61 50L62 50L62 49L61 49L61 48L63 48L63 47L61 47L61 46L62 46L62 44L61 44L61 43L59 43L59 41L60 41L60 42L61 42L61 41L60 41L60 40L61 40L61 39L60 39L60 40L57 40L57 41L56 41L56 40L55 40L55 41L54 41L54 38L55 38L55 37L58 37L58 36L59 36L59 35L58 35L58 36L57 36L57 35L55 35L55 36L54 36L54 35L53 35L53 34L54 34L54 33L52 33L52 32L50 32L50 31L49 31L49 32L47 32L47 31L48 31L48 29L47 29L47 31L46 31L46 32L47 32L47 33L45 33L45 31L43 31L43 30L46 30L46 28L45 28L45 29L44 29L44 28L43 28L43 27L42 27L42 28L43 28L43 29L42 29L42 31L43 31L43 34L45 34L45 36L44 36L44 37L43 37L43 35L41 35L41 34L42 34L42 32L41 32L41 33L40 33L40 32L38 32L38 30L39 30L39 31L41 31L41 30L40 30L40 29L41 29L41 28L40 28L40 27L39 27L39 26L41 26L41 25L42 25L42 26L43 26L43 22L45 22L45 21L46 21L46 22L47 22L47 24L44 24L44 25L46 25L46 27L47 27L47 24L48 24L48 23L49 23L49 22L47 22L47 20L48 20L48 21L49 21L49 20L50 20L50 19L49 19L49 17L50 17L50 18L52 18L52 19L54 19L54 20L55 20L55 21L56 21L56 22L57 22L57 21L56 21L56 20L58 20L58 22L60 22L60 23L61 23L61 19L62 19L62 18L61 18L61 13L58 13L58 12L59 12L59 11L58 11L58 12L57 12L57 13L58 13L58 14L55 14L55 13L56 13L56 12L53 12L53 11L54 11L54 8L53 8L53 10L52 10L52 4L51 4L51 9L49 9L49 8L50 8L50 3L49 3L49 5L48 5L48 2L47 2L47 3L46 3L46 2L45 2L45 3L44 3L44 4L45 4L45 5L46 5L46 6L45 6L45 7L46 7L46 6L47 6L47 7L48 7L48 6L49 6L49 8L48 8L48 10L47 10L47 11L48 11L48 10L49 10L49 14L48 14L48 12L47 12L47 13L45 13L45 14L43 14L43 16L44 16L44 15L45 15L45 14L46 14L46 16L48 16L48 17L47 17L47 18L48 18L48 19L46 19L46 18L45 18L45 17L41 17L41 18L40 18L40 19L41 19L41 18L42 18L42 19L43 19L43 20L41 20L41 21L43 21L43 22L39 22L39 20L36 20L36 19L34 19L34 17L35 17L35 16L36 16L36 15L38 15L38 14L35 14L35 13L34 13L34 14L33 14L33 15L34 15L34 16L33 16L33 17L32 17L32 15L31 15L31 12L32 12L32 13L33 13L33 12L32 12L32 11L33 11L33 10L34 10L34 12L36 12L36 9L37 9L37 8L35 8L35 9L33 9L33 10L32 10L32 9L31 9L31 10L30 10L30 12L28 12L28 11L27 11L27 10L29 10L29 8L30 8L30 6L29 6L29 7L28 7L28 5L29 5L29 4L31 4L31 2L32 2L32 1L31 1L31 2L30 2L30 1L29 1L29 2L27 2L27 1L26 1L26 2L27 2L27 4L28 4L28 5L26 5L26 4L25 4L25 1ZM14 2L14 3L15 3L15 2ZM9 3L9 4L10 4L10 3ZM20 3L20 5L19 5L19 6L18 6L18 7L19 7L19 10L20 10L20 12L19 12L19 11L18 11L18 10L17 10L17 9L18 9L18 8L17 8L17 9L16 9L16 10L15 10L15 11L16 11L16 12L17 12L17 11L18 11L18 13L17 13L17 14L19 14L19 13L20 13L20 14L21 14L21 13L22 13L22 15L21 15L21 16L23 16L23 15L24 15L24 17L23 17L23 20L22 20L22 17L21 17L21 20L20 20L20 19L19 19L19 17L18 17L18 15L17 15L17 17L18 17L18 19L19 19L19 21L17 21L17 22L19 22L19 24L18 24L18 23L16 23L16 25L15 25L15 26L16 26L16 25L18 25L18 26L17 26L17 27L18 27L18 28L17 28L17 29L18 29L18 31L17 31L17 30L16 30L16 29L15 29L15 28L16 28L16 27L15 27L15 28L14 28L14 29L13 29L13 30L14 30L14 31L15 31L15 32L14 32L14 34L16 34L16 33L15 33L15 32L18 32L18 31L19 31L19 34L18 34L18 33L17 33L17 34L18 34L18 36L19 36L19 34L20 34L20 37L19 37L19 38L21 38L21 35L23 35L23 36L22 36L22 37L23 37L23 36L24 36L24 35L23 35L23 34L25 34L25 37L26 37L26 39L25 39L25 38L22 38L22 39L21 39L21 40L23 40L23 42L22 42L22 41L21 41L21 42L22 42L22 43L21 43L21 46L19 46L19 47L18 47L18 50L22 50L22 51L23 51L23 53L21 53L21 54L20 54L20 55L19 55L19 54L18 54L18 52L19 52L19 53L20 53L20 52L21 52L21 51L20 51L20 52L19 52L19 51L17 51L17 52L16 52L16 51L15 51L15 52L14 52L14 53L15 53L15 54L18 54L18 55L17 55L17 56L19 56L19 58L20 58L20 57L21 57L21 58L23 58L23 59L21 59L21 60L23 60L23 59L25 59L25 60L24 60L24 63L25 63L25 61L26 61L26 59L27 59L27 57L24 57L24 56L29 56L29 55L26 55L26 54L24 54L24 53L25 53L25 52L26 52L26 53L27 53L27 54L29 54L29 53L31 53L31 52L35 52L35 53L34 53L34 54L33 54L33 55L34 55L34 54L35 54L35 53L36 53L36 51L38 51L38 52L41 52L41 53L45 53L45 52L46 52L46 55L45 55L45 57L46 57L46 56L47 56L47 58L49 58L49 59L50 59L50 57L48 57L48 56L47 56L47 54L48 54L48 53L47 53L47 52L48 52L48 51L47 51L47 52L46 52L46 49L47 49L47 50L48 50L48 49L49 49L49 47L50 47L50 51L51 51L51 49L52 49L52 47L50 47L50 45L51 45L51 46L53 46L53 47L55 47L55 45L56 45L56 43L57 43L57 46L58 46L58 44L59 44L59 43L58 43L58 42L56 42L56 43L54 43L54 42L53 42L53 44L51 44L51 43L52 43L52 41L51 41L51 42L50 42L50 45L47 45L47 46L43 46L43 45L44 45L44 44L43 44L43 45L41 45L41 43L40 43L40 42L41 42L41 41L45 41L45 42L43 42L43 43L45 43L45 42L48 42L48 44L49 44L49 41L47 41L47 40L48 40L48 37L49 37L49 36L50 36L50 39L52 39L52 40L53 40L53 38L54 38L54 37L53 37L53 38L51 38L51 36L50 36L50 35L48 35L48 34L46 34L46 36L47 36L47 40L46 40L46 38L44 38L44 40L41 40L41 39L40 39L40 38L39 38L39 37L40 37L40 36L38 36L38 34L37 34L37 33L38 33L38 32L37 32L37 30L36 30L36 29L35 29L35 28L36 28L36 27L37 27L37 28L38 28L38 29L40 29L40 28L38 28L38 26L39 26L39 25L37 25L37 23L36 23L36 24L34 24L34 21L35 21L35 22L37 22L37 21L35 21L35 20L33 20L33 21L32 21L32 22L31 22L31 20L30 20L30 19L29 19L29 16L28 16L28 15L30 15L30 16L31 16L31 15L30 15L30 13L29 13L29 14L27 14L27 15L26 15L26 14L25 14L25 15L24 15L24 13L26 13L26 12L27 12L27 11L26 11L26 10L27 10L27 9L28 9L28 7L27 7L27 6L26 6L26 8L27 8L27 9L26 9L26 10L25 10L25 8L24 8L24 7L25 7L25 5L24 5L24 7L23 7L23 6L22 6L22 5L21 5L21 3ZM36 4L36 5L35 5L35 7L36 7L36 6L37 6L37 7L38 7L38 6L37 6L37 4ZM20 5L20 6L19 6L19 7L20 7L20 8L21 8L21 7L22 7L22 8L23 8L23 9L24 9L24 8L23 8L23 7L22 7L22 6L21 6L21 5ZM31 5L31 8L34 8L34 5ZM20 6L20 7L21 7L21 6ZM32 6L32 7L33 7L33 6ZM39 6L39 8L40 8L40 6ZM6 8L6 9L7 9L7 8ZM10 8L10 9L11 9L11 8ZM20 9L20 10L21 10L21 12L20 12L20 13L21 13L21 12L22 12L22 13L23 13L23 12L26 12L26 11L25 11L25 10L23 10L23 11L22 11L22 10L21 10L21 9ZM56 9L56 10L57 10L57 9ZM62 9L62 10L63 10L63 9ZM16 10L16 11L17 11L17 10ZM31 10L31 11L32 11L32 10ZM50 11L50 12L51 12L51 13L50 13L50 14L49 14L49 15L52 15L52 16L53 16L53 15L52 15L52 11ZM5 12L5 14L6 14L6 15L5 15L5 16L6 16L6 17L7 17L7 16L6 16L6 15L8 15L8 14L6 14L6 13L7 13L7 12ZM0 13L0 15L1 15L1 13ZM12 13L12 15L13 15L13 16L14 16L14 15L15 15L15 16L16 16L16 14L14 14L14 13ZM64 13L64 17L65 17L65 13ZM13 14L13 15L14 15L14 14ZM54 14L54 17L52 17L52 18L54 18L54 17L55 17L55 18L56 18L56 19L59 19L59 17L57 17L57 18L56 18L56 17L55 17L55 16L56 16L56 15L55 15L55 14ZM59 14L59 15L57 15L57 16L59 16L59 15L60 15L60 14ZM25 15L25 16L26 16L26 15ZM2 16L2 17L3 17L3 16ZM50 16L50 17L51 17L51 16ZM9 17L9 18L11 18L11 17ZM24 17L24 20L23 20L23 21L22 21L22 20L21 20L21 21L20 21L20 22L22 22L22 23L23 23L23 22L24 22L24 24L22 24L22 25L21 25L21 26L19 26L19 28L18 28L18 29L19 29L19 31L20 31L20 32L21 32L21 33L20 33L20 34L21 34L21 33L22 33L22 31L20 31L20 27L22 27L22 25L23 25L23 27L24 27L24 29L25 29L25 27L26 27L26 28L27 28L27 29L28 29L28 30L29 30L29 27L26 27L26 26L27 26L27 25L28 25L28 26L30 26L30 27L31 27L31 28L32 28L32 27L34 27L34 28L35 28L35 27L36 27L36 26L37 26L37 25L34 25L34 24L33 24L33 23L31 23L31 22L30 22L30 20L28 20L28 18L26 18L26 17ZM31 17L31 19L33 19L33 18L32 18L32 17ZM60 18L60 19L61 19L61 18ZM4 19L4 20L5 20L5 21L6 21L6 22L7 22L7 21L6 21L6 20L5 20L5 19ZM25 19L25 20L24 20L24 22L25 22L25 23L26 23L26 24L25 24L25 25L26 25L26 24L28 24L28 25L29 25L29 24L30 24L30 22L28 22L28 23L26 23L26 20L27 20L27 21L28 21L28 20L27 20L27 19ZM45 19L45 20L46 20L46 19ZM48 19L48 20L49 20L49 19ZM59 20L59 21L60 21L60 20ZM63 20L63 22L64 22L64 20ZM20 23L20 24L19 24L19 25L20 25L20 24L21 24L21 23ZM28 23L28 24L29 24L29 23ZM10 25L10 26L11 26L11 25ZM31 25L31 27L32 27L32 26L34 26L34 25ZM62 25L62 26L63 26L63 25ZM0 26L0 27L1 27L1 26ZM24 26L24 27L25 27L25 26ZM44 26L44 27L45 27L45 26ZM51 26L51 27L52 27L52 26ZM6 27L6 28L7 28L7 27ZM22 28L22 29L21 29L21 30L23 30L23 33L24 33L24 31L25 31L25 33L27 33L27 34L26 34L26 35L27 35L27 36L31 36L31 37L30 37L30 39L26 39L26 40L30 40L30 41L29 41L29 42L30 42L30 43L28 43L28 42L26 42L26 43L27 43L27 44L24 44L24 43L25 43L25 41L24 41L24 43L22 43L22 44L24 44L24 45L23 45L23 46L21 46L21 47L20 47L20 48L19 48L19 49L20 49L20 48L21 48L21 49L22 49L22 50L23 50L23 51L25 51L25 50L26 50L26 52L27 52L27 53L28 53L28 52L29 52L29 51L30 51L30 52L31 52L31 50L32 50L32 51L33 51L33 50L32 50L32 47L33 47L33 49L34 49L34 48L35 48L35 46L36 46L36 48L37 48L37 49L35 49L35 50L38 50L38 49L39 49L39 51L40 51L40 50L41 50L41 49L42 49L42 50L43 50L43 52L44 52L44 50L45 50L45 48L46 48L46 47L45 47L45 48L44 48L44 47L41 47L41 46L39 46L39 44L38 44L38 42L39 42L39 41L38 41L38 40L39 40L39 39L38 39L38 36L37 36L37 39L36 39L36 38L35 38L35 37L36 37L36 36L35 36L35 35L36 35L36 34L35 34L35 35L32 35L32 36L31 36L31 35L28 35L28 34L29 34L29 33L27 33L27 32L26 32L26 31L27 31L27 30L23 30L23 28ZM6 29L6 30L7 30L7 29ZM14 29L14 30L15 30L15 29ZM63 29L63 30L64 30L64 29ZM35 30L35 32L36 32L36 33L37 33L37 32L36 32L36 30ZM5 31L5 34L8 34L8 31ZM31 31L31 34L34 34L34 31ZM57 31L57 34L60 34L60 31ZM6 32L6 33L7 33L7 32ZM32 32L32 33L33 33L33 32ZM49 32L49 33L50 33L50 32ZM58 32L58 33L59 33L59 32ZM0 33L0 34L1 34L1 33ZM39 33L39 34L40 34L40 33ZM55 33L55 34L56 34L56 33ZM12 34L12 35L13 35L13 34ZM51 34L51 35L52 35L52 34ZM62 34L62 35L60 35L60 37L59 37L59 38L61 38L61 36L63 36L63 34ZM4 35L4 36L3 36L3 37L2 37L2 40L3 40L3 39L4 39L4 40L5 40L5 42L7 42L7 41L6 41L6 40L7 40L7 39L6 39L6 38L7 38L7 37L9 37L9 38L10 38L10 37L9 37L9 36L10 36L10 35L9 35L9 36L7 36L7 35ZM4 36L4 37L3 37L3 38L4 38L4 39L5 39L5 40L6 40L6 39L5 39L5 37L7 37L7 36ZM32 36L32 38L31 38L31 39L30 39L30 40L31 40L31 41L30 41L30 42L31 42L31 43L30 43L30 45L31 45L31 46L30 46L30 49L29 49L29 47L28 47L28 45L29 45L29 44L27 44L27 45L24 45L24 46L26 46L26 47L25 47L25 49L26 49L26 48L27 48L27 47L28 47L28 49L29 49L29 50L31 50L31 46L33 46L33 47L34 47L34 44L33 44L33 43L32 43L32 42L31 42L31 41L32 41L32 40L31 40L31 39L33 39L33 37L34 37L34 36ZM41 36L41 38L42 38L42 39L43 39L43 38L42 38L42 36ZM28 37L28 38L29 38L29 37ZM64 37L64 38L63 38L63 39L65 39L65 37ZM34 38L34 40L33 40L33 41L35 41L35 42L34 42L34 43L35 43L35 45L36 45L36 46L38 46L38 45L36 45L36 44L37 44L37 42L36 42L36 41L35 41L35 38ZM56 38L56 39L57 39L57 38ZM14 39L14 40L15 40L15 41L14 41L14 42L15 42L15 41L16 41L16 40L15 40L15 39ZM19 39L19 40L20 40L20 39ZM24 39L24 40L25 40L25 39ZM40 40L40 41L41 41L41 40ZM45 40L45 41L46 41L46 40ZM2 42L2 43L3 43L3 42ZM8 42L8 43L6 43L6 44L8 44L8 45L9 45L9 44L10 44L10 43L9 43L9 42ZM35 42L35 43L36 43L36 42ZM32 44L32 45L33 45L33 44ZM54 44L54 45L55 45L55 44ZM60 44L60 46L61 46L61 44ZM6 45L6 46L7 46L7 47L6 47L6 48L8 48L8 46L7 46L7 45ZM12 45L12 46L13 46L13 49L14 49L14 46L13 46L13 45ZM48 46L48 47L47 47L47 49L48 49L48 47L49 47L49 46ZM16 47L16 48L15 48L15 49L17 49L17 47ZM37 47L37 48L38 48L38 47ZM39 47L39 49L40 49L40 47ZM56 47L56 48L57 48L57 47ZM60 47L60 48L59 48L59 49L60 49L60 48L61 48L61 47ZM23 48L23 49L24 49L24 48ZM43 48L43 50L44 50L44 48ZM5 49L5 50L8 50L8 49ZM0 50L0 51L1 51L1 50ZM13 50L13 51L12 51L12 52L13 52L13 51L14 51L14 50ZM4 51L4 52L5 52L5 51ZM27 51L27 52L28 52L28 51ZM41 51L41 52L42 52L42 51ZM0 53L0 54L2 54L2 55L3 55L3 56L1 56L1 55L0 55L0 56L1 56L1 57L3 57L3 56L4 56L4 57L5 57L5 56L4 56L4 54L3 54L3 53ZM23 54L23 55L24 55L24 54ZM43 54L43 55L44 55L44 54ZM20 55L20 56L21 56L21 57L22 57L22 55ZM61 56L61 57L62 57L62 58L61 58L61 61L62 61L62 60L63 60L63 59L62 59L62 58L64 58L64 57L62 57L62 56ZM15 57L15 58L16 58L16 57ZM31 57L31 60L34 60L34 57ZM57 57L57 60L60 60L60 57ZM17 58L17 59L18 59L18 58ZM28 58L28 60L29 60L29 58ZM32 58L32 59L33 59L33 58ZM35 58L35 59L36 59L36 58ZM58 58L58 59L59 59L59 58ZM19 59L19 60L20 60L20 59ZM38 59L38 60L39 60L39 61L40 61L40 60L39 60L39 59ZM41 59L41 62L42 62L42 61L43 61L43 60L42 60L42 59ZM9 61L9 62L10 62L10 64L11 64L11 63L12 63L12 64L13 64L13 63L12 63L12 62L11 62L11 61ZM18 62L18 63L17 63L17 64L18 64L18 63L19 63L19 62ZM60 62L60 63L61 63L61 62ZM64 62L64 63L63 63L63 65L64 65L64 63L65 63L65 62ZM28 63L28 65L30 65L30 63ZM43 63L43 64L44 64L44 63ZM47 63L47 65L48 65L48 63ZM56 63L56 65L57 65L57 64L58 64L58 65L59 65L59 64L58 64L58 63ZM31 64L31 65L32 65L32 64ZM0 0L0 7L7 7L7 0ZM1 1L1 6L6 6L6 1ZM2 2L2 5L5 5L5 2ZM58 0L58 7L65 7L65 0ZM59 1L59 6L64 6L64 1ZM60 2L60 5L63 5L63 2ZM0 58L0 65L7 65L7 58ZM1 59L1 64L6 64L6 59ZM2 60L2 63L5 63L5 60Z" fill="#000000"/></g></g></svg>
