<?xml version="1.0" encoding="UTF-8"?>
<svg xmlns="http://www.w3.org/2000/svg" version="1.1" width="300" height="300" viewBox="0 0 300 300"><rect x="0" y="0" width="300" height="300" fill="#ffffff"/><g transform="scale(4.615)"><g transform="translate(0,0)"><path fill-rule="evenodd" d="M10 0L10 2L9 2L9 1L8 1L8 2L9 2L9 3L8 3L8 4L10 4L10 5L8 5L8 7L9 7L9 8L6 8L6 9L5 9L5 8L0 8L0 10L2 10L2 11L1 11L1 13L0 13L0 14L2 14L2 11L3 11L3 13L5 13L5 14L6 14L6 15L8 15L8 16L5 16L5 18L4 18L4 17L3 17L3 18L1 18L1 16L2 16L2 15L1 15L1 16L0 16L0 18L1 18L1 19L0 19L0 20L1 20L1 21L2 21L2 22L0 22L0 26L1 26L1 23L2 23L2 24L3 24L3 22L5 22L5 21L2 21L2 20L1 20L1 19L9 19L9 21L7 21L7 20L6 20L6 21L7 21L7 22L6 22L6 23L5 23L5 24L4 24L4 26L2 26L2 27L0 27L0 28L2 28L2 27L4 27L4 26L5 26L5 28L4 28L4 29L7 29L7 28L6 28L6 27L7 27L7 26L5 26L5 25L7 25L7 24L9 24L9 25L10 25L10 24L9 24L9 23L11 23L11 25L12 25L12 28L11 28L11 27L9 27L9 26L8 26L8 30L4 30L4 31L3 31L3 30L1 30L1 31L2 31L2 32L0 32L0 33L4 33L4 34L2 34L2 35L4 35L4 36L2 36L2 37L3 37L3 39L2 39L2 38L0 38L0 39L1 39L1 41L0 41L0 45L1 45L1 46L2 46L2 44L3 44L3 45L4 45L4 44L3 44L3 43L5 43L5 44L6 44L6 45L7 45L7 46L6 46L6 47L5 47L5 48L4 48L4 47L3 47L3 48L2 48L2 47L1 47L1 48L0 48L0 50L1 50L1 51L0 51L0 52L1 52L1 53L0 53L0 54L1 54L1 53L2 53L2 55L3 55L3 56L1 56L1 55L0 55L0 56L1 56L1 57L3 57L3 56L4 56L4 57L5 57L5 56L4 56L4 54L5 54L5 55L7 55L7 54L6 54L6 53L8 53L8 54L9 54L9 56L6 56L6 57L8 57L8 59L9 59L9 60L8 60L8 65L10 65L10 64L11 64L11 65L12 65L12 64L13 64L13 62L14 62L14 60L15 60L15 61L16 61L16 62L15 62L15 63L16 63L16 64L15 64L15 65L17 65L17 63L18 63L18 65L19 65L19 64L20 64L20 65L21 65L21 64L22 64L22 63L23 63L23 64L24 64L24 63L23 63L23 62L24 62L24 61L26 61L26 62L25 62L25 65L26 65L26 62L27 62L27 63L28 63L28 64L29 64L29 65L33 65L33 64L34 64L34 63L33 63L33 64L29 64L29 61L32 61L32 62L31 62L31 63L32 63L32 62L34 62L34 61L37 61L37 60L36 60L36 59L35 59L35 58L38 58L38 61L39 61L39 62L36 62L36 63L35 63L35 65L38 65L38 64L39 64L39 65L40 65L40 64L41 64L41 62L40 62L40 60L42 60L42 62L45 62L45 63L44 63L44 64L43 64L43 63L42 63L42 65L44 65L44 64L45 64L45 65L46 65L46 64L45 64L45 63L47 63L47 62L48 62L48 63L51 63L51 62L50 62L50 61L49 61L49 60L50 60L50 59L51 59L51 58L50 58L50 57L52 57L52 56L53 56L53 57L54 57L54 58L53 58L53 60L54 60L54 61L52 61L52 64L50 64L50 65L52 65L52 64L53 64L53 65L55 65L55 63L56 63L56 64L57 64L57 65L63 65L63 64L64 64L64 61L65 61L65 59L64 59L64 61L63 61L63 60L62 60L62 59L61 59L61 58L62 58L62 57L63 57L63 58L65 58L65 55L63 55L63 56L62 56L62 55L61 55L61 56L60 56L60 54L61 54L61 53L58 53L58 52L62 52L62 54L63 54L63 53L64 53L64 54L65 54L65 53L64 53L64 52L62 52L62 51L63 51L63 50L65 50L65 49L64 49L64 48L62 48L62 49L63 49L63 50L62 50L62 51L61 51L61 49L60 49L60 48L59 48L59 47L58 47L58 48L59 48L59 51L57 51L57 47L56 47L56 46L55 46L55 45L51 45L51 46L50 46L50 44L48 44L48 41L49 41L49 43L51 43L51 44L52 44L52 43L51 43L51 42L50 42L50 39L51 39L51 41L52 41L52 40L53 40L53 41L54 41L54 42L53 42L53 44L54 44L54 42L56 42L56 41L55 41L55 40L57 40L57 42L59 42L59 43L58 43L58 44L57 44L57 43L55 43L55 44L56 44L56 45L57 45L57 46L58 46L58 44L59 44L59 45L60 45L60 46L61 46L61 47L62 47L62 46L64 46L64 45L65 45L65 44L64 44L64 45L63 45L63 44L62 44L62 42L61 42L61 41L60 41L60 39L58 39L58 38L61 38L61 37L63 37L63 36L64 36L64 37L65 37L65 35L63 35L63 32L62 32L62 31L61 31L61 30L62 30L62 29L63 29L63 28L62 28L62 27L61 27L61 26L62 26L62 25L63 25L63 24L62 24L62 23L63 23L63 20L64 20L64 19L63 19L63 18L65 18L65 15L64 15L64 14L65 14L65 13L64 13L64 12L65 12L65 11L63 11L63 10L61 10L61 9L62 9L62 8L61 8L61 9L60 9L60 8L59 8L59 9L60 9L60 10L58 10L58 8L56 8L56 9L57 9L57 11L58 11L58 13L59 13L59 12L60 12L60 13L62 13L62 14L60 14L60 15L61 15L61 16L60 16L60 17L59 17L59 16L58 16L58 15L59 15L59 14L57 14L57 16L56 16L56 15L54 15L54 16L55 16L55 17L54 17L54 18L53 18L53 19L52 19L52 16L53 16L53 14L56 14L56 13L57 13L57 12L56 12L56 10L55 10L55 5L54 5L54 4L56 4L56 5L57 5L57 4L56 4L56 3L57 3L57 1L56 1L56 0L55 0L55 1L56 1L56 3L55 3L55 2L54 2L54 4L51 4L51 3L50 3L50 4L51 4L51 5L49 5L49 6L48 6L48 7L47 7L47 5L46 5L46 4L44 4L44 3L46 3L46 2L49 2L49 0L47 0L47 1L45 1L45 0L44 0L44 2L40 2L40 0L39 0L39 1L37 1L37 2L39 2L39 3L41 3L41 5L42 5L42 7L43 7L43 8L45 8L45 9L44 9L44 10L45 10L45 9L47 9L47 12L46 12L46 11L45 11L45 13L44 13L44 11L40 11L40 12L42 12L42 13L41 13L41 14L38 14L38 12L35 12L35 11L34 11L34 13L37 13L37 14L36 14L36 15L35 15L35 14L33 14L33 15L32 15L32 12L33 12L33 9L35 9L35 10L36 10L36 11L37 11L37 10L38 10L38 11L39 11L39 10L40 10L40 9L39 9L39 10L38 10L38 9L37 9L37 8L35 8L35 4L33 4L33 3L34 3L34 1L35 1L35 3L36 3L36 7L37 7L37 5L38 5L38 7L39 7L39 8L40 8L40 7L41 7L41 6L40 6L40 7L39 7L39 5L40 5L40 4L39 4L39 5L38 5L38 4L37 4L37 3L36 3L36 1L35 1L35 0L34 0L34 1L33 1L33 3L31 3L31 2L30 2L30 1L32 1L32 0L29 0L29 2L30 2L30 3L28 3L28 1L27 1L27 0L24 0L24 1L25 1L25 2L26 2L26 3L25 3L25 4L24 4L24 3L23 3L23 0L21 0L21 1L22 1L22 2L21 2L21 3L20 3L20 4L21 4L21 5L22 5L22 7L23 7L23 5L25 5L25 6L24 6L24 8L25 8L25 9L21 9L21 6L20 6L20 7L19 7L19 6L18 6L18 5L19 5L19 4L18 4L18 3L17 3L17 4L16 4L16 3L15 3L15 2L16 2L16 1L17 1L17 2L18 2L18 0L15 0L15 1L14 1L14 0ZM42 0L42 1L43 1L43 0ZM51 0L51 1L50 1L50 2L52 2L52 3L53 3L53 2L52 2L52 0ZM53 0L53 1L54 1L54 0ZM12 1L12 2L11 2L11 4L14 4L14 5L16 5L16 6L15 6L15 7L14 7L14 6L13 6L13 5L11 5L11 8L9 8L9 10L10 10L10 9L11 9L11 8L14 8L14 9L13 9L13 10L11 10L11 11L8 11L8 12L9 12L9 13L8 13L8 15L9 15L9 17L10 17L10 18L9 18L9 19L10 19L10 20L11 20L11 18L13 18L13 17L15 17L15 18L16 18L16 20L15 20L15 19L14 19L14 20L15 20L15 21L12 21L12 24L13 24L13 26L14 26L14 27L13 27L13 28L12 28L12 29L11 29L11 28L10 28L10 29L9 29L9 30L14 30L14 29L13 29L13 28L16 28L16 29L15 29L15 30L16 30L16 29L17 29L17 30L19 30L19 31L20 31L20 30L19 30L19 29L21 29L21 30L22 30L22 31L21 31L21 33L20 33L20 35L19 35L19 33L18 33L18 31L17 31L17 33L16 33L16 31L15 31L15 32L14 32L14 31L13 31L13 32L11 32L11 31L10 31L10 32L9 32L9 34L10 34L10 35L11 35L11 36L12 36L12 37L11 37L11 39L10 39L10 38L7 38L7 37L6 37L6 38L5 38L5 37L4 37L4 38L5 38L5 39L4 39L4 40L5 40L5 39L6 39L6 40L7 40L7 41L6 41L6 42L7 42L7 41L8 41L8 42L9 42L9 40L11 40L11 41L10 41L10 42L11 42L11 43L10 43L10 46L9 46L9 44L8 44L8 43L6 43L6 44L8 44L8 46L7 46L7 47L6 47L6 48L7 48L7 47L8 47L8 46L9 46L9 50L10 50L10 51L9 51L9 53L10 53L10 51L11 51L11 52L12 52L12 51L13 51L13 53L11 53L11 54L10 54L10 55L12 55L12 56L13 56L13 55L12 55L12 54L14 54L14 53L15 53L15 58L14 58L14 59L13 59L13 57L10 57L10 59L11 59L11 60L9 60L9 61L10 61L10 62L9 62L9 64L10 64L10 62L11 62L11 61L12 61L12 62L13 62L13 61L12 61L12 59L13 59L13 60L14 60L14 59L16 59L16 61L17 61L17 62L18 62L18 63L20 63L20 62L19 62L19 61L24 61L24 59L25 59L25 58L23 58L23 59L20 59L20 58L21 58L21 57L20 57L20 56L21 56L21 54L23 54L23 55L24 55L24 53L26 53L26 57L27 57L27 58L30 58L30 57L27 57L27 56L28 56L28 55L27 55L27 54L30 54L30 53L31 53L31 55L35 55L35 56L38 56L38 58L39 58L39 59L42 59L42 60L43 60L43 61L45 61L45 62L47 62L47 61L48 61L48 60L49 60L49 59L48 59L48 60L47 60L47 61L45 61L45 60L46 60L46 59L45 59L45 58L48 58L48 57L47 57L47 56L52 56L52 55L54 55L54 54L53 54L53 53L55 53L55 55L57 55L57 56L58 56L58 55L59 55L59 54L58 54L58 55L57 55L57 54L56 54L56 52L57 52L57 51L56 51L56 48L54 48L54 47L55 47L55 46L54 46L54 47L53 47L53 46L52 46L52 47L48 47L48 46L47 46L47 45L48 45L48 44L47 44L47 43L45 43L45 44L44 44L44 42L47 42L47 40L49 40L49 39L48 39L48 38L51 38L51 37L50 37L50 36L51 36L51 35L48 35L48 34L51 34L51 32L52 32L52 35L53 35L53 36L52 36L52 37L53 37L53 38L52 38L52 39L57 39L57 38L56 38L56 36L58 36L58 35L56 35L56 36L55 36L55 34L54 34L54 33L55 33L55 31L56 31L56 30L59 30L59 29L60 29L60 30L61 30L61 29L62 29L62 28L61 28L61 27L60 27L60 26L59 26L59 25L60 25L60 24L61 24L61 23L60 23L60 22L61 22L61 21L62 21L62 20L63 20L63 19L62 19L62 18L63 18L63 17L61 17L61 19L62 19L62 20L61 20L61 21L58 21L58 22L59 22L59 23L58 23L58 24L59 24L59 25L56 25L56 24L57 24L57 21L56 21L56 24L55 24L55 25L56 25L56 26L57 26L57 27L55 27L55 26L54 26L54 25L53 25L53 24L52 24L52 25L53 25L53 26L52 26L52 27L53 27L53 26L54 26L54 27L55 27L55 29L56 29L56 30L53 30L53 28L52 28L52 30L51 30L51 27L50 27L50 28L49 28L49 26L48 26L48 28L47 28L47 27L46 27L46 29L45 29L45 27L43 27L43 26L47 26L47 25L46 25L46 22L47 22L47 24L51 24L51 23L52 23L52 22L54 22L54 23L55 23L55 22L54 22L54 21L55 21L55 20L54 20L54 19L55 19L55 18L56 18L56 20L57 20L57 19L58 19L58 18L59 18L59 17L58 17L58 18L57 18L57 17L55 17L55 18L54 18L54 19L53 19L53 20L52 20L52 22L51 22L51 19L48 19L48 18L51 18L51 17L50 17L50 16L49 16L49 15L48 15L48 14L49 14L49 13L48 13L48 12L52 12L52 13L50 13L50 14L51 14L51 16L52 16L52 14L53 14L53 12L55 12L55 13L56 13L56 12L55 12L55 10L54 10L54 9L53 9L53 8L52 8L52 10L51 10L51 9L50 9L50 8L51 8L51 7L52 7L52 6L53 6L53 7L54 7L54 5L52 5L52 6L51 6L51 7L50 7L50 6L49 6L49 7L48 7L48 8L49 8L49 9L50 9L50 10L49 10L49 11L48 11L48 12L47 12L47 13L45 13L45 15L46 15L46 16L47 16L47 15L48 15L48 16L49 16L49 17L48 17L48 18L47 18L47 17L45 17L45 16L42 16L42 15L43 15L43 14L44 14L44 13L43 13L43 14L41 14L41 16L40 16L40 15L38 15L38 14L37 14L37 19L36 19L36 18L35 18L35 17L36 17L36 16L35 16L35 15L34 15L34 18L35 18L35 19L34 19L34 20L32 20L32 19L33 19L33 16L32 16L32 15L31 15L31 16L32 16L32 17L31 17L31 18L30 18L30 17L28 17L28 16L30 16L30 15L29 15L29 14L30 14L30 13L31 13L31 12L32 12L32 11L31 11L31 12L30 12L30 13L29 13L29 11L28 11L28 10L29 10L29 9L28 9L28 6L29 6L29 7L30 7L30 6L29 6L29 5L30 5L30 4L25 4L25 5L26 5L26 6L25 6L25 8L26 8L26 9L25 9L25 10L26 10L26 13L28 13L28 14L25 14L25 16L24 16L24 15L23 15L23 14L24 14L24 13L23 13L23 12L24 12L24 11L23 11L23 10L22 10L22 11L23 11L23 12L21 12L21 11L20 11L20 10L21 10L21 9L20 9L20 8L19 8L19 9L18 9L18 6L17 6L17 5L18 5L18 4L17 4L17 5L16 5L16 4L15 4L15 3L14 3L14 2L13 2L13 1ZM21 3L21 4L22 4L22 5L23 5L23 4L22 4L22 3ZM48 3L48 4L49 4L49 3ZM43 4L43 5L44 5L44 4ZM31 5L31 8L34 8L34 5ZM45 5L45 7L46 7L46 8L47 8L47 7L46 7L46 5ZM9 6L9 7L10 7L10 6ZM12 6L12 7L13 7L13 6ZM16 6L16 7L15 7L15 8L16 8L16 9L15 9L15 11L14 11L14 10L13 10L13 11L14 11L14 14L13 14L13 12L12 12L12 11L11 11L11 12L10 12L10 13L9 13L9 15L10 15L10 16L11 16L11 15L10 15L10 14L13 14L13 15L12 15L12 17L13 17L13 15L15 15L15 14L16 14L16 13L17 13L17 14L18 14L18 15L20 15L20 14L18 14L18 13L20 13L20 12L17 12L17 8L16 8L16 7L17 7L17 6ZM26 6L26 7L27 7L27 6ZM32 6L32 7L33 7L33 6ZM43 6L43 7L44 7L44 6ZM56 6L56 7L57 7L57 6ZM63 8L63 9L64 9L64 8ZM2 9L2 10L3 10L3 11L4 11L4 12L5 12L5 13L6 13L6 14L7 14L7 13L6 13L6 12L7 12L7 11L6 11L6 10L8 10L8 9L6 9L6 10L4 10L4 9ZM26 9L26 10L27 10L27 9ZM30 9L30 10L32 10L32 9ZM36 9L36 10L37 10L37 9ZM42 9L42 10L43 10L43 9ZM18 10L18 11L19 11L19 10ZM50 10L50 11L51 11L51 10ZM52 10L52 12L53 12L53 11L54 11L54 10ZM60 10L60 12L61 12L61 10ZM27 11L27 12L28 12L28 11ZM62 11L62 12L63 12L63 11ZM21 13L21 16L20 16L20 17L21 17L21 16L23 16L23 17L24 17L24 18L25 18L25 17L26 17L26 18L27 18L27 21L29 21L29 20L28 20L28 19L29 19L29 18L27 18L27 17L26 17L26 16L28 16L28 15L26 15L26 16L25 16L25 17L24 17L24 16L23 16L23 15L22 15L22 14L23 14L23 13ZM47 13L47 14L46 14L46 15L47 15L47 14L48 14L48 13ZM3 14L3 15L4 15L4 14ZM62 14L62 16L64 16L64 15L63 15L63 14ZM15 16L15 17L16 17L16 18L18 18L18 19L17 19L17 20L18 20L18 21L17 21L17 22L18 22L18 23L19 23L19 19L22 19L22 18L18 18L18 17L19 17L19 16L18 16L18 17L16 17L16 16ZM39 16L39 18L38 18L38 19L37 19L37 20L36 20L36 19L35 19L35 20L36 20L36 23L37 23L37 24L35 24L35 23L34 23L34 25L37 25L37 26L38 26L38 27L37 27L37 28L36 28L36 26L33 26L33 27L32 27L32 28L31 28L31 27L30 27L30 26L32 26L32 25L30 25L30 26L29 26L29 27L30 27L30 28L31 28L31 29L32 29L32 28L33 28L33 27L34 27L34 28L35 28L35 30L34 30L34 29L33 29L33 30L30 30L30 29L28 29L28 28L27 28L27 29L26 29L26 28L24 28L24 27L23 27L23 28L24 28L24 29L22 29L22 30L24 30L24 29L26 29L26 30L25 30L25 33L24 33L24 35L23 35L23 34L22 34L22 33L21 33L21 34L22 34L22 35L21 35L21 36L20 36L20 37L21 37L21 40L20 40L20 41L19 41L19 40L18 40L18 39L20 39L20 38L19 38L19 37L18 37L18 36L16 36L16 35L15 35L15 36L14 36L14 34L13 34L13 33L14 33L14 32L13 32L13 33L11 33L11 32L10 32L10 34L12 34L12 36L14 36L14 38L13 38L13 37L12 37L12 38L13 38L13 40L12 40L12 39L11 39L11 40L12 40L12 41L13 41L13 40L14 40L14 44L15 44L15 43L16 43L16 42L15 42L15 41L17 41L17 42L18 42L18 43L17 43L17 46L18 46L18 47L20 47L20 46L18 46L18 45L20 45L20 44L22 44L22 42L23 42L23 45L21 45L21 47L24 47L24 48L23 48L23 49L21 49L21 48L20 48L20 49L19 49L19 48L18 48L18 49L19 49L19 50L18 50L18 51L17 51L17 50L14 50L14 52L15 52L15 53L17 53L17 55L16 55L16 57L17 57L17 58L16 58L16 59L17 59L17 61L19 61L19 59L17 59L17 58L18 58L18 57L19 57L19 58L20 58L20 57L19 57L19 56L20 56L20 55L19 55L19 54L20 54L20 53L22 53L22 52L21 52L21 51L22 51L22 50L23 50L23 51L24 51L24 52L26 52L26 51L24 51L24 50L27 50L27 49L26 49L26 48L25 48L25 47L26 47L26 46L28 46L28 45L26 45L26 44L24 44L24 42L25 42L25 41L26 41L26 43L27 43L27 44L28 44L28 43L30 43L30 44L29 44L29 45L30 45L30 46L29 46L29 47L31 47L31 48L30 48L30 49L31 49L31 50L30 50L30 51L29 51L29 50L28 50L28 51L27 51L27 52L28 52L28 53L29 53L29 52L30 52L30 51L32 51L32 53L33 53L33 54L35 54L35 55L37 55L37 52L36 52L36 50L37 50L37 51L38 51L38 53L39 53L39 54L38 54L38 55L39 55L39 56L41 56L41 58L44 58L44 56L45 56L45 55L44 55L44 54L43 54L43 53L44 53L44 52L45 52L45 54L46 54L46 56L47 56L47 55L51 55L51 54L49 54L49 53L50 53L50 51L51 51L51 53L52 53L52 52L53 52L53 51L54 51L54 52L56 52L56 51L54 51L54 50L55 50L55 49L54 49L54 50L53 50L53 51L52 51L52 48L53 48L53 47L52 47L52 48L51 48L51 50L50 50L50 51L49 51L49 52L48 52L48 50L49 50L49 48L48 48L48 50L46 50L46 51L47 51L47 54L46 54L46 52L45 52L45 51L44 51L44 52L43 52L43 51L42 51L42 50L44 50L44 48L45 48L45 47L46 47L46 49L47 49L47 46L45 46L45 45L42 45L42 46L43 46L43 47L42 47L42 50L41 50L41 51L40 51L40 48L41 48L41 47L40 47L40 46L41 46L41 45L39 45L39 44L38 44L38 45L39 45L39 46L37 46L37 44L34 44L34 43L36 43L36 42L38 42L38 43L40 43L40 44L41 44L41 43L40 43L40 42L38 42L38 40L41 40L41 42L44 42L44 40L45 40L45 38L46 38L46 39L47 39L47 38L48 38L48 37L49 37L49 36L48 36L48 37L47 37L47 38L46 38L46 37L45 37L45 38L44 38L44 36L46 36L46 35L47 35L47 34L43 34L43 31L44 31L44 32L45 32L45 33L46 33L46 32L45 32L45 31L47 31L47 33L49 33L49 32L48 32L48 31L49 31L49 30L50 30L50 31L51 31L51 30L50 30L50 29L49 29L49 28L48 28L48 29L49 29L49 30L48 30L48 31L47 31L47 30L44 30L44 28L43 28L43 27L42 27L42 26L43 26L43 25L41 25L41 27L40 27L40 28L41 28L41 29L42 29L42 30L43 30L43 31L39 31L39 30L40 30L40 29L39 29L39 30L38 30L38 31L39 31L39 32L38 32L38 33L37 33L37 35L39 35L39 36L38 36L38 37L39 37L39 38L37 38L37 36L36 36L36 34L35 34L35 33L36 33L36 32L37 32L37 28L39 28L39 26L40 26L40 25L39 25L39 24L41 24L41 23L42 23L42 24L43 24L43 23L44 23L44 24L45 24L45 23L44 23L44 20L45 20L45 22L46 22L46 21L47 21L47 20L48 20L48 21L49 21L49 20L48 20L48 19L47 19L47 18L46 18L46 19L47 19L47 20L45 20L45 19L44 19L44 20L43 20L43 21L42 21L42 18L43 18L43 17L42 17L42 18L41 18L41 17L40 17L40 16ZM6 17L6 18L8 18L8 17ZM44 17L44 18L45 18L45 17ZM39 18L39 19L38 19L38 21L37 21L37 23L38 23L38 24L39 24L39 23L40 23L40 21L41 21L41 20L40 20L40 18ZM24 19L24 20L26 20L26 19ZM30 19L30 20L31 20L31 21L32 21L32 22L28 22L28 25L29 25L29 24L32 24L32 22L34 22L34 21L32 21L32 20L31 20L31 19ZM20 20L20 21L22 21L22 20ZM9 21L9 22L7 22L7 23L6 23L6 24L7 24L7 23L9 23L9 22L10 22L10 21ZM15 21L15 22L14 22L14 23L15 23L15 24L14 24L14 25L19 25L19 24L16 24L16 23L15 23L15 22L16 22L16 21ZM24 21L24 22L25 22L25 25L22 25L22 24L20 24L20 25L21 25L21 26L20 26L20 27L19 27L19 26L18 26L18 28L17 28L17 29L19 29L19 28L21 28L21 27L22 27L22 26L25 26L25 27L26 27L26 26L27 26L27 25L26 25L26 24L27 24L27 22L26 22L26 21ZM64 21L64 22L65 22L65 21ZM20 22L20 23L21 23L21 22ZM38 22L38 23L39 23L39 22ZM48 22L48 23L51 23L51 22ZM64 23L64 26L65 26L65 23ZM25 25L25 26L26 26L26 25ZM38 25L38 26L39 26L39 25ZM50 25L50 26L51 26L51 25ZM58 26L58 28L56 28L56 29L59 29L59 26ZM60 28L60 29L61 29L61 28ZM27 29L27 30L28 30L28 29ZM64 29L64 30L65 30L65 29ZM35 30L35 32L36 32L36 30ZM5 31L5 34L8 34L8 31ZM22 31L22 32L24 32L24 31ZM27 31L27 32L26 32L26 33L25 33L25 34L26 34L26 33L27 33L27 32L28 32L28 31ZM29 31L29 32L30 32L30 31ZM31 31L31 34L34 34L34 31ZM52 31L52 32L53 32L53 31ZM57 31L57 34L60 34L60 31ZM64 31L64 32L65 32L65 31ZM6 32L6 33L7 33L7 32ZM32 32L32 33L33 33L33 32ZM40 32L40 35L41 35L41 36L39 36L39 37L40 37L40 38L39 38L39 39L41 39L41 40L42 40L42 41L43 41L43 40L44 40L44 38L42 38L42 37L43 37L43 36L44 36L44 35L43 35L43 34L42 34L42 33L41 33L41 32ZM58 32L58 33L59 33L59 32ZM28 33L28 34L27 34L27 35L28 35L28 34L29 34L29 36L27 36L27 37L25 37L25 36L26 36L26 35L25 35L25 36L24 36L24 37L22 37L22 36L21 36L21 37L22 37L22 39L23 39L23 40L22 40L22 41L20 41L20 42L19 42L19 41L18 41L18 42L19 42L19 43L20 43L20 42L22 42L22 41L25 41L25 40L24 40L24 39L25 39L25 38L28 38L28 39L26 39L26 41L27 41L27 43L28 43L28 42L30 42L30 43L31 43L31 40L33 40L33 41L32 41L32 44L31 44L31 45L34 45L34 46L33 46L33 47L35 47L35 48L34 48L34 49L36 49L36 45L34 45L34 44L33 44L33 43L34 43L34 42L33 42L33 41L34 41L34 40L33 40L33 39L32 39L32 38L33 38L33 37L34 37L34 39L35 39L35 42L36 42L36 40L37 40L37 39L36 39L36 36L35 36L35 37L34 37L34 36L33 36L33 35L32 35L32 36L33 36L33 37L32 37L32 38L31 38L31 40L29 40L29 38L30 38L30 37L29 37L29 36L30 36L30 34L29 34L29 33ZM38 33L38 34L39 34L39 33ZM64 33L64 34L65 34L65 33ZM0 34L0 36L1 36L1 34ZM17 34L17 35L18 35L18 34ZM41 34L41 35L42 35L42 34ZM6 35L6 36L7 36L7 35ZM8 35L8 36L9 36L9 37L10 37L10 36L9 36L9 35ZM59 35L59 37L61 37L61 36L60 36L60 35ZM62 35L62 36L63 36L63 35ZM15 37L15 38L14 38L14 39L15 39L15 40L17 40L17 39L18 39L18 37ZM24 37L24 38L25 38L25 37ZM54 37L54 38L55 38L55 37ZM6 38L6 39L7 39L7 38ZM8 39L8 40L9 40L9 39ZM42 39L42 40L43 40L43 39ZM61 39L61 40L62 40L62 41L63 41L63 42L65 42L65 41L63 41L63 40L64 40L64 39L63 39L63 40L62 40L62 39ZM2 40L2 41L1 41L1 43L3 43L3 40ZM28 40L28 41L29 41L29 40ZM58 40L58 41L59 41L59 40ZM12 42L12 44L13 44L13 42ZM42 43L42 44L43 44L43 43ZM60 44L60 45L61 45L61 46L62 46L62 45L61 45L61 44ZM12 45L12 48L11 48L11 47L10 47L10 48L11 48L11 49L10 49L10 50L11 50L11 51L12 51L12 50L11 50L11 49L12 49L12 48L13 48L13 46L14 46L14 45ZM15 45L15 46L16 46L16 45ZM23 45L23 46L24 46L24 45ZM25 45L25 46L26 46L26 45ZM31 46L31 47L32 47L32 46ZM44 46L44 47L43 47L43 48L44 48L44 47L45 47L45 46ZM14 47L14 49L15 49L15 48L16 48L16 49L17 49L17 48L16 48L16 47ZM27 47L27 48L28 48L28 49L29 49L29 48L28 48L28 47ZM39 47L39 48L38 48L38 51L39 51L39 53L41 53L41 54L40 54L40 55L41 55L41 56L42 56L42 55L43 55L43 56L44 56L44 55L43 55L43 54L42 54L42 53L43 53L43 52L42 52L42 51L41 51L41 52L40 52L40 51L39 51L39 48L40 48L40 47ZM3 48L3 49L1 49L1 50L3 50L3 51L4 51L4 48ZM24 48L24 49L25 49L25 48ZM6 49L6 50L5 50L5 51L6 51L6 52L5 52L5 53L6 53L6 52L7 52L7 51L8 51L8 50L7 50L7 49ZM20 49L20 50L19 50L19 51L21 51L21 49ZM32 49L32 51L33 51L33 49ZM6 50L6 51L7 51L7 50ZM34 50L34 51L35 51L35 50ZM16 51L16 52L17 52L17 53L18 53L18 52L17 52L17 51ZM3 52L3 53L4 53L4 52ZM19 52L19 53L20 53L20 52ZM34 52L34 53L36 53L36 52ZM29 55L29 56L30 56L30 55ZM22 56L22 57L23 57L23 56ZM55 56L55 57L56 57L56 56ZM61 56L61 57L62 57L62 56ZM63 56L63 57L64 57L64 56ZM31 57L31 60L34 60L34 57ZM39 57L39 58L40 58L40 57ZM57 57L57 60L60 60L60 57ZM11 58L11 59L12 59L12 58ZM32 58L32 59L33 59L33 58ZM54 58L54 59L56 59L56 58ZM58 58L58 59L59 59L59 58ZM28 59L28 61L27 61L27 60L26 60L26 61L27 61L27 62L28 62L28 61L29 61L29 60L30 60L30 59ZM43 59L43 60L45 60L45 59ZM55 61L55 62L53 62L53 63L55 63L55 62L56 62L56 63L57 63L57 64L60 64L60 63L59 63L59 62L61 62L61 64L63 64L63 63L62 63L62 62L63 62L63 61L58 61L58 63L57 63L57 62L56 62L56 61ZM21 62L21 63L22 63L22 62ZM39 62L39 64L40 64L40 62ZM11 63L11 64L12 64L12 63ZM36 63L36 64L37 64L37 63ZM48 64L48 65L49 65L49 64ZM0 0L0 7L7 7L7 0ZM1 1L1 6L6 6L6 1ZM2 2L2 5L5 5L5 2ZM58 0L58 7L65 7L65 0ZM59 1L59 6L64 6L64 1ZM60 2L60 5L63 5L63 2ZM0 58L0 65L7 65L7 58ZM1 59L1 64L6 64L6 59ZM2 60L2 63L5 63L5 60Z" fill="#000000"/></g></g></svg>
