<?xml version="1.0" encoding="UTF-8"?>
<svg xmlns="http://www.w3.org/2000/svg" version="1.1" width="300" height="300" viewBox="0 0 300 300"><rect x="0" y="0" width="300" height="300" fill="#ffffff"/><g transform="scale(4.615)"><g transform="translate(0,0)"><path fill-rule="evenodd" d="M9 0L9 1L8 1L8 2L12 2L12 3L13 3L13 4L12 4L12 7L13 7L13 8L12 8L12 9L11 9L11 8L10 8L10 9L9 9L9 8L6 8L6 9L7 9L7 10L6 10L6 11L7 11L7 10L8 10L8 13L9 13L9 14L8 14L8 15L9 15L9 14L10 14L10 13L9 13L9 10L10 10L10 11L11 11L11 12L12 12L12 11L13 11L13 10L14 10L14 9L15 9L15 11L14 11L14 13L12 13L12 14L11 14L11 16L12 16L12 14L14 14L14 15L15 15L15 16L17 16L17 15L18 15L18 17L19 17L19 20L20 20L20 21L18 21L18 20L17 20L17 19L18 19L18 18L17 18L17 19L16 19L16 20L15 20L15 19L14 19L14 18L16 18L16 17L14 17L14 16L13 16L13 17L12 17L12 18L13 18L13 19L11 19L11 18L10 18L10 16L4 16L4 17L3 17L3 19L2 19L2 20L1 20L1 18L2 18L2 17L0 17L0 21L2 21L2 20L3 20L3 22L1 22L1 23L2 23L2 24L3 24L3 25L2 25L2 26L1 26L1 25L0 25L0 27L1 27L1 28L2 28L2 27L3 27L3 25L4 25L4 27L5 27L5 28L6 28L6 29L7 29L7 30L5 30L5 29L1 29L1 31L0 31L0 33L2 33L2 34L3 34L3 33L4 33L4 35L3 35L3 36L1 36L1 34L0 34L0 37L4 37L4 36L6 36L6 37L8 37L8 38L9 38L9 39L8 39L8 40L9 40L9 41L12 41L12 42L13 42L13 43L11 43L11 44L13 44L13 45L12 45L12 46L11 46L11 45L10 45L10 47L9 47L9 46L8 46L8 47L9 47L9 50L8 50L8 49L7 49L7 48L6 48L6 49L7 49L7 50L5 50L5 51L4 51L4 50L2 50L2 49L4 49L4 48L3 48L3 46L4 46L4 43L3 43L3 44L1 44L1 42L0 42L0 45L1 45L1 46L2 46L2 48L1 48L1 50L0 50L0 54L1 54L1 53L2 53L2 52L3 52L3 51L4 51L4 52L5 52L5 55L7 55L7 56L6 56L6 57L8 57L8 59L9 59L9 58L10 58L10 61L11 61L11 65L14 65L14 64L16 64L16 63L15 63L15 62L16 62L16 61L15 61L15 62L12 62L12 61L11 61L11 59L12 59L12 60L13 60L13 61L14 61L14 60L16 60L16 59L15 59L15 57L18 57L18 59L19 59L19 58L20 58L20 59L21 59L21 58L27 58L27 60L28 60L28 59L29 59L29 58L30 58L30 60L29 60L29 61L32 61L32 62L30 62L30 65L33 65L33 64L34 64L34 65L35 65L35 64L36 64L36 65L37 65L37 64L36 64L36 63L37 63L37 62L38 62L38 63L39 63L39 62L40 62L40 64L41 64L41 63L42 63L42 64L45 64L45 65L47 65L47 64L48 64L48 65L49 65L49 64L48 64L48 63L49 63L49 62L50 62L50 63L51 63L51 64L50 64L50 65L52 65L52 64L53 64L53 65L57 65L57 63L58 63L58 62L57 62L57 61L61 61L61 60L62 60L62 61L63 61L63 62L62 62L62 63L63 63L63 64L62 64L62 65L63 65L63 64L64 64L64 60L65 60L65 59L63 59L63 60L62 60L62 59L61 59L61 55L60 55L60 56L59 56L59 55L56 55L56 54L57 54L57 52L58 52L58 54L65 54L65 52L64 52L64 51L63 51L63 50L65 50L65 49L64 49L64 48L62 48L62 49L63 49L63 50L62 50L62 51L61 51L61 49L60 49L60 47L61 47L61 46L62 46L62 45L63 45L63 44L62 44L62 43L63 43L63 42L62 42L62 43L61 43L61 41L60 41L60 40L61 40L61 39L60 39L60 38L61 38L61 37L63 37L63 38L62 38L62 39L63 39L63 40L62 40L62 41L63 41L63 40L64 40L64 39L63 39L63 38L65 38L65 37L64 37L64 36L62 36L62 35L63 35L63 33L64 33L64 34L65 34L65 33L64 33L64 32L65 32L65 31L63 31L63 30L62 30L62 31L63 31L63 32L61 32L61 28L59 28L59 26L57 26L57 27L56 27L56 25L57 25L57 24L56 24L56 21L57 21L57 20L55 20L55 19L54 19L54 20L55 20L55 21L54 21L54 22L53 22L53 21L51 21L51 22L49 22L49 20L47 20L47 21L48 21L48 22L46 22L46 19L49 19L49 18L50 18L50 19L52 19L52 20L53 20L53 19L52 19L52 17L51 17L51 18L50 18L50 16L51 16L51 14L50 14L50 11L52 11L52 12L51 12L51 13L52 13L52 12L53 12L53 14L52 14L52 16L53 16L53 17L54 17L54 18L56 18L56 19L57 19L57 18L56 18L56 15L55 15L55 16L53 16L53 15L54 15L54 14L56 14L56 13L57 13L57 12L56 12L56 11L54 11L54 10L56 10L56 9L58 9L58 8L55 8L55 9L54 9L54 7L55 7L55 5L54 5L54 4L56 4L56 5L57 5L57 4L56 4L56 3L57 3L57 1L56 1L56 0L55 0L55 1L56 1L56 3L55 3L55 2L54 2L54 4L53 4L53 5L54 5L54 7L53 7L53 6L52 6L52 4L51 4L51 3L53 3L53 2L52 2L52 1L54 1L54 0L51 0L51 1L50 1L50 0L48 0L48 2L49 2L49 1L50 1L50 2L51 2L51 3L50 3L50 4L51 4L51 5L49 5L49 3L48 3L48 4L47 4L47 3L46 3L46 2L47 2L47 1L46 1L46 0L45 0L45 1L43 1L43 0L42 0L42 1L43 1L43 3L41 3L41 2L40 2L40 1L38 1L38 0L36 0L36 2L35 2L35 1L34 1L34 0L33 0L33 1L34 1L34 2L33 2L33 3L34 3L34 2L35 2L35 4L32 4L32 2L30 2L30 1L32 1L32 0L29 0L29 1L27 1L27 0L26 0L26 1L27 1L27 6L26 6L26 4L24 4L24 3L23 3L23 5L22 5L22 7L23 7L23 8L24 8L24 7L25 7L25 6L26 6L26 7L27 7L27 8L28 8L28 9L29 9L29 8L30 8L30 9L31 9L31 11L30 11L30 12L29 12L29 13L28 13L28 11L29 11L29 10L28 10L28 11L27 11L27 9L26 9L26 8L25 8L25 9L21 9L21 8L20 8L20 7L21 7L21 6L20 6L20 7L19 7L19 6L18 6L18 5L19 5L19 2L22 2L22 1L23 1L23 2L24 2L24 1L25 1L25 0L22 0L22 1L20 1L20 0L19 0L19 1L18 1L18 0L17 0L17 1L18 1L18 2L16 2L16 4L15 4L15 2L14 2L14 3L13 3L13 1L16 1L16 0L13 0L13 1L12 1L12 0L11 0L11 1L10 1L10 0ZM37 1L37 2L36 2L36 3L37 3L37 4L35 4L35 8L38 8L38 10L37 10L37 11L35 11L35 9L32 9L32 10L33 10L33 12L30 12L30 14L31 14L31 16L30 16L30 17L28 17L28 19L27 19L27 20L28 20L28 19L29 19L29 21L28 21L28 22L27 22L27 21L25 21L25 20L26 20L26 19L25 19L25 18L23 18L23 21L22 21L22 20L21 20L21 19L22 19L22 18L21 18L21 17L20 17L20 16L19 16L19 17L20 17L20 20L21 20L21 21L20 21L20 22L21 22L21 24L22 24L22 25L25 25L25 26L23 26L23 27L24 27L24 28L26 28L26 29L28 29L28 30L26 30L26 31L25 31L25 32L24 32L24 31L23 31L23 30L24 30L24 29L23 29L23 28L22 28L22 26L21 26L21 25L20 25L20 27L19 27L19 25L18 25L18 26L17 26L17 25L15 25L15 24L16 24L16 23L15 23L15 22L16 22L16 21L17 21L17 22L18 22L18 24L19 24L19 22L18 22L18 21L17 21L17 20L16 20L16 21L15 21L15 22L14 22L14 24L12 24L12 20L11 20L11 22L10 22L10 23L11 23L11 24L10 24L10 25L9 25L9 21L10 21L10 19L9 19L9 20L8 20L8 18L9 18L9 17L8 17L8 18L7 18L7 17L5 17L5 19L4 19L4 20L8 20L8 23L6 23L6 22L7 22L7 21L6 21L6 22L5 22L5 21L4 21L4 22L3 22L3 24L4 24L4 25L6 25L6 26L7 26L7 27L6 27L6 28L7 28L7 29L8 29L8 30L9 30L9 34L10 34L10 33L12 33L12 32L14 32L14 31L13 31L13 29L14 29L14 30L15 30L15 31L16 31L16 32L17 32L17 33L14 33L14 34L15 34L15 35L14 35L14 37L12 37L12 35L13 35L13 34L11 34L11 35L9 35L9 36L8 36L8 35L6 35L6 36L8 36L8 37L9 37L9 38L10 38L10 37L9 37L9 36L11 36L11 38L13 38L13 39L14 39L14 38L16 38L16 40L17 40L17 41L15 41L15 42L16 42L16 43L13 43L13 44L16 44L16 45L15 45L15 46L12 46L12 48L11 48L11 49L13 49L13 51L12 51L12 50L10 50L10 53L11 53L11 54L12 54L12 53L13 53L13 54L14 54L14 51L16 51L16 52L15 52L15 55L16 55L16 56L18 56L18 53L20 53L20 54L19 54L19 55L20 55L20 56L19 56L19 57L20 57L20 58L21 58L21 53L22 53L22 54L23 54L23 53L25 53L25 54L26 54L26 57L27 57L27 58L29 58L29 57L27 57L27 55L28 55L28 56L29 56L29 55L28 55L28 54L30 54L30 53L32 53L32 54L31 54L31 56L33 56L33 55L35 55L35 53L36 53L36 52L37 52L37 55L36 55L36 56L37 56L37 57L35 57L35 59L36 59L36 60L37 60L37 61L34 61L34 64L35 64L35 63L36 63L36 62L37 62L37 61L38 61L38 62L39 62L39 59L40 59L40 57L43 57L43 56L42 56L42 55L43 55L43 54L44 54L44 55L46 55L46 56L47 56L47 57L45 57L45 56L44 56L44 57L45 57L45 58L43 58L43 59L45 59L45 58L47 58L47 59L46 59L46 60L42 60L42 59L41 59L41 60L40 60L40 62L41 62L41 61L44 61L44 62L42 62L42 63L45 63L45 64L46 64L46 62L47 62L47 63L48 63L48 62L47 62L47 61L48 61L48 60L50 60L50 62L51 62L51 63L52 63L52 61L53 61L53 64L54 64L54 63L55 63L55 64L56 64L56 63L57 63L57 62L56 62L56 63L55 63L55 62L54 62L54 61L55 61L55 60L54 60L54 59L56 59L56 58L53 58L53 59L52 59L52 58L51 58L51 57L53 57L53 56L51 56L51 55L48 55L48 56L47 56L47 55L46 55L46 54L47 54L47 52L49 52L49 51L50 51L50 53L49 53L49 54L51 54L51 52L52 52L52 53L55 53L55 54L56 54L56 52L54 52L54 51L55 51L55 50L54 50L54 49L56 49L56 48L55 48L55 47L56 47L56 45L57 45L57 47L60 47L60 45L61 45L61 44L58 44L58 43L59 43L59 42L57 42L57 41L58 41L58 40L55 40L55 39L59 39L59 40L60 40L60 39L59 39L59 36L60 36L60 37L61 37L61 35L59 35L59 36L58 36L58 35L57 35L57 37L58 37L58 38L56 38L56 36L55 36L55 34L56 34L56 32L54 32L54 31L55 31L55 30L54 30L54 31L53 31L53 29L54 29L54 28L52 28L52 30L51 30L51 29L50 29L50 28L49 28L49 27L48 27L48 26L51 26L51 25L50 25L50 24L52 24L52 25L54 25L54 23L55 23L55 22L54 22L54 23L53 23L53 22L52 22L52 23L48 23L48 24L47 24L47 23L46 23L46 22L45 22L45 20L44 20L44 21L43 21L43 22L42 22L42 21L41 21L41 20L42 20L42 19L46 19L46 18L47 18L47 17L48 17L48 16L50 16L50 14L49 14L49 13L48 13L48 12L49 12L49 11L48 11L48 10L47 10L47 9L48 9L48 8L49 8L49 10L51 10L51 9L50 9L50 8L51 8L51 7L52 7L52 6L51 6L51 7L50 7L50 6L49 6L49 7L48 7L48 6L47 6L47 7L46 7L46 5L47 5L47 4L46 4L46 5L45 5L45 3L44 3L44 6L43 6L43 7L42 7L42 5L41 5L41 3L39 3L39 2L38 2L38 1ZM45 1L45 2L46 2L46 1ZM25 2L25 3L26 3L26 2ZM28 2L28 3L30 3L30 2ZM8 3L8 4L9 4L9 5L8 5L8 7L9 7L9 5L10 5L10 7L11 7L11 4L9 4L9 3ZM17 3L17 4L18 4L18 3ZM20 3L20 4L22 4L22 3ZM28 4L28 5L30 5L30 4ZM37 4L37 5L36 5L36 7L37 7L37 5L38 5L38 8L41 8L41 10L43 10L43 11L42 11L42 12L41 12L41 11L40 11L40 10L38 10L38 12L35 12L35 13L37 13L37 14L36 14L36 15L35 15L35 14L33 14L33 13L32 13L32 14L33 14L33 15L32 15L32 16L31 16L31 17L30 17L30 18L31 18L31 19L30 19L30 20L31 20L31 21L32 21L32 22L29 22L29 23L28 23L28 25L29 25L29 27L30 27L30 28L29 28L29 30L30 30L30 31L29 31L29 32L28 32L28 31L27 31L27 33L26 33L26 32L25 32L25 33L24 33L24 32L23 32L23 31L22 31L22 30L23 30L23 29L21 29L21 32L18 32L18 33L17 33L17 34L18 34L18 35L15 35L15 37L17 37L17 38L18 38L18 39L17 39L17 40L18 40L18 41L19 41L19 42L18 42L18 43L21 43L21 42L20 42L20 41L22 41L22 43L23 43L23 44L24 44L24 45L19 45L19 44L17 44L17 43L16 43L16 44L17 44L17 45L16 45L16 46L15 46L15 47L13 47L13 48L15 48L15 49L16 49L16 48L17 48L17 46L18 46L18 45L19 45L19 46L20 46L20 47L19 47L19 48L18 48L18 49L19 49L19 52L20 52L20 53L21 53L21 52L22 52L22 53L23 53L23 51L24 51L24 52L25 52L25 53L29 53L29 52L31 52L31 51L32 51L32 49L34 49L34 48L36 48L36 49L35 49L35 51L37 51L37 48L36 48L36 47L38 47L38 49L39 49L39 50L38 50L38 53L39 53L39 54L38 54L38 57L39 57L39 56L41 56L41 55L40 55L40 53L39 53L39 52L41 52L41 51L39 51L39 50L40 50L40 49L39 49L39 48L41 48L41 50L43 50L43 48L45 48L45 51L44 51L44 52L43 52L43 51L42 51L42 52L43 52L43 53L42 53L42 54L43 54L43 53L44 53L44 52L46 52L46 51L47 51L47 50L46 50L46 47L47 47L47 46L48 46L48 47L49 47L49 48L48 48L48 49L50 49L50 47L51 47L51 50L50 50L50 51L51 51L51 50L52 50L52 52L53 52L53 51L54 51L54 50L52 50L52 48L53 48L53 47L54 47L54 46L55 46L55 44L57 44L57 45L58 45L58 44L57 44L57 43L53 43L53 45L51 45L51 46L50 46L50 45L49 45L49 44L50 44L50 43L51 43L51 44L52 44L52 43L51 43L51 42L48 42L48 43L47 43L47 42L46 42L46 40L48 40L48 41L52 41L52 40L53 40L53 37L52 37L52 36L53 36L53 35L54 35L54 34L55 34L55 33L54 33L54 34L53 34L53 33L51 33L51 32L48 32L48 31L49 31L49 30L50 30L50 31L51 31L51 30L50 30L50 29L49 29L49 28L48 28L48 27L47 27L47 26L48 26L48 25L49 25L49 24L48 24L48 25L47 25L47 24L46 24L46 23L44 23L44 22L43 22L43 24L42 24L42 22L41 22L41 21L39 21L39 22L38 22L38 23L37 23L37 24L36 24L36 22L37 22L37 21L38 21L38 19L39 19L39 20L41 20L41 19L42 19L42 18L43 18L43 17L41 17L41 19L39 19L39 18L40 18L40 17L39 17L39 18L38 18L38 19L37 19L37 16L41 16L41 14L38 14L38 12L39 12L39 11L40 11L40 12L41 12L41 13L42 13L42 14L43 14L43 15L42 15L42 16L43 16L43 15L44 15L44 16L45 16L45 17L44 17L44 18L46 18L46 15L47 15L47 16L48 16L48 15L49 15L49 14L48 14L48 13L47 13L47 12L48 12L48 11L47 11L47 10L46 10L46 9L47 9L47 8L48 8L48 7L47 7L47 8L46 8L46 7L45 7L45 6L44 6L44 8L43 8L43 9L42 9L42 7L41 7L41 6L40 6L40 7L39 7L39 5L40 5L40 4L39 4L39 5L38 5L38 4ZM15 5L15 9L16 9L16 10L17 10L17 11L16 11L16 12L17 12L17 13L18 13L18 14L19 14L19 15L20 15L20 14L19 14L19 13L21 13L21 14L23 14L23 15L24 15L24 16L25 16L25 15L26 15L26 17L27 17L27 16L28 16L28 15L26 15L26 13L27 13L27 14L28 14L28 13L27 13L27 11L25 11L25 13L24 13L24 11L23 11L23 10L21 10L21 9L20 9L20 8L19 8L19 9L17 9L17 8L18 8L18 6L17 6L17 8L16 8L16 5ZM23 5L23 7L24 7L24 6L25 6L25 5ZM31 5L31 8L34 8L34 5ZM13 6L13 7L14 7L14 6ZM27 6L27 7L28 7L28 8L29 8L29 7L30 7L30 6L29 6L29 7L28 7L28 6ZM32 6L32 7L33 7L33 6ZM56 6L56 7L57 7L57 6ZM0 8L0 12L1 12L1 13L0 13L0 16L2 16L2 14L3 14L3 15L7 15L7 14L5 14L5 13L7 13L7 12L5 12L5 11L4 11L4 10L2 10L2 9L5 9L5 8ZM44 8L44 9L43 9L43 10L44 10L44 13L43 13L43 12L42 12L42 13L43 13L43 14L44 14L44 13L45 13L45 8ZM52 8L52 9L53 9L53 8ZM59 8L59 10L58 10L58 13L59 13L59 14L57 14L57 16L58 16L58 17L59 17L59 18L58 18L58 19L59 19L59 21L61 21L61 22L60 22L60 23L59 23L59 22L57 22L57 23L59 23L59 25L61 25L61 26L60 26L60 27L61 27L61 26L63 26L63 25L64 25L64 26L65 26L65 25L64 25L64 24L62 24L62 25L61 25L61 24L60 24L60 23L64 23L64 22L65 22L65 21L64 21L64 20L65 20L65 19L64 19L64 18L65 18L65 15L64 15L64 14L65 14L65 13L63 13L63 12L64 12L64 11L63 11L63 10L65 10L65 9L64 9L64 8L63 8L63 10L62 10L62 11L63 11L63 12L62 12L62 13L63 13L63 15L64 15L64 16L60 16L60 14L61 14L61 12L59 12L59 10L60 10L60 11L61 11L61 9L62 9L62 8L61 8L61 9L60 9L60 8ZM8 9L8 10L9 10L9 9ZM12 9L12 10L11 10L11 11L12 11L12 10L13 10L13 9ZM19 9L19 10L18 10L18 11L19 11L19 10L20 10L20 11L21 11L21 12L22 12L22 11L21 11L21 10L20 10L20 9ZM25 9L25 10L26 10L26 9ZM1 10L1 12L2 12L2 10ZM3 11L3 12L4 12L4 13L3 13L3 14L4 14L4 13L5 13L5 12L4 12L4 11ZM46 11L46 12L47 12L47 11ZM53 11L53 12L54 12L54 11ZM18 12L18 13L19 13L19 12ZM55 12L55 13L56 13L56 12ZM1 13L1 14L2 14L2 13ZM14 13L14 14L15 14L15 15L17 15L17 14L15 14L15 13ZM23 13L23 14L24 14L24 13ZM46 13L46 14L47 14L47 15L48 15L48 14L47 14L47 13ZM37 14L37 15L36 15L36 16L35 16L35 15L33 15L33 16L32 16L32 18L35 18L35 19L34 19L34 22L36 22L36 20L37 20L37 19L36 19L36 16L37 16L37 15L38 15L38 14ZM21 15L21 16L22 16L22 17L23 17L23 16L22 16L22 15ZM58 15L58 16L59 16L59 15ZM33 16L33 17L34 17L34 16ZM13 17L13 18L14 18L14 17ZM61 17L61 19L62 19L62 20L61 20L61 21L62 21L62 20L64 20L64 19L62 19L62 18L63 18L63 17ZM6 18L6 19L7 19L7 18ZM13 19L13 20L14 20L14 19ZM31 19L31 20L32 20L32 21L33 21L33 20L32 20L32 19ZM21 21L21 22L22 22L22 21ZM23 21L23 24L25 24L25 25L26 25L26 26L27 26L27 25L26 25L26 24L27 24L27 22L25 22L25 21ZM4 22L4 23L5 23L5 24L6 24L6 25L7 25L7 24L6 24L6 23L5 23L5 22ZM32 22L32 23L33 23L33 24L32 24L32 25L31 25L31 24L29 24L29 25L31 25L31 28L30 28L30 30L35 30L35 31L36 31L36 32L35 32L35 38L34 38L34 36L33 36L33 37L32 37L32 36L31 36L31 37L32 37L32 38L33 38L33 39L32 39L32 40L33 40L33 41L32 41L32 44L31 44L31 47L30 47L30 49L32 49L32 48L33 48L33 47L36 47L36 45L34 45L34 43L35 43L35 44L37 44L37 45L38 45L38 46L39 46L39 45L41 45L41 46L40 46L40 47L46 47L46 46L47 46L47 45L48 45L48 44L49 44L49 43L48 43L48 44L47 44L47 43L46 43L46 44L47 44L47 45L45 45L45 44L44 44L44 43L45 43L45 40L46 40L46 38L48 38L48 40L51 40L51 39L49 39L49 38L51 38L51 37L50 37L50 36L51 36L51 35L50 35L50 34L51 34L51 33L50 33L50 34L49 34L49 33L48 33L48 32L47 32L47 31L48 31L48 30L49 30L49 29L48 29L48 28L46 28L46 27L45 27L45 26L41 26L41 24L37 24L37 25L34 25L34 23L33 23L33 22ZM39 22L39 23L40 23L40 22ZM52 23L52 24L53 24L53 23ZM44 24L44 25L45 25L45 24ZM8 25L8 27L9 27L9 28L8 28L8 29L9 29L9 30L10 30L10 29L13 29L13 28L15 28L15 27L16 27L16 28L17 28L17 27L16 27L16 26L15 26L15 27L14 27L14 26L12 26L12 28L10 28L10 27L9 27L9 25ZM32 25L32 26L33 26L33 27L32 27L32 28L33 28L33 29L35 29L35 30L36 30L36 31L37 31L37 30L38 30L38 31L39 31L39 30L40 30L40 29L39 29L39 30L38 30L38 27L39 27L39 26L38 26L38 27L37 27L37 26L36 26L36 27L35 27L35 26L33 26L33 25ZM46 25L46 26L47 26L47 25ZM40 26L40 28L41 28L41 26ZM52 26L52 27L55 27L55 28L56 28L56 27L55 27L55 26ZM26 27L26 28L27 28L27 27ZM34 27L34 28L35 28L35 27ZM36 27L36 28L37 28L37 27ZM42 27L42 28L43 28L43 29L42 29L42 30L41 30L41 31L40 31L40 32L41 32L41 33L40 33L40 35L39 35L39 34L37 34L37 32L36 32L36 35L39 35L39 36L38 36L38 37L39 37L39 36L42 36L42 38L44 38L44 36L45 36L45 38L46 38L46 35L47 35L47 37L49 37L49 36L48 36L48 35L49 35L49 34L48 34L48 35L47 35L47 34L46 34L46 31L47 31L47 30L46 30L46 28L45 28L45 30L44 30L44 28L43 28L43 27ZM57 27L57 28L58 28L58 27ZM63 27L63 28L62 28L62 29L64 29L64 30L65 30L65 29L64 29L64 28L65 28L65 27ZM9 28L9 29L10 29L10 28ZM18 28L18 29L20 29L20 28ZM15 29L15 30L16 30L16 29ZM56 29L56 30L59 30L59 29ZM11 30L11 31L12 31L12 30ZM18 30L18 31L20 31L20 30ZM42 30L42 31L41 31L41 32L42 32L42 33L43 33L43 34L42 34L42 35L46 35L46 34L45 34L45 32L44 32L44 31L43 31L43 30ZM5 31L5 34L8 34L8 31ZM31 31L31 34L34 34L34 31ZM42 31L42 32L43 32L43 31ZM52 31L52 32L53 32L53 31ZM57 31L57 34L60 34L60 31ZM6 32L6 33L7 33L7 32ZM21 32L21 33L20 33L20 34L19 34L19 33L18 33L18 34L19 34L19 35L20 35L20 36L19 36L19 37L20 37L20 38L19 38L19 39L18 39L18 40L19 40L19 41L20 41L20 39L21 39L21 38L22 38L22 39L23 39L23 37L26 37L26 38L27 38L27 39L26 39L26 41L25 41L25 39L24 39L24 40L22 40L22 41L25 41L25 42L24 42L24 44L26 44L26 45L24 45L24 46L22 46L22 48L21 48L21 49L20 49L20 48L19 48L19 49L20 49L20 50L21 50L21 51L22 51L22 49L23 49L23 50L24 50L24 51L25 51L25 52L26 52L26 51L25 51L25 50L26 50L26 49L28 49L28 52L29 52L29 51L31 51L31 50L29 50L29 49L28 49L28 47L27 47L27 46L28 46L28 45L29 45L29 46L30 46L30 43L28 43L28 42L30 42L30 41L31 41L31 40L29 40L29 41L28 41L28 38L30 38L30 37L27 37L27 34L26 34L26 33L25 33L25 34L24 34L24 33L23 33L23 32ZM29 32L29 33L28 33L28 36L30 36L30 32ZM32 32L32 33L33 33L33 32ZM38 32L38 33L39 33L39 32ZM58 32L58 33L59 33L59 32ZM22 33L22 34L21 34L21 35L22 35L22 34L23 34L23 33ZM52 34L52 35L53 35L53 34ZM24 35L24 36L26 36L26 35ZM17 36L17 37L18 37L18 36ZM20 36L20 37L22 37L22 36ZM36 36L36 37L37 37L37 36ZM54 37L54 38L55 38L55 37ZM2 38L2 40L3 40L3 42L4 42L4 38ZM5 38L5 39L7 39L7 38ZM36 38L36 39L34 39L34 41L33 41L33 43L34 43L34 42L35 42L35 41L36 41L36 43L37 43L37 44L38 44L38 45L39 45L39 42L37 42L37 40L36 40L36 39L39 39L39 40L38 40L38 41L39 41L39 40L41 40L41 43L40 43L40 44L41 44L41 43L42 43L42 42L43 42L43 43L44 43L44 40L45 40L45 39L39 39L39 38ZM0 39L0 41L1 41L1 39ZM5 40L5 41L7 41L7 42L5 42L5 43L7 43L7 42L8 42L8 43L9 43L9 44L8 44L8 45L9 45L9 44L10 44L10 43L9 43L9 42L8 42L8 41L7 41L7 40ZM12 40L12 41L13 41L13 42L14 42L14 40ZM54 40L54 41L53 41L53 42L56 42L56 41L55 41L55 40ZM26 41L26 42L27 42L27 41ZM64 41L64 42L65 42L65 41ZM27 43L27 45L26 45L26 46L25 46L25 49L24 49L24 50L25 50L25 49L26 49L26 46L27 46L27 45L28 45L28 43ZM6 44L6 45L5 45L5 46L6 46L6 47L7 47L7 46L6 46L6 45L7 45L7 44ZM32 44L32 45L33 45L33 46L34 46L34 45L33 45L33 44ZM2 45L2 46L3 46L3 45ZM42 45L42 46L45 46L45 45ZM49 46L49 47L50 47L50 46ZM52 46L52 47L53 47L53 46ZM15 47L15 48L16 48L16 47ZM23 47L23 48L24 48L24 47ZM57 48L57 50L56 50L56 51L59 51L59 53L62 53L62 52L63 52L63 53L64 53L64 52L63 52L63 51L62 51L62 52L60 52L60 51L59 51L59 48ZM7 50L7 51L5 51L5 52L7 52L7 51L8 51L8 53L9 53L9 51L8 51L8 50ZM16 50L16 51L18 51L18 50ZM1 51L1 52L2 52L2 51ZM11 51L11 52L12 52L12 51ZM33 51L33 52L32 52L32 53L33 53L33 54L34 54L34 53L33 53L33 52L34 52L34 51ZM16 52L16 53L18 53L18 52ZM6 53L6 54L7 54L7 53ZM45 53L45 54L46 54L46 53ZM2 54L2 55L3 55L3 56L1 56L1 55L0 55L0 56L1 56L1 57L3 57L3 56L4 56L4 57L5 57L5 56L4 56L4 54ZM52 54L52 55L54 55L54 57L56 57L56 56L55 56L55 55L54 55L54 54ZM8 55L8 56L10 56L10 57L11 57L11 58L12 58L12 59L13 59L13 58L14 58L14 57L15 57L15 56L13 56L13 55ZM23 55L23 56L22 56L22 57L23 57L23 56L25 56L25 55ZM11 56L11 57L12 57L12 58L13 58L13 57L12 57L12 56ZM48 56L48 57L47 57L47 58L48 58L48 59L47 59L47 60L46 60L46 61L47 61L47 60L48 60L48 59L50 59L50 60L51 60L51 58L49 58L49 56ZM50 56L50 57L51 57L51 56ZM62 56L62 57L63 57L63 58L65 58L65 56ZM31 57L31 60L34 60L34 57ZM57 57L57 60L60 60L60 57ZM32 58L32 59L33 59L33 58ZM36 58L36 59L37 59L37 60L38 60L38 59L39 59L39 58L38 58L38 59L37 59L37 58ZM58 58L58 59L59 59L59 58ZM24 59L24 60L23 60L23 61L22 61L22 62L21 62L21 64L20 64L20 65L21 65L21 64L23 64L23 65L24 65L24 64L25 64L25 65L26 65L26 63L27 63L27 64L28 64L28 65L29 65L29 64L28 64L28 63L27 63L27 62L28 62L28 61L26 61L26 59ZM8 60L8 65L10 65L10 63L9 63L9 60ZM17 60L17 61L20 61L20 60ZM53 60L53 61L54 61L54 60ZM23 61L23 62L22 62L22 63L23 63L23 64L24 64L24 63L23 63L23 62L24 62L24 61ZM18 62L18 63L20 63L20 62ZM32 62L32 63L31 63L31 64L33 64L33 62ZM59 62L59 63L60 63L60 64L59 64L59 65L61 65L61 62ZM12 63L12 64L14 64L14 63ZM17 64L17 65L19 65L19 64ZM38 64L38 65L39 65L39 64ZM0 0L0 7L7 7L7 0ZM1 1L1 6L6 6L6 1ZM2 2L2 5L5 5L5 2ZM58 0L58 7L65 7L65 0ZM59 1L59 6L64 6L64 1ZM60 2L60 5L63 5L63 2ZM0 58L0 65L7 65L7 58ZM1 59L1 64L6 64L6 59ZM2 60L2 63L5 63L5 60Z" fill="#000000"/></g></g></svg>
