<?xml version="1.0" encoding="UTF-8"?>
<svg xmlns="http://www.w3.org/2000/svg" version="1.1" width="300" height="300" viewBox="0 0 300 300"><rect x="0" y="0" width="300" height="300" fill="#ffffff"/><g transform="scale(4.615)"><g transform="translate(0,0)"><path fill-rule="evenodd" d="M9 0L9 2L10 2L10 3L11 3L11 1L12 1L12 2L13 2L13 0L11 0L11 1L10 1L10 0ZM20 0L20 1L18 1L18 2L17 2L17 1L16 1L16 3L13 3L13 4L12 4L12 5L11 5L11 4L10 4L10 5L11 5L11 6L10 6L10 7L9 7L9 6L8 6L8 7L9 7L9 9L10 9L10 11L8 11L8 10L5 10L5 9L8 9L8 8L5 8L5 9L2 9L2 8L0 8L0 11L1 11L1 13L2 13L2 14L0 14L0 17L1 17L1 16L2 16L2 17L3 17L3 16L4 16L4 18L6 18L6 19L5 19L5 20L2 20L2 19L1 19L1 20L2 20L2 21L3 21L3 22L4 22L4 23L5 23L5 24L6 24L6 25L4 25L4 26L3 26L3 25L2 25L2 26L1 26L1 27L2 27L2 26L3 26L3 30L2 30L2 28L1 28L1 29L0 29L0 33L2 33L2 34L0 34L0 35L1 35L1 37L0 37L0 39L1 39L1 37L2 37L2 40L5 40L5 42L4 42L4 41L3 41L3 45L1 45L1 44L2 44L2 42L1 42L1 44L0 44L0 46L2 46L2 47L0 47L0 48L1 48L1 51L2 51L2 53L3 53L3 52L4 52L4 53L5 53L5 50L4 50L4 49L3 49L3 50L2 50L2 47L3 47L3 48L5 48L5 49L7 49L7 48L8 48L8 49L9 49L9 50L10 50L10 49L9 49L9 48L8 48L8 46L5 46L5 47L3 47L3 46L4 46L4 43L5 43L5 44L6 44L6 45L7 45L7 44L6 44L6 43L8 43L8 45L9 45L9 47L10 47L10 48L11 48L11 49L12 49L12 48L13 48L13 50L12 50L12 51L9 51L9 52L11 52L11 53L10 53L10 54L8 54L8 53L7 53L7 52L6 52L6 53L7 53L7 54L5 54L5 55L7 55L7 56L6 56L6 57L7 57L7 56L9 56L9 57L8 57L8 60L9 60L9 62L11 62L11 64L10 64L10 63L8 63L8 65L11 65L11 64L12 64L12 65L17 65L17 63L18 63L18 65L19 65L19 63L20 63L20 64L22 64L22 62L23 62L23 63L24 63L24 64L25 64L25 65L26 65L26 63L27 63L27 60L26 60L26 62L25 62L25 59L24 59L24 62L23 62L23 58L26 58L26 59L30 59L30 61L32 61L32 62L30 62L30 63L28 63L28 64L27 64L27 65L29 65L29 64L30 64L30 65L34 65L34 63L35 63L35 60L36 60L36 61L38 61L38 60L36 60L36 59L37 59L37 58L38 58L38 59L40 59L40 60L39 60L39 61L42 61L42 62L43 62L43 63L42 63L42 64L41 64L41 65L44 65L44 64L43 64L43 63L44 63L44 61L45 61L45 65L46 65L46 64L48 64L48 65L49 65L49 64L48 64L48 63L50 63L50 64L51 64L51 65L52 65L52 64L51 64L51 62L52 62L52 63L54 63L54 62L55 62L55 63L56 63L56 62L57 62L57 64L58 64L58 65L63 65L63 63L64 63L64 64L65 64L65 63L64 63L64 62L63 62L63 63L61 63L61 62L62 62L62 61L61 61L61 60L62 60L62 58L63 58L63 59L64 59L64 58L63 58L63 56L64 56L64 55L65 55L65 53L64 53L64 52L65 52L65 51L63 51L63 50L65 50L65 48L64 48L64 47L63 47L63 50L62 50L62 51L61 51L61 49L59 49L59 47L61 47L61 48L62 48L62 46L61 46L61 45L60 45L60 46L59 46L59 44L62 44L62 45L64 45L64 46L65 46L65 45L64 45L64 44L65 44L65 40L64 40L64 44L62 44L62 43L63 43L63 42L62 42L62 41L63 41L63 39L61 39L61 38L62 38L62 37L59 37L59 36L62 36L62 35L63 35L63 36L64 36L64 37L63 37L63 38L65 38L65 36L64 36L64 35L63 35L63 34L62 34L62 33L65 33L65 29L64 29L64 27L63 27L63 26L65 26L65 24L64 24L64 25L63 25L63 26L60 26L60 27L59 27L59 26L56 26L56 22L57 22L57 21L58 21L58 23L59 23L59 25L61 25L61 24L62 24L62 23L63 23L63 22L65 22L65 21L64 21L64 19L65 19L65 16L64 16L64 14L65 14L65 12L64 12L64 11L63 11L63 10L64 10L64 9L63 9L63 10L62 10L62 8L60 8L60 9L61 9L61 12L59 12L59 9L58 9L58 11L56 11L56 10L57 10L57 8L56 8L56 9L54 9L54 10L53 10L53 11L52 11L52 8L53 8L53 5L54 5L54 8L55 8L55 5L54 5L54 4L56 4L56 5L57 5L57 4L56 4L56 3L57 3L57 1L56 1L56 0L55 0L55 1L56 1L56 3L55 3L55 2L54 2L54 4L53 4L53 2L51 2L51 1L53 1L53 0L49 0L49 1L48 1L48 0L46 0L46 1L45 1L45 0L36 0L36 1L35 1L35 0L32 0L32 1L35 1L35 3L34 3L34 2L33 2L33 3L32 3L32 2L30 2L30 1L31 1L31 0L30 0L30 1L29 1L29 0L27 0L27 3L26 3L26 2L25 2L25 1L26 1L26 0L23 0L23 1L24 1L24 2L23 2L23 3L22 3L22 4L23 4L23 3L26 3L26 4L24 4L24 5L25 5L25 6L24 6L24 7L25 7L25 6L26 6L26 7L27 7L27 8L28 8L28 9L27 9L27 10L25 10L25 9L26 9L26 8L25 8L25 9L23 9L23 11L22 11L22 10L21 10L21 8L22 8L22 7L23 7L23 5L20 5L20 7L21 7L21 8L16 8L16 7L17 7L17 6L16 6L16 7L15 7L15 5L18 5L18 7L19 7L19 2L20 2L20 1L22 1L22 0ZM36 1L36 3L35 3L35 8L37 8L37 9L35 9L35 10L31 10L31 11L33 11L33 13L32 13L32 12L30 12L30 14L29 14L29 15L28 15L28 16L27 16L27 14L26 14L26 12L29 12L29 11L30 11L30 10L29 10L29 11L28 11L28 10L27 10L27 11L26 11L26 12L25 12L25 13L24 13L24 14L22 14L22 11L21 11L21 10L19 10L19 9L17 9L17 10L18 10L18 11L17 11L17 12L18 12L18 11L20 11L20 12L21 12L21 14L22 14L22 15L20 15L20 14L19 14L19 13L16 13L16 14L15 14L15 11L16 11L16 10L15 10L15 11L13 11L13 9L14 9L14 8L13 8L13 9L12 9L12 6L13 6L13 7L14 7L14 5L12 5L12 6L11 6L11 7L10 7L10 8L11 8L11 11L12 11L12 12L11 12L11 14L9 14L9 12L8 12L8 11L5 11L5 10L4 10L4 11L2 11L2 9L1 9L1 11L2 11L2 12L3 12L3 13L5 13L5 15L4 15L4 14L3 14L3 15L4 15L4 16L5 16L5 15L6 15L6 16L7 16L7 17L6 17L6 18L7 18L7 17L8 17L8 22L7 22L7 21L6 21L6 20L7 20L7 19L6 19L6 20L5 20L5 21L4 21L4 22L7 22L7 23L6 23L6 24L7 24L7 25L6 25L6 26L9 26L9 25L10 25L10 26L13 26L13 28L12 28L12 29L13 29L13 28L14 28L14 29L15 29L15 31L14 31L14 30L12 30L12 34L9 34L9 36L8 36L8 38L7 38L7 37L6 37L6 36L7 36L7 35L6 35L6 36L5 36L5 35L4 35L4 34L2 34L2 35L3 35L3 36L5 36L5 37L6 37L6 38L4 38L4 37L3 37L3 38L4 38L4 39L5 39L5 40L8 40L8 41L6 41L6 42L5 42L5 43L6 43L6 42L8 42L8 43L9 43L9 44L11 44L11 45L12 45L12 46L10 46L10 47L12 47L12 46L13 46L13 47L14 47L14 50L13 50L13 51L15 51L15 52L16 52L16 51L15 51L15 50L17 50L17 48L19 48L19 47L20 47L20 46L22 46L22 47L21 47L21 48L20 48L20 51L19 51L19 49L18 49L18 51L17 51L17 52L18 52L18 53L16 53L16 54L15 54L15 53L14 53L14 52L12 52L12 53L11 53L11 54L10 54L10 55L11 55L11 57L10 57L10 58L9 58L9 59L10 59L10 58L11 58L11 62L12 62L12 64L13 64L13 62L14 62L14 63L15 63L15 64L16 64L16 63L17 63L17 61L18 61L18 62L20 62L20 63L21 63L21 61L22 61L22 58L23 58L23 56L22 56L22 55L24 55L24 56L25 56L25 55L26 55L26 58L27 58L27 55L28 55L28 56L29 56L29 55L30 55L30 53L31 53L31 54L32 54L32 55L31 55L31 56L34 56L34 55L33 55L33 54L36 54L36 55L35 55L35 56L37 56L37 54L38 54L38 55L39 55L39 56L38 56L38 57L39 57L39 58L42 58L42 59L41 59L41 60L42 60L42 61L43 61L43 60L42 60L42 59L46 59L46 60L45 60L45 61L46 61L46 62L47 62L47 63L48 63L48 62L47 62L47 61L46 61L46 60L47 60L47 59L48 59L48 60L49 60L49 61L50 61L50 62L51 62L51 61L52 61L52 60L53 60L53 58L54 58L54 61L56 61L56 60L55 60L55 59L56 59L56 58L54 58L54 57L56 57L56 56L54 56L54 55L53 55L53 56L52 56L52 60L51 60L51 59L50 59L50 57L51 57L51 56L49 56L49 55L52 55L52 54L53 54L53 53L56 53L56 52L59 52L59 53L57 53L57 56L58 56L58 54L59 54L59 55L60 55L60 56L61 56L61 58L62 58L62 56L63 56L63 55L64 55L64 53L63 53L63 54L61 54L61 55L60 55L60 54L59 54L59 53L62 53L62 52L59 52L59 51L60 51L60 50L59 50L59 49L58 49L58 47L59 47L59 46L58 46L58 43L57 43L57 42L58 42L58 41L57 41L57 40L59 40L59 37L57 37L57 38L56 38L56 40L54 40L54 39L55 39L55 38L54 38L54 37L55 37L55 35L56 35L56 33L55 33L55 34L54 34L54 33L53 33L53 32L52 32L52 33L53 33L53 34L51 34L51 35L50 35L50 33L51 33L51 31L52 31L52 30L53 30L53 28L55 28L55 29L56 29L56 30L54 30L54 31L55 31L55 32L56 32L56 30L57 30L57 29L56 29L56 26L54 26L54 25L55 25L55 22L54 22L54 21L55 21L55 20L54 20L54 19L56 19L56 20L59 20L59 18L62 18L62 20L61 20L61 21L59 21L59 23L60 23L60 24L61 24L61 23L60 23L60 22L62 22L62 20L63 20L63 19L64 19L64 17L58 17L58 16L59 16L59 15L60 15L60 14L61 14L61 15L62 15L62 14L61 14L61 13L63 13L63 14L64 14L64 12L63 12L63 11L62 11L62 12L61 12L61 13L60 13L60 14L59 14L59 12L56 12L56 11L55 11L55 10L54 10L54 11L55 11L55 12L56 12L56 14L53 14L53 13L52 13L52 14L51 14L51 11L48 11L48 10L50 10L50 9L48 9L48 10L47 10L47 11L48 11L48 12L50 12L50 14L51 14L51 15L52 15L52 17L51 17L51 16L50 16L50 15L48 15L48 14L49 14L49 13L48 13L48 14L47 14L47 12L46 12L46 11L43 11L43 10L40 10L40 11L42 11L42 13L43 13L43 14L42 14L42 15L40 15L40 17L39 17L39 16L38 16L38 14L39 14L39 13L40 13L40 14L41 14L41 13L40 13L40 12L39 12L39 10L37 10L37 9L41 9L41 8L42 8L42 5L41 5L41 8L39 8L39 7L40 7L40 6L39 6L39 7L38 7L38 5L40 5L40 4L38 4L38 3L40 3L40 2L42 2L42 4L43 4L43 3L44 3L44 2L43 2L43 1L39 1L39 2L37 2L37 1ZM47 1L47 2L46 2L46 3L45 3L45 4L44 4L44 6L43 6L43 8L44 8L44 9L45 9L45 8L44 8L44 6L45 6L45 7L46 7L46 9L47 9L47 7L48 7L48 8L51 8L51 7L52 7L52 6L51 6L51 7L50 7L50 6L49 6L49 7L48 7L48 5L51 5L51 4L52 4L52 5L53 5L53 4L52 4L52 3L51 3L51 2L48 2L48 1ZM29 2L29 3L27 3L27 4L26 4L26 6L27 6L27 7L28 7L28 6L27 6L27 5L30 5L30 2ZM47 2L47 3L46 3L46 4L45 4L45 6L46 6L46 7L47 7L47 5L46 5L46 4L47 4L47 3L48 3L48 4L49 4L49 3L48 3L48 2ZM8 3L8 5L9 5L9 3ZM17 3L17 4L18 4L18 3ZM31 3L31 4L32 4L32 3ZM36 3L36 7L37 7L37 8L38 8L38 7L37 7L37 5L38 5L38 4L37 4L37 3ZM31 5L31 8L34 8L34 5ZM21 6L21 7L22 7L22 6ZM29 6L29 7L30 7L30 6ZM32 6L32 7L33 7L33 6ZM56 6L56 7L57 7L57 6ZM29 8L29 9L30 9L30 8ZM35 10L35 11L36 11L36 10ZM4 11L4 12L5 12L5 11ZM23 11L23 12L24 12L24 11ZM37 11L37 12L36 12L36 13L37 13L37 14L36 14L36 15L35 15L35 14L34 14L34 13L33 13L33 14L32 14L32 13L31 13L31 14L32 14L32 15L31 15L31 16L30 16L30 15L29 15L29 16L28 16L28 17L26 17L26 16L25 16L25 17L24 17L24 15L23 15L23 17L22 17L22 16L20 16L20 15L19 15L19 14L18 14L18 15L17 15L17 14L16 14L16 15L15 15L15 14L14 14L14 12L12 12L12 13L13 13L13 15L12 15L12 16L10 16L10 15L8 15L8 14L6 14L6 15L7 15L7 16L10 16L10 18L9 18L9 19L11 19L11 18L12 18L12 19L13 19L13 20L14 20L14 19L15 19L15 23L14 23L14 21L12 21L12 22L13 22L13 23L14 23L14 24L18 24L18 25L19 25L19 26L18 26L18 27L20 27L20 28L17 28L17 26L16 26L16 25L15 25L15 26L14 26L14 27L16 27L16 28L17 28L17 30L16 30L16 31L18 31L18 33L17 33L17 32L13 32L13 33L14 33L14 35L15 35L15 36L14 36L14 37L13 37L13 34L12 34L12 36L11 36L11 35L10 35L10 36L9 36L9 37L10 37L10 36L11 36L11 38L9 38L9 39L8 39L8 40L9 40L9 39L10 39L10 40L11 40L11 39L15 39L15 40L14 40L14 41L8 41L8 42L9 42L9 43L11 43L11 44L15 44L15 49L16 49L16 48L17 48L17 46L16 46L16 44L15 44L15 43L16 43L16 42L15 42L15 41L19 41L19 42L17 42L17 43L18 43L18 44L17 44L17 45L19 45L19 46L18 46L18 47L19 47L19 46L20 46L20 45L19 45L19 43L21 43L21 44L22 44L22 43L23 43L23 44L24 44L24 45L23 45L23 46L24 46L24 45L26 45L26 44L24 44L24 43L23 43L23 42L25 42L25 41L26 41L26 43L27 43L27 42L28 42L28 41L29 41L29 40L30 40L30 41L31 41L31 42L32 42L32 43L29 43L29 44L31 44L31 45L32 45L32 46L31 46L31 47L32 47L32 46L33 46L33 45L32 45L32 43L33 43L33 44L34 44L34 46L35 46L35 45L36 45L36 47L34 47L34 48L36 48L36 49L42 49L42 50L41 50L41 51L42 51L42 52L43 52L43 53L42 53L42 54L41 54L41 55L40 55L40 56L39 56L39 57L40 57L40 56L41 56L41 55L42 55L42 56L43 56L43 57L42 57L42 58L43 58L43 57L44 57L44 55L42 55L42 54L43 54L43 53L44 53L44 54L45 54L45 53L44 53L44 52L43 52L43 51L45 51L45 52L47 52L47 53L48 53L48 55L49 55L49 53L50 53L50 52L51 52L51 51L52 51L52 50L53 50L53 51L54 51L54 52L56 52L56 51L54 51L54 50L55 50L55 49L57 49L57 50L58 50L58 49L57 49L57 47L58 47L58 46L57 46L57 45L56 45L56 46L57 46L57 47L54 47L54 48L53 48L53 47L52 47L52 46L51 46L51 45L49 45L49 44L50 44L50 42L48 42L48 41L49 41L49 40L48 40L48 39L50 39L50 41L51 41L51 43L53 43L53 46L55 46L55 44L57 44L57 43L56 43L56 41L54 41L54 42L55 42L55 43L53 43L53 41L52 41L52 39L51 39L51 38L52 38L52 37L54 37L54 36L53 36L53 35L52 35L52 36L51 36L51 38L49 38L49 37L50 37L50 36L48 36L48 35L49 35L49 34L48 34L48 35L47 35L47 33L44 33L44 32L46 32L46 31L44 31L44 32L43 32L43 33L42 33L42 34L43 34L43 35L42 35L42 36L43 36L43 35L44 35L44 37L45 37L45 35L47 35L47 36L46 36L46 37L47 37L47 38L46 38L46 39L45 39L45 40L46 40L46 39L47 39L47 44L48 44L48 45L46 45L46 44L45 44L45 43L46 43L46 41L44 41L44 40L42 40L42 39L40 39L40 38L41 38L41 35L40 35L40 34L41 34L41 33L40 33L40 32L41 32L41 31L42 31L42 30L44 30L44 28L45 28L45 30L46 30L46 29L47 29L47 28L48 28L48 29L49 29L49 30L47 30L47 31L49 31L49 30L50 30L50 29L52 29L52 28L51 28L51 27L52 27L52 26L53 26L53 25L54 25L54 24L53 24L53 23L54 23L54 22L53 22L53 23L52 23L52 22L51 22L51 21L52 21L52 20L53 20L53 19L54 19L54 18L55 18L55 17L54 17L54 16L56 16L56 17L57 17L57 18L56 18L56 19L57 19L57 18L58 18L58 17L57 17L57 16L58 16L58 15L59 15L59 14L58 14L58 13L57 13L57 14L56 14L56 15L54 15L54 16L53 16L53 18L51 18L51 19L52 19L52 20L51 20L51 21L50 21L50 22L48 22L48 21L49 21L49 20L48 20L48 21L47 21L47 20L46 20L46 19L45 19L45 18L46 18L46 17L47 17L47 14L45 14L45 13L46 13L46 12L44 12L44 14L45 14L45 15L46 15L46 17L45 17L45 18L44 18L44 16L43 16L43 15L42 15L42 16L43 16L43 17L42 17L42 18L43 18L43 19L41 19L41 18L39 18L39 19L40 19L40 20L43 20L43 21L40 21L40 22L42 22L42 23L43 23L43 22L44 22L44 25L43 25L43 24L42 24L42 25L41 25L41 23L40 23L40 25L41 25L41 26L43 26L43 27L41 27L41 28L42 28L42 29L41 29L41 30L40 30L40 31L38 31L38 28L40 28L40 26L38 26L38 25L39 25L39 24L35 24L35 23L34 23L34 21L35 21L35 20L36 20L36 23L37 23L37 21L38 21L38 23L39 23L39 21L38 21L38 18L37 18L37 16L36 16L36 15L37 15L37 14L38 14L38 13L39 13L39 12L38 12L38 11ZM6 12L6 13L7 13L7 12ZM52 14L52 15L53 15L53 14ZM16 15L16 16L13 16L13 17L12 17L12 18L15 18L15 19L16 19L16 22L17 22L17 23L22 23L22 24L24 24L24 25L25 25L25 26L23 26L23 27L24 27L24 28L25 28L25 26L26 26L26 27L29 27L29 25L31 25L31 26L32 26L32 25L34 25L34 26L36 26L36 28L38 28L38 26L36 26L36 25L35 25L35 24L33 24L33 20L32 20L32 19L31 19L31 18L32 18L32 17L33 17L33 19L36 19L36 20L37 20L37 18L35 18L35 16L34 16L34 15L32 15L32 17L31 17L31 18L30 18L30 16L29 16L29 17L28 17L28 18L21 18L21 17L20 17L20 16L19 16L19 15L18 15L18 16L17 16L17 15ZM56 15L56 16L57 16L57 15ZM16 16L16 17L15 17L15 18L16 18L16 19L17 19L17 16ZM18 16L18 17L19 17L19 20L20 20L20 22L21 22L21 18L20 18L20 17L19 17L19 16ZM33 16L33 17L34 17L34 16ZM48 16L48 18L49 18L49 16ZM29 18L29 19L28 19L28 20L29 20L29 19L30 19L30 20L31 20L31 21L30 21L30 22L29 22L29 21L27 21L27 19L26 19L26 20L25 20L25 19L24 19L24 20L23 20L23 19L22 19L22 22L23 22L23 21L24 21L24 22L25 22L25 23L24 23L24 24L26 24L26 26L28 26L28 25L27 25L27 24L28 24L28 22L29 22L29 24L31 24L31 23L32 23L32 22L31 22L31 21L32 21L32 20L31 20L31 19L30 19L30 18ZM43 19L43 20L44 20L44 21L45 21L45 23L46 23L46 21L45 21L45 20L44 20L44 19ZM9 20L9 22L8 22L8 23L7 23L7 24L8 24L8 23L9 23L9 24L11 24L11 25L12 25L12 24L11 24L11 20ZM17 20L17 21L18 21L18 22L19 22L19 21L18 21L18 20ZM24 20L24 21L25 21L25 22L26 22L26 21L25 21L25 20ZM0 21L0 23L1 23L1 21ZM9 22L9 23L10 23L10 22ZM47 22L47 23L48 23L48 24L45 24L45 25L44 25L44 27L45 27L45 28L46 28L46 27L45 27L45 25L46 25L46 26L47 26L47 25L48 25L48 24L49 24L49 27L48 27L48 28L50 28L50 26L51 26L51 23L48 23L48 22ZM0 24L0 25L1 25L1 24ZM19 24L19 25L20 25L20 27L22 27L22 25L21 25L21 24ZM57 24L57 25L58 25L58 24ZM4 26L4 29L5 29L5 30L7 30L7 29L8 29L8 28L9 28L9 30L11 30L11 28L10 28L10 27L8 27L8 28L7 28L7 27L5 27L5 26ZM31 27L31 28L26 28L26 29L27 29L27 31L25 31L25 32L24 32L24 29L23 29L23 28L20 28L20 29L18 29L18 30L19 30L19 33L18 33L18 34L16 34L16 33L15 33L15 34L16 34L16 35L18 35L18 34L19 34L19 35L21 35L21 34L22 34L22 36L23 36L23 33L25 33L25 32L26 32L26 34L25 34L25 35L26 35L26 36L27 36L27 37L26 37L26 38L27 38L27 37L28 37L28 38L30 38L30 36L32 36L32 37L31 37L31 39L32 39L32 40L33 40L33 38L34 38L34 42L35 42L35 40L37 40L37 39L36 39L36 38L35 38L35 37L33 37L33 36L34 36L34 35L30 35L30 32L29 32L29 31L28 31L28 30L30 30L30 29L31 29L31 30L32 30L32 29L34 29L34 30L35 30L35 29L34 29L34 28L35 28L35 27L34 27L34 28L33 28L33 27ZM58 27L58 28L59 28L59 27ZM60 27L60 28L61 28L61 27ZM6 28L6 29L7 29L7 28ZM31 28L31 29L32 29L32 28ZM22 29L22 30L20 30L20 31L22 31L22 32L20 32L20 33L19 33L19 34L21 34L21 33L22 33L22 32L23 32L23 31L22 31L22 30L23 30L23 29ZM58 29L58 30L59 30L59 29ZM62 29L62 30L63 30L63 31L62 31L62 32L61 32L61 33L62 33L62 32L64 32L64 30L63 30L63 29ZM3 30L3 33L4 33L4 30ZM1 31L1 32L2 32L2 31ZM5 31L5 34L8 34L8 31ZM9 31L9 33L10 33L10 32L11 32L11 31ZM31 31L31 34L34 34L34 31ZM57 31L57 34L60 34L60 31ZM6 32L6 33L7 33L7 32ZM32 32L32 33L33 33L33 32ZM37 32L37 34L36 34L36 36L38 36L38 37L37 37L37 38L40 38L40 36L39 36L39 35L37 35L37 34L38 34L38 32ZM48 32L48 33L49 33L49 32ZM58 32L58 33L59 33L59 32ZM27 33L27 35L28 35L28 36L29 36L29 33ZM39 33L39 34L40 34L40 33ZM43 33L43 34L44 34L44 35L45 35L45 34L44 34L44 33ZM16 36L16 38L15 38L15 39L16 39L16 40L17 40L17 39L18 39L18 40L19 40L19 41L20 41L20 42L21 42L21 41L20 41L20 39L21 39L21 40L22 40L22 41L25 41L25 40L23 40L23 39L24 39L24 37L25 37L25 36L24 36L24 37L22 37L22 39L21 39L21 36L20 36L20 39L18 39L18 38L17 38L17 36ZM47 36L47 37L48 37L48 36ZM42 37L42 38L43 38L43 39L44 39L44 38L43 38L43 37ZM6 38L6 39L7 39L7 38ZM28 39L28 40L26 40L26 41L28 41L28 40L29 40L29 39ZM39 40L39 41L38 41L38 43L39 43L39 42L40 42L40 41L41 41L41 42L42 42L42 43L43 43L43 45L45 45L45 44L44 44L44 43L45 43L45 42L42 42L42 40ZM60 40L60 41L62 41L62 40ZM32 41L32 42L33 42L33 41ZM11 42L11 43L13 43L13 42ZM36 42L36 43L34 43L34 44L37 44L37 47L36 47L36 48L39 48L39 47L38 47L38 45L39 45L39 46L40 46L40 47L41 47L41 48L42 48L42 49L44 49L44 48L42 48L42 47L45 47L45 48L46 48L46 50L45 50L45 51L46 51L46 50L47 50L47 51L48 51L48 52L49 52L49 51L48 51L48 49L47 49L47 48L49 48L49 47L50 47L50 46L49 46L49 47L48 47L48 46L47 46L47 47L45 47L45 46L42 46L42 45L41 45L41 44L37 44L37 42ZM59 42L59 43L60 43L60 42ZM48 43L48 44L49 44L49 43ZM27 44L27 47L26 47L26 50L25 50L25 49L23 49L23 48L24 48L24 47L22 47L22 49L21 49L21 50L22 50L22 51L23 51L23 52L22 52L22 53L23 53L23 54L25 54L25 53L27 53L27 54L26 54L26 55L27 55L27 54L28 54L28 55L29 55L29 54L28 54L28 53L29 53L29 52L32 52L32 53L34 53L34 52L32 52L32 51L29 51L29 50L31 50L31 49L32 49L32 48L31 48L31 49L29 49L29 50L27 50L27 48L30 48L30 46L28 46L28 44ZM13 45L13 46L14 46L14 45ZM6 47L6 48L7 48L7 47ZM50 48L50 49L49 49L49 50L52 50L52 49L51 49L51 48ZM54 48L54 49L53 49L53 50L54 50L54 49L55 49L55 48ZM22 49L22 50L23 50L23 51L24 51L24 50L23 50L23 49ZM33 49L33 51L34 51L34 49ZM6 50L6 51L8 51L8 50ZM36 50L36 51L35 51L35 52L36 52L36 53L37 53L37 52L36 52L36 51L40 51L40 50ZM42 50L42 51L43 51L43 50ZM25 51L25 52L23 52L23 53L25 53L25 52L28 52L28 51ZM0 52L0 54L1 54L1 52ZM20 52L20 53L18 53L18 54L16 54L16 56L15 56L15 57L14 57L14 56L13 56L13 54L12 54L12 56L13 56L13 57L12 57L12 58L13 58L13 61L15 61L15 57L16 57L16 58L17 58L17 57L19 57L19 58L18 58L18 59L17 59L17 60L16 60L16 61L17 61L17 60L18 60L18 61L19 61L19 58L20 58L20 59L21 59L21 57L22 57L22 56L21 56L21 57L20 57L20 55L22 55L22 54L20 54L20 53L21 53L21 52ZM38 52L38 53L40 53L40 52ZM2 54L2 55L3 55L3 56L1 56L1 55L0 55L0 56L1 56L1 57L3 57L3 56L4 56L4 57L5 57L5 56L4 56L4 54ZM7 54L7 55L8 55L8 54ZM18 54L18 55L20 55L20 54ZM55 54L55 55L56 55L56 54ZM45 55L45 56L46 56L46 55ZM61 55L61 56L62 56L62 55ZM47 56L47 57L45 57L45 58L46 58L46 59L47 59L47 57L49 57L49 56ZM53 56L53 57L54 57L54 56ZM13 57L13 58L14 58L14 57ZM29 57L29 58L30 58L30 57ZM31 57L31 60L34 60L34 57ZM57 57L57 60L60 60L60 57ZM32 58L32 59L33 59L33 58ZM35 58L35 59L36 59L36 58ZM48 58L48 59L49 59L49 58ZM58 58L58 59L59 59L59 58ZM20 60L20 61L21 61L21 60ZM28 60L28 61L29 61L29 60ZM50 60L50 61L51 61L51 60ZM57 61L57 62L61 62L61 61ZM32 62L32 63L30 63L30 64L32 64L32 63L33 63L33 62ZM36 62L36 63L38 63L38 64L39 64L39 65L40 65L40 63L41 63L41 62L40 62L40 63L39 63L39 62ZM59 63L59 64L60 64L60 63ZM36 64L36 65L37 65L37 64ZM0 0L0 7L7 7L7 0ZM1 1L1 6L6 6L6 1ZM2 2L2 5L5 5L5 2ZM58 0L58 7L65 7L65 0ZM59 1L59 6L64 6L64 1ZM60 2L60 5L63 5L63 2ZM0 58L0 65L7 65L7 58ZM1 59L1 64L6 64L6 59ZM2 60L2 63L5 63L5 60Z" fill="#000000"/></g></g></svg>
