<?xml version="1.0" encoding="UTF-8"?>
<svg xmlns="http://www.w3.org/2000/svg" version="1.1" width="300" height="300" viewBox="0 0 300 300"><rect x="0" y="0" width="300" height="300" fill="#ffffff"/><g transform="scale(4.615)"><g transform="translate(0,0)"><path fill-rule="evenodd" d="M8 0L8 4L9 4L9 5L8 5L8 7L9 7L9 10L8 10L8 9L7 9L7 8L4 8L4 9L3 9L3 11L4 11L4 12L5 12L5 11L7 11L7 12L6 12L6 13L5 13L5 14L4 14L4 13L3 13L3 12L2 12L2 10L1 10L1 11L0 11L0 19L4 19L4 20L3 20L3 21L1 21L1 22L0 22L0 24L2 24L2 26L3 26L3 28L2 28L2 29L1 29L1 26L0 26L0 33L1 33L1 34L2 34L2 35L7 35L7 36L3 36L3 37L5 37L5 39L3 39L3 38L2 38L2 36L1 36L1 39L0 39L0 40L1 40L1 41L2 41L2 43L3 43L3 44L1 44L1 45L2 45L2 46L4 46L4 47L3 47L3 49L1 49L1 48L2 48L2 47L1 47L1 46L0 46L0 51L1 51L1 52L6 52L6 53L7 53L7 54L5 54L5 55L7 55L7 56L6 56L6 57L8 57L8 58L9 58L9 59L8 59L8 61L10 61L10 59L11 59L11 60L12 60L12 61L11 61L11 63L10 63L10 62L9 62L9 63L8 63L8 65L11 65L11 63L12 63L12 64L13 64L13 65L14 65L14 63L16 63L16 62L17 62L17 61L22 61L22 62L23 62L23 63L21 63L21 62L20 62L20 63L19 63L19 62L18 62L18 63L17 63L17 64L16 64L16 65L17 65L17 64L18 64L18 65L20 65L20 64L21 64L21 65L22 65L22 64L23 64L23 63L24 63L24 64L26 64L26 65L28 65L28 64L26 64L26 61L27 61L27 63L28 63L28 62L29 62L29 65L34 65L34 64L35 64L35 65L37 65L37 64L38 64L38 65L39 65L39 61L38 61L38 60L40 60L40 59L42 59L42 62L41 62L41 64L42 64L42 65L43 65L43 64L42 64L42 63L44 63L44 65L45 65L45 63L46 63L46 64L48 64L48 65L50 65L50 64L49 64L49 63L51 63L51 62L53 62L53 63L56 63L56 64L53 64L53 65L57 65L57 63L58 63L58 65L61 65L61 64L60 64L60 63L59 63L59 62L57 62L57 63L56 63L56 61L61 61L61 62L62 62L62 63L63 63L63 65L64 65L64 64L65 64L65 62L63 62L63 61L64 61L64 60L65 60L65 56L64 56L64 55L65 55L65 53L62 53L62 51L63 51L63 49L62 49L62 48L61 48L61 47L62 47L62 45L60 45L60 44L59 44L59 45L60 45L60 46L58 46L58 47L59 47L59 50L58 50L58 48L57 48L57 47L56 47L56 46L57 46L57 45L56 45L56 44L57 44L57 43L55 43L55 41L56 41L56 42L57 42L57 40L58 40L58 39L59 39L59 41L58 41L58 43L59 43L59 42L61 42L61 44L62 44L62 42L64 42L64 43L65 43L65 41L64 41L64 40L65 40L65 38L64 38L64 37L65 37L65 36L64 36L64 35L65 35L65 33L64 33L64 32L63 32L63 34L61 34L61 32L62 32L62 31L61 31L61 30L60 30L60 29L62 29L62 30L64 30L64 31L65 31L65 29L64 29L64 28L65 28L65 24L63 24L63 25L62 25L62 22L61 22L61 23L60 23L60 22L59 22L59 23L58 23L58 22L57 22L57 21L56 21L56 22L55 22L55 21L54 21L54 23L53 23L53 24L54 24L54 23L55 23L55 25L54 25L54 27L57 27L57 26L58 26L58 25L59 25L59 28L58 28L58 29L56 29L56 28L53 28L53 30L52 30L52 31L53 31L53 32L56 32L56 35L55 35L55 33L54 33L54 34L51 34L51 32L49 32L49 31L48 31L48 30L47 30L47 31L46 31L46 29L45 29L45 28L47 28L47 27L46 27L46 25L47 25L47 26L48 26L48 29L50 29L50 31L51 31L51 28L52 28L52 27L53 27L53 25L52 25L52 26L51 26L51 25L50 25L50 26L49 26L49 23L51 23L51 24L52 24L52 23L51 23L51 20L52 20L52 19L53 19L53 20L54 20L54 19L55 19L55 18L56 18L56 19L57 19L57 20L58 20L58 21L62 21L62 19L63 19L63 22L64 22L64 23L65 23L65 21L64 21L64 20L65 20L65 16L64 16L64 19L63 19L63 17L61 17L61 16L62 16L62 13L61 13L61 12L62 12L62 11L63 11L63 9L64 9L64 11L65 11L65 8L61 8L61 9L60 9L60 8L59 8L59 9L60 9L60 13L61 13L61 15L60 15L60 14L59 14L59 16L57 16L57 17L54 17L54 19L53 19L53 18L51 18L51 17L50 17L50 16L51 16L51 14L52 14L52 13L50 13L50 14L49 14L49 15L48 15L48 13L49 13L49 11L48 11L48 13L47 13L47 10L49 10L49 9L50 9L50 11L51 11L51 9L50 9L50 8L49 8L49 6L48 6L48 8L47 8L47 5L45 5L45 6L44 6L44 7L43 7L43 5L44 5L44 3L46 3L46 4L48 4L48 3L49 3L49 2L50 2L50 1L51 1L51 0L47 0L47 1L46 1L46 0L45 0L45 1L46 1L46 2L44 2L44 0L42 0L42 1L43 1L43 3L42 3L42 2L41 2L41 3L40 3L40 2L39 2L39 3L40 3L40 4L41 4L41 5L42 5L42 7L41 7L41 6L40 6L40 5L39 5L39 4L38 4L38 5L37 5L37 4L36 4L36 3L37 3L37 2L36 2L36 1L35 1L35 0L32 0L32 1L31 1L31 0L30 0L30 1L31 1L31 2L32 2L32 1L35 1L35 2L34 2L34 4L33 4L33 3L31 3L31 4L30 4L30 5L29 5L29 6L28 6L28 3L30 3L30 2L26 2L26 3L25 3L25 2L23 2L23 0L22 0L22 1L21 1L21 0L19 0L19 2L18 2L18 0L16 0L16 1L17 1L17 2L15 2L15 1L13 1L13 2L12 2L12 0L10 0L10 2L12 2L12 3L11 3L11 5L10 5L10 4L9 4L9 0ZM24 0L24 1L25 1L25 0ZM27 0L27 1L28 1L28 0ZM37 0L37 1L39 1L39 0ZM53 0L53 1L54 1L54 0ZM55 0L55 1L56 1L56 3L55 3L55 2L53 2L53 3L52 3L52 5L54 5L54 7L53 7L53 6L52 6L52 7L51 7L51 6L50 6L50 7L51 7L51 8L52 8L52 7L53 7L53 9L54 9L54 11L53 11L53 16L54 16L54 15L55 15L55 16L56 16L56 15L55 15L55 13L56 13L56 14L57 14L57 15L58 15L58 13L59 13L59 12L57 12L57 13L56 13L56 10L57 10L57 11L58 11L58 10L57 10L57 9L56 9L56 8L55 8L55 9L54 9L54 7L55 7L55 5L54 5L54 4L56 4L56 5L57 5L57 4L56 4L56 3L57 3L57 1L56 1L56 0ZM13 2L13 3L14 3L14 2ZM19 2L19 4L20 4L20 3L21 3L21 5L22 5L22 6L21 6L21 8L19 8L19 9L17 9L17 10L16 10L16 9L15 9L15 10L14 10L14 11L13 11L13 12L12 12L12 11L11 11L11 10L10 10L10 11L8 11L8 12L7 12L7 13L6 13L6 14L5 14L5 15L3 15L3 14L1 14L1 15L2 15L2 16L5 16L5 17L3 17L3 18L4 18L4 19L5 19L5 17L6 17L6 18L7 18L7 17L6 17L6 16L8 16L8 18L10 18L10 20L13 20L13 21L12 21L12 22L11 22L11 21L9 21L9 20L8 20L8 21L9 21L9 22L10 22L10 23L9 23L9 25L10 25L10 26L9 26L9 27L10 27L10 28L8 28L8 26L7 26L7 25L5 25L5 27L4 27L4 28L5 28L5 29L4 29L4 30L3 30L3 31L4 31L4 30L7 30L7 29L6 29L6 28L8 28L8 30L9 30L9 29L10 29L10 30L12 30L12 31L11 31L11 32L12 32L12 31L13 31L13 33L12 33L12 34L11 34L11 33L9 33L9 34L10 34L10 35L8 35L8 37L9 37L9 38L7 38L7 37L6 37L6 38L7 38L7 39L5 39L5 40L7 40L7 39L8 39L8 41L6 41L6 42L4 42L4 40L3 40L3 43L5 43L5 44L3 44L3 45L4 45L4 46L7 46L7 47L5 47L5 48L4 48L4 49L6 49L6 50L3 50L3 51L6 51L6 52L7 52L7 53L8 53L8 52L7 52L7 51L8 51L8 50L9 50L9 51L10 51L10 52L9 52L9 54L7 54L7 55L9 55L9 54L10 54L10 53L11 53L11 54L12 54L12 55L10 55L10 56L9 56L9 58L11 58L11 59L12 59L12 60L13 60L13 61L12 61L12 63L14 63L14 59L15 59L15 57L16 57L16 59L17 59L17 60L15 60L15 61L17 61L17 60L19 60L19 59L20 59L20 60L22 60L22 61L24 61L24 62L25 62L25 61L26 61L26 60L25 60L25 61L24 61L24 58L23 58L23 60L22 60L22 57L25 57L25 58L26 58L26 55L27 55L27 56L29 56L29 55L30 55L30 56L31 56L31 55L34 55L34 56L35 56L35 55L37 55L37 60L38 60L38 56L39 56L39 55L38 55L38 54L35 54L35 55L34 55L34 53L36 53L36 50L35 50L35 51L34 51L34 52L32 52L32 51L33 51L33 50L34 50L34 49L36 49L36 48L37 48L37 50L38 50L38 51L37 51L37 52L38 52L38 53L39 53L39 54L40 54L40 53L41 53L41 54L42 54L42 53L44 53L44 51L47 51L47 52L48 52L48 48L47 48L47 45L48 45L48 42L50 42L50 40L51 40L51 42L52 42L52 41L53 41L53 44L52 44L52 45L51 45L51 46L52 46L52 45L55 45L55 44L54 44L54 40L55 40L55 39L52 39L52 40L51 40L51 39L50 39L50 40L49 40L49 41L48 41L48 42L47 42L47 40L46 40L46 39L47 39L47 37L48 37L48 39L49 39L49 37L48 37L48 36L47 36L47 37L46 37L46 36L45 36L45 40L46 40L46 43L45 43L45 44L46 44L46 47L45 47L45 45L44 45L44 46L43 46L43 47L42 47L42 48L41 48L41 47L39 47L39 50L38 50L38 48L37 48L37 45L36 45L36 48L35 48L35 47L34 47L34 46L33 46L33 45L31 45L31 46L30 46L30 45L29 45L29 44L28 44L28 42L29 42L29 43L30 43L30 44L33 44L33 43L36 43L36 40L35 40L35 39L34 39L34 40L35 40L35 42L34 42L34 41L33 41L33 39L32 39L32 37L33 37L33 38L36 38L36 39L37 39L37 38L36 38L36 34L38 34L38 33L39 33L39 34L41 34L41 35L40 35L40 37L39 37L39 35L37 35L37 36L38 36L38 37L39 37L39 39L40 39L40 42L41 42L41 39L40 39L40 38L42 38L42 36L41 36L41 35L42 35L42 33L41 33L41 32L44 32L44 31L40 31L40 30L42 30L42 29L41 29L41 28L43 28L43 30L44 30L44 28L45 28L45 27L42 27L42 26L41 26L41 25L43 25L43 24L44 24L44 23L45 23L45 24L47 24L47 22L48 22L48 23L49 23L49 21L48 21L48 19L49 19L49 20L51 20L51 19L49 19L49 17L48 17L48 19L47 19L47 17L46 17L46 16L45 16L45 17L44 17L44 18L43 18L43 19L42 19L42 17L43 17L43 15L44 15L44 14L43 14L43 15L42 15L42 16L41 16L41 13L42 13L42 12L43 12L43 13L44 13L44 12L45 12L45 13L46 13L46 14L45 14L45 15L47 15L47 16L48 16L48 15L47 15L47 13L46 13L46 12L45 12L45 11L46 11L46 10L47 10L47 9L46 9L46 8L45 8L45 9L44 9L44 10L43 10L43 11L40 11L40 10L42 10L42 9L43 9L43 8L40 8L40 9L39 9L39 11L38 11L38 9L36 9L36 11L37 11L37 15L36 15L36 14L35 14L35 13L34 13L34 15L35 15L35 16L33 16L33 18L31 18L31 19L30 19L30 20L29 20L29 21L28 21L28 20L27 20L27 17L26 17L26 15L28 15L28 14L29 14L29 15L30 15L30 16L31 16L31 17L32 17L32 15L33 15L33 14L32 14L32 11L31 11L31 9L30 9L30 10L29 10L29 9L28 9L28 8L30 8L30 6L29 6L29 7L28 7L28 6L27 6L27 5L23 5L23 2L22 2L22 3L21 3L21 2ZM35 2L35 3L36 3L36 2ZM17 3L17 5L14 5L14 4L13 4L13 5L11 5L11 7L10 7L10 5L9 5L9 7L10 7L10 9L11 9L11 7L12 7L12 6L13 6L13 9L14 9L14 8L15 8L15 7L16 7L16 6L17 6L17 8L18 8L18 3ZM41 3L41 4L42 4L42 3ZM50 3L50 4L49 4L49 5L51 5L51 3ZM35 4L35 7L36 7L36 4ZM31 5L31 8L34 8L34 5ZM38 5L38 6L37 6L37 8L39 8L39 7L40 7L40 6L39 6L39 5ZM14 6L14 7L15 7L15 6ZM19 6L19 7L20 7L20 6ZM22 6L22 8L24 8L24 7L25 7L25 8L26 8L26 9L22 9L22 10L25 10L25 11L24 11L24 12L23 12L23 11L22 11L22 12L20 12L20 11L18 11L18 10L17 10L17 13L16 13L16 10L15 10L15 11L14 11L14 12L13 12L13 14L11 14L11 11L10 11L10 12L9 12L9 13L8 13L8 14L6 14L6 15L8 15L8 14L9 14L9 16L11 16L11 17L12 17L12 15L13 15L13 14L14 14L14 16L13 16L13 17L14 17L14 18L11 18L11 19L13 19L13 20L15 20L15 21L16 21L16 20L17 20L17 19L18 19L18 17L19 17L19 19L22 19L22 20L24 20L24 19L25 19L25 21L24 21L24 22L22 22L22 21L20 21L20 20L18 20L18 21L17 21L17 22L16 22L16 23L15 23L15 22L14 22L14 21L13 21L13 22L12 22L12 24L11 24L11 23L10 23L10 24L11 24L11 25L12 25L12 26L10 26L10 27L11 27L11 29L12 29L12 26L13 26L13 27L14 27L14 26L16 26L16 28L17 28L17 29L15 29L15 30L14 30L14 29L13 29L13 31L14 31L14 33L13 33L13 34L14 34L14 35L15 35L15 36L16 36L16 37L14 37L14 38L13 38L13 37L12 37L12 36L13 36L13 35L12 35L12 36L10 36L10 37L12 37L12 38L11 38L11 39L10 39L10 41L11 41L11 39L12 39L12 41L13 41L13 42L14 42L14 44L12 44L12 42L11 42L11 43L10 43L10 42L9 42L9 41L8 41L8 42L6 42L6 43L7 43L7 44L6 44L6 45L7 45L7 44L8 44L8 47L7 47L7 48L6 48L6 49L7 49L7 48L9 48L9 44L12 44L12 47L11 47L11 46L10 46L10 49L9 49L9 50L10 50L10 49L11 49L11 53L15 53L15 54L13 54L13 55L12 55L12 56L10 56L10 57L13 57L13 56L15 56L15 54L16 54L16 55L17 55L17 56L16 56L16 57L17 57L17 56L18 56L18 57L20 57L20 58L21 58L21 57L22 57L22 55L24 55L24 54L25 54L25 53L26 53L26 54L27 54L27 55L28 55L28 53L30 53L30 55L31 55L31 54L33 54L33 53L32 53L32 52L31 52L31 51L32 51L32 50L33 50L33 49L32 49L32 50L31 50L31 51L30 51L30 50L29 50L29 52L28 52L28 51L27 51L27 52L26 52L26 51L25 51L25 49L24 49L24 47L22 47L22 46L23 46L23 45L24 45L24 46L25 46L25 47L26 47L26 45L28 45L28 44L26 44L26 45L25 45L25 41L22 41L22 42L23 42L23 43L24 43L24 44L23 44L23 45L22 45L22 43L21 43L21 44L20 44L20 45L19 45L19 44L17 44L17 43L18 43L18 42L17 42L17 43L15 43L15 42L16 42L16 41L17 41L17 40L18 40L18 41L19 41L19 40L22 40L22 38L21 38L21 37L24 37L24 38L23 38L23 40L24 40L24 39L25 39L25 40L26 40L26 41L27 41L27 42L26 42L26 43L27 43L27 42L28 42L28 41L29 41L29 38L28 38L28 35L27 35L27 34L26 34L26 33L27 33L27 31L28 31L28 30L30 30L30 31L29 31L29 32L28 32L28 33L29 33L29 35L31 35L31 36L32 36L32 35L33 35L33 37L35 37L35 36L34 36L34 35L35 35L35 33L36 33L36 31L37 31L37 30L38 30L38 31L39 31L39 32L40 32L40 31L39 31L39 29L40 29L40 28L39 28L39 25L40 25L40 23L39 23L39 22L41 22L41 21L40 21L40 20L38 20L38 19L39 19L39 16L36 16L36 17L35 17L35 19L34 19L34 18L33 18L33 19L32 19L32 22L31 22L31 25L30 25L30 27L27 27L27 28L26 28L26 29L25 29L25 28L24 28L24 27L23 27L23 26L25 26L25 27L26 27L26 25L27 25L27 26L28 26L28 25L29 25L29 24L26 24L26 23L27 23L27 22L28 22L28 21L27 21L27 20L26 20L26 19L25 19L25 18L26 18L26 17L24 17L24 15L23 15L23 13L24 13L24 14L25 14L25 12L26 12L26 13L28 13L28 12L29 12L29 13L30 13L30 14L31 14L31 15L32 15L32 14L31 14L31 13L30 13L30 12L29 12L29 10L28 10L28 9L27 9L27 6L26 6L26 7L25 7L25 6L24 6L24 7L23 7L23 6ZM32 6L32 7L33 7L33 6ZM38 6L38 7L39 7L39 6ZM45 6L45 7L46 7L46 6ZM56 6L56 7L57 7L57 6ZM0 8L0 9L2 9L2 8ZM6 9L6 10L7 10L7 9ZM20 9L20 10L21 10L21 9ZM26 9L26 12L28 12L28 11L27 11L27 9ZM32 9L32 10L33 10L33 12L35 12L35 9L34 9L34 10L33 10L33 9ZM45 9L45 10L46 10L46 9ZM43 11L43 12L44 12L44 11ZM1 12L1 13L2 13L2 12ZM14 12L14 14L16 14L16 13L15 13L15 12ZM19 12L19 13L18 13L18 15L19 15L19 16L20 16L20 17L21 17L21 14L22 14L22 13L23 13L23 12L22 12L22 13L21 13L21 14L20 14L20 15L19 15L19 13L20 13L20 12ZM38 12L38 15L40 15L40 12ZM63 12L63 13L64 13L64 14L63 14L63 15L65 15L65 12ZM9 13L9 14L10 14L10 13ZM15 15L15 17L16 17L16 16L17 16L17 17L18 17L18 16L17 16L17 15ZM22 15L22 18L24 18L24 17L23 17L23 15ZM28 17L28 19L29 19L29 18L30 18L30 17ZM40 17L40 18L41 18L41 17ZM45 17L45 18L46 18L46 17ZM58 17L58 20L61 20L61 19L62 19L62 18L61 18L61 19L59 19L59 18L60 18L60 17ZM15 18L15 20L16 20L16 18ZM36 18L36 19L35 19L35 20L34 20L34 21L33 21L33 22L32 22L32 24L33 24L33 25L34 25L34 26L32 26L32 25L31 25L31 27L30 27L30 28L27 28L27 29L26 29L26 30L27 30L27 29L30 29L30 30L31 30L31 29L32 29L32 27L33 27L33 28L34 28L34 29L33 29L33 30L35 30L35 31L36 31L36 30L37 30L37 29L36 29L36 30L35 30L35 27L36 27L36 26L37 26L37 27L38 27L38 25L39 25L39 23L38 23L38 22L36 22L36 19L38 19L38 18ZM6 19L6 20L4 20L4 21L5 21L5 22L7 22L7 23L5 23L5 24L7 24L7 23L8 23L8 22L7 22L7 21L6 21L6 20L7 20L7 19ZM44 19L44 22L43 22L43 20L42 20L42 23L41 23L41 24L42 24L42 23L44 23L44 22L45 22L45 21L46 21L46 20L47 20L47 19L46 19L46 20L45 20L45 19ZM37 20L37 21L38 21L38 20ZM25 21L25 22L26 22L26 21ZM2 22L2 23L4 23L4 22ZM13 22L13 24L14 24L14 25L16 25L16 26L18 26L18 28L22 28L22 29L17 29L17 30L16 30L16 31L15 31L15 32L17 32L17 33L16 33L16 34L15 34L15 35L16 35L16 34L17 34L17 35L18 35L18 34L20 34L20 35L19 35L19 36L18 36L18 37L16 37L16 38L14 38L14 39L15 39L15 40L14 40L14 42L15 42L15 40L16 40L16 38L18 38L18 39L21 39L21 38L18 38L18 37L19 37L19 36L20 36L20 37L21 37L21 35L22 35L22 36L24 36L24 37L27 37L27 36L26 36L26 35L25 35L25 34L24 34L24 33L26 33L26 32L24 32L24 31L21 31L21 32L19 32L19 31L20 31L20 30L22 30L22 29L24 29L24 30L25 30L25 29L24 29L24 28L22 28L22 27L19 27L19 26L20 26L20 25L26 25L26 24L23 24L23 23L22 23L22 24L21 24L21 23L20 23L20 22L18 22L18 23L17 23L17 25L16 25L16 24L15 24L15 23L14 23L14 22ZM34 22L34 23L33 23L33 24L34 24L34 25L37 25L37 24L38 24L38 23L36 23L36 22ZM56 22L56 25L55 25L55 26L56 26L56 25L58 25L58 24L57 24L57 22ZM3 24L3 25L4 25L4 24ZM18 24L18 25L20 25L20 24ZM59 24L59 25L60 25L60 24ZM61 25L61 26L60 26L60 27L62 27L62 29L63 29L63 27L64 27L64 25L63 25L63 26L62 26L62 25ZM6 26L6 27L7 27L7 26ZM34 26L34 27L35 27L35 26ZM40 26L40 27L41 27L41 26ZM50 27L50 28L51 28L51 27ZM59 28L59 29L58 29L58 30L59 30L59 29L60 29L60 28ZM55 29L55 31L56 31L56 29ZM1 31L1 33L4 33L4 32L2 32L2 31ZM5 31L5 34L8 34L8 31ZM17 31L17 32L18 32L18 33L19 33L19 32L18 32L18 31ZM31 31L31 34L34 34L34 31ZM45 31L45 33L46 33L46 35L47 35L47 34L48 34L48 35L49 35L49 36L50 36L50 37L51 37L51 38L52 38L52 37L53 37L53 38L54 38L54 37L55 37L55 38L56 38L56 39L58 39L58 37L57 37L57 38L56 38L56 37L55 37L55 36L53 36L53 35L52 35L52 36L51 36L51 35L49 35L49 33L47 33L47 32L48 32L48 31L47 31L47 32L46 32L46 31ZM57 31L57 34L60 34L60 31ZM6 32L6 33L7 33L7 32ZM21 32L21 33L20 33L20 34L21 34L21 33L22 33L22 32ZM32 32L32 33L33 33L33 32ZM37 32L37 33L38 33L38 32ZM58 32L58 33L59 33L59 32ZM23 34L23 35L24 35L24 34ZM63 34L63 35L62 35L62 36L61 36L61 35L60 35L60 36L59 36L59 35L56 35L56 36L59 36L59 37L61 37L61 38L60 38L60 41L63 41L63 39L64 39L64 38L62 38L62 37L63 37L63 35L64 35L64 34ZM43 35L43 39L42 39L42 41L43 41L43 43L42 43L42 44L41 44L41 43L38 43L38 40L37 40L37 44L38 44L38 45L39 45L39 46L40 46L40 45L41 45L41 46L42 46L42 45L43 45L43 44L44 44L44 35ZM30 37L30 38L31 38L31 37ZM26 38L26 40L28 40L28 39L27 39L27 38ZM61 38L61 40L62 40L62 38ZM1 39L1 40L2 40L2 39ZM20 41L20 42L19 42L19 43L20 43L20 42L21 42L21 41ZM32 41L32 42L30 42L30 43L32 43L32 42L33 42L33 41ZM8 43L8 44L9 44L9 43ZM46 43L46 44L47 44L47 43ZM49 43L49 46L48 46L48 47L49 47L49 48L51 48L51 50L53 50L53 51L52 51L52 52L51 52L51 51L50 51L50 50L49 50L49 51L50 51L50 52L49 52L49 53L50 53L50 52L51 52L51 53L52 53L52 54L51 54L51 55L49 55L49 54L47 54L47 53L45 53L45 54L44 54L44 55L42 55L42 56L43 56L43 59L45 59L45 61L46 61L46 63L47 63L47 61L48 61L48 59L49 59L49 58L50 58L50 57L51 57L51 59L50 59L50 60L52 60L52 61L54 61L54 60L55 60L55 61L56 61L56 60L55 60L55 59L56 59L56 57L55 57L55 55L57 55L57 54L56 54L56 53L55 53L55 51L56 51L56 52L57 52L57 51L58 51L58 54L59 54L59 55L58 55L58 56L60 56L60 54L59 54L59 52L60 52L60 53L61 53L61 51L62 51L62 50L59 50L59 51L58 51L58 50L57 50L57 48L56 48L56 50L55 50L55 51L54 51L54 49L55 49L55 47L54 47L54 46L53 46L53 47L49 47L49 46L50 46L50 44L51 44L51 43ZM16 44L16 45L15 45L15 47L16 47L16 46L17 46L17 44ZM39 44L39 45L40 45L40 44ZM13 45L13 47L12 47L12 48L11 48L11 49L12 49L12 50L14 50L14 52L15 52L15 53L16 53L16 54L17 54L17 55L18 55L18 56L20 56L20 57L21 57L21 54L20 54L20 53L22 53L22 54L24 54L24 53L25 53L25 51L24 51L24 50L23 50L23 51L24 51L24 52L22 52L22 51L21 51L21 50L22 50L22 49L23 49L23 48L22 48L22 47L21 47L21 46L20 46L20 47L19 47L19 45L18 45L18 47L19 47L19 48L20 48L20 49L18 49L18 48L17 48L17 49L16 49L16 51L17 51L17 53L16 53L16 52L15 52L15 49L14 49L14 45ZM28 46L28 47L27 47L27 48L26 48L26 49L27 49L27 50L28 50L28 49L29 49L29 48L30 48L30 49L31 49L31 48L34 48L34 47L33 47L33 46L32 46L32 47L29 47L29 46ZM64 46L64 48L65 48L65 46ZM44 47L44 50L46 50L46 49L47 49L47 48L45 48L45 47ZM53 47L53 48L54 48L54 47ZM12 48L12 49L13 49L13 48ZM21 48L21 49L20 49L20 50L21 50L21 49L22 49L22 48ZM42 48L42 51L41 51L41 50L39 50L39 51L38 51L38 52L39 52L39 53L40 53L40 52L39 52L39 51L41 51L41 52L42 52L42 51L43 51L43 48ZM60 48L60 49L61 49L61 48ZM64 49L64 52L65 52L65 49ZM6 50L6 51L7 51L7 50ZM17 50L17 51L18 51L18 50ZM56 50L56 51L57 51L57 50ZM19 51L19 52L18 52L18 53L17 53L17 54L18 54L18 55L20 55L20 54L19 54L19 53L20 53L20 52L21 52L21 51ZM53 51L53 52L54 52L54 51ZM0 53L0 54L2 54L2 55L3 55L3 56L1 56L1 55L0 55L0 56L1 56L1 57L3 57L3 56L4 56L4 57L5 57L5 56L4 56L4 53ZM53 53L53 54L52 54L52 55L53 55L53 57L54 57L54 59L55 59L55 57L54 57L54 54L55 54L55 53ZM61 54L61 55L62 55L62 56L61 56L61 59L62 59L62 60L61 60L61 61L63 61L63 60L64 60L64 58L62 58L62 56L63 56L63 55L64 55L64 54L63 54L63 55L62 55L62 54ZM40 55L40 57L39 57L39 59L40 59L40 58L41 58L41 55ZM44 55L44 58L45 58L45 59L46 59L46 56L45 56L45 55ZM47 55L47 57L48 57L48 58L49 58L49 55ZM28 57L28 58L27 58L27 59L30 59L30 57ZM31 57L31 60L34 60L34 57ZM57 57L57 60L60 60L60 57ZM12 58L12 59L14 59L14 58ZM17 58L17 59L19 59L19 58ZM32 58L32 59L33 59L33 58ZM52 58L52 60L53 60L53 58ZM58 58L58 59L59 59L59 58ZM27 60L27 61L29 61L29 62L32 62L32 64L33 64L33 63L34 63L34 62L36 62L36 63L35 63L35 64L36 64L36 63L37 63L37 61L29 61L29 60ZM46 60L46 61L47 61L47 60ZM49 61L49 62L48 62L48 63L49 63L49 62L50 62L50 61ZM44 62L44 63L45 63L45 62ZM9 63L9 64L10 64L10 63ZM18 63L18 64L19 64L19 63ZM0 0L0 7L7 7L7 0ZM1 1L1 6L6 6L6 1ZM2 2L2 5L5 5L5 2ZM58 0L58 7L65 7L65 0ZM59 1L59 6L64 6L64 1ZM60 2L60 5L63 5L63 2ZM0 58L0 65L7 65L7 58ZM1 59L1 64L6 64L6 59ZM2 60L2 63L5 63L5 60Z" fill="#000000"/></g></g></svg>
