<?xml version="1.0" encoding="UTF-8"?>
<svg xmlns="http://www.w3.org/2000/svg" version="1.1" width="300" height="300" viewBox="0 0 300 300"><rect x="0" y="0" width="300" height="300" fill="#ffffff"/><g transform="scale(4.615)"><g transform="translate(0,0)"><path fill-rule="evenodd" d="M8 0L8 4L10 4L10 7L11 7L11 6L12 6L12 7L13 7L13 8L10 8L10 13L9 13L9 11L8 11L8 9L7 9L7 8L4 8L4 9L7 9L7 10L6 10L6 11L5 11L5 10L3 10L3 12L4 12L4 13L8 13L8 14L6 14L6 15L8 15L8 16L6 16L6 17L4 17L4 15L3 15L3 14L1 14L1 15L0 15L0 16L1 16L1 17L2 17L2 18L3 18L3 17L4 17L4 18L6 18L6 19L5 19L5 20L4 20L4 21L3 21L3 22L2 22L2 21L1 21L1 20L2 20L2 19L1 19L1 18L0 18L0 21L1 21L1 22L0 22L0 23L1 23L1 24L0 24L0 26L1 26L1 24L5 24L5 23L7 23L7 24L6 24L6 25L7 25L7 24L10 24L10 26L11 26L11 25L12 25L12 28L11 28L11 27L10 27L10 28L11 28L11 29L10 29L10 30L8 30L8 29L7 29L7 28L9 28L9 27L7 27L7 26L5 26L5 27L7 27L7 28L4 28L4 26L3 26L3 25L2 25L2 27L3 27L3 29L4 29L4 32L3 32L3 31L2 31L2 33L1 33L1 34L2 34L2 35L0 35L0 39L1 39L1 40L0 40L0 41L1 41L1 40L3 40L3 41L4 41L4 42L6 42L6 43L8 43L8 45L7 45L7 44L6 44L6 45L5 45L5 43L4 43L4 45L2 45L2 43L3 43L3 42L1 42L1 43L0 43L0 44L1 44L1 45L0 45L0 47L2 47L2 48L3 48L3 47L4 47L4 45L5 45L5 47L7 47L7 46L8 46L8 47L10 47L10 46L8 46L8 45L9 45L9 44L10 44L10 42L11 42L11 41L13 41L13 42L12 42L12 43L14 43L14 44L15 44L15 43L14 43L14 42L16 42L16 44L17 44L17 45L15 45L15 47L16 47L16 46L17 46L17 48L16 48L16 49L15 49L15 48L13 48L13 47L12 47L12 48L11 48L11 49L10 49L10 48L8 48L8 49L10 49L10 51L9 51L9 52L11 52L11 53L10 53L10 54L8 54L8 55L7 55L7 54L5 54L5 55L7 55L7 56L6 56L6 57L7 57L7 56L8 56L8 55L10 55L10 57L8 57L8 58L9 58L9 59L8 59L8 61L9 61L9 63L8 63L8 65L10 65L10 64L9 64L9 63L10 63L10 62L11 62L11 63L12 63L12 62L13 62L13 63L14 63L14 64L13 64L13 65L14 65L14 64L15 64L15 65L19 65L19 64L17 64L17 63L18 63L18 61L19 61L19 63L20 63L20 62L21 62L21 63L22 63L22 64L21 64L21 65L22 65L22 64L24 64L24 63L23 63L23 61L24 61L24 62L25 62L25 63L26 63L26 61L28 61L28 60L29 60L29 61L31 61L31 62L28 62L28 63L27 63L27 64L25 64L25 65L27 65L27 64L28 64L28 65L29 65L29 63L30 63L30 65L31 65L31 63L32 63L32 61L33 61L33 63L34 63L34 62L35 62L35 64L36 64L36 65L37 65L37 64L38 64L38 65L39 65L39 60L40 60L40 59L41 59L41 58L42 58L42 60L41 60L41 62L42 62L42 63L41 63L41 64L42 64L42 65L45 65L45 63L46 63L46 60L47 60L47 59L46 59L46 58L45 58L45 59L43 59L43 58L44 58L44 57L45 57L45 54L44 54L44 53L45 53L45 51L46 51L46 53L47 53L47 52L48 52L48 53L49 53L49 54L47 54L47 55L48 55L48 56L47 56L47 58L49 58L49 56L50 56L50 59L51 59L51 56L52 56L52 55L53 55L53 56L54 56L54 54L55 54L55 57L54 57L54 58L53 58L53 59L52 59L52 60L51 60L51 61L50 61L50 60L49 60L49 59L48 59L48 61L47 61L47 63L48 63L48 64L47 64L47 65L50 65L50 64L49 64L49 63L51 63L51 62L53 62L53 64L54 64L54 65L57 65L57 63L58 63L58 65L62 65L62 64L60 64L60 63L59 63L59 62L58 62L58 61L61 61L61 63L63 63L63 65L64 65L64 64L65 64L65 62L63 62L63 61L61 61L61 58L62 58L62 59L63 59L63 58L64 58L64 59L65 59L65 57L61 57L61 56L62 56L62 55L63 55L63 54L64 54L64 55L65 55L65 53L64 53L64 52L65 52L65 49L64 49L64 51L63 51L63 49L60 49L60 50L58 50L58 47L60 47L60 48L61 48L61 47L60 47L60 46L62 46L62 47L63 47L63 46L62 46L62 44L61 44L61 45L60 45L60 46L58 46L58 45L59 45L59 44L58 44L58 43L59 43L59 42L61 42L61 43L63 43L63 45L64 45L64 44L65 44L65 41L64 41L64 40L65 40L65 33L64 33L64 31L65 31L65 28L63 28L63 29L61 29L61 28L62 28L62 26L63 26L63 25L62 25L62 26L61 26L61 27L60 27L60 26L59 26L59 27L60 27L60 28L58 28L58 29L56 29L56 28L53 28L53 29L54 29L54 30L52 30L52 31L51 31L51 28L52 28L52 27L53 27L53 25L54 25L54 27L55 27L55 26L56 26L56 27L58 27L58 25L61 25L61 24L62 24L62 22L64 22L64 24L65 24L65 21L64 21L64 20L65 20L65 16L64 16L64 17L62 17L62 16L61 16L61 15L62 15L62 13L61 13L61 12L62 12L62 11L60 11L60 10L61 10L61 9L62 9L62 10L63 10L63 9L64 9L64 12L63 12L63 13L64 13L64 14L63 14L63 15L65 15L65 8L61 8L61 9L60 9L60 8L59 8L59 9L60 9L60 10L59 10L59 12L57 12L57 10L58 10L58 9L56 9L56 8L55 8L55 9L54 9L54 8L53 8L53 9L54 9L54 11L55 11L55 10L56 10L56 12L57 12L57 13L56 13L56 15L55 15L55 12L54 12L54 13L53 13L53 16L54 16L54 15L55 15L55 16L57 16L57 15L58 15L58 13L60 13L60 14L59 14L59 16L58 16L58 17L54 17L54 19L53 19L53 20L54 20L54 19L55 19L55 20L56 20L56 19L58 19L58 20L57 20L57 21L56 21L56 22L55 22L55 21L54 21L54 23L55 23L55 24L56 24L56 22L57 22L57 24L58 24L58 25L54 25L54 24L53 24L53 25L52 25L52 24L50 24L50 23L51 23L51 21L52 21L52 19L51 19L51 16L49 16L49 15L51 15L51 14L52 14L52 13L51 13L51 12L50 12L50 11L51 11L51 10L52 10L52 11L53 11L53 10L52 10L52 8L51 8L51 9L50 9L50 10L49 10L49 5L52 5L52 4L53 4L53 5L54 5L54 7L55 7L55 5L54 5L54 4L56 4L56 5L57 5L57 4L56 4L56 3L57 3L57 1L56 1L56 0L55 0L55 1L56 1L56 3L55 3L55 2L53 2L53 3L52 3L52 4L51 4L51 3L50 3L50 4L47 4L47 3L49 3L49 1L51 1L51 0L48 0L48 1L46 1L46 0L44 0L44 1L43 1L43 0L42 0L42 1L41 1L41 3L39 3L39 4L38 4L38 5L37 5L37 4L36 4L36 3L37 3L37 2L38 2L38 1L39 1L39 0L35 0L35 1L36 1L36 2L34 2L34 1L33 1L33 0L32 0L32 1L31 1L31 0L29 0L29 1L28 1L28 0L27 0L27 1L26 1L26 0L23 0L23 2L22 2L22 3L20 3L20 2L21 2L21 0L19 0L19 1L18 1L18 2L19 2L19 4L18 4L18 3L16 3L16 2L17 2L17 0L16 0L16 2L14 2L14 1L15 1L15 0L13 0L13 2L12 2L12 0ZM53 0L53 1L54 1L54 0ZM24 1L24 3L23 3L23 4L22 4L22 5L23 5L23 8L22 8L22 6L21 6L21 7L20 7L20 4L19 4L19 7L18 7L18 6L17 6L17 7L18 7L18 8L17 8L17 9L15 9L15 7L16 7L16 6L15 6L15 5L14 5L14 3L12 3L12 4L11 4L11 2L9 2L9 3L10 3L10 4L11 4L11 5L12 5L12 6L13 6L13 7L14 7L14 9L13 9L13 11L12 11L12 9L11 9L11 11L12 11L12 15L14 15L14 13L13 13L13 12L15 12L15 11L16 11L16 12L19 12L19 11L20 11L20 12L22 12L22 13L17 13L17 14L18 14L18 15L20 15L20 14L22 14L22 15L21 15L21 16L19 16L19 17L18 17L18 16L17 16L17 15L16 15L16 14L15 14L15 15L16 15L16 17L15 17L15 16L14 16L14 17L13 17L13 16L12 16L12 17L11 17L11 14L10 14L10 16L9 16L9 17L8 17L8 19L6 19L6 20L7 20L7 21L6 21L6 22L8 22L8 23L9 23L9 21L10 21L10 20L11 20L11 19L12 19L12 21L11 21L11 22L15 22L15 21L17 21L17 22L16 22L16 23L14 23L14 24L12 24L12 25L13 25L13 28L14 28L14 30L13 30L13 31L16 31L16 30L17 30L17 31L18 31L18 32L17 32L17 33L16 33L16 32L15 32L15 33L14 33L14 32L13 32L13 33L14 33L14 34L15 34L15 35L13 35L13 36L12 36L12 37L11 37L11 38L10 38L10 41L11 41L11 40L13 40L13 41L15 41L15 40L17 40L17 41L16 41L16 42L17 42L17 44L19 44L19 43L20 43L20 44L21 44L21 45L17 45L17 46L18 46L18 47L20 47L20 46L21 46L21 47L23 47L23 48L22 48L22 49L21 49L21 48L20 48L20 49L21 49L21 51L19 51L19 52L18 52L18 53L17 53L17 52L16 52L16 50L17 50L17 51L18 51L18 50L19 50L19 49L18 49L18 50L17 50L17 49L16 49L16 50L14 50L14 49L12 49L12 50L11 50L11 52L12 52L12 53L11 53L11 54L12 54L12 53L15 53L15 52L16 52L16 54L18 54L18 55L21 55L21 54L22 54L22 56L20 56L20 57L16 57L16 58L14 58L14 57L15 57L15 56L16 56L16 55L14 55L14 54L13 54L13 57L12 57L12 58L13 58L13 60L12 60L12 59L11 59L11 58L10 58L10 61L11 61L11 62L12 62L12 61L13 61L13 62L14 62L14 61L15 61L15 63L16 63L16 62L17 62L17 60L16 60L16 61L15 61L15 60L14 60L14 59L18 59L18 58L19 58L19 61L20 61L20 60L21 60L21 62L22 62L22 61L23 61L23 59L22 59L22 60L21 60L21 59L20 59L20 57L21 57L21 58L22 58L22 57L23 57L23 53L28 53L28 54L26 54L26 56L25 56L25 55L24 55L24 56L25 56L25 59L24 59L24 60L26 60L26 58L27 58L27 57L28 57L28 59L30 59L30 58L29 58L29 57L28 57L28 56L33 56L33 55L34 55L34 56L35 56L35 55L34 55L34 54L36 54L36 55L38 55L38 54L36 54L36 50L38 50L38 48L37 48L37 46L36 46L36 45L33 45L33 46L32 46L32 47L31 47L31 48L30 48L30 46L31 46L31 45L32 45L32 44L34 44L34 43L33 43L33 42L32 42L32 41L34 41L34 42L35 42L35 43L36 43L36 42L37 42L37 43L38 43L38 44L37 44L37 45L38 45L38 44L40 44L40 45L39 45L39 46L40 46L40 45L42 45L42 44L44 44L44 42L45 42L45 41L44 41L44 42L43 42L43 43L38 43L38 42L37 42L37 41L36 41L36 42L35 42L35 39L34 39L34 38L36 38L36 39L37 39L37 38L36 38L36 35L37 35L37 36L38 36L38 37L39 37L39 35L40 35L40 38L42 38L42 37L41 37L41 35L42 35L42 36L43 36L43 37L44 37L44 34L45 34L45 33L46 33L46 35L47 35L47 36L48 36L48 35L49 35L49 36L50 36L50 37L51 37L51 36L52 36L52 37L53 37L53 38L54 38L54 37L55 37L55 39L52 39L52 41L51 41L51 40L49 40L49 37L45 37L45 38L44 38L44 39L43 39L43 40L44 40L44 39L46 39L46 47L47 47L47 48L46 48L46 51L47 51L47 48L48 48L48 47L50 47L50 46L48 46L48 47L47 47L47 45L48 45L48 43L49 43L49 45L51 45L51 46L52 46L52 45L53 45L53 46L54 46L54 45L55 45L55 43L56 43L56 46L55 46L55 47L54 47L54 48L53 48L53 47L51 47L51 50L53 50L53 51L50 51L50 50L49 50L49 49L48 49L48 51L50 51L50 52L49 52L49 53L50 53L50 52L52 52L52 53L51 53L51 54L52 54L52 53L55 53L55 54L56 54L56 55L57 55L57 56L59 56L59 55L57 55L57 54L58 54L58 53L61 53L61 54L60 54L60 56L61 56L61 54L63 54L63 51L62 51L62 50L61 50L61 51L62 51L62 53L61 53L61 52L59 52L59 51L58 51L58 50L56 50L56 52L57 52L57 54L56 54L56 53L55 53L55 51L54 51L54 48L55 48L55 47L58 47L58 46L57 46L57 45L58 45L58 44L57 44L57 43L58 43L58 41L57 41L57 42L56 42L56 41L55 41L55 39L57 39L57 38L56 38L56 37L55 37L55 36L53 36L53 35L54 35L54 33L53 33L53 32L55 32L55 33L56 33L56 31L52 31L52 32L51 32L51 31L49 31L49 30L50 30L50 28L51 28L51 27L50 27L50 25L48 25L48 26L47 26L47 24L46 24L46 27L45 27L45 25L44 25L44 23L47 23L47 22L48 22L48 23L49 23L49 22L48 22L48 21L47 21L47 20L46 20L46 19L47 19L47 18L48 18L48 19L49 19L49 20L51 20L51 19L50 19L50 18L49 18L49 17L46 17L46 18L45 18L45 17L44 17L44 18L43 18L43 19L42 19L42 17L41 17L41 16L43 16L43 15L44 15L44 14L45 14L45 13L46 13L46 15L45 15L45 16L48 16L48 15L49 15L49 14L50 14L50 13L48 13L48 11L49 11L49 10L47 10L47 7L48 7L48 6L47 6L47 7L46 7L46 6L45 6L45 8L46 8L46 11L45 11L45 9L44 9L44 6L43 6L43 7L42 7L42 5L40 5L40 4L39 4L39 5L38 5L38 6L37 6L37 5L36 5L36 4L35 4L35 5L36 5L36 6L35 6L35 7L36 7L36 6L37 6L37 9L36 9L36 8L35 8L35 9L34 9L34 10L32 10L32 9L31 9L31 11L30 11L30 14L31 14L31 18L32 18L32 15L33 15L33 14L34 14L34 15L35 15L35 14L36 14L36 17L34 17L34 16L33 16L33 17L34 17L34 19L33 19L33 21L32 21L32 19L30 19L30 20L29 20L29 21L28 21L28 20L26 20L26 19L24 19L24 20L23 20L23 18L22 18L22 17L23 17L23 16L24 16L24 15L23 15L23 14L22 14L22 13L24 13L24 14L25 14L25 13L26 13L26 15L25 15L25 18L27 18L27 17L28 17L28 19L29 19L29 18L30 18L30 15L29 15L29 14L28 14L28 15L27 15L27 13L29 13L29 12L27 12L27 13L26 13L26 12L25 12L25 10L23 10L23 11L24 11L24 12L22 12L22 9L26 9L26 10L27 10L27 11L29 11L29 10L30 10L30 6L29 6L29 5L30 5L30 4L34 4L34 3L33 3L33 2L32 2L32 3L31 3L31 1L30 1L30 2L26 2L26 3L25 3L25 1ZM42 1L42 3L41 3L41 4L44 4L44 5L47 5L47 4L46 4L46 3L44 3L44 2L43 2L43 1ZM45 1L45 2L46 2L46 1ZM24 3L24 4L23 4L23 5L25 5L25 3ZM27 3L27 4L26 4L26 7L27 7L27 8L26 8L26 9L27 9L27 10L28 10L28 9L29 9L29 8L28 8L28 7L29 7L29 6L28 6L28 7L27 7L27 5L28 5L28 3ZM12 4L12 5L13 5L13 6L14 6L14 7L15 7L15 6L14 6L14 5L13 5L13 4ZM8 5L8 7L9 7L9 5ZM31 5L31 8L34 8L34 5ZM24 6L24 8L25 8L25 6ZM32 6L32 7L33 7L33 6ZM38 6L38 7L39 7L39 8L38 8L38 12L37 12L37 11L36 11L36 10L34 10L34 11L35 11L35 13L37 13L37 15L40 15L40 12L39 12L39 10L40 10L40 7L41 7L41 10L42 10L42 14L41 14L41 15L43 15L43 12L44 12L44 13L45 13L45 12L44 12L44 11L43 11L43 8L42 8L42 7L41 7L41 6L40 6L40 7L39 7L39 6ZM50 6L50 7L51 7L51 6ZM52 6L52 7L53 7L53 6ZM56 6L56 7L57 7L57 6ZM0 8L0 9L1 9L1 10L0 10L0 12L1 12L1 13L2 13L2 8ZM18 8L18 9L20 9L20 10L21 10L21 9L22 9L22 8L21 8L21 9L20 9L20 8ZM14 9L14 10L15 10L15 9ZM16 10L16 11L19 11L19 10ZM4 11L4 12L5 12L5 11ZM6 11L6 12L8 12L8 11ZM32 11L32 12L31 12L31 13L33 13L33 11ZM24 12L24 13L25 13L25 12ZM38 12L38 13L39 13L39 12ZM46 12L46 13L47 13L47 15L48 15L48 13L47 13L47 12ZM8 14L8 15L9 15L9 14ZM60 14L60 15L61 15L61 14ZM1 15L1 16L2 16L2 17L3 17L3 16L2 16L2 15ZM22 15L22 16L21 16L21 17L19 17L19 18L18 18L18 19L17 19L17 18L15 18L15 19L14 19L14 18L12 18L12 19L14 19L14 20L13 20L13 21L15 21L15 19L17 19L17 21L18 21L18 22L17 22L17 24L15 24L15 25L14 25L14 26L15 26L15 27L14 27L14 28L15 28L15 29L16 29L16 28L15 28L15 27L16 27L16 25L17 25L17 24L18 24L18 25L20 25L20 26L21 26L21 27L22 27L22 28L20 28L20 27L19 27L19 26L18 26L18 27L19 27L19 28L17 28L17 29L19 29L19 30L18 30L18 31L20 31L20 30L21 30L21 29L22 29L22 30L23 30L23 29L24 29L24 30L25 30L25 32L26 32L26 33L24 33L24 34L23 34L23 33L22 33L22 32L24 32L24 31L21 31L21 33L19 33L19 32L18 32L18 33L19 33L19 34L21 34L21 35L22 35L22 36L25 36L25 37L23 37L23 38L22 38L22 37L20 37L20 39L21 39L21 40L22 40L22 39L23 39L23 38L25 38L25 39L24 39L24 40L26 40L26 41L20 41L20 40L18 40L18 39L19 39L19 36L18 36L18 37L17 37L17 35L18 35L18 34L16 34L16 33L15 33L15 34L16 34L16 35L15 35L15 37L14 37L14 36L13 36L13 37L14 37L14 38L16 38L16 37L17 37L17 38L18 38L18 39L17 39L17 40L18 40L18 41L20 41L20 42L24 42L24 45L22 45L22 46L23 46L23 47L24 47L24 48L23 48L23 49L22 49L22 50L23 50L23 52L22 52L22 51L21 51L21 53L20 53L20 52L19 52L19 53L18 53L18 54L21 54L21 53L23 53L23 52L24 52L24 51L26 51L26 52L28 52L28 53L29 53L29 51L31 51L31 52L32 52L32 50L33 50L33 49L32 49L32 48L31 48L31 49L30 49L30 48L27 48L27 47L28 47L28 46L29 46L29 45L31 45L31 44L32 44L32 42L31 42L31 41L30 41L30 42L29 42L29 43L26 43L26 44L25 44L25 42L26 42L26 41L27 41L27 42L28 42L28 41L29 41L29 40L30 40L30 39L29 39L29 38L28 38L28 37L30 37L30 38L31 38L31 39L32 39L32 40L33 40L33 39L32 39L32 38L34 38L34 37L35 37L35 36L34 36L34 37L32 37L32 36L33 36L33 35L36 35L36 34L37 34L37 35L38 35L38 34L39 34L39 29L40 29L40 28L38 28L38 29L37 29L37 23L36 23L36 22L38 22L38 27L39 27L39 26L40 26L40 27L41 27L41 28L42 28L42 27L43 27L43 26L44 26L44 25L40 25L40 23L39 23L39 20L40 20L40 19L41 19L41 18L39 18L39 17L38 17L38 16L37 16L37 17L38 17L38 18L36 18L36 19L35 19L35 20L34 20L34 21L33 21L33 23L35 23L35 24L33 24L33 26L32 26L32 25L31 25L31 26L28 26L28 25L30 25L30 24L29 24L29 23L32 23L32 21L31 21L31 22L30 22L30 21L29 21L29 22L28 22L28 21L23 21L23 20L22 20L22 19L21 19L21 17L22 17L22 16L23 16L23 15ZM26 16L26 17L27 17L27 16ZM28 16L28 17L29 17L29 16ZM6 17L6 18L7 18L7 17ZM52 17L52 18L53 18L53 17ZM58 17L58 19L59 19L59 20L58 20L58 23L59 23L59 24L60 24L60 23L61 23L61 22L62 22L62 21L63 21L63 19L64 19L64 18L63 18L63 19L62 19L62 18L61 18L61 17L60 17L60 18L59 18L59 17ZM9 18L9 19L10 19L10 18ZM19 18L19 20L18 20L18 21L19 21L19 22L18 22L18 23L19 23L19 24L20 24L20 25L21 25L21 26L22 26L22 25L26 25L26 27L25 27L25 28L28 28L28 29L26 29L26 32L27 32L27 31L28 31L28 30L30 30L30 29L29 29L29 28L31 28L31 30L32 30L32 28L31 28L31 27L29 27L29 28L28 28L28 26L27 26L27 25L26 25L26 24L25 24L25 22L23 22L23 21L21 21L21 19L20 19L20 18ZM60 18L60 19L61 19L61 20L59 20L59 21L62 21L62 19L61 19L61 18ZM38 19L38 20L37 20L37 21L38 21L38 20L39 20L39 19ZM44 19L44 20L43 20L43 21L41 21L41 24L42 24L42 22L43 22L43 23L44 23L44 22L45 22L45 21L46 21L46 20L45 20L45 19ZM19 20L19 21L20 21L20 22L21 22L21 21L20 21L20 20ZM35 20L35 22L36 22L36 20ZM4 21L4 22L3 22L3 23L5 23L5 21ZM43 21L43 22L44 22L44 21ZM22 22L22 24L24 24L24 23L23 23L23 22ZM52 22L52 23L53 23L53 22ZM59 22L59 23L60 23L60 22ZM27 23L27 24L28 24L28 23ZM35 24L35 25L34 25L34 27L35 27L35 28L36 28L36 26L35 26L35 25L36 25L36 24ZM64 25L64 27L65 27L65 25ZM48 26L48 29L49 29L49 28L50 28L50 27L49 27L49 26ZM0 27L0 31L1 31L1 30L2 30L2 29L1 29L1 27ZM23 27L23 28L22 28L22 29L23 29L23 28L24 28L24 27ZM46 27L46 28L47 28L47 27ZM19 28L19 29L20 29L20 28ZM33 28L33 29L34 29L34 30L35 30L35 29L34 29L34 28ZM44 28L44 30L43 30L43 29L41 29L41 30L40 30L40 31L41 31L41 32L42 32L42 35L43 35L43 34L44 34L44 33L45 33L45 31L46 31L46 32L47 32L47 34L50 34L50 35L53 35L53 34L51 34L51 33L50 33L50 32L49 32L49 31L48 31L48 30L47 30L47 31L46 31L46 29L45 29L45 28ZM5 29L5 30L7 30L7 29ZM55 29L55 30L56 30L56 29ZM58 29L58 30L61 30L61 34L63 34L63 35L62 35L62 36L61 36L61 35L60 35L60 36L59 36L59 35L56 35L56 36L58 36L58 38L59 38L59 37L63 37L63 39L62 39L62 38L60 38L60 39L62 39L62 40L60 40L60 41L62 41L62 40L63 40L63 39L64 39L64 34L63 34L63 31L64 31L64 30L63 30L63 31L62 31L62 30L61 30L61 29ZM11 30L11 31L10 31L10 32L9 32L9 33L11 33L11 35L12 35L12 33L11 33L11 32L12 32L12 30ZM36 30L36 31L35 31L35 33L36 33L36 32L37 32L37 34L38 34L38 32L37 32L37 30ZM41 30L41 31L42 31L42 32L44 32L44 31L42 31L42 30ZM5 31L5 34L8 34L8 31ZM29 31L29 33L28 33L28 34L30 34L30 31ZM31 31L31 34L34 34L34 31ZM57 31L57 34L60 34L60 31ZM6 32L6 33L7 33L7 32ZM32 32L32 33L33 33L33 32ZM58 32L58 33L59 33L59 32ZM21 33L21 34L22 34L22 33ZM26 33L26 34L25 34L25 35L26 35L26 36L27 36L27 33ZM40 33L40 34L41 34L41 33ZM9 34L9 35L6 35L6 36L5 36L5 38L7 38L7 39L4 39L4 37L3 37L3 36L4 36L4 35L3 35L3 36L1 36L1 37L2 37L2 39L4 39L4 40L5 40L5 41L6 41L6 42L7 42L7 41L8 41L8 38L7 38L7 37L6 37L6 36L9 36L9 37L10 37L10 36L9 36L9 35L10 35L10 34ZM25 37L25 38L26 38L26 37ZM31 37L31 38L32 38L32 37ZM12 38L12 39L13 39L13 38ZM27 38L27 39L26 39L26 40L28 40L28 38ZM47 38L47 39L48 39L48 38ZM40 39L40 41L39 41L39 42L41 42L41 41L42 41L42 39ZM58 39L58 40L59 40L59 39ZM6 40L6 41L7 41L7 40ZM47 40L47 41L49 41L49 40ZM53 40L53 41L52 41L52 42L51 42L51 41L50 41L50 43L51 43L51 45L52 45L52 44L54 44L54 43L55 43L55 41L54 41L54 40ZM53 41L53 42L54 42L54 41ZM63 41L63 43L64 43L64 41ZM47 42L47 43L48 43L48 42ZM21 43L21 44L23 44L23 43ZM29 43L29 44L27 44L27 45L24 45L24 46L25 46L25 47L27 47L27 45L29 45L29 44L30 44L30 43ZM11 44L11 46L14 46L14 45L12 45L12 44ZM6 45L6 46L7 46L7 45ZM43 45L43 47L42 47L42 48L41 48L41 47L40 47L40 48L39 48L39 50L41 50L41 51L40 51L40 53L39 53L39 52L38 52L38 51L37 51L37 52L38 52L38 53L39 53L39 55L40 55L40 54L42 54L42 53L44 53L44 52L43 52L43 51L45 51L45 49L44 49L44 50L43 50L43 51L42 51L42 48L43 48L43 47L45 47L45 45ZM2 46L2 47L3 47L3 46ZM34 46L34 47L33 47L33 48L34 48L34 47L35 47L35 49L36 49L36 46ZM64 46L64 48L65 48L65 46ZM4 48L4 50L3 50L3 49L0 49L0 50L2 50L2 51L0 51L0 53L1 53L1 54L2 54L2 55L3 55L3 56L1 56L1 55L0 55L0 56L1 56L1 57L3 57L3 56L4 56L4 57L5 57L5 56L4 56L4 54L3 54L3 52L4 52L4 50L5 50L5 49L7 49L7 48ZM24 48L24 49L23 49L23 50L24 50L24 49L25 49L25 50L27 50L27 49L26 49L26 48ZM56 48L56 49L57 49L57 48ZM28 49L28 51L29 51L29 49ZM31 49L31 50L32 50L32 49ZM6 50L6 51L5 51L5 52L6 52L6 53L7 53L7 52L8 52L8 51L7 51L7 50ZM12 50L12 52L14 52L14 51L13 51L13 50ZM34 50L34 51L33 51L33 53L32 53L32 54L31 54L31 53L30 53L30 54L31 54L31 55L32 55L32 54L33 54L33 53L34 53L34 51L35 51L35 50ZM2 51L2 52L1 52L1 53L2 53L2 52L3 52L3 51ZM6 51L6 52L7 52L7 51ZM41 51L41 52L42 52L42 51ZM53 51L53 52L54 52L54 51ZM57 51L57 52L58 52L58 51ZM28 54L28 55L29 55L29 54ZM11 55L11 56L12 56L12 55ZM41 55L41 56L40 56L40 57L41 57L41 56L42 56L42 57L43 57L43 56L42 56L42 55ZM26 56L26 57L27 57L27 56ZM38 56L38 57L36 57L36 59L35 59L35 60L36 60L36 59L37 59L37 60L39 60L39 59L38 59L38 57L39 57L39 56ZM31 57L31 60L34 60L34 57ZM55 57L55 59L56 59L56 57ZM57 57L57 60L60 60L60 57ZM32 58L32 59L33 59L33 58ZM58 58L58 59L59 59L59 58ZM45 59L45 60L46 60L46 59ZM53 59L53 60L52 60L52 61L53 61L53 62L54 62L54 59ZM42 60L42 61L43 61L43 60ZM55 60L55 61L56 61L56 63L57 63L57 61L56 61L56 60ZM35 61L35 62L36 62L36 64L37 64L37 61ZM44 62L44 63L42 63L42 64L44 64L44 63L45 63L45 62ZM48 62L48 63L49 63L49 62ZM54 63L54 64L55 64L55 63ZM0 0L0 7L7 7L7 0ZM1 1L1 6L6 6L6 1ZM2 2L2 5L5 5L5 2ZM58 0L58 7L65 7L65 0ZM59 1L59 6L64 6L64 1ZM60 2L60 5L63 5L63 2ZM0 58L0 65L7 65L7 58ZM1 59L1 64L6 64L6 59ZM2 60L2 63L5 63L5 60Z" fill="#000000"/></g></g></svg>
