<?xml version="1.0" encoding="UTF-8"?>
<svg xmlns="http://www.w3.org/2000/svg" version="1.1" width="300" height="300" viewBox="0 0 300 300"><rect x="0" y="0" width="300" height="300" fill="#ffffff"/><g transform="scale(5.263)"><g transform="translate(0,0)"><path fill-rule="evenodd" d="M9 0L9 1L8 1L8 2L9 2L9 1L11 1L11 2L10 2L10 3L11 3L11 5L10 5L10 7L9 7L9 5L8 5L8 7L9 7L9 8L6 8L6 9L7 9L7 10L6 10L6 11L8 11L8 9L9 9L9 10L10 10L10 9L11 9L11 10L12 10L12 7L13 7L13 5L14 5L14 8L16 8L16 9L14 9L14 10L13 10L13 11L12 11L12 12L10 12L10 11L9 11L9 12L8 12L8 13L7 13L7 12L4 12L4 13L3 13L3 11L4 11L4 10L5 10L5 8L0 8L0 9L1 9L1 15L0 15L0 17L1 17L1 18L2 18L2 19L0 19L0 20L2 20L2 21L0 21L0 25L2 25L2 26L4 26L4 31L3 31L3 27L1 27L1 26L0 26L0 29L2 29L2 30L1 30L1 31L3 31L3 32L4 32L4 31L10 31L10 30L11 30L11 32L10 32L10 33L9 33L9 32L5 32L5 33L3 33L3 34L2 34L2 35L1 35L1 36L2 36L2 35L3 35L3 34L4 34L4 35L5 35L5 33L8 33L8 34L6 34L6 35L7 35L7 36L3 36L3 37L7 37L7 38L5 38L5 39L7 39L7 38L8 38L8 39L9 39L9 40L11 40L11 41L12 41L12 42L10 42L10 41L9 41L9 42L10 42L10 45L9 45L9 47L11 47L11 46L12 46L12 47L13 47L13 49L14 49L14 46L15 46L15 47L16 47L16 46L15 46L15 45L17 45L17 46L18 46L18 47L19 47L19 48L18 48L18 49L19 49L19 50L18 50L18 51L17 51L17 50L16 50L16 49L17 49L17 48L15 48L15 52L14 52L14 51L11 51L11 50L12 50L12 49L11 49L11 48L8 48L8 47L7 47L7 46L8 46L8 45L7 45L7 44L5 44L5 45L4 45L4 43L8 43L8 42L4 42L4 43L2 43L2 40L1 40L1 39L0 39L0 44L1 44L1 43L2 43L2 47L1 47L1 45L0 45L0 48L5 48L5 47L7 47L7 48L6 48L6 49L8 49L8 51L9 51L9 52L8 52L8 57L9 57L9 55L10 55L10 54L11 54L11 57L13 57L13 55L14 55L14 53L16 53L16 54L15 54L15 55L16 55L16 56L14 56L14 57L22 57L22 56L24 56L24 55L22 55L22 54L24 54L24 53L26 53L26 54L25 54L25 57L26 57L26 54L27 54L27 56L28 56L28 57L29 57L29 56L30 56L30 57L35 57L35 54L36 54L36 55L37 55L37 54L38 54L38 55L40 55L40 56L39 56L39 57L40 57L40 56L41 56L41 57L44 57L44 56L45 56L45 57L46 57L46 56L45 56L45 55L44 55L44 56L43 56L43 55L42 55L42 54L43 54L43 53L42 53L42 52L41 52L41 51L42 51L42 50L43 50L43 52L47 52L47 54L46 54L46 55L49 55L49 56L48 56L48 57L52 57L52 56L53 56L53 57L54 57L54 56L55 56L55 57L56 57L56 56L55 56L55 55L54 55L54 56L53 56L53 55L51 55L51 54L54 54L54 53L53 53L53 52L55 52L55 53L56 53L56 50L57 50L57 49L54 49L54 48L57 48L57 47L55 47L55 45L56 45L56 46L57 46L57 45L56 45L56 43L54 43L54 41L53 41L53 40L52 40L52 37L53 37L53 36L57 36L57 35L56 35L56 34L57 34L57 33L54 33L54 35L53 35L53 36L52 36L52 37L51 37L51 35L52 35L52 34L51 34L51 35L50 35L50 32L51 32L51 33L53 33L53 32L55 32L55 30L57 30L57 29L55 29L55 30L54 30L54 29L53 29L53 28L55 28L55 27L53 27L53 25L54 25L54 26L57 26L57 24L56 24L56 22L57 22L57 21L56 21L56 20L55 20L55 19L56 19L56 18L57 18L57 15L56 15L56 18L55 18L55 17L54 17L54 18L55 18L55 19L52 19L52 16L55 16L55 15L54 15L54 13L53 13L53 15L51 15L51 14L50 14L50 12L51 12L51 10L52 10L52 12L53 12L53 11L54 11L54 12L55 12L55 11L54 11L54 10L53 10L53 9L54 9L54 8L53 8L53 9L52 9L52 8L51 8L51 10L50 10L50 8L49 8L49 6L48 6L48 8L49 8L49 9L48 9L48 10L50 10L50 12L49 12L49 13L47 13L47 12L46 12L46 11L47 11L47 10L46 10L46 11L42 11L42 12L43 12L43 13L41 13L41 14L42 14L42 16L43 16L43 17L42 17L42 18L43 18L43 19L42 19L42 20L43 20L43 21L42 21L42 22L41 22L41 21L40 21L40 20L41 20L41 19L40 19L40 20L39 20L39 18L40 18L40 17L39 17L39 18L38 18L38 19L37 19L37 20L36 20L36 18L37 18L37 16L41 16L41 15L40 15L40 13L39 13L39 14L36 14L36 15L37 15L37 16L35 16L35 14L34 14L34 13L35 13L35 12L36 12L36 13L38 13L38 12L36 12L36 10L37 10L37 8L36 8L36 7L37 7L37 5L38 5L38 7L39 7L39 5L38 5L38 4L40 4L40 3L41 3L41 4L42 4L42 5L43 5L43 6L42 6L42 7L43 7L43 8L45 8L45 9L44 9L44 10L45 10L45 9L47 9L47 8L46 8L46 7L47 7L47 5L48 5L48 0L46 0L46 1L45 1L45 0L44 0L44 1L45 1L45 4L44 4L44 2L42 2L42 3L41 3L41 2L40 2L40 1L38 1L38 0L36 0L36 1L34 1L34 0L33 0L33 5L32 5L32 7L31 7L31 4L32 4L32 0L29 0L29 1L28 1L28 0L27 0L27 1L26 1L26 2L27 2L27 1L28 1L28 3L29 3L29 4L26 4L26 3L25 3L25 0L21 0L21 3L23 3L23 4L19 4L19 3L20 3L20 0L19 0L19 1L18 1L18 0L17 0L17 1L16 1L16 2L15 2L15 3L16 3L16 2L17 2L17 1L18 1L18 2L19 2L19 3L18 3L18 4L19 4L19 5L18 5L18 7L19 7L19 8L16 8L16 7L17 7L17 6L16 6L16 7L15 7L15 5L16 5L16 4L14 4L14 1L15 1L15 0ZM42 0L42 1L43 1L43 0ZM22 1L22 2L23 2L23 3L24 3L24 1ZM29 1L29 3L30 3L30 4L31 4L31 3L30 3L30 2L31 2L31 1ZM36 1L36 3L35 3L35 4L34 4L34 5L36 5L36 3L37 3L37 4L38 4L38 3L40 3L40 2L38 2L38 1ZM46 1L46 2L47 2L47 1ZM8 3L8 4L9 4L9 3ZM12 3L12 5L11 5L11 7L12 7L12 5L13 5L13 3ZM42 3L42 4L43 4L43 3ZM46 3L46 4L45 4L45 5L47 5L47 3ZM23 4L23 5L24 5L24 4ZM25 4L25 8L24 8L24 6L23 6L23 7L22 7L22 6L21 6L21 9L20 9L20 8L19 8L19 9L18 9L18 10L17 10L17 9L16 9L16 10L17 10L17 11L16 11L16 12L15 12L15 13L13 13L13 12L14 12L14 11L13 11L13 12L12 12L12 13L10 13L10 16L9 16L9 15L8 15L8 14L7 14L7 13L6 13L6 14L5 14L5 13L4 13L4 14L3 14L3 13L2 13L2 15L1 15L1 16L2 16L2 15L3 15L3 16L5 16L5 17L3 17L3 19L2 19L2 20L3 20L3 21L5 21L5 22L4 22L4 23L3 23L3 24L5 24L5 26L7 26L7 25L6 25L6 24L9 24L9 23L10 23L10 22L11 22L11 24L10 24L10 25L8 25L8 26L9 26L9 27L10 27L10 26L11 26L11 28L9 28L9 30L10 30L10 29L11 29L11 30L12 30L12 31L13 31L13 32L14 32L14 31L16 31L16 32L17 32L17 31L18 31L18 29L20 29L20 31L19 31L19 33L18 33L18 34L17 34L17 33L16 33L16 35L14 35L14 36L13 36L13 37L12 37L12 36L10 36L10 34L8 34L8 35L9 35L9 36L7 36L7 37L9 37L9 36L10 36L10 38L15 38L15 39L16 39L16 40L19 40L19 39L20 39L20 38L19 38L19 37L23 37L23 38L24 38L24 37L23 37L23 36L25 36L25 38L26 38L26 37L28 37L28 38L27 38L27 39L28 39L28 40L31 40L31 41L32 41L32 42L31 42L31 44L32 44L32 45L30 45L30 44L29 44L29 42L30 42L30 41L28 41L28 43L27 43L27 42L26 42L26 41L27 41L27 40L26 40L26 39L25 39L25 40L24 40L24 39L21 39L21 40L22 40L22 41L25 41L25 44L24 44L24 43L23 43L23 45L22 45L22 44L21 44L21 45L20 45L20 42L21 42L21 43L22 43L22 42L21 42L21 41L14 41L14 39L13 39L13 40L12 40L12 39L11 39L11 40L12 40L12 41L13 41L13 43L14 43L14 45L15 45L15 43L16 43L16 44L17 44L17 45L18 45L18 44L17 44L17 43L18 43L18 42L19 42L19 45L20 45L20 48L19 48L19 49L20 49L20 50L21 50L21 51L22 51L22 50L23 50L23 52L20 52L20 53L18 53L18 54L17 54L17 55L19 55L19 56L21 56L21 54L22 54L22 53L24 53L24 51L25 51L25 52L26 52L26 51L25 51L25 50L24 50L24 49L25 49L25 48L24 48L24 49L23 49L23 47L24 47L24 45L25 45L25 46L26 46L26 48L28 48L28 46L29 46L29 47L30 47L30 48L31 48L31 47L30 47L30 46L33 46L33 44L35 44L35 43L36 43L36 44L37 44L37 45L36 45L36 46L35 46L35 45L34 45L34 46L35 46L35 47L34 47L34 49L33 49L33 48L32 48L32 50L31 50L31 51L32 51L32 54L35 54L35 53L36 53L36 54L37 54L37 53L36 53L36 52L37 52L37 51L38 51L38 54L39 54L39 52L40 52L40 53L41 53L41 52L40 52L40 51L41 51L41 49L43 49L43 50L48 50L48 48L50 48L50 47L51 47L51 46L53 46L53 44L52 44L52 43L51 43L51 42L53 42L53 41L51 41L51 42L50 42L50 43L49 43L49 44L47 44L47 43L48 43L48 42L49 42L49 41L48 41L48 40L50 40L50 39L51 39L51 37L49 37L49 36L50 36L50 35L49 35L49 32L50 32L50 31L48 31L48 28L47 28L47 27L48 27L48 25L49 25L49 24L50 24L50 26L52 26L52 25L53 25L53 24L54 24L54 25L55 25L55 24L54 24L54 21L55 21L55 20L54 20L54 21L53 21L53 20L51 20L51 19L50 19L50 18L51 18L51 17L50 17L50 16L51 16L51 15L50 15L50 14L49 14L49 15L48 15L48 16L47 16L47 15L46 15L46 16L47 16L47 17L45 17L45 16L44 16L44 19L43 19L43 20L44 20L44 21L43 21L43 22L42 22L42 23L41 23L41 22L40 22L40 23L39 23L39 24L40 24L40 27L37 27L37 26L39 26L39 25L38 25L38 24L37 24L37 26L36 26L36 27L35 27L35 26L34 26L34 25L33 25L33 26L34 26L34 28L35 28L35 29L34 29L34 30L33 30L33 28L32 28L32 27L31 27L31 28L32 28L32 29L31 29L31 30L33 30L33 31L34 31L34 32L37 32L37 34L39 34L39 35L38 35L38 36L37 36L37 35L36 35L36 36L35 36L35 35L34 35L34 34L35 34L35 33L33 33L33 32L32 32L32 31L30 31L30 32L29 32L29 33L28 33L28 31L26 31L26 32L24 32L24 31L25 31L25 30L24 30L24 29L26 29L26 26L30 26L30 23L31 23L31 24L34 24L34 23L35 23L35 21L36 21L36 20L35 20L35 19L34 19L34 20L35 20L35 21L33 21L33 19L32 19L32 21L31 21L31 18L30 18L30 17L29 17L29 19L30 19L30 20L28 20L28 21L31 21L31 22L30 22L30 23L29 23L29 22L28 22L28 23L29 23L29 24L25 24L25 23L26 23L26 22L25 22L25 21L24 21L24 19L26 19L26 20L27 20L27 19L28 19L28 18L27 18L27 17L28 17L28 16L29 16L29 15L30 15L30 14L31 14L31 16L32 16L32 18L33 18L33 16L34 16L34 18L36 18L36 17L35 17L35 16L34 16L34 14L33 14L33 13L34 13L34 12L35 12L35 8L34 8L34 6L33 6L33 7L32 7L32 8L31 8L31 9L32 9L32 10L30 10L30 9L27 9L27 10L26 10L26 9L25 9L25 8L26 8L26 4ZM19 5L19 7L20 7L20 5ZM27 5L27 8L30 8L30 5ZM28 6L28 7L29 7L29 6ZM35 6L35 7L36 7L36 6ZM40 6L40 8L39 8L39 10L38 10L38 11L40 11L40 12L41 12L41 11L40 11L40 8L41 8L41 6ZM43 6L43 7L44 7L44 6ZM45 6L45 7L46 7L46 6ZM55 8L55 10L57 10L57 9L56 9L56 8ZM2 9L2 11L3 11L3 9ZM22 9L22 11L19 11L19 10L18 10L18 11L17 11L17 12L16 12L16 13L17 13L17 15L19 15L19 16L15 16L15 15L16 15L16 14L15 14L15 15L14 15L14 16L15 16L15 17L13 17L13 15L12 15L12 16L11 16L11 17L9 17L9 19L10 19L10 18L11 18L11 19L12 19L12 18L15 18L15 21L16 21L16 22L15 22L15 23L16 23L16 24L15 24L15 26L16 26L16 25L17 25L17 27L18 27L18 25L19 25L19 23L20 23L20 22L18 22L18 24L17 24L17 21L16 21L16 19L18 19L18 21L20 21L20 20L21 20L21 19L18 19L18 18L15 18L15 17L19 17L19 18L20 18L20 17L21 17L21 15L22 15L22 13L23 13L23 12L25 12L25 13L24 13L24 14L26 14L26 13L27 13L27 14L28 14L28 13L27 13L27 12L26 12L26 10L25 10L25 9ZM33 9L33 11L31 11L31 14L32 14L32 12L34 12L34 9ZM42 9L42 10L43 10L43 9ZM23 10L23 11L24 11L24 10ZM28 11L28 12L30 12L30 11ZM17 12L17 13L18 13L18 12ZM19 12L19 15L21 15L21 13L22 13L22 12L21 12L21 13L20 13L20 12ZM44 12L44 14L47 14L47 13L45 13L45 12ZM12 13L12 14L13 14L13 13ZM29 13L29 14L30 14L30 13ZM56 13L56 14L57 14L57 13ZM4 14L4 15L5 15L5 14ZM6 14L6 15L7 15L7 16L6 16L6 17L7 17L7 16L8 16L8 15L7 15L7 14ZM25 15L25 16L26 16L26 17L27 17L27 16L28 16L28 15L27 15L27 16L26 16L26 15ZM32 15L32 16L33 16L33 15ZM19 16L19 17L20 17L20 16ZM23 16L23 17L22 17L22 19L23 19L23 18L25 18L25 17L24 17L24 16ZM11 17L11 18L12 18L12 17ZM47 17L47 18L45 18L45 19L46 19L46 20L45 20L45 21L44 21L44 22L45 22L45 23L44 23L44 24L45 24L45 25L46 25L46 24L45 24L45 23L47 23L47 25L48 25L48 24L49 24L49 23L50 23L50 21L51 21L51 22L52 22L52 21L51 21L51 20L50 20L50 21L48 21L48 22L46 22L46 20L49 20L49 17ZM4 18L4 19L3 19L3 20L5 20L5 21L7 21L7 22L5 22L5 24L6 24L6 23L9 23L9 22L10 22L10 21L9 21L9 22L8 22L8 19L7 19L7 18L6 18L6 19L7 19L7 20L5 20L5 18ZM26 18L26 19L27 19L27 18ZM13 19L13 20L11 20L11 21L13 21L13 22L12 22L12 24L11 24L11 26L13 26L13 28L12 28L12 30L13 30L13 29L14 29L14 26L13 26L13 25L12 25L12 24L14 24L14 23L13 23L13 22L14 22L14 21L13 21L13 20L14 20L14 19ZM21 21L21 22L24 22L24 21ZM32 21L32 22L31 22L31 23L32 23L32 22L33 22L33 21ZM38 21L38 22L37 22L37 23L38 23L38 22L39 22L39 21ZM21 23L21 24L20 24L20 25L21 25L21 24L22 24L22 23ZM23 23L23 25L22 25L22 26L19 26L19 27L22 27L22 26L25 26L25 25L24 25L24 23ZM40 23L40 24L41 24L41 23ZM42 23L42 24L43 24L43 23ZM51 23L51 24L53 24L53 23ZM31 25L31 26L32 26L32 25ZM42 25L42 26L41 26L41 27L40 27L40 28L42 28L42 30L43 30L43 31L44 31L44 32L42 32L42 31L40 31L40 30L41 30L41 29L39 29L39 30L37 30L37 29L38 29L38 28L36 28L36 30L34 30L34 31L40 31L40 32L42 32L42 34L43 34L43 35L44 35L44 36L45 36L45 37L44 37L44 40L43 40L43 37L41 37L41 39L40 39L40 36L41 36L41 33L40 33L40 36L39 36L39 38L38 38L38 37L37 37L37 36L36 36L36 37L35 37L35 36L34 36L34 35L33 35L33 34L32 34L32 32L30 32L30 33L29 33L29 34L25 34L25 33L24 33L24 34L25 34L25 35L27 35L27 36L28 36L28 35L29 35L29 36L30 36L30 37L31 37L31 38L30 38L30 39L31 39L31 40L32 40L32 39L31 39L31 38L32 38L32 36L31 36L31 34L32 34L32 35L33 35L33 36L34 36L34 37L35 37L35 38L36 38L36 39L35 39L35 41L37 41L37 40L36 40L36 39L40 39L40 40L39 40L39 42L36 42L36 43L39 43L39 44L38 44L38 45L40 45L40 46L36 46L36 47L35 47L35 49L37 49L37 50L38 50L38 51L39 51L39 50L40 50L40 49L39 49L39 48L41 48L41 47L42 47L42 48L43 48L43 49L44 49L44 48L48 48L48 47L47 47L47 46L46 46L46 45L47 45L47 44L46 44L46 43L47 43L47 42L46 42L46 43L44 43L44 44L42 44L42 42L44 42L44 40L45 40L45 39L46 39L46 41L47 41L47 40L48 40L48 39L49 39L49 37L47 37L47 36L48 36L48 35L47 35L47 34L45 34L45 35L44 35L44 32L45 32L45 31L44 31L44 28L45 28L45 27L47 27L47 26L43 26L43 25ZM42 26L42 27L43 27L43 28L44 28L44 27L43 27L43 26ZM5 27L5 30L8 30L8 27ZM23 27L23 29L24 29L24 27ZM27 27L27 30L30 30L30 27ZM49 27L49 30L52 30L52 27ZM6 28L6 29L7 29L7 28ZM16 28L16 29L18 29L18 28ZM20 28L20 29L22 29L22 28ZM28 28L28 29L29 29L29 28ZM50 28L50 29L51 29L51 28ZM21 30L21 32L20 32L20 33L19 33L19 34L18 34L18 35L19 35L19 36L17 36L17 35L16 35L16 36L17 36L17 38L18 38L18 39L19 39L19 38L18 38L18 37L19 37L19 36L21 36L21 35L22 35L22 34L23 34L23 33L21 33L21 32L23 32L23 31L22 31L22 30ZM46 30L46 32L48 32L48 31L47 31L47 30ZM51 31L51 32L52 32L52 31ZM56 31L56 32L57 32L57 31ZM11 32L11 33L12 33L12 32ZM38 32L38 33L39 33L39 32ZM0 33L0 34L1 34L1 33ZM13 33L13 34L14 34L14 33ZM20 33L20 34L19 34L19 35L21 35L21 33ZM11 34L11 35L12 35L12 34ZM29 34L29 35L30 35L30 34ZM46 35L46 36L47 36L47 35ZM0 37L0 38L1 38L1 37ZM15 37L15 38L16 38L16 37ZM45 37L45 38L47 38L47 39L48 39L48 38L47 38L47 37ZM54 37L54 40L55 40L55 39L57 39L57 37L56 37L56 38L55 38L55 37ZM33 38L33 40L34 40L34 38ZM3 39L3 41L5 41L5 40L4 40L4 39ZM41 39L41 40L40 40L40 43L41 43L41 42L42 42L42 41L41 41L41 40L42 40L42 39ZM6 40L6 41L8 41L8 40ZM33 41L33 42L34 42L34 41ZM55 41L55 42L57 42L57 41ZM14 42L14 43L15 43L15 42ZM16 42L16 43L17 43L17 42ZM11 43L11 45L12 45L12 46L13 46L13 44L12 44L12 43ZM26 43L26 46L27 46L27 45L29 45L29 44L27 44L27 43ZM32 43L32 44L33 44L33 43ZM50 43L50 44L49 44L49 47L50 47L50 45L51 45L51 43ZM40 44L40 45L41 45L41 46L42 46L42 47L43 47L43 48L44 48L44 47L45 47L45 44L44 44L44 45L43 45L43 46L42 46L42 45L41 45L41 44ZM54 44L54 45L55 45L55 44ZM3 45L3 47L5 47L5 46L7 46L7 45L5 45L5 46L4 46L4 45ZM21 45L21 47L22 47L22 45ZM43 46L43 47L44 47L44 46ZM36 47L36 48L37 48L37 49L38 49L38 50L39 50L39 49L38 49L38 47ZM52 47L52 48L53 48L53 47ZM20 48L20 49L21 49L21 48ZM9 49L9 51L10 51L10 53L9 53L9 54L10 54L10 53L11 53L11 51L10 51L10 49ZM27 49L27 52L30 52L30 49ZM49 49L49 52L52 52L52 49ZM28 50L28 51L29 51L29 50ZM33 50L33 52L36 52L36 50ZM50 50L50 51L51 51L51 50ZM16 51L16 53L17 53L17 51ZM18 51L18 52L19 52L19 51ZM12 52L12 53L13 53L13 52ZM30 53L30 54L28 54L28 56L29 56L29 55L30 55L30 56L34 56L34 55L31 55L31 53ZM44 53L44 54L45 54L45 53ZM48 53L48 54L49 54L49 55L50 55L50 56L51 56L51 55L50 55L50 54L49 54L49 53ZM19 54L19 55L20 55L20 54ZM40 54L40 55L41 55L41 54ZM36 56L36 57L37 57L37 56ZM0 0L0 7L7 7L7 0ZM1 1L1 6L6 6L6 1ZM2 2L2 5L5 5L5 2ZM50 0L50 7L57 7L57 0ZM51 1L51 6L56 6L56 1ZM52 2L52 5L55 5L55 2ZM0 50L0 57L7 57L7 50ZM1 51L1 56L6 56L6 51ZM2 52L2 55L5 55L5 52Z" fill="#000000"/></g></g></svg>
