<?xml version="1.0" encoding="UTF-8"?>
<svg xmlns="http://www.w3.org/2000/svg" version="1.1" width="300" height="300" viewBox="0 0 300 300"><rect x="0" y="0" width="300" height="300" fill="#ffffff"/><g transform="scale(5.263)"><g transform="translate(0,0)"><path fill-rule="evenodd" d="M8 0L8 4L9 4L9 5L8 5L8 7L9 7L9 9L8 9L8 10L5 10L5 9L7 9L7 8L4 8L4 10L3 10L3 9L2 9L2 8L0 8L0 9L2 9L2 10L0 10L0 12L3 12L3 13L2 13L2 14L1 14L1 15L2 15L2 16L0 16L0 17L3 17L3 18L2 18L2 19L1 19L1 18L0 18L0 19L1 19L1 21L0 21L0 22L1 22L1 24L0 24L0 25L1 25L1 26L2 26L2 25L1 25L1 24L3 24L3 23L4 23L4 28L3 28L3 27L1 27L1 28L0 28L0 29L1 29L1 31L0 31L0 32L1 32L1 31L3 31L3 32L2 32L2 33L1 33L1 34L0 34L0 36L1 36L1 37L0 37L0 39L1 39L1 38L4 38L4 39L3 39L3 40L2 40L2 42L1 42L1 40L0 40L0 42L1 42L1 43L2 43L2 44L1 44L1 45L0 45L0 48L5 48L5 47L7 47L7 48L6 48L6 49L8 49L8 50L11 50L11 51L8 51L8 53L9 53L9 54L10 54L10 57L15 57L15 55L16 55L16 54L17 54L17 55L20 55L20 54L21 54L21 56L22 56L22 55L24 55L24 56L26 56L26 57L29 57L29 55L30 55L30 57L31 57L31 55L34 55L34 49L33 49L33 48L35 48L35 49L38 49L38 51L37 51L37 50L36 50L36 53L35 53L35 56L34 56L34 57L35 57L35 56L36 56L36 57L39 57L39 56L37 56L37 55L36 55L36 53L37 53L37 52L38 52L38 55L41 55L41 54L42 54L42 55L43 55L43 54L44 54L44 53L45 53L45 54L46 54L46 46L45 46L45 44L46 44L46 45L47 45L47 43L48 43L48 42L47 42L47 43L44 43L44 45L43 45L43 40L42 40L42 39L41 39L41 38L44 38L44 42L46 42L46 41L47 41L47 40L45 40L45 39L46 39L46 37L47 37L47 39L48 39L48 41L49 41L49 39L48 39L48 38L51 38L51 39L50 39L50 40L52 40L52 41L51 41L51 43L50 43L50 42L49 42L49 43L50 43L50 44L51 44L51 45L50 45L50 46L47 46L47 47L48 47L48 52L47 52L47 54L48 54L48 53L52 53L52 55L51 55L51 54L50 54L50 55L46 55L46 56L48 56L48 57L49 57L49 56L50 56L50 55L51 55L51 56L52 56L52 55L53 55L53 57L54 57L54 55L55 55L55 54L57 54L57 52L56 52L56 50L55 50L55 49L57 49L57 47L55 47L55 49L54 49L54 48L53 48L53 47L52 47L52 44L51 44L51 43L52 43L52 41L53 41L53 42L54 42L54 43L55 43L55 44L56 44L56 45L54 45L54 44L53 44L53 46L56 46L56 45L57 45L57 44L56 44L56 43L55 43L55 42L54 42L54 41L53 41L53 40L54 40L54 38L55 38L55 39L57 39L57 38L56 38L56 37L57 37L57 35L56 35L56 34L55 34L55 33L57 33L57 31L56 31L56 32L55 32L55 33L54 33L54 34L52 34L52 33L53 33L53 32L52 32L52 33L51 33L51 31L53 31L53 30L54 30L54 29L53 29L53 27L55 27L55 25L54 25L54 22L55 22L55 24L56 24L56 22L55 22L55 21L54 21L54 20L53 20L53 21L54 21L54 22L52 22L52 23L51 23L51 24L50 24L50 26L49 26L49 25L48 25L48 24L47 24L47 23L46 23L46 22L45 22L45 23L44 23L44 24L43 24L43 25L42 25L42 27L44 27L44 30L43 30L43 28L42 28L42 30L41 30L41 29L40 29L40 28L38 28L38 29L37 29L37 27L41 27L41 26L39 26L39 25L38 25L38 24L39 24L39 23L41 23L41 24L42 24L42 23L43 23L43 22L44 22L44 21L45 21L45 20L44 20L44 21L42 21L42 23L41 23L41 21L40 21L40 22L39 22L39 21L38 21L38 23L37 23L37 24L34 24L34 25L33 25L33 26L32 26L32 25L31 25L31 24L30 24L30 23L33 23L33 22L34 22L34 23L35 23L35 22L37 22L37 20L39 20L39 17L40 17L40 15L41 15L41 16L42 16L42 14L43 14L43 16L44 16L44 18L43 18L43 17L42 17L42 18L40 18L40 19L41 19L41 20L42 20L42 19L44 19L44 18L45 18L45 19L46 19L46 17L47 17L47 18L50 18L50 19L51 19L51 21L50 21L50 20L49 20L49 21L48 21L48 22L49 22L49 23L50 23L50 22L51 22L51 21L52 21L52 19L56 19L56 16L57 16L57 15L56 15L56 16L55 16L55 17L54 17L54 18L51 18L51 17L50 17L50 16L49 16L49 15L48 15L48 16L49 16L49 17L47 17L47 15L46 15L46 13L47 13L47 14L49 14L49 13L47 13L47 12L49 12L49 9L48 9L48 10L47 10L47 11L43 11L43 10L44 10L44 9L45 9L45 10L46 10L46 9L47 9L47 8L48 8L48 7L49 7L49 6L48 6L48 7L47 7L47 5L48 5L48 0L45 0L45 1L44 1L44 0L42 0L42 1L43 1L43 3L42 3L42 2L41 2L41 3L38 3L38 5L37 5L37 4L36 4L36 3L37 3L37 2L38 2L38 1L40 1L40 0L38 0L38 1L37 1L37 0L36 0L36 1L34 1L34 2L33 2L33 0L32 0L32 2L33 2L33 4L32 4L32 3L30 3L30 2L29 2L29 1L31 1L31 0L29 0L29 1L27 1L27 0L22 0L22 1L24 1L24 2L23 2L23 3L22 3L22 2L21 2L21 0L20 0L20 2L19 2L19 1L18 1L18 0L17 0L17 1L16 1L16 0L15 0L15 1L14 1L14 2L13 2L13 0L10 0L10 1L9 1L9 0ZM10 1L10 2L9 2L9 4L10 4L10 5L9 5L9 7L10 7L10 8L12 8L12 5L14 5L14 6L13 6L13 8L14 8L14 6L15 6L15 7L16 7L16 6L17 6L17 7L18 7L18 5L20 5L20 6L19 6L19 7L20 7L20 6L21 6L21 8L20 8L20 9L21 9L21 8L22 8L22 9L26 9L26 12L25 12L25 10L24 10L24 11L23 11L23 10L19 10L19 9L18 9L18 11L17 11L17 9L14 9L14 10L16 10L16 11L17 11L17 13L16 13L16 14L17 14L17 15L21 15L21 16L20 16L20 17L16 17L16 15L15 15L15 14L13 14L13 15L12 15L12 16L14 16L14 15L15 15L15 17L13 17L13 19L14 19L14 20L15 20L15 21L17 21L17 22L16 22L16 23L15 23L15 22L14 22L14 21L11 21L11 20L10 20L10 19L9 19L9 18L10 18L10 17L11 17L11 19L12 19L12 17L11 17L11 16L10 16L10 17L9 17L9 18L7 18L7 17L6 17L6 16L7 16L7 15L6 15L6 16L5 16L5 17L4 17L4 15L5 15L5 13L3 13L3 14L2 14L2 15L3 15L3 17L4 17L4 19L2 19L2 21L1 21L1 22L5 22L5 26L8 26L8 25L9 25L9 27L10 27L10 29L11 29L11 33L12 33L12 32L13 32L13 33L14 33L14 34L17 34L17 33L16 33L16 32L14 32L14 31L16 31L16 30L18 30L18 31L17 31L17 32L20 32L20 33L18 33L18 35L21 35L21 36L22 36L22 37L18 37L18 39L20 39L20 38L22 38L22 39L21 39L21 40L19 40L19 41L16 41L16 40L15 40L15 39L16 39L16 38L17 38L17 35L14 35L14 36L16 36L16 37L15 37L15 39L13 39L13 37L12 37L12 36L13 36L13 34L12 34L12 35L11 35L11 34L10 34L10 33L9 33L9 32L10 32L10 31L6 31L6 32L8 32L8 33L5 33L5 32L3 32L3 33L2 33L2 34L1 34L1 35L2 35L2 36L3 36L3 37L4 37L4 38L5 38L5 39L6 39L6 40L7 40L7 41L6 41L6 42L7 42L7 41L8 41L8 40L10 40L10 41L9 41L9 42L8 42L8 43L5 43L5 42L2 42L2 43L4 43L4 44L2 44L2 46L1 46L1 47L2 47L2 46L3 46L3 47L5 47L5 46L7 46L7 47L8 47L8 49L10 49L10 47L11 47L11 46L10 46L10 45L9 45L9 46L8 46L8 45L5 45L5 44L11 44L11 45L12 45L12 47L13 47L13 46L14 46L14 48L11 48L11 49L12 49L12 50L13 50L13 51L11 51L11 52L9 52L9 53L11 53L11 52L12 52L12 53L13 53L13 54L11 54L11 56L13 56L13 54L14 54L14 55L15 55L15 54L14 54L14 53L17 53L17 52L18 52L18 51L19 51L19 50L20 50L20 49L21 49L21 48L22 48L22 50L21 50L21 51L22 51L22 53L24 53L24 54L25 54L25 53L26 53L26 56L27 56L27 54L28 54L28 53L26 53L26 51L24 51L24 52L23 52L23 50L24 50L24 49L25 49L25 50L26 50L26 48L30 48L30 47L31 47L31 45L32 45L32 43L34 43L34 44L33 44L33 46L34 46L34 47L35 47L35 48L36 48L36 47L37 47L37 48L38 48L38 49L39 49L39 51L38 51L38 52L39 52L39 54L40 54L40 53L41 53L41 51L42 51L42 50L41 50L41 49L44 49L44 47L45 47L45 46L44 46L44 47L42 47L42 45L41 45L41 44L42 44L42 41L41 41L41 39L37 39L37 38L38 38L38 37L37 37L37 38L36 38L36 39L35 39L35 40L34 40L34 41L33 41L33 42L32 42L32 41L31 41L31 42L30 42L30 41L28 41L28 40L27 40L27 41L26 41L26 42L22 42L22 41L25 41L25 40L26 40L26 39L25 39L25 38L24 38L24 37L23 37L23 36L22 36L22 35L21 35L21 34L22 34L22 33L23 33L23 34L24 34L24 33L25 33L25 31L24 31L24 32L23 32L23 31L22 31L22 33L21 33L21 30L20 30L20 29L22 29L22 30L24 30L24 29L25 29L25 30L26 30L26 29L25 29L25 28L26 28L26 26L25 26L25 28L24 28L24 27L23 27L23 28L22 28L22 27L19 27L19 28L18 28L18 29L16 29L16 30L13 30L13 31L12 31L12 27L13 27L13 26L12 26L12 27L11 27L11 26L10 26L10 25L11 25L11 24L10 24L10 23L6 23L6 22L8 22L8 20L10 20L10 21L9 21L9 22L12 22L12 25L13 25L13 24L14 24L14 23L15 23L15 26L14 26L14 28L13 28L13 29L14 29L14 28L16 28L16 26L17 26L17 27L18 27L18 26L19 26L19 25L18 25L18 26L17 26L17 25L16 25L16 24L17 24L17 22L18 22L18 24L20 24L20 25L21 25L21 23L22 23L22 21L24 21L24 22L25 22L25 23L26 23L26 22L28 22L28 21L31 21L31 22L33 22L33 21L34 21L34 22L35 22L35 21L36 21L36 17L35 17L35 14L36 14L36 15L37 15L37 13L38 13L38 12L40 12L40 13L39 13L39 14L41 14L41 13L43 13L43 14L44 14L44 12L43 12L43 11L42 11L42 12L41 12L41 11L38 11L38 10L37 10L37 13L36 13L36 10L35 10L35 8L36 8L36 6L35 6L35 7L34 7L34 5L36 5L36 4L35 4L35 3L36 3L36 2L37 2L37 1L36 1L36 2L34 2L34 4L33 4L33 5L32 5L32 6L31 6L31 7L32 7L32 8L34 8L34 9L33 9L33 10L32 10L32 9L31 9L31 11L33 11L33 10L35 10L35 13L33 13L33 14L32 14L32 12L30 12L30 11L28 11L28 10L30 10L30 9L28 9L28 10L27 10L27 9L26 9L26 6L25 6L25 7L24 7L24 6L23 6L23 7L24 7L24 8L22 8L22 3L21 3L21 2L20 2L20 3L18 3L18 4L16 4L16 3L15 3L15 2L14 2L14 4L12 4L12 3L13 3L13 2L11 2L11 1ZM17 1L17 2L18 2L18 1ZM26 1L26 2L24 2L24 3L23 3L23 5L24 5L24 4L25 4L25 3L26 3L26 4L28 4L28 3L29 3L29 4L30 4L30 3L29 3L29 2L27 2L27 1ZM45 1L45 2L44 2L44 4L43 4L43 5L42 5L42 3L41 3L41 4L40 4L40 6L39 6L39 5L38 5L38 6L37 6L37 8L39 8L39 10L42 10L42 9L43 9L43 8L41 8L41 7L42 7L42 6L43 6L43 7L44 7L44 6L45 6L45 7L46 7L46 5L47 5L47 3L46 3L46 5L45 5L45 2L47 2L47 1ZM10 3L10 4L11 4L11 5L12 5L12 4L11 4L11 3ZM15 5L15 6L16 6L16 5ZM27 5L27 8L30 8L30 5ZM10 6L10 7L11 7L11 6ZM28 6L28 7L29 7L29 6ZM32 6L32 7L33 7L33 6ZM38 6L38 7L39 7L39 6ZM40 6L40 7L41 7L41 6ZM45 8L45 9L46 9L46 8ZM51 8L51 9L50 9L50 15L51 15L51 16L52 16L52 15L53 15L53 14L54 14L54 15L55 15L55 14L56 14L56 13L57 13L57 12L55 12L55 14L54 14L54 13L53 13L53 14L52 14L52 12L51 12L51 9L52 9L52 10L53 10L53 9L57 9L57 8L53 8L53 9L52 9L52 8ZM10 9L10 10L8 10L8 11L6 11L6 12L7 12L7 13L6 13L6 14L8 14L8 16L9 16L9 14L12 14L12 13L15 13L15 12L14 12L14 11L13 11L13 12L12 12L12 13L10 13L10 12L9 12L9 11L10 11L10 10L11 10L11 9ZM12 9L12 10L13 10L13 9ZM2 10L2 11L3 11L3 12L4 12L4 11L3 11L3 10ZM54 10L54 11L53 11L53 12L54 12L54 11L55 11L55 10ZM19 11L19 12L18 12L18 13L17 13L17 14L21 14L21 15L22 15L22 16L21 16L21 17L20 17L20 18L23 18L23 19L22 19L22 20L21 20L21 19L19 19L19 18L18 18L18 19L16 19L16 17L15 17L15 20L18 20L18 21L19 21L19 23L20 23L20 22L21 22L21 21L22 21L22 20L24 20L24 21L25 21L25 20L26 20L26 19L27 19L27 20L28 20L28 19L27 19L27 17L28 17L28 18L29 18L29 19L30 19L30 20L31 20L31 19L33 19L33 20L32 20L32 21L33 21L33 20L34 20L34 21L35 21L35 19L34 19L34 18L33 18L33 15L32 15L32 18L31 18L31 16L30 16L30 18L29 18L29 15L30 15L30 13L29 13L29 14L28 14L28 15L27 15L27 17L26 17L26 15L25 15L25 13L24 13L24 14L21 14L21 13L23 13L23 12L22 12L22 11ZM20 12L20 13L21 13L21 12ZM27 12L27 13L26 13L26 14L27 14L27 13L28 13L28 12ZM45 12L45 13L46 13L46 12ZM8 13L8 14L9 14L9 13ZM51 14L51 15L52 15L52 14ZM22 16L22 17L23 17L23 16ZM24 16L24 17L25 17L25 16ZM45 16L45 17L46 17L46 16ZM5 18L5 20L3 20L3 21L7 21L7 20L8 20L8 19L7 19L7 18ZM25 18L25 19L24 19L24 20L25 20L25 19L26 19L26 18ZM37 18L37 19L38 19L38 18ZM6 19L6 20L7 20L7 19ZM18 19L18 20L19 20L19 21L20 21L20 20L19 20L19 19ZM56 20L56 21L57 21L57 20ZM49 21L49 22L50 22L50 21ZM13 22L13 23L14 23L14 22ZM29 22L29 23L28 23L28 26L30 26L30 24L29 24L29 23L30 23L30 22ZM23 23L23 24L22 24L22 25L23 25L23 24L24 24L24 25L25 25L25 24L24 24L24 23ZM45 23L45 25L46 25L46 27L45 27L45 28L46 28L46 30L44 30L44 31L43 31L43 34L44 34L44 35L43 35L43 36L41 36L41 34L42 34L42 31L37 31L37 30L36 30L36 28L35 28L35 29L33 29L33 31L37 31L37 32L38 32L38 33L39 33L39 32L40 32L40 33L41 33L41 34L39 34L39 35L38 35L38 36L39 36L39 38L41 38L41 37L43 37L43 36L44 36L44 35L45 35L45 34L44 34L44 31L45 31L45 32L46 32L46 35L47 35L47 37L51 37L51 38L54 38L54 37L55 37L55 34L54 34L54 35L53 35L53 37L51 37L51 36L52 36L52 35L51 35L51 34L50 34L50 31L49 31L49 32L48 32L48 31L47 31L47 30L48 30L48 27L47 27L47 26L48 26L48 25L47 25L47 24L46 24L46 23ZM52 23L52 25L53 25L53 26L54 26L54 25L53 25L53 23ZM6 24L6 25L7 25L7 24ZM35 26L35 27L36 27L36 26ZM5 27L5 30L8 30L8 27ZM27 27L27 30L30 30L30 27ZM31 27L31 29L32 29L32 27ZM46 27L46 28L47 28L47 27ZM49 27L49 30L52 30L52 27ZM1 28L1 29L2 29L2 30L3 30L3 31L4 31L4 30L3 30L3 28ZM6 28L6 29L7 29L7 28ZM19 28L19 29L18 29L18 30L19 30L19 31L20 31L20 30L19 30L19 29L20 29L20 28ZM23 28L23 29L24 29L24 28ZM28 28L28 29L29 29L29 28ZM50 28L50 29L51 29L51 28ZM55 28L55 29L57 29L57 28ZM39 29L39 30L40 30L40 29ZM26 31L26 32L29 32L29 33L28 33L28 35L29 35L29 36L28 36L28 37L26 37L26 38L27 38L27 39L28 39L28 38L30 38L30 39L32 39L32 40L33 40L33 39L32 39L32 38L31 38L31 37L32 37L32 36L33 36L33 35L35 35L35 37L34 37L34 38L35 38L35 37L36 37L36 35L37 35L37 34L35 34L35 33L34 33L34 32L33 32L33 33L34 33L34 34L33 34L33 35L32 35L32 31L31 31L31 34L30 34L30 35L29 35L29 33L30 33L30 31ZM4 33L4 34L5 34L5 35L3 35L3 34L2 34L2 35L3 35L3 36L4 36L4 37L9 37L9 35L8 35L8 36L6 36L6 35L7 35L7 34L5 34L5 33ZM20 33L20 34L21 34L21 33ZM47 34L47 35L48 35L48 36L49 36L49 35L50 35L50 36L51 36L51 35L50 35L50 34ZM25 35L25 36L27 36L27 35ZM30 36L30 37L31 37L31 36ZM45 36L45 37L44 37L44 38L45 38L45 37L46 37L46 36ZM22 37L22 38L23 38L23 37ZM6 38L6 39L7 39L7 38ZM8 38L8 39L9 39L9 38ZM11 39L11 44L12 44L12 43L13 43L13 44L14 44L14 45L15 45L15 47L16 47L16 49L17 49L17 48L18 48L18 49L20 49L20 46L21 46L21 47L22 47L22 48L23 48L23 49L24 49L24 48L23 48L23 47L24 47L24 46L25 46L25 48L26 48L26 44L27 44L27 43L28 43L28 45L27 45L27 46L28 46L28 45L29 45L29 42L27 42L27 43L26 43L26 44L25 44L25 45L24 45L24 46L21 46L21 45L23 45L23 44L24 44L24 43L23 43L23 44L22 44L22 43L21 43L21 41L19 41L19 42L20 42L20 44L18 44L18 45L17 45L17 43L18 43L18 42L17 42L17 43L15 43L15 42L16 42L16 41L15 41L15 40L14 40L14 41L12 41L12 39ZM22 39L22 40L24 40L24 39ZM36 39L36 40L35 40L35 41L37 41L37 43L36 43L36 42L34 42L34 43L36 43L36 44L35 44L35 47L36 47L36 45L37 45L37 47L38 47L38 48L39 48L39 49L40 49L40 46L41 46L41 45L38 45L38 44L37 44L37 43L39 43L39 44L40 44L40 43L41 43L41 42L39 42L39 40L37 40L37 39ZM3 40L3 41L5 41L5 40ZM55 40L55 41L57 41L57 40ZM13 42L13 43L14 43L14 44L15 44L15 45L16 45L16 46L17 46L17 45L16 45L16 44L15 44L15 43L14 43L14 42ZM20 44L20 45L19 45L19 46L18 46L18 47L19 47L19 46L20 46L20 45L21 45L21 44ZM30 44L30 45L31 45L31 44ZM3 45L3 46L5 46L5 45ZM9 46L9 47L10 47L10 46ZM29 46L29 47L30 47L30 46ZM50 46L50 47L49 47L49 48L50 48L50 47L51 47L51 46ZM41 47L41 48L42 48L42 47ZM14 48L14 49L13 49L13 50L15 50L15 52L17 52L17 51L18 51L18 50L17 50L17 51L16 51L16 50L15 50L15 48ZM31 48L31 53L30 53L30 54L32 54L32 52L33 52L33 50L32 50L32 48ZM27 49L27 52L30 52L30 49ZM49 49L49 52L52 52L52 49ZM28 50L28 51L29 51L29 50ZM40 50L40 51L41 51L41 50ZM50 50L50 51L51 51L51 50ZM53 50L53 53L54 53L54 54L55 54L55 53L56 53L56 52L55 52L55 50ZM13 51L13 52L14 52L14 51ZM19 52L19 53L18 53L18 54L19 54L19 53L20 53L20 52ZM24 52L24 53L25 53L25 52ZM42 52L42 53L43 53L43 52ZM8 55L8 57L9 57L9 55ZM44 55L44 57L45 57L45 55ZM16 56L16 57L19 57L19 56ZM41 56L41 57L43 57L43 56ZM56 56L56 57L57 57L57 56ZM0 0L0 7L7 7L7 0ZM1 1L1 6L6 6L6 1ZM2 2L2 5L5 5L5 2ZM50 0L50 7L57 7L57 0ZM51 1L51 6L56 6L56 1ZM52 2L52 5L55 5L55 2ZM0 50L0 57L7 57L7 50ZM1 51L1 56L6 56L6 51ZM2 52L2 55L5 55L5 52Z" fill="#000000"/></g></g></svg>
